<svg width="100" height="100" viewBox="0 0 100 100" fill="none" xmlns="http://www.w3.org/2000/svg">
<rect width="100" height="100" rx="50" fill="#1D2088" fill-opacity="0.1"/>
<path d="M34.25 61.25C34.25 62.4435 34.7241 63.5881 35.568 64.432C36.4119 65.2759 37.5565 65.75 38.75 65.75C39.9435 65.75 41.0881 65.2759 41.932 64.432C42.7759 63.5881 43.25 62.4435 43.25 61.25C43.25 60.0565 42.7759 58.9119 41.932 58.068C41.0881 57.2241 39.9435 56.75 38.75 56.75C37.5565 56.75 36.4119 57.2241 35.568 58.068C34.7241 58.9119 34.25 60.0565 34.25 61.25ZM56.75 61.25C56.75 62.4435 57.2241 63.5881 58.068 64.432C58.9119 65.2759 60.0565 65.75 61.25 65.75C62.4435 65.75 63.5881 65.2759 64.432 64.432C65.2759 63.5881 65.75 62.4435 65.75 61.25C65.75 60.0565 65.2759 58.9119 64.432 58.068C63.5881 57.2241 62.4435 56.75 61.25 56.75C60.0565 56.75 58.9119 57.2241 58.068 58.068C57.2241 58.9119 56.75 60.0565 56.75 61.25Z" stroke="#1D2088" stroke-width="4" stroke-linecap="round" stroke-linejoin="round"/>
<path d="M34.25 61.25H29.75V52.25M27.5 34.25H52.25V61.25M43.25 61.25H56.75M65.75 61.25H70.25V47.75M70.25 47.75H52.25M70.25 47.75L63.5 36.5H52.25M29.75 43.25H38.75" stroke="#1D2088" stroke-width="4" stroke-linecap="round" stroke-linejoin="round"/>
</svg>
