<svg width="100" height="100" viewBox="0 0 100 100" fill="none" xmlns="http://www.w3.org/2000/svg">
<rect width="100" height="100" rx="50" fill="#1D2088" fill-opacity="0.1"/>
<path d="M62.4615 23C57.8736 23 54.1538 26.7239 54.1538 31.3077C54.1538 36.8427 61.4231 44.4048 61.4231 52.0125H63.5C63.5021 44.4048 70.7692 37.0608 70.7692 31.3077C70.7692 26.7239 67.0494 23 62.4615 23ZM62.4615 27.0251C63.0242 27.0253 63.5813 27.1364 64.101 27.352C64.6208 27.5676 65.093 27.8834 65.4906 28.2815C65.8883 28.6796 66.2037 29.1521 66.4188 29.672C66.6339 30.192 66.7444 30.7492 66.7441 31.3118C66.7439 31.8745 66.6328 32.4316 66.4172 32.9514C66.2016 33.4711 65.8858 33.9433 65.4877 34.341C65.0896 34.7387 64.6172 35.054 64.0972 35.2691C63.5773 35.4842 63.02 35.5947 62.4574 35.5945C61.3207 35.5939 60.2308 35.1419 59.4275 34.3377C58.6242 33.5336 58.1732 32.4433 58.1737 31.3067C58.1743 30.17 58.6263 29.0801 59.4304 28.2768C60.2346 27.4735 61.3249 27.0245 62.4615 27.0251ZM50 27.1538C36.257 27.1538 25.0769 38.3339 25.0769 52.0769C25.0769 65.8199 36.257 77 50 77C63.743 77 74.9231 65.8199 74.9231 52.0769C74.9231 47.9023 73.8888 43.9852 72.0673 40.523C71.7911 41.0713 71.5128 41.5926 71.2241 42.1472C70.6778 43.2022 70.1025 44.2677 69.5999 45.3269C70.1191 46.8119 70.4764 48.3821 70.6384 50H67.9134C67.7639 50.6958 67.6538 51.35 67.6538 52.0125V54.1538H70.6404C70.3574 57.0817 69.4494 59.9146 67.9778 62.4615H61.88C62.3369 60.5134 62.6007 58.3596 62.7876 56.1664H58.6961C58.4999 58.2911 58.1318 60.3964 57.5953 62.4615H42.4047C41.7022 59.7435 41.2886 56.9588 41.171 54.1538H57.2671V52.0125C57.2508 51.3345 57.1637 50.66 57.0075 50H41.1731C41.2907 47.1951 41.7042 44.4104 42.4068 41.6923H53.5058C52.7848 40.3322 52.1129 38.9467 51.4912 37.5385H43.8336C45.5512 33.6193 47.8213 31.3077 50 31.3077C50 29.8642 50.2596 28.508 50.7144 27.2182C50.4756 27.2099 50.2409 27.1538 50 27.1538ZM41.4327 33.1894C40.6059 34.571 39.9106 36.027 39.3558 37.5385H35.2019C36.9937 35.7179 39.106 34.2436 41.4327 33.1894ZM32.0221 41.6923H38.12C37.4915 44.4206 37.1223 47.2022 37.0171 50H29.3595C29.6426 47.0722 30.5506 44.2392 32.0221 41.6923ZM29.3595 54.1538H37.0192C37.1418 57.1135 37.5239 59.9069 38.1221 62.4615H32.0221C30.5506 59.9146 29.6426 57.0817 29.3595 54.1538ZM35.2019 66.6154H39.3558C39.9539 68.2271 40.6538 69.6747 41.4327 70.9645C39.106 69.9103 36.9937 68.4359 35.2019 66.6154ZM43.8336 66.6154H56.1664C54.4488 70.5345 52.1787 72.8462 50 72.8462C47.8213 72.8462 45.5491 70.5345 43.8336 66.6154ZM60.6442 66.6154H64.7981C63.0063 68.4359 60.894 69.9103 58.5673 70.9645C59.3461 69.6768 60.0461 68.2292 60.6442 66.6154Z" fill="#1D2088"/>
</svg>
