<?xml version="1.0" encoding="UTF-8"?>
<svg version="1.1" xmlns="http://www.w3.org/2000/svg" width="376" height="478">
<path d="M0 0 C124.08 0 248.16 0 376 0 C376 157.74 376 315.48 376 478 C251.92 478 127.84 478 0 478 C0 320.26 0 162.52 0 0 Z " fill="#FEFEFE" transform="translate(0,0)"/>
<path d="M0 0 C4.70782816 1.15440997 7.72824422 4.18918172 11.0390625 7.5 C11.8640625 7.995 12.6890625 8.49 13.5390625 9 C17.36744865 11.29703169 18.7819578 12.68235253 20.14453125 17.015625 C20.51816012 18.59073387 20.87746296 20.16927359 21.2265625 21.75 C21.4330542 22.64984619 21.6395459 23.54969238 21.85229492 24.47680664 C24.56216275 36.49630311 26.96906472 48.58487712 29.42073059 60.65908813 C31.34180601 70.11975367 33.30915408 79.5693303 35.31411743 89.01254272 C39.55256093 108.97977027 43.6121768 128.98284786 47.65136719 148.99121094 C50.56177491 163.38452876 53.56414506 177.75477813 56.66455078 192.10839844 C60.13119396 208.17099624 63.4000282 224.27252508 66.61148071 240.38766479 C67.64882074 245.59198023 68.68770549 250.79598721 69.7265625 256 C69.94738495 257.10672058 70.1682074 258.21344116 70.39572144 259.35369873 C72.64039756 270.5987165 74.88884514 281.8425951 77.21875 293.0703125 C77.38222427 293.85867493 77.54569855 294.64703735 77.71412659 295.45928955 C78.46083622 299.05532542 79.21196583 302.65036617 79.96948242 306.24414062 C81.23826783 312.32179867 82.4087458 318.32133999 83.0390625 324.5 C79.75210017 325.29953138 78.32883058 325.59658936 75.0390625 324.5 C74.9771875 325.221875 74.9153125 325.94375 74.8515625 326.6875 C73.7836874 330.38399074 71.93086434 332.03138868 69.0390625 334.5 C68.3790625 334.5 67.7190625 334.5 67.0390625 334.5 C67.12607422 335.71236328 67.12607422 335.71236328 67.21484375 336.94921875 C67.25996094 338.01785156 67.30507813 339.08648437 67.3515625 340.1875 C67.40957031 341.24324219 67.46757812 342.29898437 67.52734375 343.38671875 C67.0231281 346.60159775 66.32269754 348.22691776 63.94108582 350.45327377 C59.46296657 352.91768356 53.84897534 352.18671999 48.8828125 352.14697266 C47.53058699 352.15375172 46.17837072 352.16265649 44.82617188 352.17352295 C41.16072899 352.19628944 37.49599087 352.1874916 33.83053589 352.17162752 C29.99182254 352.15895447 26.15316889 352.17071252 22.31445312 352.17855835 C15.86837955 352.18765088 9.42259255 352.17567764 2.9765625 352.15185547 C-4.47234818 352.12464464 -11.92057458 352.13345911 -19.36946869 352.1609875 C-25.76880494 352.18368909 -32.16793538 352.18687361 -38.56729889 352.17379415 C-42.38767206 352.16600529 -46.20772375 352.16494212 -50.02807617 352.18147659 C-53.62019831 352.19593777 -57.21143966 352.18587134 -60.8034668 352.15700531 C-62.74787185 352.14725749 -64.69235154 352.16208082 -66.63671875 352.17764282 C-76.14212911 352.06218982 -76.14212911 352.06218982 -79.26635742 349.15414429 C-81.40857801 345.79888088 -81.33106946 344.0909237 -80.7734375 340.1875 C-80.63550781 339.11886719 -80.49757813 338.05023438 -80.35546875 336.94921875 C-80.22527344 336.14097656 -80.09507813 335.33273437 -79.9609375 334.5 C-81.2809375 333.84 -82.6009375 333.18 -83.9609375 332.5 C-83.9609375 329.2 -83.9609375 325.9 -83.9609375 322.5 C-85.0334375 323.180625 -86.1059375 323.86125 -87.2109375 324.5625 C-90.4390625 326.61111779 -90.4390625 326.61111779 -93.08105469 326.04858398 C-94.01159668 325.77703491 -94.01159668 325.77703491 -94.9609375 325.5 C-93.72710668 315.87851006 -91.98681038 306.52150724 -89.8359375 297.0625 C-89.19381565 294.18970708 -88.55726843 291.31569409 -87.921875 288.44140625 C-87.67585541 287.33002792 -87.67585541 287.33002792 -87.42486572 286.19619751 C-85.68711063 278.31430563 -84.06877217 270.40923441 -82.4609375 262.5 C-78.63727137 243.72210541 -74.7406877 224.95963173 -70.83291626 206.19909668 C-70.34411876 203.85178812 -69.855708 201.50439944 -69.36743164 199.15698242 C-68.42826078 194.6422037 -67.4880325 190.12764625 -66.546875 185.61328125 C-66.39487389 184.88407093 -66.24287277 184.15486061 -66.08626556 183.40355301 C-64.49560035 175.77745789 -62.89354596 168.15409485 -61.25292969 160.53857422 C-60.98308258 159.28578171 -60.71323547 158.0329892 -60.43521118 156.74223328 C-59.93835775 154.44248805 -59.43966822 152.14313821 -58.93856812 149.84431458 C-57.05113382 141.12554675 -55.43193524 132.36772663 -53.84411621 123.59017944 C-52.45657953 115.98980314 -50.90462297 108.4408442 -49.25 100.89453125 C-47.03393942 90.67422646 -44.92594222 80.43761252 -42.89975739 70.17811203 C-42.45309449 67.91781437 -42.00453884 65.65790051 -41.55535889 63.39810181 C-39.7241509 54.18616726 -39.7241509 54.18616726 -37.91455078 44.9699707 C-37.16633378 41.13591291 -36.40591565 37.30445163 -35.63736343 33.47442055 C-35.35145194 32.03810795 -35.06994948 30.60090953 -34.79320908 29.16280174 C-31.73058254 13.26964504 -31.73058254 13.26964504 -26.9609375 8.5 C-25.48216148 8.44622633 -24.00283809 8.4073114 -22.5234375 8.375 C-17.93255593 8.00223611 -15.51566122 6.75530594 -11.8984375 3.9375 C-7.82400989 0.82891002 -5.14195031 -0.43606646 0 0 Z " fill="#0A080B" transform="translate(192.9609375,64.5)"/>
<path d="M0 0 C3.56185217 1.91284653 6.22910377 4.09715633 9 7 C9.99 7.66 10.98 8.32 12 9 C11.34 9 10.68 9 10 9 C10.26216309 10.28052246 10.52432617 11.56104492 10.79443359 12.88037109 C11.77496628 17.67003825 12.75520184 22.45976618 13.73535156 27.24951172 C14.15812313 29.3152833 14.58097329 31.3810388 15.00390625 33.44677734 C15.61479454 36.43062088 16.22539212 39.41452378 16.8359375 42.3984375 C17.02247894 43.30927094 17.20902039 44.22010437 17.4012146 45.15853882 C19.20269311 53.96559915 20.97684295 62.77539442 22.62109375 71.61328125 C22.91979439 73.20770618 23.21862664 74.80210646 23.51757812 76.39648438 C23.97728057 78.85091905 24.43619599 81.30548909 24.89282227 83.76049805 C26.54917089 92.6583493 28.25769546 101.51135982 30.40795898 110.30664062 C31.2604031 114.18464621 31.61162587 118.05152965 32 122 C32.33 122.66 32.66 123.32 33 124 C33.06996014 125.70702735 33.08440154 127.41668003 33.0625 129.125 C33.05347656 130.03507813 33.04445313 130.94515625 33.03515625 131.8828125 C33.02355469 132.58148438 33.01195312 133.28015625 33 134 C25.98113208 134.44252057 22.52345992 134.53206968 17 130 C13.63988168 129.59255258 10.36282998 129.62012476 7 130 C6.67 130.33 6.34 130.66 6 131 C4.23976984 131.07534426 2.47656501 131.08312 0.71484375 131.0625 C-0.37376953 131.05476562 -1.46238281 131.04703125 -2.58398438 131.0390625 C-4.87565451 131.01332786 -7.1673213 130.9872936 -9.45898438 130.9609375 C-20.93514576 130.48185592 -20.93514576 130.48185592 -31 135 C-34.015625 135.29296875 -34.015625 135.29296875 -37.25 135.1875 C-38.86648437 135.14689453 -38.86648437 135.14689453 -40.515625 135.10546875 C-41.33546875 135.07066406 -42.1553125 135.03585938 -43 135 C-43.1687118 129.65745979 -42.55815911 124.74170295 -41.5 119.5 C-41.33056885 118.63705322 -41.1611377 117.77410645 -40.98657227 116.88500977 C-40.33402722 113.58801279 -39.6673996 110.29402315 -39 107 C-38.69113388 105.46730724 -38.38238479 103.9345909 -38.07373047 102.40185547 C-37.03434886 97.24583948 -35.98680109 92.09150508 -34.9375 86.9375 C-34.76605469 86.09251953 -34.59460938 85.24753906 -34.41796875 84.37695312 C-32.64915187 75.67464411 -30.82634565 67.01513731 -28.61010742 58.41333008 C-27.85324245 55.41948846 -27.25233636 52.41051515 -26.6875 49.375 C-25.72146494 44.36206129 -24.6337874 39.40187198 -23.44140625 34.4375 C-23.16401611 33.27557129 -22.88662598 32.11364258 -22.60083008 30.91650391 C-22.04030184 28.58335536 -21.47132933 26.2522169 -20.89331055 23.92333984 C-20.63461182 22.84262207 -20.37591309 21.7619043 -20.109375 20.6484375 C-19.87186523 19.68083496 -19.63435547 18.71323242 -19.38964844 17.71630859 C-18.97080491 14.79647585 -19.14051122 12.81237784 -20 10 C-20.66 9.34 -21.32 8.68 -22 8 C-21.154375 7.608125 -20.30875 7.21625 -19.4375 6.8125 C-16.75970562 5.40057206 -14.96530102 4.18583168 -12.6875 2.3125 C-8.6286164 -0.65084422 -4.87911975 -0.97760141 0 0 Z " fill="#7B8595" transform="translate(195,65)"/>
<path d="M0 0 C0.99 0 1.98 0 3 0 C3.02691685 2.45840605 3.04679802 4.91651882 3.0625 7.375 C3.07087891 8.07367188 3.07925781 8.77234375 3.08789062 9.4921875 C3.11328125 14.7734375 3.11328125 14.7734375 2 17 C2 18.32 2 19.64 2 21 C3.65 21 5.3 21 7 21 C7.12375 20.46375 7.2475 19.9275 7.375 19.375 C8.12206016 16.5361714 9.05303364 13.77776798 10 11 C10.66 11.33 11.32 11.66 12 12 C11.34 15.63 10.68 19.26 10 23 C17.11666763 24.19607859 24.23179569 24.35713089 31.43359375 24.60546875 C32.87025391 24.66154297 32.87025391 24.66154297 34.3359375 24.71875 C35.20782715 24.74904297 36.0797168 24.77933594 36.97802734 24.81054688 C39 25 39 25 40 26 C40.08843793 28.44830426 40.11528752 30.86820599 40.09765625 33.31640625 C40.0962413 34.04746078 40.09482635 34.77851532 40.09336853 35.53172302 C40.08775408 37.87535632 40.07519922 40.21889539 40.0625 42.5625 C40.05748686 44.14778508 40.05292363 45.73307166 40.04882812 47.31835938 C40.03777997 51.2122761 40.02050572 55.10612205 40 59 C42.6905528 57.77992056 42.6905528 57.77992056 45 56 C45.07500685 54.44698319 45.08318705 52.89062695 45.0625 51.3359375 C45.05089844 49.89927734 45.05089844 49.89927734 45.0390625 48.43359375 C45.01332011 46.41796491 44.98728549 44.40233977 44.9609375 42.38671875 C44.91899556 37.15096597 44.92108464 32.13702928 46 27 C47.6875 25.5 47.6875 25.5 50 25 C53.25 25.375 53.25 25.375 56 26 C56 24.02 56 22.04 56 20 C56.33 20 56.66 20 57 20 C57.19335938 21.21816406 57.38671875 22.43632812 57.5859375 23.69140625 C57.8487383 25.31513979 58.1117715 26.93883574 58.375 28.5625 C58.56449219 29.76229492 58.56449219 29.76229492 58.7578125 30.98632812 C59.54055204 35.78060782 60.64188872 40.32900638 62 45 C62.2344983 46.59797293 62.43000744 48.20285635 62.5625 49.8125 C62.83155766 53.02666676 62.83155766 53.02666676 64 56 C64.06996014 57.70702735 64.08440154 59.41668003 64.0625 61.125 C64.05347656 62.03507812 64.04445313 62.94515625 64.03515625 63.8828125 C64.02355469 64.58148438 64.01195312 65.28015625 64 66 C56.98113208 66.44252057 53.52345992 66.53206968 48 62 C44.63988168 61.59255258 41.36282998 61.62012476 38 62 C37.67 62.33 37.34 62.66 37 63 C35.23976984 63.07534426 33.47656501 63.08312 31.71484375 63.0625 C30.62623047 63.05476563 29.53761719 63.04703125 28.41601562 63.0390625 C26.12434549 63.01332786 23.8326787 62.9872936 21.54101562 62.9609375 C10.06485424 62.48185592 10.06485424 62.48185592 0 67 C-3.015625 67.29296875 -3.015625 67.29296875 -6.25 67.1875 C-7.86648437 67.14689453 -7.86648437 67.14689453 -9.515625 67.10546875 C-10.74539062 67.05326172 -10.74539062 67.05326172 -12 67 C-12.168714 61.65739016 -11.55787557 56.74182686 -10.5 51.5 C-10.24911621 50.21863159 -10.24911621 50.21863159 -9.99316406 48.91137695 C-6.76821515 32.58679581 -3.36721836 16.29571944 0 0 Z " fill="#747B8C" transform="translate(164,133)"/>
<path d="M0 0 C3.56185217 1.91284653 6.22910377 4.09715633 9 7 C10.485 7.99 10.485 7.99 12 9 C11.34 9 10.68 9 10 9 C10.26216309 10.28052246 10.52432617 11.56104492 10.79443359 12.88037109 C11.77496628 17.67003825 12.75520184 22.45976618 13.73535156 27.24951172 C14.15812313 29.3152833 14.58097329 31.3810388 15.00390625 33.44677734 C15.61479454 36.43062088 16.22539212 39.41452378 16.8359375 42.3984375 C17.02247894 43.30927094 17.20902039 44.22010437 17.4012146 45.15853882 C18.46855052 50.37652602 19.52193321 55.59709227 20.56381226 60.82022095 C21.05765657 63.28812956 21.56322646 65.75353173 22.0703125 68.21875 C22.42237582 69.97906658 22.77393692 71.73948367 23.125 73.5 C23.30675781 74.37269531 23.48851562 75.24539062 23.67578125 76.14453125 C24.86222246 82.16594341 25.22228202 87.86830922 25 94 C23.88625 93.979375 22.7725 93.95875 21.625 93.9375 C18.16784079 93.73619282 18.16784079 93.73619282 16 95 C14.66120929 103.51268808 14.91847378 112.3214039 15.0625 120.91796875 C15 124 15 124 14 127 C12.35 127 10.7 127 9 127 C8.04443262 107.4167452 7.69494505 87.83763555 7.44238281 68.23535156 C7.38657474 63.91928538 7.3228261 59.60337373 7.25720787 55.28744698 C7.20729381 51.93328325 7.1621293 48.57906829 7.11836624 45.22481918 C7.09686791 43.63077386 7.0737314 42.03674973 7.0489006 40.44275284 C7.01512038 38.23807134 6.98790266 36.03340393 6.96240234 33.82861328 C6.94543304 32.57831329 6.92846375 31.32801331 6.91098022 30.03982544 C7 27 7 27 8 24 C5.68756208 23.97314588 3.3750373 23.95367159 1.0625 23.9375 C-0.22527344 23.92589844 -1.51304687 23.91429688 -2.83984375 23.90234375 C-5.86298403 23.63467451 -5.86298403 23.63467451 -7 25 C-7.08685603 26.56172745 -7.10702219 28.12729344 -7.09765625 29.69140625 C-7.09443359 30.63564453 -7.09121094 31.57988281 -7.08789062 32.55273438 C-7.07951172 33.54595703 -7.07113281 34.53917969 -7.0625 35.5625 C-7.05798828 36.55958984 -7.05347656 37.55667969 -7.04882812 38.58398438 C-7.03700007 41.05604849 -7.02051849 43.52799518 -7 46 C-9.11780664 42.82329004 -9.24892146 42.03752682 -9.23046875 38.40234375 C-9.22853516 37.51869141 -9.22660156 36.63503906 -9.22460938 35.72460938 C-9.21236328 34.80486328 -9.20011719 33.88511719 -9.1875 32.9375 C-9.18685547 32.01388672 -9.18621094 31.09027344 -9.18554688 30.13867188 C-9.14046308 23.28092617 -9.14046308 23.28092617 -8 21 C-9.65 20.67 -11.3 20.34 -13 20 C-13 20.66 -13 21.32 -13 22 C-14.98 22 -16.96 22 -19 22 C-18.98259766 21.07767578 -18.98259766 21.07767578 -18.96484375 20.13671875 C-18.95582031 19.32847656 -18.94679687 18.52023438 -18.9375 17.6875 C-18.92589844 16.88699219 -18.91429687 16.08648437 -18.90234375 15.26171875 C-19.04491112 11.95985838 -19.65454672 10.34545328 -22 8 C-21.154375 7.608125 -20.30875 7.21625 -19.4375 6.8125 C-16.75970562 5.40057206 -14.96530102 4.18583168 -12.6875 2.3125 C-8.6286164 -0.65084422 -4.87911975 -0.97760141 0 0 Z " fill="#858F9F" transform="translate(195,65)"/>
<path d="M0 0 C7.75135795 0.03176786 12.37056439 1.64421751 18 7 C22.45111643 11.56825108 23.74118289 16.15301177 24.3125 22.4375 C23.65503181 29.93263742 20.77970574 36.06914953 15 41 C10.59444123 43.63401133 6.23603935 45.67561798 1 45 C1.28482368 43.58194169 1.57818144 42.16559621 1.875 40.75 C2.11863281 39.56664062 2.11863281 39.56664062 2.3671875 38.359375 C3.01345707 35.94982672 3.59628562 34.06863172 5 32 C7.67790463 31.16113831 10.1737941 31.18233586 13 31 C15.45417612 25.326858 17.46246904 20.18160604 18 14 C14.7 14 11.4 14 8 14 C4.23361745 23.96602942 0.54756278 33.95380451 -3 44 C-9.34084206 42.88794676 -13.35190843 40.21399794 -17.375 35.1875 C-21.30919903 28.91769469 -21.05557631 22.13695627 -20 15 C-17.54912289 8.36469856 -12.74038409 4.82692273 -7 1 C-6.01 1 -5.02 1 -4 1 C-4.66979172 3.00937515 -5.34001728 5.01860619 -6.01171875 7.02734375 C-6.74955662 9.24669009 -7.48015809 11.46844465 -8.20703125 13.69140625 C-8.6380147 15.00260618 -9.0690043 16.31380409 -9.5 17.625 C-9.9021875 18.85476563 -10.304375 20.08453125 -10.71875 21.3515625 C-11.9974405 24.99271167 -13.4403441 28.4726387 -15 32 C-13.68 32 -12.36 32 -11 32 C-10.80664062 31.34773438 -10.61328125 30.69546875 -10.4140625 30.0234375 C-9.01359552 25.3228602 -7.58791274 20.64159109 -6 16 C-4.68 16 -3.36 16 -2 16 C-2.65690619 19.78239671 -3.720131 23.21841526 -5.0625 26.8125 C-5.42472656 27.78832031 -5.78695312 28.76414062 -6.16015625 29.76953125 C-6.43730469 30.50558594 -6.71445313 31.24164063 -7 32 C-5.35 32 -3.7 32 -2 32 C-1.896875 30.989375 -1.79375 29.97875 -1.6875 28.9375 C-1.15598198 25.89335136 -0.67714254 24.01398515 0.5625 21.3125 C2.26539541 17.99026403 2.26539541 17.99026403 2 14 C-0.97 13.505 -0.97 13.505 -4 13 C-3.79503906 12.39671875 -3.59007812 11.7934375 -3.37890625 11.171875 C-3.10949219 10.37265625 -2.84007812 9.5734375 -2.5625 8.75 C-2.29566406 7.96109375 -2.02882812 7.1721875 -1.75390625 6.359375 C-1.08045292 4.25178012 -0.50849405 2.15246027 0 0 Z " fill="#ABB0BB" transform="translate(189,238)"/>
<path d="M0 0 C3.625 0.1875 3.625 0.1875 6.625 2.1875 C7.9996806 6.21922234 7.3942034 9.28651451 6.41015625 13.36328125 C6.13623047 14.52021484 5.86230469 15.67714844 5.58007812 16.86914062 C5.28552734 18.06732422 4.99097656 19.26550781 4.6875 20.5 C4.39681641 21.71751953 4.10613281 22.93503906 3.80664062 24.18945312 C3.08859093 27.19113628 2.36108488 30.19019789 1.625 33.1875 C1.295 33.1875 0.965 33.1875 0.625 33.1875 C0.59994385 32.45112305 0.5748877 31.71474609 0.54907227 30.95605469 C0.43295727 27.61636622 0.31030082 24.27694903 0.1875 20.9375 C0.14818359 19.77863281 0.10886719 18.61976562 0.06835938 17.42578125 C0.02646484 16.31074219 -0.01542969 15.19570312 -0.05859375 14.046875 C-0.11358032 12.50725098 -0.11358032 12.50725098 -0.16967773 10.93652344 C-0.34782128 8.55139113 -0.70277363 6.47450501 -1.375 4.1875 C-2.035 4.5175 -2.695 4.8475 -3.375 5.1875 C-4.19364128 7.82898309 -4.19364128 7.82898309 -4.8125 11.05859375 C-5.19535156 12.88100586 -5.19535156 12.88100586 -5.5859375 14.74023438 C-5.84632813 16.02220703 -6.10671875 17.30417969 -6.375 18.625 C-6.63539063 19.87216797 -6.89578125 21.11933594 -7.1640625 22.40429688 C-8.60414825 29.32470894 -9.99716971 36.25446419 -11.375 43.1875 C-11.74586866 45.04301375 -12.11697408 46.8984802 -12.48828125 48.75390625 C-12.68188232 49.72247559 -12.8754834 50.69104492 -13.07495117 51.68896484 C-13.49481667 53.78712093 -13.91559881 55.88509374 -14.3371582 57.98291016 C-15.49295502 63.74127754 -16.63218709 69.50214751 -17.7421875 75.26953125 C-17.96350342 76.40769287 -18.18481934 77.54585449 -18.4128418 78.71850586 C-18.83903896 80.91227609 -19.25995731 83.10707986 -19.67504883 85.30297852 C-19.8686499 86.29354248 -20.06225098 87.28410645 -20.26171875 88.3046875 C-20.42889404 89.17722168 -20.59606934 90.04975586 -20.76831055 90.94873047 C-21.375 93.1875 -21.375 93.1875 -23.375 96.1875 C-24.42007457 99.22771693 -24.43516453 100.0070064 -23.375 103.1875 C-23.67546315 105.40054406 -24.07218954 107.60097486 -24.51953125 109.7890625 C-24.64937912 110.42613129 -24.77922699 111.06320007 -24.91300964 111.71957397 C-25.1892116 113.06352136 -25.46936132 114.40666262 -25.75317383 115.74902344 C-26.18687561 117.80953354 -26.60297241 119.87307318 -27.01757812 121.9375 C-27.28634766 123.22914063 -27.55511719 124.52078125 -27.83203125 125.8515625 C-28.07928955 127.04217285 -28.32654785 128.2327832 -28.58129883 129.45947266 C-28.84322021 130.35972168 -29.1051416 131.2599707 -29.375 132.1875 C-30.035 132.5175 -30.695 132.8475 -31.375 133.1875 C-32.02713292 135.21213255 -32.02713292 135.21213255 -32.375 137.1875 C-32.045 137.1875 -31.715 137.1875 -31.375 137.1875 C-31.89018841 145.72677518 -33.43569102 153.85212775 -35.3125 162.1875 C-35.84410713 164.58296572 -36.37407761 166.97879528 -36.90234375 169.375 C-37.15741699 170.5196875 -37.41249023 171.664375 -37.67529297 172.84375 C-38.51754504 176.86869221 -39.16907301 180.91042159 -39.75219727 184.98046875 C-40.47647188 187.54708673 -41.40729914 188.44143831 -43.375 190.1875 C-44.035 191.1775 -44.695 192.1675 -45.375 193.1875 C-44.72972994 186.48233967 -43.63428872 179.99107821 -42.265625 173.3984375 C-42.05693787 172.37811432 -41.84825073 171.35779114 -41.63323975 170.30654907 C-41.19130071 168.14961631 -40.7474379 165.99307693 -40.30175781 163.83691406 C-39.6371477 160.62127523 -38.97816111 157.40452811 -38.3203125 154.1875 C-36.23068107 143.99853864 -34.08984191 133.82313076 -31.859375 123.6640625 C-29.20296858 111.5365889 -26.77748647 99.36745762 -24.375 87.1875 C-22.23177473 76.32246252 -20.08312549 65.45856843 -17.91373253 54.59872055 C-17.01521554 50.09866715 -16.12161272 45.5977395 -15.23803711 41.09472656 C-14.36786685 36.66110951 -13.48551942 32.23007447 -12.59472847 27.80055618 C-12.26148592 26.13256457 -11.93256084 24.46370383 -11.60822868 22.79395676 C-11.15660431 20.47261113 -10.68939074 18.15490649 -10.21850586 15.83740234 C-10.09113037 15.16313705 -9.96375488 14.48887177 -9.83251953 13.79417419 C-8.62823051 8.010913 -6.61815532 0.3676753 0 0 Z " fill="#2B2D31" transform="translate(169.375,72.8125)"/>
<path d="M0 0 C0.33 0 0.66 0 1 0 C1.19335938 1.21816406 1.38671875 2.43632812 1.5859375 3.69140625 C1.8487383 5.31513979 2.1117715 6.93883574 2.375 8.5625 C2.50132812 9.36236328 2.62765625 10.16222656 2.7578125 10.98632812 C3.54055204 15.78060782 4.64188872 20.32900638 6 25 C6.2344983 26.59797293 6.43000744 28.20285635 6.5625 29.8125 C6.83155766 33.02666676 6.83155766 33.02666676 8 36 C8.06996014 37.70702735 8.08440154 39.41668003 8.0625 41.125 C8.05347656 42.03507812 8.04445312 42.94515625 8.03515625 43.8828125 C8.02355469 44.58148438 8.01195312 45.28015625 8 46 C0.98113208 46.44252057 -2.47654008 46.53206968 -8 42 C-11.36011832 41.59255258 -14.63717002 41.62012476 -18 42 C-18.33 42.33 -18.66 42.66 -19 43 C-21.44830426 43.08843793 -23.86820599 43.11528752 -26.31640625 43.09765625 C-27.04746078 43.0962413 -27.77851532 43.09482635 -28.53172302 43.09336853 C-30.87535632 43.08775408 -33.21889539 43.07519922 -35.5625 43.0625 C-37.14778508 43.05748686 -38.73307166 43.05292363 -40.31835938 43.04882812 C-44.2122761 43.03777997 -48.10612205 43.02050572 -52 43 C-51 41 -51 41 -48 39.875 C-38.77523503 37.53161212 -29.24397472 39.63593522 -20 41 C-20 40.34 -20 39.68 -20 39 C-17.94017141 38.48504285 -15.88244533 37.97313036 -13.8125 37.5 C-11.99436859 37.15890376 -11.99436859 37.15890376 -11 36 C-10.92499315 34.44698319 -10.91681295 32.89062695 -10.9375 31.3359375 C-10.94910156 29.89927734 -10.94910156 29.89927734 -10.9609375 28.43359375 C-10.98667989 26.41796491 -11.01271451 24.40233977 -11.0390625 22.38671875 C-11.08100444 17.15096597 -11.07891536 12.13702928 -10 7 C-8.3125 5.5 -8.3125 5.5 -6 5 C-2.75 5.375 -2.75 5.375 0 6 C0 4.02 0 2.04 0 0 Z " fill="#707582" transform="translate(220,153)"/>
<path d="M0 0 C3.3054885 0.56991181 4.82785139 1.45724959 7 4 C7.86913318 6.76402778 8.56436331 9.42843049 9.1875 12.25 C9.3939917 13.14984619 9.6004834 14.04969238 9.81323242 14.97680664 C12.51152262 26.94495105 14.90911025 38.9816422 17.3500824 51.00431824 C20.11922266 64.64240501 22.98779214 78.25875852 25.86936951 91.87345886 C26.31879568 94.00088779 26.76596391 96.12877828 27.21240234 98.25683594 C27.69557628 100.55318522 28.18421202 102.84840382 28.68212891 105.14160156 C28.86952637 106.02428711 29.05692383 106.90697266 29.25 107.81640625 C29.48589844 108.90417358 29.48589844 108.90417358 29.7265625 110.01391602 C30.16298748 113.18384207 29.67646638 115.88825466 29 119 C28.34 118.67 27.68 118.34 27 118 C26.25785763 115.07950451 25.62859434 112.20533307 25.0625 109.25 C24.71466916 107.50888896 24.36570639 105.76800367 24.015625 104.02734375 C23.84482422 103.16995605 23.67402344 102.31256836 23.49804688 101.42919922 C22.83739164 98.20688569 22.08095462 95.01062733 21.3125 91.8125 C20.50524596 88.39252052 19.81832465 85.05558128 19.4375 81.5625 C19.1307953 78.08315858 19.1307953 78.08315858 18.06958008 75.22607422 C16.92634208 71.7778325 16.16964866 68.38060077 15.44921875 64.8203125 C15.31012085 64.13862503 15.17102295 63.45693756 15.02770996 62.7545929 C14.57762735 60.54539361 14.13259754 58.33520848 13.6875 56.125 C13.37647674 54.59504827 13.06503137 53.06518229 12.75317383 51.53540039 C12.1283841 48.46967065 11.50506191 45.40364864 10.8828125 42.33740234 C9.66955717 36.36691767 8.43120074 30.40170832 7.1875 24.4375 C6.99309326 23.50115723 6.79868652 22.56481445 6.59838867 21.60009766 C6.07047895 19.06566687 5.53733951 16.53244711 5 14 C4.82033691 13.15066895 4.64067383 12.30133789 4.45556641 11.42626953 C4.19332275 10.21173096 4.19332275 10.21173096 3.92578125 8.97265625 C3.77149658 8.254729 3.61721191 7.53680176 3.45825195 6.79711914 C3.04615199 4.91534853 3.04615199 4.91534853 2 3 C1.34 3.66 0.68 4.32 0 5 C0 3.35 0 1.7 0 0 Z " fill="#2F3132" transform="translate(205,74)"/>
<path d="M0 0 C0.33 0 0.66 0 1 0 C1 2.31 1 4.62 1 7 C-0.98 7.33 -2.96 7.66 -5 8 C-5 9.65 -5 11.3 -5 13 C-5.99 12.505 -5.99 12.505 -7 12 C-7 11.01 -7 10.02 -7 9 C-7.845625 8.731875 -8.69125 8.46375 -9.5625 8.1875 C-13 7 -13 7 -16.625 5.3125 C-19.74743218 3.83039481 -19.74743218 3.83039481 -22.25 4.125 C-24.25215752 5.12607876 -25.46194846 6.39203702 -27 8 C-27.66 8 -28.32 8 -29 8 C-29 7.34 -29 6.68 -29 6 C-35.05266078 5.0159301 -35.05266078 5.0159301 -41 6 C-41.66 5.67 -42.32 5.34 -43 5 C-45.37402501 4.92883618 -47.75000677 4.91590915 -50.125 4.9375 C-51.40632813 4.94652344 -52.68765625 4.95554688 -54.0078125 4.96484375 C-55.48894531 4.98224609 -55.48894531 4.98224609 -57 5 C-56.84402344 5.78246094 -56.68804687 6.56492188 -56.52734375 7.37109375 C-56.23537109 8.88896484 -56.23537109 8.88896484 -55.9375 10.4375 C-55.64166016 11.95150391 -55.64166016 11.95150391 -55.33984375 13.49609375 C-55.22769531 14.32238281 -55.11554688 15.14867187 -55 16 C-56 17 -56 17 -58.25 17.0625 C-61 17 -61 17 -63.75 16.9375 C-65.97034405 16.74127744 -65.97034405 16.74127744 -67 18 C-69.01964199 18.07244053 -71.04167124 18.08377188 -73.0625 18.0625 C-74.16722656 18.05347656 -75.27195313 18.04445312 -76.41015625 18.03515625 C-77.69212891 18.01775391 -77.69212891 18.01775391 -79 18 C-78.03644647 6.47835991 -78.03644647 6.47835991 -77 1 C-76.67 1 -76.34 1 -76 1 C-76 2.98 -76 4.96 -76 7 C-74.08249714 6.91256669 -72.16593335 6.8043811 -70.25 6.6875 C-69.18265625 6.62949219 -68.1153125 6.57148438 -67.015625 6.51171875 C-64.0067973 6.24734357 -64.0067973 6.24734357 -62.109375 4.51953125 C-56.17695163 0.24598923 -46.02095533 1.91997176 -39.0625 2 C-36.80343179 2.02536854 -34.54430987 2.04644917 -32.28515625 2.0625 C-31.29394775 2.07410156 -30.30273926 2.08570313 -29.28149414 2.09765625 C-27.03363623 2.25904318 -27.03363623 2.25904318 -26 1 C-24.37860563 0.87505384 -22.75115878 0.82428376 -21.125 0.8125 C-20.24070313 0.79832031 -19.35640625 0.78414062 -18.4453125 0.76953125 C-16 1 -16 1 -13 3 C-13 3.66 -13 4.32 -13 5 C-8.71 5.33 -4.42 5.66 0 6 C0 4.02 0 2.04 0 0 Z " fill="#2D313A" transform="translate(228,193)"/>
<path d="M0 0 C0.66 0 1.32 0 2 0 C1.39071824 6.28125528 0.43370828 12.34230631 -0.9375 18.5 C-1.10701172 19.30953125 -1.27652344 20.1190625 -1.45117188 20.953125 C-1.89946894 22.98495049 -2.4420293 24.99551658 -3 27 C-3.66 27.33 -4.32 27.66 -5 28 C-5.65213292 30.02463255 -5.65213292 30.02463255 -6 32 C-5.67 32 -5.34 32 -5 32 C-5.51518841 40.53927518 -7.06069102 48.66462775 -8.9375 57 C-9.46910713 59.39546572 -9.99907761 61.79129528 -10.52734375 64.1875 C-10.78241699 65.3321875 -11.03749023 66.476875 -11.30029297 67.65625 C-12.14254504 71.68119221 -12.79407301 75.72292159 -13.37719727 79.79296875 C-14.10147188 82.35958673 -15.03229914 83.25393831 -17 85 C-17.66 85.99 -18.32 86.98 -19 88 C-18.35472994 81.29483967 -17.25928872 74.80357821 -15.890625 68.2109375 C-15.68193787 67.19061432 -15.47325073 66.17029114 -15.25823975 65.11904907 C-14.81630071 62.96211631 -14.3724379 60.80557693 -13.92675781 58.64941406 C-13.2621477 55.43377523 -12.60316111 52.21702811 -11.9453125 49 C-10.86317656 43.72020259 -9.76711585 38.44344228 -8.66235352 33.16833496 C-8.21571982 31.03188497 -7.77160125 28.89490784 -7.32983398 26.75744629 C-6.68039602 23.62055408 -6.0211271 20.48587713 -5.359375 17.3515625 C-5.16635803 16.41130219 -4.97334106 15.47104187 -4.7744751 14.50228882 C-3.67221143 9.34168005 -2.26215292 4.77175433 0 0 Z " fill="#2A2A2D" transform="translate(143,178)"/>
<path d="M0 0 C0.33 0 0.66 0 1 0 C3.00195312 9.609375 5.00390625 19.21875 7.00585938 28.828125 C7.22323761 29.87105713 7.44061584 30.91398926 7.6645813 31.98852539 C8.10552597 34.10603901 8.54568705 36.22371594 8.9850769 38.34155273 C10.12094137 43.81122112 11.27145204 49.27715522 12.44775391 54.73828125 C12.68001175 55.82604858 12.91226959 56.91381592 13.15156555 58.0345459 C13.59354148 60.10274945 14.04020557 62.16995871 14.49235535 64.23596191 C15.48466444 68.90224722 16.279789 73.19670345 16 78 C14.515 77.505 14.515 77.505 13 77 C12.20359437 74.61391857 11.6304136 72.38974342 11.125 69.9375 C10.95991943 69.18726563 10.79483887 68.43703125 10.62475586 67.6640625 C10.06849058 65.11230182 9.53350103 62.55661151 9 60 C8.60314378 58.13665926 8.20600017 56.27337972 7.80859375 54.41015625 C6.95811865 50.39789911 6.12731895 46.38213206 5.30859375 42.36328125 C4.41906809 37.99830499 3.48941967 33.64423335 2.53515625 29.29296875 C2.06484016 27.09120221 1.59478078 24.88938082 1.125 22.6875 C0.89756104 21.68074219 0.67012207 20.67398438 0.43579102 19.63671875 C-0.98968669 12.83332812 -1.01102831 6.8744878 0 0 Z " fill="#2F2F30" transform="translate(235,191)"/>
<path d="M0 0 C2.90171108 2.39706568 3.63619251 4.27097324 4 8 C3.5625 10.3125 3.5625 10.3125 3 12 C3.66 12 4.32 12 5 12 C5 12.66 5 13.32 5 14 C5.66644531 13.84402344 6.33289063 13.68804687 7.01953125 13.52734375 C13.96194795 12.06118302 19.98711271 11.99622116 27 13 C27 13.66 27 14.32 27 15 C26.34 15.33 25.68 15.66 25 16 C24.67 16.99 24.34 17.98 24 19 C23.00097656 18.98839844 22.00195312 18.97679688 20.97265625 18.96484375 C19.68230469 18.95582031 18.39195312 18.94679688 17.0625 18.9375 C15.77472656 18.92589844 14.48695313 18.91429688 13.16015625 18.90234375 C10.13701597 18.63467451 10.13701597 18.63467451 9 20 C8.91314397 21.56172745 8.89297781 23.12729344 8.90234375 24.69140625 C8.90556641 25.63564453 8.90878906 26.57988281 8.91210938 27.55273438 C8.92048828 28.54595703 8.92886719 29.53917969 8.9375 30.5625 C8.94201172 31.55958984 8.94652344 32.55667969 8.95117188 33.58398438 C8.96299993 36.05604849 8.97948151 38.52799518 9 41 C6.88219336 37.82329004 6.75107854 37.03752682 6.76953125 33.40234375 C6.77146484 32.51869141 6.77339844 31.63503906 6.77539062 30.72460938 C6.78763672 29.80486328 6.79988281 28.88511719 6.8125 27.9375 C6.81314453 27.01388672 6.81378906 26.09027344 6.81445312 25.13867188 C6.85953692 18.28092617 6.85953692 18.28092617 8 16 C6.35 15.67 4.7 15.34 3 15 C3 15.66 3 16.32 3 17 C1.02 17 -0.96 17 -3 17 C-2.98259766 16.07767578 -2.98259766 16.07767578 -2.96484375 15.13671875 C-2.95582031 14.32847656 -2.94679687 13.52023438 -2.9375 12.6875 C-2.92589844 11.88699219 -2.91429687 11.08648437 -2.90234375 10.26171875 C-3.04491112 6.95985838 -3.65454672 5.34545328 -6 3 C-4.02 2.01 -2.04 1.02 0 0 Z " fill="#8D98A4" transform="translate(179,70)"/>
<path d="M0 0 C0.99 0.33 1.98 0.66 3 1 C3.07347656 2.10408203 3.07347656 2.10408203 3.1484375 3.23046875 C3.22320312 4.20628906 3.29796875 5.18210938 3.375 6.1875 C3.44460937 7.15042969 3.51421875 8.11335937 3.5859375 9.10546875 C3.86581888 11.97654258 3.86581888 11.97654258 5.02514648 14.35180664 C6.09107496 17.24740549 6.17030372 19.20057461 6.01171875 22.265625 C5.96466797 23.23757812 5.91761719 24.20953125 5.86914062 25.2109375 C5.80919922 26.21382812 5.74925781 27.21671875 5.6875 28.25 C5.63916016 29.26835937 5.59082031 30.28671875 5.54101562 31.3359375 C5.14501232 38.85498768 5.14501232 38.85498768 4 40 C2.33382885 40.04063832 0.66611905 40.042721 -1 40 C-1.02470935 34.78556667 -1.04286444 29.57116739 -1.05493164 24.35668945 C-1.059962 22.58259487 -1.06678699 20.80850444 -1.07543945 19.03442383 C-1.08756174 16.48517839 -1.09324126 13.93598774 -1.09765625 11.38671875 C-1.10281754 10.59287277 -1.10797882 9.79902679 -1.11329651 8.98112488 C-1.11362877 5.72343714 -1.03772826 3.11318479 0 0 Z " fill="#8991A1" transform="translate(160,158)"/>
<path d="M0 0 C3.63 0 7.26 0 11 0 C11.33 0.99 11.66 1.98 12 3 C12 2.01 12 1.02 12 0 C12.9075 0.185625 13.815 0.37125 14.75 0.5625 C17.73043171 0.96371196 19.21954507 0.89371766 22 0 C24.66666667 0 27.33333333 0 30 0 C30 2.64 30 5.28 30 8 C26.66666667 8 23.33333333 8 20 8 C19.07832031 8.01160156 18.15664062 8.02320313 17.20703125 8.03515625 C11.36004497 8.0822551 5.75528411 8.07075053 0 7 C0 4.69 0 2.38 0 0 Z " fill="#6B7076" transform="translate(190,371)"/>
<path d="M0 0 C2.12055529 3.53425882 2.61577388 6.92720311 3 11 C2 12 2 12 -0.25 12.0625 C-2.08333333 12.02083333 -3.91666667 11.97916667 -5.75 11.9375 C-7.97034405 11.74127744 -7.97034405 11.74127744 -9 13 C-11.01964199 13.07244053 -13.04167124 13.08377188 -15.0625 13.0625 C-16.16722656 13.05347656 -17.27195313 13.04445312 -18.41015625 13.03515625 C-19.69212891 13.01775391 -19.69212891 13.01775391 -21 13 C-20.67 9.37 -20.34 5.74 -20 2 C-19.01 3.485 -19.01 3.485 -18 5 C-17.67 4.67 -17.34 4.34 -17 4 C-13.44169919 3.75428613 -9.88428436 3.61560863 -6.3203125 3.4765625 C-3.02920747 3.28813676 -3.02920747 3.28813676 -1.0546875 1.4609375 C-0.70664063 0.97882813 -0.35859375 0.49671875 0 0 Z " fill="#2B2A34" transform="translate(170,198)"/>
<path d="M0 0 C2.34810964 3.88013164 2.97111664 8.15384979 3.8046875 12.54296875 C3.96993927 13.38483231 4.13519104 14.22669586 4.30545044 15.09407043 C4.83413982 17.79084036 5.3551416 20.48901497 5.875 23.1875 C6.55576586 26.70263938 7.24074722 30.21692244 7.9296875 33.73046875 C8.18211212 35.02318192 8.18211212 35.02318192 8.43963623 36.3420105 C9.71725739 42.79637853 11.16852912 49.19756899 12.78756714 55.57499695 C13.66672467 59.12780215 14.19641326 62.33728908 14 66 C11.525 66.495 11.525 66.495 9 67 C9.99 66.505 9.99 66.505 11 66 C9.12782348 55.77732933 9.12782348 55.77732933 6.4375 45.75 C5.13488529 41.63400611 4.31176361 37.57312342 3.609375 33.31640625 C3.12336737 30.6714032 2.567431 28.0810329 1.953125 25.46484375 C-0.06725569 16.74594413 -1.85138188 8.95505365 0 0 Z " fill="#302D29" transform="translate(262,323)"/>
<path d="M0 0 C4.66666667 0 9.33333333 0 14 0 C14.33 0.99 14.66 1.98 15 3 C15.33 2.01 15.66 1.02 16 0 C16.928125 0.185625 17.85625 0.37125 18.8125 0.5625 C22.01343771 1.24123881 22.01343771 1.24123881 25 0 C25 2.64 25 5.28 25 8 C16.09 8 7.18 8 -2 8 C-1 1 -1 1 0 0 Z " fill="#8D959A" transform="translate(224,371)"/>
<path d="M0 0 C5.94 0 11.88 0 18 0 C18 1.98 18 3.96 18 6 C18.66 6 19.32 6 20 6 C20 4.02 20 2.04 20 0 C22.64 0 25.28 0 28 0 C28 2.64 28 5.28 28 8 C24.52085059 8.02887814 21.04173169 8.04675687 17.5625 8.0625 C16.07266602 8.07506836 16.07266602 8.07506836 14.55273438 8.08789062 C13.60849609 8.09111328 12.66425781 8.09433594 11.69140625 8.09765625 C10.81685791 8.10289307 9.94230957 8.10812988 9.04125977 8.11352539 C7 8 7 8 6 7 C5.95936168 5.33382885 5.957279 3.66611905 6 2 C5.34 2 4.68 2 4 2 C4 3.98 4 5.96 4 8 C3.01 8 2.02 8 1 8 C0.67 5.36 0.34 2.72 0 0 Z " fill="#818489" transform="translate(147,371)"/>
<path d="M0 0 C0.33 0 0.66 0 1 0 C1 3.3 1 6.6 1 10 C-6.01886792 10.44252057 -9.47654008 10.53206968 -15 6 C-18.36011832 5.59255258 -21.63717002 5.62012476 -25 6 C-25.33 6.33 -25.66 6.66 -26 7 C-28.44830426 7.08843793 -30.86820599 7.11528752 -33.31640625 7.09765625 C-34.04746078 7.0962413 -34.77851532 7.09482635 -35.53172302 7.09336853 C-37.87535632 7.08775408 -40.21889539 7.07519922 -42.5625 7.0625 C-44.14778508 7.05748686 -45.73307166 7.05292363 -47.31835938 7.04882812 C-51.2122761 7.03777997 -55.10612205 7.02050572 -59 7 C-58 5 -58 5 -55 3.875 C-45.77523503 1.53161212 -36.24397472 3.63593522 -27 5 C-27 4.34 -27 3.68 -27 3 C-23.87819599 2.03338637 -21.47916205 2.01011091 -18.25 2.4375 C-17.05117187 2.59025391 -17.05117187 2.59025391 -15.828125 2.74609375 C-15.22484375 2.82988281 -14.6215625 2.91367188 -14 3 C-14 3.66 -14 4.32 -14 5 C-13.195625 5.144375 -12.39125 5.28875 -11.5625 5.4375 C-9 6 -9 6 -8 7 C-6.65252916 7.23075082 -5.29622435 7.41153063 -3.9375 7.5625 C-2.638125 7.706875 -1.33875 7.85125 0 8 C0 5.36 0 2.72 0 0 Z " fill="#595F6B" transform="translate(227,189)"/>
<path d="M0 0 C2.31 0.33 4.62 0.66 7 1 C8.90370549 5.64066227 9.08339983 8.4230647 7.8828125 13.2734375 C7.60566406 14.42714844 7.32851562 15.58085938 7.04296875 16.76953125 C6.74003906 17.95933594 6.43710938 19.14914063 6.125 20.375 C5.82980469 21.58800781 5.53460938 22.80101563 5.23046875 24.05078125 C4.50137268 27.0377232 3.75750072 30.02015851 3 33 C2.67 33 2.34 33 2 33 C1.97494385 32.26362305 1.9498877 31.52724609 1.92407227 30.76855469 C1.80795727 27.42886622 1.68530082 24.08944903 1.5625 20.75 C1.52318359 19.59113281 1.48386719 18.43226562 1.44335938 17.23828125 C1.40146484 16.12324219 1.35957031 15.00820312 1.31640625 13.859375 C1.27974854 12.83295898 1.24309082 11.80654297 1.20532227 10.74902344 C1.02547669 8.34110282 0.81048555 6.27158273 0 4 C-0.66 3.67 -1.32 3.34 -2 3 C-1.34 2.01 -0.68 1.02 0 0 Z " fill="#2C2F35" transform="translate(168,73)"/>
<path d="M0 0 C3.3 0 6.6 0 10 0 C11.25416869 4.32168957 10.66638964 6.98076445 9.1875 11.1875 C8.83042969 12.23292969 8.47335938 13.27835937 8.10546875 14.35546875 C7 17 7 17 5 19 C2.36 19 -0.28 19 -3 19 C-1.02 13.39 0.96 7.78 3 2 C2.01 1.34 1.02 0.68 0 0 Z " fill="#191C23" transform="translate(197,251)"/>
<path d="M0 0 C0.33 0 0.66 0 1 0 C1 6.6 1 13.2 1 20 C-5.6 20 -12.2 20 -19 20 C-16 18 -16 18 -12.6875 16.3125 C-6.09203354 12.54764599 -2.56617515 6.98569902 0 0 Z " fill="#000000" transform="translate(375,458)"/>
<path d="M0 0 C2 3 2 3 3.6875 6.3125 C7.45235401 12.90796646 13.01430098 16.43382485 20 19 C20 19.33 20 19.66 20 20 C13.4 20 6.8 20 0 20 C0 13.4 0 6.8 0 0 Z " fill="#000000" transform="translate(0,458)"/>
<path d="M0 0 C6.6 0 13.2 0 20 0 C20 6.6 20 13.2 20 20 C18 17 18 17 16.3125 13.6875 C12.54764599 7.09203354 6.98569902 3.56617515 0 1 C0 0.67 0 0.34 0 0 Z " fill="#000000" transform="translate(356,0)"/>
<path d="M0 0 C6.6 0 13.2 0 20 0 C17 2 17 2 13.6875 3.6875 C7.09203354 7.45235401 3.56617515 13.01430098 1 20 C0.67 20 0.34 20 0 20 C0 13.4 0 6.8 0 0 Z " fill="#000000" transform="translate(0,0)"/>
<path d="M0 0 C1.95822321 3.42689061 2.71396473 6.77171838 3.5 10.625 C3.7371875 11.77226562 3.974375 12.91953125 4.21875 14.1015625 C5.73273523 21.6563488 5.73273523 21.6563488 6.46923828 25.35009766 C6.82659068 27.13422964 7.1870016 28.91775144 7.55029297 30.70068359 C8.10428487 33.42386807 8.64663207 36.14918185 9.1875 38.875 C9.37763672 39.79796875 9.56777344 40.7209375 9.76367188 41.671875 C9.93833984 42.56132812 10.11300781 43.45078125 10.29296875 44.3671875 C10.53309692 45.55997314 10.53309692 45.55997314 10.77807617 46.77685547 C11.01240855 49.12430394 10.71073502 50.76607918 10 53 C6.70779646 47.66435979 5.32513339 42.60657196 4.25 36.5 C4.12262451 35.78851807 3.99524902 35.07703613 3.86401367 34.34399414 C3.26903296 30.71448674 2.97149953 27.33517104 3.109375 23.65625 C3.37971917 20.09030023 3.37971917 20.09030023 1.546875 18.26171875 C1.03640625 17.84535156 0.5259375 17.42898438 0 17 C-1.55559744 11.36651498 -0.92976172 5.68187715 0 0 Z " fill="#333131" transform="translate(251,269)"/>
<path d="M0 0 C0.66 0 1.32 0 2 0 C1.70270996 0.67345459 1.40541992 1.34690918 1.09912109 2.04077148 C-0.16639938 5.44800687 -0.87428329 8.78292371 -1.5859375 12.34765625 C-1.87958276 13.77161352 -2.17387312 15.19543789 -2.46875 16.61914062 C-2.92511983 18.84517298 -3.37683859 21.07180355 -3.81738281 23.30102539 C-4.24745229 25.46543825 -4.69644157 27.62523113 -5.1484375 29.78515625 C-5.40802246 31.07301025 -5.66760742 32.36086426 -5.93505859 33.68774414 C-7.05930847 37.18446539 -8.1963283 38.6950898 -11 41 C-10.23439881 34.0759365 -9.01305316 27.27477574 -7.6875 20.4375 C-7.48705078 19.33986328 -7.28660156 18.24222656 -7.08007812 17.11132812 C-4.65485825 4.65485825 -4.65485825 4.65485825 0 0 Z " fill="#53575D" transform="translate(166,73)"/>
<path d="M0 0 C0.99 0.33 1.98 0.66 3 1 C3 1.33 3 1.66 3 2 C6.63 2 10.26 2 14 2 C14 1.34 14 0.68 14 0 C17.3 0.33 20.6 0.66 24 1 C24 2.65 24 4.3 24 6 C21.31288976 6.19647038 18.62571669 6.38239615 15.9375 6.5625 C15.18533203 6.61857422 14.43316406 6.67464844 13.65820312 6.73242188 C8.92140498 7.04000617 4.67457788 6.83807173 0 6 C0 4.02 0 2.04 0 0 Z " fill="#64666B" transform="translate(174,354)"/>
<path d="M0 0 C0.99 0 1.98 0 3 0 C3.02691685 2.45840605 3.04679802 4.91651882 3.0625 7.375 C3.07087891 8.07367188 3.07925781 8.77234375 3.08789062 9.4921875 C3.11328125 14.7734375 3.11328125 14.7734375 2 17 C1.95977609 19.3329866 1.95679753 21.66706666 2 24 C2.99 24 3.98 24 5 24 C5.33 25.32 5.66 26.64 6 28 C2.25 29.125 2.25 29.125 0 28 C-0.3911938 25.93734178 -0.50674519 23.90556733 -0.65625 21.8125 C-0.82640625 20.9153125 -0.82640625 20.9153125 -1 20 C-1.66 19.67 -2.32 19.34 -3 19 C-2.27637073 12.60794144 -1.19656638 6.31972924 0 0 Z " fill="#6A6E79" transform="translate(164,133)"/>
<path d="M0 0 C2.31 0 4.62 0 7 0 C7.2919519 5.54708616 6.19088986 10.61972975 5 16 C5.99 16.33 6.98 16.66 8 17 C4.98585825 16.66509536 3.2519868 16.19079001 0.8125 14.34375 C-1 12 -1 12 -1.171875 8.984375 C-1.03265625 7.91703125 -0.8934375 6.8496875 -0.75 5.75 C-0.62109375 4.67234375 -0.4921875 3.5946875 -0.359375 2.484375 C-0.24078125 1.66453125 -0.1221875 0.8446875 0 0 Z " fill="#2E2923" transform="translate(113,399)"/>
<path d="M0 0 C1.11375 0.2475 1.11375 0.2475 2.25 0.5 C6.78858161 1.32519666 11.18204761 0.86543619 15.75 0.5 C16.92046875 0.4071875 18.0909375 0.314375 19.296875 0.21875 C20.18890625 0.1465625 21.0809375 0.074375 22 0 C22 1.98 22 3.96 22 6 C20.68 6 19.36 6 18 6 C18 5.01 18 4.02 18 3 C17.34 3 16.68 3 16 3 C16 3.99 16 4.98 16 6 C10.39 6 4.78 6 -1 6 C-0.67 4.02 -0.34 2.04 0 0 Z " fill="#777B7F" transform="translate(188,299)"/>
<path d="M0 0 C3.3 0 6.6 0 10 0 C11.14637376 4.45812016 11.07795422 7.84409155 9 12 C6.69 11.67 4.38 11.34 2 11 C2.33 9.35 2.66 7.7 3 6 C2.34 6 1.68 6 1 6 C0.67 4.02 0.34 2.04 0 0 Z " fill="#151419" transform="translate(202,314)"/>
<path d="M0 0 C1.98 0 3.96 0 6 0 C7.15121989 4.07298683 6.84551836 6.22396421 5.125 10.0625 C3.8154106 13.03426057 2.68996459 15.82175885 2 19 C0.35 19 -1.3 19 -3 19 C-2.54548816 17.26982492 -2.08621143 15.54090123 -1.625 13.8125 C-1.36976563 12.84957031 -1.11453125 11.88664062 -0.8515625 10.89453125 C-0.05233704 8.17789793 0.9031362 5.60862825 2 3 C1.01 2.67 0.02 2.34 -1 2 C-0.67 1.34 -0.34 0.68 0 0 Z " fill="#1A1B22" transform="translate(185,251)"/>
<path d="M0 0 C0.92679633 2.50235009 1.15867036 3.62141809 0.109375 6.125 C-1.29990907 9.77722913 -1.79709575 13.46415436 -2.375 17.3125 C-3.3765668 23.53495777 -4.64938554 28.5696938 -8 34 C-9.78286862 28.65060768 -7.94312484 23.48193233 -6.8125 18.125 C-6.60302734 17.04863281 -6.39355469 15.97226563 -6.17773438 14.86328125 C-4.9695188 9.04807158 -3.77145241 4.63557534 0 0 Z " fill="#383B40" transform="translate(158,110)"/>
<path d="M0 0 C0.66 0.66 1.32 1.32 2 2 C1.67 2.99 1.34 3.98 1 5 C1.66 5 2.32 5 3 5 C3 3.68 3 2.36 3 1 C6.63 1 10.26 1 14 1 C13.67 2.65 13.34 4.3 13 6 C6.07 6 -0.86 6 -8 6 C-8 4.35 -8 2.7 -8 1 C-1.9453125 0.0234375 -1.9453125 0.0234375 0 0 Z " fill="#76777B" transform="translate(171,299)"/>
<path d="M0 0 C0.88042969 0.08378906 1.76085937 0.16757812 2.66796875 0.25390625 C4.41013672 0.40666016 4.41013672 0.40666016 6.1875 0.5625 C7.33605469 0.66691406 8.48460937 0.77132813 9.66796875 0.87890625 C12.68631199 0.98859985 15.08923936 0.74002389 18 0 C18 0.66 18 1.32 18 2 C18.66 2 19.32 2 20 2 C19.67 2.99 19.34 3.98 19 5 C15.3416892 6.58466433 11.16852005 6.11064817 7.25 6.0625 C6.55261719 6.05798828 5.85523438 6.05347656 5.13671875 6.04882812 C3.42444197 6.0371002 1.71220967 6.01916653 0 6 C0 4.02 0 2.04 0 0 Z " fill="#5B5F66" transform="translate(200,354)"/>
<path d="M0 0 C2.40899211 4.43891386 3.20520937 8.96000066 4.1875 13.875 C4.47270508 15.20337891 4.47270508 15.20337891 4.76367188 16.55859375 C5.73064784 21.34708726 6.25123213 25.17040335 5 30 C4.34 30 3.68 30 3 30 C-1.95744681 9.46808511 -1.95744681 9.46808511 0 0 Z " fill="#2B2826" transform="translate(262,323)"/>
<path d="M0 0 C1.75570312 0.04060547 1.75570312 0.04060547 3.546875 0.08203125 C4.43890625 0.11683594 5.3309375 0.15164062 6.25 0.1875 C6.25 0.8475 6.25 1.5075 6.25 2.1875 C5.26 2.6825 5.26 2.6825 4.25 3.1875 C3.92 4.1775 3.59 5.1675 3.25 6.1875 C1.29233719 6.26832094 -0.66626728 6.32660778 -2.625 6.375 C-4.26082031 6.42720703 -4.26082031 6.42720703 -5.9296875 6.48046875 C-6.86039063 6.38378906 -7.79109375 6.28710938 -8.75 6.1875 C-9.41 5.1975 -10.07 4.2075 -10.75 3.1875 C-7.26391463 -0.10012011 -4.6928191 -0.14078457 0 0 Z " fill="#98A3B5" transform="translate(199.75,82.8125)"/>
<path d="M0 0 C0.66 0 1.32 0 2 0 C1.57175794 5.99538879 0.4816827 11.67278914 -0.9375 17.5 C-1.10733398 18.21865234 -1.27716797 18.93730469 -1.45214844 19.67773438 C-1.90227232 21.46965613 -2.44413415 23.23801014 -3 25 C-3.66 25.33 -4.32 25.66 -5 26 C-5.65464129 17.08960467 -3.94805064 9.40608816 -1 1 C-0.67 0.67 -0.34 0.34 0 0 Z " fill="#1E1F23" transform="translate(143,178)"/>
<path d="M0 0 C1.3921875 0.2784375 1.3921875 0.2784375 2.8125 0.5625 C6.01343771 1.24123881 6.01343771 1.24123881 9 0 C9 2.64 9 5.28 9 8 C4.05 8 -0.9 8 -6 8 C-5.01 7.34 -4.02 6.68 -3 6 C-2.34 6.33 -1.68 6.66 -1 7 C-0.67 4.69 -0.34 2.38 0 0 Z " fill="#80868C" transform="translate(240,371)"/>
<path d="M0 0 C0.33 0 0.66 0 1 0 C1.144375 0.78375 1.28875 1.5675 1.4375 2.375 C1.87798925 4.96421018 1.87798925 4.96421018 3 7 C2.01 7.495 2.01 7.495 1 8 C0.34786708 10.02463255 0.34786708 10.02463255 0 12 C0.33 12 0.66 12 1 12 C0.85764543 13.72945653 0.71095618 15.45855654 0.5625 17.1875 C0.48128906 18.15042969 0.40007812 19.11335938 0.31640625 20.10546875 C0.02333849 22.78649602 -0.42703754 25.3662986 -1 28 C-2.32 28.33 -3.64 28.66 -5 29 C-4.28272968 22.59741861 -3.17132555 16.32172104 -1.9375 10 C-1.75123047 9.03449219 -1.56496094 8.06898438 -1.37304688 7.07421875 C-0.91768657 4.71568591 -0.45995713 2.35763989 0 0 Z " fill="#2E2D32" transform="translate(137,198)"/>
<path d="M0 0 C0.33 0 0.66 0 1 0 C1 2.31 1 4.62 1 7 C-0.98 7.33 -2.96 7.66 -5 8 C-5 9.65 -5 11.3 -5 13 C-5.66 12.67 -6.32 12.34 -7 12 C-7 11.01 -7 10.02 -7 9 C-7.845625 8.731875 -8.69125 8.46375 -9.5625 8.1875 C-13 7 -13 7 -16.625 5.3125 C-19.74743218 3.83039481 -19.74743218 3.83039481 -22.25 4.125 C-24.25215752 5.12607876 -25.46194846 6.39203702 -27 8 C-27.66 8 -28.32 8 -29 8 C-29 6 -29 6 -27.4375 3.875 C-24.07213425 1.28625712 -22.17338301 1.50485286 -18 2 C-16.33851819 2.73488618 -14.67752774 3.47265817 -13.04296875 4.265625 C-8.88531357 5.76015497 -4.38113862 5.7702477 0 6 C0 4.02 0 2.04 0 0 Z " fill="#2B2D36" transform="translate(228,193)"/>
<path d="M0 0 C0.99 0 1.98 0 3 0 C3.33 0.99 3.66 1.98 4 3 C4.33 2.01 4.66 1.02 5 0 C5.66 0 6.32 0 7 0 C7 0.99 7 1.98 7 3 C7.66 3 8.32 3 9 3 C9.33 2.34 9.66 1.68 10 1 C10 2.98 10 4.96 10 7 C8.56274129 7.16873478 7.12518162 7.33490737 5.6875 7.5 C4.88699219 7.5928125 4.08648437 7.685625 3.26171875 7.78125 C1 8 1 8 -2 8 C-1.125 1.125 -1.125 1.125 0 0 Z " fill="#797D80" transform="translate(179,371)"/>
<path d="M0 0 C3.28212137 3.54026575 3.95680663 7.39112904 4.75 12 C4.88792969 12.7115625 5.02585937 13.423125 5.16796875 14.15625 C5.80566644 17.68002281 6.31063684 20.59942874 5 24 C0.94300916 16.69741648 -1.4085874 9.44900378 -1 1 C-0.67 0.67 -0.34 0.34 0 0 Z " fill="#191819" transform="translate(256,298)"/>
<path d="M0 0 C1.98 0 3.96 0 6 0 C6.05406122 1.93719378 6.09282025 3.87481921 6.125 5.8125 C6.14820313 6.89144531 6.17140625 7.97039062 6.1953125 9.08203125 C6 12 6 12 4 15 C3.34 15 2.68 15 2 15 C1.7834375 13.2365625 1.7834375 13.2365625 1.5625 11.4375 C1.08589824 7.61787728 0.55546456 3.80889981 0 0 Z " fill="#342D25" transform="translate(254,399)"/>
<path d="M0 0 C3.63 0 7.26 0 11 0 C11 2.31 11 4.62 11 7 C9.0625 7.5625 9.0625 7.5625 7 8 C6 7 6 7 5.9375 4.4375 C5.958125 3.633125 5.97875 2.82875 6 2 C5.34 2 4.68 2 4 2 C4 3.98 4 5.96 4 8 C3.01 8 2.02 8 1 8 C0.67 5.36 0.34 2.72 0 0 Z " fill="#76797F" transform="translate(147,371)"/>
<path d="M0 0 C0.33 0 0.66 0 1 0 C1.70174756 3.24709194 2.38388069 6.49800252 3.0625 9.75 C3.26166016 10.67039062 3.46082031 11.59078125 3.66601562 12.5390625 C3.84970703 13.42851563 4.03339844 14.31796875 4.22265625 15.234375 C4.39547119 16.05131836 4.56828613 16.86826172 4.74633789 17.70996094 C5.01129884 20.10200494 4.73312703 21.72525071 4 24 C3.34 23.34 2.68 22.68 2 22 C1.34 22.66 0.68 23.32 0 24 C-0.97758625 18.54724114 -0.97344509 13.57483237 -0.5625 8.0625 C-0.51029297 7.28326172 -0.45808594 6.50402344 -0.40429688 5.70117188 C-0.27601936 3.80033228 -0.13892679 1.90009096 0 0 Z " fill="#7C8693" transform="translate(209,98)"/>
<path d="M0 0 C3.63 0 7.26 0 11 0 C11 0.66 11 1.32 11 2 C10.01 2 9.02 2 8 2 C8 3.32 8 4.64 8 6 C8.33 5.34 8.66 4.68 9 4 C9.66 4 10.32 4 11 4 C11 4.99 11 5.98 11 7 C7.37 7 3.74 7 0 7 C0 4.69 0 2.38 0 0 Z " fill="#8F9399" transform="translate(190,371)"/>
<path d="M0 0 C0.33 0 0.66 0 1 0 C1 1.98 1 3.96 1 6 C2.91750286 5.91256669 4.83406665 5.8043811 6.75 5.6875 C7.81734375 5.62949219 8.8846875 5.57148438 9.984375 5.51171875 C13.21889908 4.96285521 14.51634907 4.04014184 17 2 C19.25 2.3125 19.25 2.3125 21 3 C19.36357979 5.45463031 18.52157757 6.54319607 16 8 C12.34106873 8.56258712 8.78107841 8.75092126 5.08203125 8.859375 C2.08762942 8.7870266 2.08762942 8.7870266 0 10 C0 6.7 0 3.4 0 0 Z " fill="#424551" transform="translate(151,194)"/>
<path d="M0 0 C2.69082872 0.17635452 5.32851446 0.61835921 8 1 C8 3.31 8 5.62 8 8 C5.03 8 2.06 8 -1 8 C0 4 0 4 1 3 C0.34 2.34 -0.32 1.68 -1 1 C-0.67 0.67 -0.34 0.34 0 0 Z " fill="#515256" transform="translate(217,298)"/>
<path d="M0 0 C0.99 0 1.98 0 3 0 C3.33 0.66 3.66 1.32 4 2 C6.64 1.67 9.28 1.34 12 1 C12 2.65 12 4.3 12 6 C8.04 6 4.08 6 0 6 C0 4.02 0 2.04 0 0 Z " fill="#72767B" transform="translate(160,354)"/>
<path d="M0 0 C-0.78375 0.4125 -1.5675 0.825 -2.375 1.25 C-5.1936324 3.12908827 -5.81498062 3.92317938 -7 7 C-7.27307821 9.41492452 -7.27307821 9.41492452 -7.1953125 11.984375 C-7.18886719 12.91894531 -7.18242187 13.85351562 -7.17578125 14.81640625 C-7.15902344 15.78449219 -7.14226562 16.75257812 -7.125 17.75 C-7.11146484 19.22533203 -7.11146484 19.22533203 -7.09765625 20.73046875 C-7.07412785 23.15389407 -7.04125368 25.57682222 -7 28 C-9.11780664 24.82329004 -9.24892146 24.03752682 -9.23046875 20.40234375 C-9.22853516 19.51869141 -9.22660156 18.63503906 -9.22460938 17.72460938 C-9.21236328 16.80486328 -9.20011719 15.88511719 -9.1875 14.9375 C-9.18685547 14.01388672 -9.18621094 13.09027344 -9.18554688 12.13867188 C-9.14046308 5.28092617 -9.14046308 5.28092617 -8 3 C-8.99 3 -9.98 3 -11 3 C-11 2.34 -11 1.68 -11 1 C-3.375 -1.125 -3.375 -1.125 0 0 Z " fill="#8694A5" transform="translate(195,83)"/>
<path d="M0 0 C3.63 0 7.26 0 11 0 C11 0.66 11 1.32 11 2 C10.34 2 9.68 2 9 2 C9 3.98 9 5.96 9 8 C8.34 8 7.68 8 7 8 C7 6.02 7 4.04 7 2 C6.34 2 5.68 2 5 2 C4.67 2.99 4.34 3.98 4 5 C3.34 5 2.68 5 2 5 C2 5.66 2 6.32 2 7 C1.34 7 0.68 7 0 7 C0 4.69 0 2.38 0 0 Z " fill="#919498" transform="translate(131,371)"/>
<path d="M0 0 C1.66666667 0 3.33333333 0 5 0 C5 2.31 5 4.62 5 7 C6.32 7.33 7.64 7.66 9 8 C5.37 8 1.74 8 -2 8 C-1.125 1.125 -1.125 1.125 0 0 Z " fill="#5E6468" transform="translate(224,371)"/>
<path d="M0 0 C1.46619907 6.02232181 2.32528788 10.90367577 1 17 C0.34 16.67 -0.32 16.34 -1 16 C-1.63801836 13.4684134 -2.16687368 11.00160498 -2.625 8.4375 C-2.7590625 7.72658203 -2.893125 7.01566406 -3.03125 6.28320312 C-3.36191847 4.52357447 -3.68195767 2.76195452 -4 1 C-2 0 -2 0 0 0 Z " fill="#2B2B2B" transform="translate(233,176)"/>
<path d="M0 0 C1.98 0 3.96 0 6 0 C6.33 1.32 6.66 2.64 7 4 C6.01 4.33 5.02 4.66 4 5 C4 5.66 4 6.32 4 7 C2.68 7 1.36 7 0 7 C0 6.01 0 5.02 0 4 C-0.66 4 -1.32 4 -2 4 C-2.33 4.99 -2.66 5.98 -3 7 C-3 5.02 -3 3.04 -3 1 C-2.67 1.66 -2.34 2.32 -2 3 C-1.34 3 -0.68 3 0 3 C0 2.01 0 1.02 0 0 Z " fill="#6C6D73" transform="translate(149,298)"/>
<path d="M0 0 C1.32 0.33 2.64 0.66 4 1 C2.35 4.96 0.7 8.92 -1 13 C-1.99 13 -2.98 13 -4 13 C-3.71517632 11.58194169 -3.42181856 10.16559621 -3.125 8.75 C-2.96257812 7.96109375 -2.80015625 7.1721875 -2.6328125 6.359375 C-2.00849925 4.03168856 -1.15161458 2.10968048 0 0 Z " fill="#A5A8B0" transform="translate(200,254)"/>
<path d="M0 0 C2.64 0 5.28 0 8 0 C8.625 1.875 8.625 1.875 9 4 C7 6 7 6 3.875 6.125 C2.451875 6.063125 2.451875 6.063125 1 6 C0.67 4.02 0.34 2.04 0 0 Z " fill="#201F24" transform="translate(202,314)"/>
<path d="M0 0 C1.32 0 2.64 0 4 0 C3.21824485 4.84688192 1.60155722 9.3766367 0 14 C-0.66 13.34 -1.32 12.68 -2 12 C-2.99 12.495 -2.99 12.495 -4 13 C-3.52140759 11.39566191 -3.04210442 9.79153584 -2.5625 8.1875 C-2.29566406 7.29417969 -2.02882812 6.40085937 -1.75390625 5.48046875 C-1.19612127 3.64526945 -0.60655425 1.81966274 0 0 Z " fill="#A2A5AD" transform="translate(183,254)"/>
<path d="M0 0 C0.33 1.32 0.66 2.64 1 4 C4.96 4 8.92 4 13 4 C13.33 3.34 13.66 2.68 14 2 C16.97 2.33 19.94 2.66 23 3 C23 3.66 23 4.32 23 5 C18.26439612 5.77315982 13.78920474 6 9 6 C7.39125 6.309375 7.39125 6.309375 5.75 6.625 C3 7 3 7 0 5 C-0.1875 2.375 -0.1875 2.375 0 0 Z " fill="#151419" transform="translate(148,207)"/>
<path d="M0 0 C1.70040859 5.00868654 -0.0999942 9.2576468 -2 14 C-4.1875 17.125 -4.1875 17.125 -6 19 C-5.51574723 11.63601816 -4.14918639 6.22377959 0 0 Z " fill="#43484B" transform="translate(158,110)"/>
<path d="M0 0 C1.98 0 3.96 0 6 0 C5.67 2.31 5.34 4.62 5 7 C6.65 7 8.3 7 10 7 C10 7.33 10 7.66 10 8 C6.37 8 2.74 8 -1 8 C-0.67 5.36 -0.34 2.72 0 0 Z " fill="#62646A" transform="translate(158,371)"/>
<path d="M0 0 C0.33 1.32 0.66 2.64 1 4 C2.74991334 4.02715383 4.49994945 4.04646551 6.25 4.0625 C7.22453125 4.07410156 8.1990625 4.08570313 9.203125 4.09765625 C11.65758678 4.01195577 13.66168914 3.70706066 16 3 C13.72228105 5.80844958 12.63802112 6.91735478 8.984375 7.390625 C7.38335937 7.32101563 7.38335937 7.32101563 5.75 7.25 C4.67234375 7.21390625 3.5946875 7.1778125 2.484375 7.140625 C1.66453125 7.09421875 0.8446875 7.0478125 0 7 C0 4.69 0 2.38 0 0 Z " fill="#696F7C" transform="translate(152,193)"/>
<path d="M0 0 C0.66 0.33 1.32 0.66 2 1 C1.67 2.98 1.34 4.96 1 7 C0.34 6.34 -0.32 5.68 -1 5 C-0.625 2.375 -0.625 2.375 0 0 Z M0 7 C0.36995516 11.56278027 0.36995516 11.56278027 -1.375 13.625 C-1.91125 14.07875 -2.4475 14.5325 -3 15 C-3.66 15.99 -4.32 16.98 -5 18 C-4.91291331 16.54054712 -4.80473093 15.08234132 -4.6875 13.625 C-4.62949219 12.81289063 -4.57148437 12.00078125 -4.51171875 11.1640625 C-3.93288652 8.71617658 -2.91559758 7 0 7 Z " fill="#212023" transform="translate(129,248)"/>
<path d="M0 0 C1.32 0 2.64 0 4 0 C4 0.66 4 1.32 4 2 C4.66 2 5.32 2 6 2 C5.67 2.99 5.34 3.98 5 5 C1.8033 6.37001429 -0.69903842 5.8252404 -4 5 C-4 4.34 -4 3.68 -4 3 C-3.01 3 -2.02 3 -1 3 C-0.67 2.01 -0.34 1.02 0 0 Z " fill="#6A6E76" transform="translate(214,354)"/>
<path d="M0 0 C3 2 3 2 3.546875 4.09375 C3.61390625 4.8878125 3.6809375 5.681875 3.75 6.5 C3.86601562 7.69109375 3.86601562 7.69109375 3.984375 8.90625 C4 11 4 11 3 13 C2.34 13 1.68 13 1 13 C0.63779734 11.20994059 0.28547531 9.41787943 -0.0625 7.625 C-0.25972656 6.62726563 -0.45695312 5.62953125 -0.66015625 4.6015625 C-1 2 -1 2 0 0 Z " fill="#23211F" transform="translate(264,340)"/>
<path d="M0 0 C1.796875 1.51953125 1.796875 1.51953125 3 3 C2.319375 2.835 1.63875 2.67 0.9375 2.5 C-2.47552103 1.91906025 -5.54483907 1.73923314 -9 2 C-9.99 3.485 -9.99 3.485 -11 5 C-13.625 5.1875 -13.625 5.1875 -16 5 C-16.33 4.01 -16.66 3.02 -17 2 C-11.45710229 0.07203558 -5.86568198 -0.95368606 0 0 Z " fill="#3C414C" transform="translate(212,194)"/>
<path d="M0 0 C-0.33 1.65 -0.66 3.3 -1 5 C-3.31 5 -5.62 5 -8 5 C-8 3.68 -8 2.36 -8 1 C-5.29120665 -0.35439668 -2.99066732 -0.06501451 0 0 Z " fill="#6C6E72" transform="translate(185,300)"/>
<path d="M0 0 C2.22111286 0.38295049 3.80380283 0.86920188 5.6875 2.125 C7.63305811 4.90436873 7.68668789 7.67889163 8 11 C7.01 10.67 6.02 10.34 5 10 C3.3125 6.4375 3.3125 6.4375 2 3 C1.34 3.66 0.68 4.32 0 5 C0 3.35 0 1.7 0 0 Z " fill="#383C3F" transform="translate(205,74)"/>
<path d="M0 0 C0.33 0 0.66 0 1 0 C1.53132389 2.58157368 2.05034379 5.16461756 2.5625 7.75 C2.78969727 8.84441406 2.78969727 8.84441406 3.02148438 9.9609375 C3.74557178 13.66557073 4.09817231 16.39322322 3 20 C-0.11713854 15.78654502 -0.37676791 12.2589095 -0.1875 7.1875 C-0.16719727 6.14819336 -0.16719727 6.14819336 -0.14648438 5.08789062 C-0.11138845 3.39158735 -0.05758943 1.69568864 0 0 Z " fill="#403D3B" transform="translate(258,302)"/>
<path d="M0 0 C0.33 0 0.66 0 1 0 C0.25 7.625 0.25 7.625 -2 11 C-2.99 11 -3.98 11 -5 11 C-4.54917531 9.53932801 -4.08906463 8.08151968 -3.625 6.625 C-3.36976563 5.81289063 -3.11453125 5.00078125 -2.8515625 4.1640625 C-2 2 -2 2 0 0 Z " fill="#A5A8B0" transform="translate(192,257)"/>
<path d="M0 0 C2.475 0.495 2.475 0.495 5 1 C5 2.98 5 4.96 5 7 C3.35 7 1.7 7 0 7 C0 4.69 0 2.38 0 0 Z " fill="#989EA3" transform="translate(202,371)"/>
<path d="M0 0 C0 2.31 0 4.62 0 7 C-1.9375 7.5625 -1.9375 7.5625 -4 8 C-5 7 -5 7 -5.0625 3.9375 C-5.041875 2.968125 -5.02125 1.99875 -5 1 C-2 0 -2 0 0 0 Z " fill="#94989D" transform="translate(158,371)"/>
<path d="M0 0 C1.00289062 0.10183594 2.00578125 0.20367187 3.0390625 0.30859375 C3.80992187 0.39238281 4.58078125 0.47617188 5.375 0.5625 C5.375 1.2225 5.375 1.8825 5.375 2.5625 C6.179375 2.68625 6.98375 2.81 7.8125 2.9375 C8.658125 3.14375 9.50375 3.35 10.375 3.5625 C10.705 4.2225 11.035 4.8825 11.375 5.5625 C8.00037285 5.01526317 6.29265 4.5076 3.375 2.5625 C0.62981679 2.32062349 0.62981679 2.32062349 -2.3125 2.4375 C-3.30636719 2.45554688 -4.30023438 2.47359375 -5.32421875 2.4921875 C-6.08347656 2.51539063 -6.84273437 2.53859375 -7.625 2.5625 C-7.625 1.9025 -7.625 1.2425 -7.625 0.5625 C-4.89657939 -0.80171031 -3.01546682 -0.31557211 0 0 Z " fill="#676D7A" transform="translate(207.625,191.4375)"/>
<path d="M0 0 C4.75 0.75 4.75 0.75 7 3 C5.8125 4.5 5.8125 4.5 4 6 C1.3125 6.1875 1.3125 6.1875 -1 6 C-0.67 4.02 -0.34 2.04 0 0 Z " fill="#717277" transform="translate(188,299)"/>
<path d="M0 0 C0.33 0 0.66 0 1 0 C1.36552803 1.41377782 1.71695495 2.83120576 2.0625 4.25 C2.25972656 5.03890625 2.45695313 5.8278125 2.66015625 6.640625 C3.01497267 9.10394822 2.76877544 10.65604132 2 13 C1.34 12.34 0.68 11.68 0 11 C-0.66 11.66 -1.32 12.32 -2 13 C-2.042721 11.33388095 -2.04063832 9.66617115 -2 8 C-1.67 7.67 -1.34 7.34 -1 7 C-0.63239269 4.67182036 -0.29758419 2.3381615 0 0 Z " fill="#737A86" transform="translate(211,109)"/>
<path d="M0 0 C2.09491746 3.40424088 2.49573145 6.03414842 2 10 C0 12.375 0 12.375 -2 14 C-1.43393721 9.30976546 -0.81462495 4.65499974 0 0 Z " fill="#595E62" transform="translate(157,100)"/>
<path d="M0 0 C1.98 0.495 1.98 0.495 4 1 C4 2.98 4 4.96 4 7 C2.35 7 0.7 7 -1 7 C-0.67 4.69 -0.34 2.38 0 0 Z " fill="#979DA2" transform="translate(209,371)"/>
<path d="M0 0 C0.97353743 3.02878312 1.24612776 5.02846457 0 8 C-2.0625 9.75 -2.0625 9.75 -4 11 C-3.38461538 3.49230769 -3.38461538 3.49230769 -1.4375 1 C-0.963125 0.67 -0.48875 0.34 0 0 Z " fill="#232326" transform="translate(134,226)"/>
<path d="M0 0 C0.99 0 1.98 0 3 0 C3 2.97 3 5.94 3 9 C1.02 9.99 1.02 9.99 -1 11 C-0.67 7.37 -0.34 3.74 0 0 Z " fill="#60636D" transform="translate(164,133)"/>
<path d="M0 0 C0.66 0 1.32 0 2 0 C2.33 3.96 2.66 7.92 3 12 C2.34 11.67 1.68 11.34 1 11 C0.33203125 8.75 0.33203125 8.75 -0.1875 6 C-0.36667969 5.0925 -0.54585937 4.185 -0.73046875 3.25 C-0.81941406 2.5075 -0.90835938 1.765 -1 1 C-0.67 0.67 -0.34 0.34 0 0 Z " fill="#1F2022" transform="translate(217,114)"/>
<path d="M0 0 C0.66 0 1.32 0 2 0 C2.08159574 4.16138263 1.98248524 7.9472484 1 12 C-1 10 -1 10 -1.23046875 8.125 C-1.21628906 7.42375 -1.20210937 6.7225 -1.1875 6 C-1.18105469 5.29875 -1.17460937 4.5975 -1.16796875 3.875 C-1 2 -1 2 0 0 Z " fill="#484E55" transform="translate(159,94)"/>
<path d="M0 0 C2.10633718 1.70828921 2.93801608 2.52148416 3.29296875 5.26171875 C3.25816406 6.06222656 3.22335938 6.86273438 3.1875 7.6875 C3.16042969 8.49574219 3.13335937 9.30398437 3.10546875 10.13671875 C3.07066406 10.75160156 3.03585938 11.36648437 3 12 C1 11 1 11 0 8 C-0.12781786 5.32605036 -0.04391871 2.67904143 0 0 Z " fill="#070B0F" transform="translate(208,85)"/>
<path d="M0 0 C2.31 0.66 4.62 1.32 7 2 C6.01 2.495 6.01 2.495 5 3 C5 3.66 5 4.32 5 5 C3.02 5 1.04 5 -1 5 C-0.67 3.35 -0.34 1.7 0 0 Z " fill="#96A4B2" transform="translate(177,82)"/>
<path d="M0 0 C1.32 0 2.64 0 4 0 C4 1.65 4 3.3 4 5 C1.36 5 -1.28 5 -4 5 C-3.67 4.34 -3.34 3.68 -3 3 C-1.68 3 -0.36 3 1 3 C0.67 2.01 0.34 1.02 0 0 Z " fill="#575B61" transform="translate(168,355)"/>
<path d="M0 0 C0.99 0.33 1.98 0.66 3 1 C3 2.98 3 4.96 3 7 C1.68 7 0.36 7 -1 7 C-1.04254356 5.00045254 -1.04080783 2.99958364 -1 1 C-0.67 0.67 -0.34 0.34 0 0 Z " fill="#9EA5A8" transform="translate(224,371)"/>
<path d="M0 0 C0.66 0 1.32 0 2 0 C2 0.99 2 1.98 2 3 C2.66 3 3.32 3 4 3 C4.33 2.34 4.66 1.68 5 1 C5 2.98 5 4.96 5 7 C4.34 7 3.68 7 3 7 C3 6.34 3 5.68 3 5 C2.34 5 1.68 5 1 5 C0.67 5.66 0.34 6.32 0 7 C0 4.69 0 2.38 0 0 Z " fill="#A7ABB0" transform="translate(184,371)"/>
<path d="M0 0 C3 2 3 2 3.58203125 4.09375 C3.65808594 4.8878125 3.73414063 5.681875 3.8125 6.5 C3.90144531 7.2940625 3.99039062 8.088125 4.08203125 8.90625 C4 11 4 11 2 13 C1.34 8.71 0.68 4.42 0 0 Z " fill="#171517" transform="translate(258,317)"/>
<path d="M0 0 C1.32 0 2.64 0 4 0 C4 1.98 4 3.96 4 6 C2.68 6 1.36 6 0 6 C0 4.02 0 2.04 0 0 Z " fill="#717176" transform="translate(221,299)"/>
<path d="M0 0 C-0.33 2.31 -0.66 4.62 -1 7 C-2.32 7 -3.64 7 -5 7 C-4.67 5.02 -4.34 3.04 -4 1 C-1 0 -1 0 0 0 Z " fill="#13141B" transform="translate(179,263)"/>
<path d="M0 0 C0.66 0 1.32 0 2 0 C2.33 1.98 2.66 3.96 3 6 C1.02 6 -0.96 6 -3 6 C-2 4 -1 2 0 0 Z " fill="#9EA6AD" transform="translate(236,372)"/>
<path d="M0 0 C1.65 0 3.3 0 5 0 C5.33 1.32 5.66 2.64 6 4 C4.02 4 2.04 4 0 4 C0 2.68 0 1.36 0 0 Z " fill="#343338" transform="translate(204,315)"/>
<path d="M0 0 C0.33 0 0.66 0 1 0 C1.33 2.97 1.66 5.94 2 9 C1.01 9.495 1.01 9.495 0 10 C-0.66 10.99 -1.32 11.98 -2 13 C-1.85769192 11.58297487 -1.71099254 10.1663904 -1.5625 8.75 C-1.48128906 7.96109375 -1.40007812 7.1721875 -1.31640625 6.359375 C-1.02365007 4.17635361 -0.57935581 2.1226818 0 0 Z " fill="#2B292A" transform="translate(120,282)"/>
<path d="M0 0 C3.3 0.33 6.6 0.66 10 1 C10 1.66 10 2.32 10 3 C3.6 4.23076923 3.6 4.23076923 0.5625 3.0625 C0.046875 2.711875 -0.46875 2.36125 -1 2 C-0.67 1.34 -0.34 0.68 0 0 Z " fill="#1D1C22" transform="translate(161,209)"/>
<path d="M0 0 C0 0.66 0 1.32 0 2 C-0.7425 1.9175 -1.485 1.835 -2.25 1.75 C-5.79788974 2.07253543 -6.66840101 3.42720112 -9 6 C-9.66 6 -10.32 6 -11 6 C-11 4 -11 4 -9.4375 1.875 C-6.19346756 -0.62040957 -3.9901641 -0.3069357 0 0 Z " fill="#1B2027" transform="translate(210,195)"/>
<path d="M0 0 C0.99 0.33 1.98 0.66 3 1 C2.625 3.4375 2.625 3.4375 2 6 C1.01 6.495 1.01 6.495 0 7 C-0.66 7.99 -1.32 8.98 -2 10 C-1.54177532 6.53058454 -1.10868317 3.32604951 0 0 Z " fill="#363639" transform="translate(143,172)"/>
<path d="M0 0 C2.31 0.33 4.62 0.66 7 1 C6.67 1.99 6.34 2.98 6 4 C4.35 4 2.7 4 1 4 C0.67 2.68 0.34 1.36 0 0 Z " fill="#5F6573" transform="translate(210,170)"/>
<path d="M0 0 C1.32 0.33 2.64 0.66 4 1 C3.67 2.32 3.34 3.64 3 5 C2.34 5 1.68 5 1 5 C0.67 5.66 0.34 6.32 0 7 C0 4.69 0 2.38 0 0 Z " fill="#77777C" transform="translate(158,298)"/>
<path d="M0 0 C2.39073445 3.82517513 2.55966552 7.59665524 3 12 C0.9375 10.5 0.9375 10.5 -1 8 C-1.05928384 5.17593353 -0.55954815 2.79774073 0 0 Z " fill="#525253" transform="translate(251,269)"/>
<path d="M0 0 C1.9955516 3.99110319 2.19546065 5.69986566 2 10 C1.01 9.67 0.02 9.34 -1 9 C-0.67 6.03 -0.34 3.06 0 0 Z " fill="#3F3F40" transform="translate(249,259)"/>
<path d="M0 0 C1.65 0.33 3.3 0.66 5 1 C4.67 1.99 4.34 2.98 4 4 C2.35 4 0.7 4 -1 4 C-0.67 2.68 -0.34 1.36 0 0 Z " fill="#667687" transform="translate(185,79)"/>
<path d="M0 0 C2.4294516 3.6441774 2.16179575 5.71241272 2 10 C1.67 9.34 1.34 8.68 1 8 C0.34 8 -0.32 8 -1 8 C-0.67 5.36 -0.34 2.72 0 0 Z " fill="#5C6269" transform="translate(160,86)"/>
<path d="M0 0 C1.65 0 3.3 0 5 0 C4.67 1.32 4.34 2.64 4 4 C2.68 4.33 1.36 4.66 0 5 C0 3.35 0 1.7 0 0 Z " fill="#75757B" transform="translate(151,299)"/>
<path d="M0 0 C1.485 0.99 1.485 0.99 3 2 C3 3.32 3 4.64 3 6 C2.01 6.495 2.01 6.495 1 7 C0.34 7.99 -0.32 8.98 -1 10 C-0.67 6.7 -0.34 3.4 0 0 Z " fill="#333335" transform="translate(123,266)"/>
<path d="M0 0 C0.99 0 1.98 0 3 0 C2.67 2.31 2.34 4.62 2 7 C1.34 6.67 0.68 6.34 0 6 C0 4.02 0 2.04 0 0 Z " fill="#36363A" transform="translate(244,243)"/>
<path d="M0 0 C0.66 0.33 1.32 0.66 2 1 C1.37240135 3.92879371 0.41377341 6.36095629 -1 9 C-1.66 9 -2.32 9 -3 9 C-2.01 6.03 -1.02 3.06 0 0 Z " fill="#686F7D" transform="translate(174,144)"/>
</svg>
