<?xml version="1.0" encoding="UTF-8"?>
<svg version="1.1" xmlns="http://www.w3.org/2000/svg" width="334" height="80">
<path d="M0 0 C1.48831242 0.00667405 2.97660807 0.01863442 4.46484375 0.03515625 C5.22345703 0.03966797 5.98207031 0.04417969 6.76367188 0.04882812 C8.64326246 0.06064945 10.52281274 0.07858547 12.40234375 0.09765625 C11.09116714 7.20886114 9.38513859 14.14465568 7.40234375 21.09765625 C8.4268648 20.22697702 9.44645639 19.35050183 10.46484375 18.47265625 C11.20089844 17.85003906 11.93695312 17.22742188 12.6953125 16.5859375 C14.82961142 14.62410718 16.71570797 12.66917847 18.640625 10.515625 C28.43819303 -0.06456513 28.43819303 -0.06456513 35.375 -0.8046875 C39.77934559 -0.92199348 44.04606096 -0.5310856 48.40234375 0.09765625 C46.82918199 3.9405622 44.39238313 6.29427385 41.4296875 9.16015625 C40.43803675 10.13139373 39.44650383 11.10275154 38.45507812 12.07421875 C36.89495916 13.59078921 35.33244922 15.10479706 33.76733398 16.61621094 C32.25250626 18.08274118 30.74701733 19.55837903 29.2421875 21.03515625 C28.33847412 21.91042969 27.43476074 22.78570312 26.50366211 23.6875 C23.96706355 26.52686585 23.96706355 26.52686585 23.40234375 30.09765625 C24.33294394 32.65208077 24.33294394 32.65208077 25.859375 35.265625 C26.6627832 36.72838867 26.6627832 36.72838867 27.48242188 38.22070312 C28.3399707 39.73760742 28.3399707 39.73760742 29.21484375 41.28515625 C29.77494141 42.30802734 30.33503906 43.33089844 30.91210938 44.38476562 C33.34698506 49.52218756 33.34698506 49.52218756 37.40234375 53.09765625 C37.65363037 52.40792725 37.90491699 51.71819824 38.16381836 51.00756836 C39.58282096 47.67362554 41.3465723 44.63055116 43.21875 41.5390625 C43.59410385 40.91345932 43.9694577 40.28785614 44.35618591 39.64329529 C45.15212445 38.31851369 45.94985746 36.99480879 46.74926758 35.67211914 C47.94075177 33.70003213 49.12613074 31.72438498 50.31054688 29.74804688 C54.2170315 23.24646402 58.18152426 16.78153742 62.2421875 10.375 C62.94593506 9.2624585 63.64968262 8.14991699 64.37475586 7.00366211 C66.22789734 4.3476786 67.91644728 2.16784684 70.40234375 0.09765625 C73.10736056 -0.24853896 75.34362971 -0.37502683 78.02734375 -0.27734375 C79.04828125 -0.27541016 79.04828125 -0.27541016 80.08984375 -0.2734375 C85.12073221 -0.18395529 85.12073221 -0.18395529 87.40234375 2.09765625 C87.99512357 4.44785168 88.47661432 6.73078601 88.890625 9.11328125 C89.0181868 9.82180237 89.1457486 10.53032349 89.2771759 11.26031494 C90.57200767 18.67660787 91.49499287 26.13205658 92.33764648 33.61132812 C92.59448211 35.88878636 92.86010772 38.165101 93.12695312 40.44140625 C94.40234375 51.47817109 94.40234375 51.47817109 94.40234375 56.09765625 C89.45234375 56.09765625 84.50234375 56.09765625 79.40234375 56.09765625 C78.41234375 52.13765625 78.41234375 52.13765625 77.40234375 48.09765625 C76.89574219 48.83822266 76.89574219 48.83822266 76.37890625 49.59375 C75.70988281 50.55474609 75.70988281 50.55474609 75.02734375 51.53515625 C74.36605469 52.49228516 74.36605469 52.49228516 73.69140625 53.46875 C72.40234375 55.09765625 72.40234375 55.09765625 70.40234375 56.09765625 C68.78996877 56.20803881 67.17317888 56.25677325 65.55712891 56.2746582 C64.04513412 56.29391106 64.04513412 56.29391106 62.50259399 56.31355286 C61.40990204 56.32093979 60.31721008 56.32832672 59.19140625 56.3359375 C58.07172455 56.34400925 56.95204285 56.35208099 55.7984314 56.36039734 C53.4261836 56.37424459 51.05391582 56.38496386 48.68164062 56.39282227 C45.049097 56.41005306 41.41745903 56.45393682 37.78515625 56.49804688 C35.48307962 56.5081719 33.18099525 56.5166886 30.87890625 56.5234375 C29.79026276 56.54094559 28.70161926 56.55845367 27.57998657 56.57649231 C26.05853531 56.57210396 26.05853531 56.57210396 24.50634766 56.56762695 C23.61525299 56.57349319 22.72415833 56.57935944 21.80606079 56.58540344 C17.88905055 55.79058828 16.13671738 53.15439002 13.93847656 49.99121094 C13.49858398 49.25805664 13.05869141 48.52490234 12.60546875 47.76953125 C11.88037109 46.57070312 11.88037109 46.57070312 11.140625 45.34765625 C10.64949219 44.52265625 10.15835937 43.69765625 9.65234375 42.84765625 C9.14574219 42.0071875 8.63914062 41.16671875 8.1171875 40.30078125 C6.87370034 38.23612332 5.63563518 36.16841492 4.40234375 34.09765625 C2.08301727 40.14778504 0.11018216 46.2235196 -1.73046875 52.4375 C-2.59765625 55.09765625 -2.59765625 55.09765625 -3.59765625 56.09765625 C-6.12815027 56.17079192 -8.63070462 56.19013152 -11.16015625 56.16015625 C-12.2265332 56.15338867 -12.2265332 56.15338867 -13.31445312 56.14648438 C-15.07555638 56.13466489 -16.83661661 56.11672888 -18.59765625 56.09765625 C-18.02031009 49.17304439 -16.61537171 42.85832697 -14.69140625 36.19140625 C-14.40664429 35.18549438 -14.12188232 34.17958252 -13.82849121 33.14318848 C-13.23003121 31.03459882 -12.62813217 28.92698246 -12.02294922 26.8203125 C-11.09307318 23.58169412 -10.17461565 20.33999691 -9.2578125 17.09765625 C-8.673838 15.04538474 -8.0892256 12.99329461 -7.50390625 10.94140625 C-7.22784546 9.96860718 -6.95178467 8.99580811 -6.6673584 7.99353027 C-6.41039185 7.10170044 -6.15342529 6.20987061 -5.88867188 5.29101562 C-5.66296509 4.50319702 -5.4372583 3.71537842 -5.20471191 2.90368652 C-4.10290006 -0.37427574 -3.78810547 0.10282588 0 0 Z M73.40234375 21.09765625 C72.07382663 22.89160138 72.07382663 22.89160138 70.80078125 25.21875 C70.3109375 26.07146484 69.82109375 26.92417969 69.31640625 27.80273438 C68.80851562 28.70443359 68.300625 29.60613281 67.77734375 30.53515625 C67.26171875 31.43298828 66.74609375 32.33082031 66.21484375 33.25585938 C63.67606069 36.97165455 63.67606069 36.97165455 62.40234375 41.09765625 C67.35234375 41.09765625 72.30234375 41.09765625 77.40234375 41.09765625 C76.74234375 34.49765625 76.08234375 27.89765625 75.40234375 21.09765625 C74.74234375 21.09765625 74.08234375 21.09765625 73.40234375 21.09765625 Z " fill="#EE1717" transform="translate(18.59765625,11.90234375)"/>
<path d="M0 0 C1.95532227 -0.35644531 1.95532227 -0.35644531 4.31640625 -0.328125 C5.16267578 -0.32296875 6.00894531 -0.3178125 6.88085938 -0.3125 C7.76580078 -0.291875 8.65074219 -0.27125 9.5625 -0.25 C10.89571289 -0.24226562 10.89571289 -0.24226562 12.25585938 -0.234375 C18.84605454 -0.15394546 18.84605454 -0.15394546 20 1 C20.28458862 2.52091011 20.51421433 4.0522089 20.71875 5.5859375 C20.84636719 6.51664063 20.97398437 7.44734375 21.10546875 8.40625 C21.30076172 9.87578125 21.30076172 9.87578125 21.5 11.375 C21.75783488 13.29982677 22.01814607 15.22432388 22.28125 17.1484375 C22.39533203 18.00614746 22.50941406 18.86385742 22.62695312 19.74755859 C22.96578454 22.15896968 22.96578454 22.15896968 24 25 C27.465 12.625 27.465 12.625 31 0 C36.28 0 41.56 0 47 0 C46.42265384 6.92461186 45.01771546 13.23932928 43.09375 19.90625 C42.80898804 20.91216187 42.52422607 21.91807373 42.23083496 22.95446777 C41.63237496 25.06305743 41.03047592 27.17067379 40.42529297 29.27734375 C39.49541693 32.51596213 38.5769594 35.75765934 37.66015625 39 C37.07618175 41.05227151 36.49156935 43.10436164 35.90625 45.15625 C35.49215881 46.61544861 35.49215881 46.61544861 35.06970215 48.10412598 C34.68425232 49.44187073 34.68425232 49.44187073 34.29101562 50.80664062 C34.06530884 51.59445923 33.83960205 52.38227783 33.60705566 53.19396973 C33 55 33 55 32 56 C30.5112814 56.08669432 29.018555 56.10703494 27.52734375 56.09765625 C26.71773193 56.09515869 25.90812012 56.09266113 25.07397461 56.09008789 C24.03893799 56.08098389 23.00390137 56.07187988 21.9375 56.0625 C18.658125 56.041875 15.37875 56.02125 12 56 C10.68 48.08 9.36 40.16 8 32 C5.61661766 38.35568625 3.70538662 44.49465421 1.96484375 51.0234375 C1 54 1 54 -1 56 C-3.58064129 56.14497985 -6.04943884 56.18677545 -8.625 56.125 C-9.33140625 56.11597656 -10.0378125 56.10695312 -10.765625 56.09765625 C-12.51056098 56.07407603 -14.25532295 56.03820461 -16 56 C-15.3837302 49.573991 -13.93783163 43.66844801 -12.12890625 37.48046875 C-11.84651596 36.50008133 -11.56412567 35.51969391 -11.2731781 34.50959778 C-10.67847309 32.45061364 -10.08077126 30.39249296 -9.48022461 28.33520508 C-8.56096967 25.18225113 -7.65388605 22.02597177 -6.74804688 18.86914062 C-6.16738776 16.86437434 -5.58603193 14.85980968 -5.00390625 12.85546875 C-4.73300674 11.91172897 -4.46210724 10.9679892 -4.18299866 9.99565125 C-3.92610764 9.12076553 -3.66921661 8.24587982 -3.40454102 7.34448242 C-3.18105484 6.57585373 -2.95756866 5.80722504 -2.72731018 5.01530457 C-2 3 -2 3 0 0 Z " fill="#EE1010" transform="translate(287,12)"/>
<path d="M0 0 C0.94594025 0.00565979 1.89188049 0.01131958 2.8664856 0.01715088 C5.87245392 0.03944929 8.87720761 0.08963362 11.8828125 0.140625 C13.92706606 0.16069844 15.97133839 0.17894773 18.015625 0.1953125 C23.01348515 0.23929272 28.01044325 0.30827515 33.0078125 0.390625 C31.63376475 3.93631688 30.13019368 6.97827704 28.0078125 10.140625 C27.4921875 10.91921875 26.9765625 11.6978125 26.4453125 12.5 C25.0078125 14.390625 25.0078125 14.390625 23.0078125 15.390625 C21.05007181 15.54441352 19.08763898 15.64033963 17.125 15.70703125 C15.37509766 15.76987305 15.37509766 15.76987305 13.58984375 15.83398438 C12.36652344 15.87330078 11.14320313 15.91261719 9.8828125 15.953125 C8.65175781 15.99630859 7.42070312 16.03949219 6.15234375 16.08398438 C3.10428397 16.19031204 0.0561406 16.29234281 -2.9921875 16.390625 C-3.6521875 17.710625 -4.3121875 19.030625 -4.9921875 20.390625 C-4.41251221 20.39473389 -3.83283691 20.39884277 -3.2355957 20.40307617 C-0.59094641 20.43611777 2.05143089 20.50676764 4.6953125 20.578125 C6.06333008 20.58682617 6.06333008 20.58682617 7.45898438 20.59570312 C12.08045053 20.74695111 14.32863596 20.86218407 18.0703125 23.7734375 C22.32522612 29.52100227 22.69419047 35.45177266 22.0078125 42.390625 C20.75631323 48.01259438 18.51377932 51.67320237 14.0078125 55.390625 C11.25195898 56.30924284 9.6482056 56.51266822 6.81176758 56.50415039 C5.97112259 56.50407486 5.1304776 56.50399933 4.26435852 56.50392151 C3.36114365 56.49876022 2.45792877 56.49359894 1.52734375 56.48828125 C0.59935471 56.4868663 -0.32863434 56.48545135 -1.28474426 56.48399353 C-4.24975808 56.47839437 -7.21469649 56.46584204 -10.1796875 56.453125 C-12.18945203 56.44810989 -14.19921775 56.443547 -16.20898438 56.43945312 C-21.13674782 56.42842521 -26.06445487 56.41116117 -30.9921875 56.390625 C-27.42442706 45.20267061 -27.42442706 45.20267061 -22.9921875 41.390625 C-18.19261882 40.13689393 -13.55369322 40.22167076 -8.6171875 40.328125 C-7.30878906 40.32103516 -6.00039062 40.31394531 -4.65234375 40.30664062 C-1.4300878 40.29488057 1.78637531 40.32421344 5.0078125 40.390625 C5.0078125 39.070625 5.0078125 37.750625 5.0078125 36.390625 C3.69425781 36.37644531 2.38070312 36.36226562 1.02734375 36.34765625 C-0.70836801 36.30074512 -2.44404402 36.25249779 -4.1796875 36.203125 C-5.04400391 36.19732422 -5.90832031 36.19152344 -6.79882812 36.18554688 C-11.19158546 36.03407248 -13.37990224 35.84923867 -16.98046875 33.15234375 C-21.3288075 27.18287677 -21.92960617 21.61937925 -20.9921875 14.390625 C-17.37481944 3.27459269 -11.32648262 -0.2570752 0 0 Z " fill="#EE1010" transform="translate(198.9921875,11.609375)"/>
<path d="M0 0 C0.9445253 0.00848969 1.8890506 0.01697937 2.86219788 0.02572632 C5.85854513 0.05912882 8.85213214 0.13438227 11.84765625 0.2109375 C13.88733073 0.24105415 15.9270477 0.26842697 17.96679688 0.29296875 C22.94896899 0.35887699 27.92909579 0.46230652 32.91015625 0.5859375 C31.05687242 6.62892168 28.97324458 11.59217678 23.91015625 15.5859375 C19.24553103 16.80883169 14.77203947 16.75665642 9.97265625 16.6484375 C8.08836914 16.65907227 8.08836914 16.65907227 6.16601562 16.66992188 C3.07841819 16.68166179 -0.00310526 16.65246615 -3.08984375 16.5859375 C-3.41984375 17.5759375 -3.74984375 18.5659375 -4.08984375 19.5859375 C-3.11511711 20.78134993 -3.11511711 20.78134993 -1.31152344 20.69604492 C-0.55258789 20.69451416 0.20634766 20.6929834 0.98828125 20.69140625 C2.23544922 20.71364258 2.23544922 20.71364258 3.5078125 20.73632812 C5.26025289 20.76084681 7.01307268 20.76640446 8.765625 20.75195312 C15.02189208 20.91101076 15.02189208 20.91101076 17.59960938 22.86962891 C22.43596659 28.49754818 22.24652442 33.97281066 22.1953125 41.0546875 C21.73535132 46.75064507 19.99579747 50.62669878 15.84765625 54.5234375 C12.76463575 56.21412616 10.25884429 56.71008731 6.8059082 56.69946289 C5.57497185 56.69934959 5.57497185 56.69934959 4.31916809 56.69923401 C2.99715645 56.69149208 2.99715645 56.69149208 1.6484375 56.68359375 C0.7426445 56.6821788 -0.1631485 56.68076385 -1.09638977 56.67930603 C-3.99007466 56.67370751 -6.88368224 56.66115531 -9.77734375 56.6484375 C-11.73893117 56.64342231 -13.70051981 56.63885943 -15.66210938 56.63476562 C-20.47138396 56.62373857 -25.28060075 56.60647497 -30.08984375 56.5859375 C-29.10209535 50.73967697 -27.50364649 45.7256869 -23.08984375 41.5859375 C-18.11714177 40.33784528 -13.28713106 40.63797831 -8.21484375 40.9609375 C-6.84521426 41.01114861 -5.47540824 41.05676742 -4.10546875 41.09765625 C-0.76242325 41.21536912 2.57160555 41.37954051 5.91015625 41.5859375 C5.91015625 39.6059375 5.91015625 37.6259375 5.91015625 35.5859375 C4.59660156 35.63234375 3.28304687 35.67875 1.9296875 35.7265625 C0.19403321 35.76409016 -1.54164574 35.80048925 -3.27734375 35.8359375 C-4.57381836 35.88621094 -4.57381836 35.88621094 -5.89648438 35.9375 C-10.05845842 36.00128504 -12.44297542 35.9691733 -16.08984375 33.80859375 C-19.73641847 29.7560527 -20.83506372 25.55138345 -21.52734375 20.2109375 C-20.60277601 12.55023334 -18.16939177 6.84461577 -12.21739197 1.87275696 C-8.3333069 -0.47648063 -4.42197586 -0.15140633 0 0 Z " fill="#EE1010" transform="translate(146.08984375,11.4140625)"/>
<path d="M0 0 C1.22244667 0.00333092 1.22244667 0.00333092 2.46958923 0.00672913 C3.85090782 0.00684242 3.85090782 0.00684242 5.26013184 0.00695801 C6.2611644 0.01211929 7.26219696 0.01728058 8.29356384 0.02259827 C9.31316696 0.02401321 10.33277008 0.02542816 11.38327026 0.02688599 C14.65417867 0.03250355 17.92501972 0.04505902 21.19590759 0.05775452 C23.40749515 0.06276725 25.61908377 0.06733055 27.83067322 0.07142639 C33.26494116 0.08247868 38.69916957 0.09923389 44.13340759 0.12025452 C40.60528708 11.22629542 40.60528708 11.22629542 36.13340759 15.12025452 C31.6304927 16.22756564 27.36061746 15.97444387 22.75840759 15.68275452 C21.54539978 15.64214905 20.33239197 15.60154358 19.08262634 15.55970764 C16.09544818 15.45386275 13.11649521 15.30618103 10.13340759 15.12025452 C9.47340759 18.42025452 8.81340759 21.72025452 8.13340759 25.12025452 C9.12340759 23.80025452 10.11340759 22.48025452 11.13340759 21.12025452 C13.30992126 20.66615295 13.30992126 20.66615295 15.80137634 20.72962952 C16.69405212 20.74252014 17.58672791 20.75541077 18.50645447 20.76869202 C19.435224 20.80220764 20.36399353 20.83572327 21.32090759 20.87025452 C22.73146423 20.89732483 22.73146423 20.89732483 24.17051697 20.92494202 C26.49250648 20.97208901 28.81244449 21.03787221 31.13340759 21.12025452 C28.27690886 26.91384772 25.3249013 32.12002924 20.13340759 36.12025452 C14.88911173 37.44839724 9.43979664 36.76483429 4.13340759 36.12025452 C3.80340759 37.77025452 3.47340759 39.42025452 3.13340759 41.12025452 C13.03340759 41.12025452 22.93340759 41.12025452 33.13340759 41.12025452 C30.904031 47.80838429 29.27239692 52.36542613 23.13340759 56.12025452 C16.4559568 57.6191333 9.41623942 56.96419248 2.63340759 56.68275452 C0.74287776 56.6375645 -1.14775566 56.59650783 -3.03846741 56.55970764 C-7.65041645 56.46097972 -12.25735948 56.30595708 -16.86659241 56.12025452 C-16.28924625 49.19564266 -14.88430786 42.88092523 -12.96034241 36.21400452 C-12.67558044 35.20809265 -12.39081848 34.20218079 -12.09742737 33.16578674 C-11.49896736 31.05719709 -10.89706833 28.94958073 -10.29188538 26.84291077 C-9.36200934 23.60429238 -8.44355181 20.36259518 -7.52674866 17.12025452 C-6.94277416 15.067983 -6.35816176 13.01589288 -5.77284241 10.96400452 C-5.49678162 9.99120544 -5.22072083 9.01840637 -4.93629456 8.01612854 C-4.679328 7.12429871 -4.42236145 6.23246887 -4.15760803 5.31361389 C-3.93190125 4.52579529 -3.70619446 3.73797668 -3.47364807 2.92628479 C-2.67760298 0.55799862 -2.52561949 0.16271209 0 0 Z " fill="#EE1212" transform="translate(237.86659240722656,11.879745483398438)"/>
<path d="M0 0 C1.0209375 0.00193359 1.0209375 0.00193359 2.0625 0.00390625 C7.09338846 0.09338846 7.09338846 0.09338846 9.375 2.375 C9.96777982 4.72519543 10.44927057 7.00812976 10.86328125 9.390625 C10.99084305 10.09914612 11.11840485 10.80766724 11.24983215 11.53765869 C12.54466392 18.95395162 13.46764912 26.40940033 14.31030273 33.88867188 C14.56713836 36.16613011 14.83276397 38.44244475 15.09960938 40.71875 C16.375 51.75551484 16.375 51.75551484 16.375 56.375 C11.425 56.375 6.475 56.375 1.375 56.375 C0.715 53.735 0.055 51.095 -0.625 48.375 C-1.28201904 49.51590088 -1.93903809 50.65680176 -2.6159668 51.83227539 C-4.90277321 55.01416094 -5.32550615 55.31204537 -9.40551758 56.16967773 C-10.86065958 56.1685792 -12.31612109 56.12957505 -13.76953125 56.05859375 C-14.53931808 56.04868912 -15.30910492 56.03878448 -16.10221863 56.02857971 C-18.54929143 55.9895415 -20.9917955 55.9017628 -23.4375 55.8125 C-25.10084643 55.77737142 -26.76426354 55.74543508 -28.42773438 55.71679688 C-32.49523689 55.6398172 -36.55934536 55.51912722 -40.625 55.375 C-40.03328036 51.00335504 -38.42559791 47.92415496 -36.1953125 44.140625 C-35.84888199 43.54936325 -35.50245148 42.9581015 -35.14552307 42.34892273 C-34.02142389 40.43625603 -32.88640495 38.53037699 -31.75 36.625 C-30.97357873 35.31331259 -30.19729343 34.0015447 -29.42114258 32.68969727 C-25.15392716 25.50033237 -20.83057027 18.34771235 -16.3125 11.3125 C-15.88791504 10.64831055 -15.46333008 9.98412109 -15.02587891 9.29980469 C-10.60810509 2.55376893 -8.2875402 -0.30165376 0 0 Z M-4.625 21.375 C-5.95351712 23.16894513 -5.95351712 23.16894513 -7.2265625 25.49609375 C-7.71640625 26.34880859 -8.20625 27.20152344 -8.7109375 28.08007812 C-9.21882813 28.98177734 -9.72671875 29.88347656 -10.25 30.8125 C-10.765625 31.71033203 -11.28125 32.60816406 -11.8125 33.53320312 C-14.35128306 37.2489983 -14.35128306 37.2489983 -15.625 41.375 C-10.675 41.375 -5.725 41.375 -0.625 41.375 C-1.285 34.775 -1.945 28.175 -2.625 21.375 C-3.285 21.375 -3.945 21.375 -4.625 21.375 Z " fill="#EE0E0E" transform="translate(96.625,11.625)"/>
<path d="M0 0 C0.66 0.33 1.32 0.66 2 1 C-0.31 3.31 -2.62 5.62 -5 8 C-5 5 -5 5 -2.5 2.3125 C-1.675 1.549375 -0.85 0.78625 0 0 Z " fill="#F35555" transform="translate(187,13)"/>
</svg>
