<svg width="512" height="512" viewBox="0 0 512 512" fill="none" xmlns="http://www.w3.org/2000/svg">
<mask id="mask0_9076_21" style="mask-type:alpha" maskUnits="userSpaceOnUse" x="58" y="42" width="396" height="428">
<path fill-rule="evenodd" clip-rule="evenodd" d="M256 74.667C230.656 74.667 208.587 88.819 197.312 109.672C220.629 112.328 237.04 117.334 256 126.219C274.96 117.334 291.371 112.328 314.688 109.672C303.416 88.827 281.349 74.667 256 74.667ZM256 42.667C213.405 42.667 177.152 69.6457 163.323 107.414C141.152 106.667 113.232 106.667 76.0801 106.667H74.6667C70.4233 106.667 66.3536 108.353 63.353 111.353C60.3525 114.354 58.6667 118.424 58.6667 122.667V453.334C58.6667 457.577 60.3525 461.647 63.353 464.647C66.3536 467.648 70.4233 469.334 74.6667 469.334H320C393.637 469.334 453.333 409.638 453.333 336V122.667C453.333 118.424 451.648 114.354 448.647 111.353C445.647 108.353 441.577 106.667 437.333 106.667H435.917C398.768 106.667 370.848 106.667 348.677 107.414C334.843 69.635 298.587 42.667 256 42.667ZM90.6667 138.67V437.334H320C375.965 437.334 421.333 391.966 421.333 336V138.67C371.995 138.694 342.341 138.931 320.341 141.246C297.163 143.686 283.011 148.384 263.155 158.312C260.933 159.423 258.484 160.001 256 160.001C253.516 160.001 251.067 159.423 248.845 158.312C228.989 148.384 214.837 143.686 191.659 141.246C169.659 138.931 140.005 138.694 90.6667 138.67ZM133.333 256C133.333 229.491 154.824 208 181.333 208C207.843 208 229.333 229.491 229.333 256C229.333 282.51 207.843 304 181.333 304C154.824 304 133.333 282.51 133.333 256ZM181.333 176C137.149 176 101.333 211.816 101.333 256C101.333 300.184 137.149 336 181.333 336C184.336 336 187.301 335.835 190.219 335.512L244.685 389.982C246.171 391.468 247.935 392.646 249.877 393.451C251.818 394.255 253.899 394.669 256 394.669C258.101 394.669 260.182 394.255 262.124 393.451C264.065 392.646 265.829 391.468 267.315 389.982L321.781 335.512C324.699 335.835 327.664 336 330.667 336C374.851 336 410.667 300.184 410.667 256C410.667 211.816 374.851 176 330.667 176C296.629 176 267.557 197.256 256 227.219C244.443 197.256 215.371 176 181.333 176ZM288.219 323.822C273.55 314.624 262.248 300.929 256 284.782C249.752 300.929 238.45 314.624 223.781 323.822L256 356.04L288.219 323.822ZM330.667 208C304.157 208 282.667 229.491 282.667 256C282.667 282.51 304.157 304 330.667 304C357.176 304 378.667 282.51 378.667 256C378.667 229.491 357.176 208 330.667 208ZM202.667 256C202.667 261.658 200.419 267.084 196.418 271.085C192.418 275.086 186.991 277.334 181.333 277.334C175.675 277.334 170.249 275.086 166.248 271.085C162.248 267.084 160 261.658 160 256C160 250.342 162.248 244.916 166.248 240.915C170.249 236.915 175.675 234.667 181.333 234.667C186.991 234.667 192.418 236.915 196.418 240.915C200.419 244.916 202.667 250.342 202.667 256ZM330.667 277.334C336.325 277.334 341.751 275.086 345.752 271.085C349.752 267.084 352 261.658 352 256C352 250.342 349.752 244.916 345.752 240.915C341.751 236.915 336.325 234.667 330.667 234.667C325.009 234.667 319.583 236.915 315.582 240.915C311.581 244.916 309.333 250.342 309.333 256C309.333 261.658 311.581 267.084 315.582 271.085C319.583 275.086 325.009 277.334 330.667 277.334Z" fill="black"/>
</mask>
<g mask="url(#mask0_9076_21)">
<rect x="8" width="504" height="480" fill="white"/>
</g>
</svg>
