<?xml version="1.0" encoding="UTF-8"?>
<svg version="1.1" xmlns="http://www.w3.org/2000/svg" width="474" height="512">
<path d="M0 0 C16.26112657 13.20899132 29.60441536 30.26605304 37 50 C37 50.66 37 51.32 37 52 C37.56984367 51.99631283 38.13968735 51.99262566 38.72679901 51.98882675 C52.61596281 51.90034749 66.50507698 51.83448389 80.39446259 51.79275131 C87.11138555 51.77215829 93.82811996 51.74410066 100.54492188 51.69824219 C107.02883401 51.65473336 113.51255043 51.63085186 119.99659729 51.62049103 C122.46850159 51.61310881 124.94039536 51.59869308 127.41221619 51.57707977 C130.87856062 51.54797999 134.34409965 51.54404691 137.81054688 51.54589844 C139.33832764 51.52432678 139.33832764 51.52432678 140.89697266 51.50231934 C147.92605382 51.54285973 153.70162173 52.74363929 158.83984375 57.81640625 C159.20207031 58.39261719 159.56429688 58.96882813 159.9375 59.5625 C160.31777344 60.14128906 160.69804687 60.72007813 161.08984375 61.31640625 C162.79980239 64.47946279 163.1260976 67.08708805 163.13142776 70.60805416 C163.13526891 71.55962711 163.13911005 72.51120006 163.1430676 73.49160856 C163.14220112 74.53923842 163.14133463 75.58686828 163.14044189 76.66624451 C163.14489858 78.33338779 163.14489858 78.33338779 163.1494453 80.03421074 C163.15815386 83.77859267 163.15964242 87.52294271 163.16113281 91.26733398 C163.1657598 93.94465283 163.17076375 96.62196875 163.17617798 99.29928589 C163.18977091 106.5915392 163.19578915 113.88378702 163.20018864 121.1760509 C163.2029527 125.73600617 163.20719067 130.29595932 163.21169281 134.85591316 C163.2238929 147.49620525 163.23418673 160.13649563 163.2375679 172.77679348 C163.23778747 173.58624997 163.23800703 174.39570645 163.23823325 175.22969193 C163.23845153 176.04104914 163.23866981 176.85240635 163.2388947 177.68835014 C163.23933816 179.33235387 163.23978472 180.9763576 163.24023438 182.62036133 C163.2404558 183.43583768 163.24067723 184.25131403 163.24090537 185.09150178 C163.2448422 198.26630617 163.26225864 211.44105487 163.2855939 224.6158378 C163.30939263 238.16262021 163.32177382 251.70937481 163.32293582 265.25617844 C163.32384847 272.85355505 163.32949548 280.45085934 163.34775543 288.04821587 C163.36327268 294.52723863 163.36820972 301.00616679 163.36001733 307.48520463 C163.3561497 310.78292596 163.3585278 314.08030502 163.37107468 317.37802696 C163.43700342 335.80164845 162.6668023 353.86534673 157.3125 371.625 C157.05831299 372.48633545 156.80412598 373.3476709 156.54223633 374.23510742 C143.98084047 415.19029602 115.38520107 448.87895911 77.79150391 469.0546875 C54.59269707 481.29586767 30.18528328 487.15963347 3.96186829 487.14044189 C2.03923252 487.14489858 2.03923252 487.14489858 0.07775563 487.1494453 C-3.45483327 487.15745216 -6.98740178 487.15930129 -10.51999867 487.16004276 C-14.33935718 487.16190421 -18.15870538 487.16945651 -21.97805786 487.17617798 C-30.31444525 487.18971274 -38.6508278 487.19577726 -46.98722434 487.20018864 C-52.19454089 487.20295702 -57.40185561 487.20719522 -62.60917091 487.21169281 C-77.03578798 487.2238748 -91.46240359 487.23417903 -105.88902569 487.2375679 C-107.27165096 487.23789725 -107.27165096 487.23789725 -108.68220805 487.23823325 C-109.60609755 487.23845153 -110.52998706 487.23866981 -111.48187321 487.2388947 C-113.35388227 487.23933816 -115.22589133 487.23978472 -117.09790039 487.24023438 C-118.02647163 487.2404558 -118.95504286 487.24067723 -119.91175262 487.24090537 C-134.97665011 487.2448582 -150.04149938 487.26233174 -165.10637822 487.2855939 C-180.58451038 487.309301 -196.06261831 487.32176931 -211.54076892 487.32293582 C-220.22694552 487.32385248 -228.91305912 487.32960327 -237.59921837 487.34775543 C-244.99009109 487.36314713 -252.38088129 487.36828206 -259.77176698 487.36001733 C-263.54178696 487.3561087 -267.31164069 487.35705104 -271.08164024 487.37107468 C-275.16882023 487.38613942 -279.25562496 487.37795437 -283.34281921 487.36749268 C-284.53347494 487.37554908 -285.72413067 487.38360548 -286.95086688 487.39190602 C-294.5910581 487.3460551 -299.69137796 486.7070544 -305.75 481.75 C-310.13282613 476.39321251 -311.37458393 471.65171977 -311.38031673 464.82035923 C-311.38497665 464.12919938 -311.38963657 463.43803952 -311.3944377 462.72593543 C-311.406361 460.41666851 -311.39700295 458.10799285 -311.38768005 455.79872131 C-311.39185414 454.12370889 -311.39733207 452.44869929 -311.40399987 450.77369493 C-311.41846327 446.17585993 -311.41420695 441.57820404 -311.40683305 436.9803592 C-311.40210593 432.01980218 -311.41460718 427.05928417 -311.42485046 422.09873962 C-311.44205252 412.38270843 -311.44287558 402.66674187 -311.43763756 392.9506994 C-311.43359737 385.05428382 -311.43503762 377.15788736 -311.44038582 369.2614727 C-311.44113424 368.13793425 -311.44188266 367.0143958 -311.44265376 365.85681073 C-311.44418523 363.57440531 -311.44572357 361.2919999 -311.44726873 359.00959449 C-311.46099878 337.60253554 -311.45555245 316.19551312 -311.44408352 294.788455 C-311.43414983 275.20069305 -311.44709329 255.61302554 -311.47101771 236.02527816 C-311.49539505 215.9153074 -311.50501999 195.80538065 -311.49836498 175.69539541 C-311.49486983 164.4040451 -311.49712442 153.11276745 -311.51461601 141.8214283 C-311.52932087 132.2097379 -311.52999585 122.59817132 -311.5125451 112.9864834 C-311.50401875 108.08219578 -311.50192547 103.17812951 -311.51719666 98.2738533 C-311.53100491 93.78382593 -311.52633045 89.29421034 -311.50695742 84.80420702 C-311.50318523 83.18046354 -311.5061544 81.55668738 -311.51656907 79.93297292 C-311.61936319 62.67896788 -311.61936319 62.67896788 -305.18359375 56.16015625 C-304.31927734 55.61681641 -304.31927734 55.61681641 -303.4375 55.0625 C-302.85871094 54.68222656 -302.27992188 54.30195312 -301.68359375 53.91015625 C-298.51571561 52.19759104 -295.91322763 51.87579706 -292.38728333 51.87974548 C-291.44077408 51.87837082 -290.49426483 51.87699615 -289.51907349 51.87557983 C-288.4825766 51.87917511 -287.44607971 51.88277039 -286.37817383 51.88647461 C-285.28533585 51.88632858 -284.19249786 51.88618256 -283.06654358 51.8860321 C-279.44668609 51.88672995 -275.82687977 51.89451642 -272.20703125 51.90234375 C-269.70025155 51.90420838 -267.19347148 51.90563207 -264.68669128 51.90663147 C-258.75814995 51.91006226 -252.82962509 51.91794743 -246.90109223 51.92798096 C-239.48940331 51.94025246 -232.07771211 51.94562534 -224.66601562 51.95117188 C-211.44400105 51.96190291 -198.22200169 51.97878337 -185 52 C-184.86658203 51.24855713 -184.73316406 50.49711426 -184.59570312 49.72290039 C-181.16087611 34.02264394 -168.61641138 20.28733701 -158 9 C-157.17628906 8.07960938 -157.17628906 8.07960938 -156.3359375 7.140625 C-116.40232755 -35.74374431 -44.22154186 -34.50681557 0 0 Z M-136 43 C-140.81126161 48.46397104 -140.81126161 48.46397104 -143 55 C-142.34217529 55.12528076 -141.68435059 55.25056152 -141.0065918 55.37963867 C-121.23027643 59.17186194 -102.36405737 63.11212393 -83.82568359 71.14160156 C-75.80865028 74.49717586 -70.74037904 73.90175761 -62.79931641 70.67700195 C-62.06116699 70.37109131 -61.32301758 70.06518066 -60.5625 69.75 C-46.39485182 64.09309155 -32.44399567 60.24067054 -17.44238281 57.45947266 C-13.28736528 56.67781102 -9.14403071 55.83766979 -5 55 C-10.86198205 40.48461588 -25.8312033 27.56855747 -39.88330078 21.13818359 C-74.37885554 6.52800369 -111.03373837 14.41267753 -136 43 Z M-272 91 C-272 208.81 -272 326.62 -272 448 C-202.0503125 448.0928125 -202.0503125 448.0928125 -130.6875 448.1875 C-108.62845825 448.22846802 -108.62845825 448.22846802 -86.1237793 448.27026367 C-72.90226088 448.28029908 -72.90226088 448.28029908 -59.68074036 448.28633118 C-53.80737164 448.28911782 -47.93408948 448.30007556 -42.06074524 448.31672668 C-35.27285427 448.33594183 -28.4850457 448.34448026 -21.69712739 448.34033485 C-18.2313311 448.33854224 -14.76571853 448.34120703 -11.29995668 448.35764539 C28.07262697 448.51699625 60.11169313 440.05365274 89 412 C111.28379347 389.78508997 124.05690492 358.91262412 124.12908131 327.45202821 C124.12471205 326.0672645 124.12471205 326.0672645 124.12025452 324.65452576 C124.12110894 323.65044916 124.12196337 322.64637256 124.12284368 321.61186939 C124.12448282 318.26783909 124.11900287 314.92385962 124.11352539 311.57983398 C124.11324315 309.17459616 124.11340196 306.76935826 124.1139679 304.36412048 C124.11422474 298.52394053 124.10989969 292.68377706 124.10353024 286.84360086 C124.09636371 280.04424838 124.09488351 273.24489819 124.09374207 266.44554246 C124.09155685 254.32135752 124.08491118 242.19717933 124.07543945 230.07299805 C124.06625159 218.29988641 124.05917748 206.52677661 124.05493164 194.75366211 C124.05466892 194.0271997 124.05440619 193.30073729 124.05413551 192.55226087 C124.05283041 188.9075832 124.05156672 185.26290553 124.05032361 181.61822784 C124.03996753 151.41214706 124.022289 121.20607447 124 91 C114.22559919 90.95270503 104.45124039 90.91765635 94.67674828 90.89637566 C90.13325203 90.88613866 85.58983649 90.87237142 81.04638672 90.84912109 C61.74573704 90.75316226 42.49702661 90.87994358 23.21875 91.890625 C22.05183184 91.95002069 22.05183184 91.95002069 20.86133957 92.0106163 C7.40423462 92.71402459 -5.78667561 94.29207779 -19 97 C-19.74749512 97.14663086 -20.49499023 97.29326172 -21.26513672 97.44433594 C-34.42892065 100.08746992 -46.88583262 105.21261872 -59.03125 110.8515625 C-60.2171875 111.39554688 -61.403125 111.93953125 -62.625 112.5 C-63.62789062 112.9846875 -64.63078125 113.469375 -65.6640625 113.96875 C-74.44282943 116.68256085 -81.19174127 114.6348724 -89.25 110.8125 C-91.10550013 109.97763882 -92.96227399 109.14560275 -94.8203125 108.31640625 C-95.71137695 107.91437988 -96.60244141 107.51235352 -97.52050781 107.09814453 C-151.25359616 83.30024857 -216.27867697 91 -272 91 Z " fill="#FFFFFF" transform="translate(311,25)"/>
<path d="M0 0 C12.84822833 10.77133564 25.93460668 23.56857721 30.0625 40.375 C30.7225 40.375 31.3825 40.375 32.0625 40.375 C32.495625 38.6115625 32.495625 38.6115625 32.9375 36.8125 C38.13612203 21.2656775 51.18509618 7.84850409 64.0625 -1.625 C64.76890625 -2.15867188 65.4753125 -2.69234375 66.203125 -3.2421875 C86.6399403 -17.85072584 113.31925096 -21.19516151 137.73925781 -18.30859375 C154.32342491 -15.40724477 170.22430243 -7.34727241 183.0625 3.375 C183.71734375 3.88417969 184.3721875 4.39335937 185.046875 4.91796875 C202.66806641 19.19113379 213.65176424 42.45043381 216.75 64.5625 C218.88825905 89.76665985 214.02143192 116.90995879 197.31640625 136.76953125 C194.67510122 139.7513978 191.88084504 142.56087404 189.0625 145.375 C188.40765625 146.10074219 187.7528125 146.82648438 187.078125 147.57421875 C173.74417121 162.07631806 152.3732914 171.33289372 133.0625 173.375 C131.23987046 173.41495039 129.41679743 173.43679359 127.59375 173.4453125 C126.61019531 173.455625 125.62664062 173.4659375 124.61328125 173.4765625 C122.5794721 173.49218715 120.54534789 173.48437154 118.51171875 173.453125 C113.02289882 173.55383729 109.89400443 173.89675269 105.96875 177.9296875 C105.18467773 178.89237549 105.18467773 178.89237549 104.38476562 179.87451172 C103.94841797 180.36967285 103.51207031 180.86483398 103.0625 181.375 C102.4025 181.375 101.7425 181.375 101.0625 181.375 C100.8459375 181.91640625 100.629375 182.4578125 100.40625 183.015625 C98.59750003 186.19145344 96.14526201 188.58228081 93.5625 191.125 C93.06363281 191.63160156 92.56476563 192.13820313 92.05078125 192.66015625 C88.31591139 196.375 88.31591139 196.375 86.0625 196.375 C86.0625 197.035 86.0625 197.695 86.0625 198.375 C85.4025 198.375 84.7425 198.375 84.0625 198.375 C83.815 198.9525 83.5675 199.53 83.3125 200.125 C81.87950012 202.70439979 80.27825324 204.43621592 78.0625 206.375 C77.4025 206.375 76.7425 206.375 76.0625 206.375 C75.815 206.9525 75.5675 207.53 75.3125 208.125 C73.87950012 210.70439979 72.27825324 212.43621592 70.0625 214.375 C69.4025 214.375 68.7425 214.375 68.0625 214.375 C67.82547363 214.93509766 67.58844727 215.49519531 67.34423828 216.07226562 C64.87451872 220.50929323 60.94725076 223.86207008 57.37890625 227.42919922 C55.95230558 228.86014928 54.54246094 230.30627918 53.1328125 231.75390625 C46.73159012 238.18225246 40.5759278 243.77510365 31.12109375 244.45703125 C17.20765677 243.90260587 7.7941429 230.13178404 -1.00259781 220.71263123 C-4.7005458 216.77520658 -8.45509553 212.89151223 -12.20210457 209.00084686 C-15.46466517 205.60716273 -18.70288354 202.19553339 -21.89599609 198.73632812 C-37.21226071 180.66598212 -37.21226071 180.66598212 -58.18795776 172.13928223 C-62.03828695 172.17924599 -65.7491205 172.52157664 -69.55233765 173.10943604 C-75.17169935 173.73509574 -80.58512672 171.95001259 -85.9375 170.375 C-87.03320312 170.07078125 -88.12890625 169.7665625 -89.2578125 169.453125 C-113.88315405 161.71212925 -132.90209225 143.93602744 -144.89453125 121.44921875 C-156.54721693 98.72621453 -158.37648253 71.53487742 -150.68359375 47.24609375 C-142.50878866 23.27833421 -126.41915774 3.44628588 -103.9375 -8.625 C-99.02505013 -10.92597821 -94.06299359 -12.85727536 -88.9375 -14.625 C-87.7721875 -15.04136719 -86.606875 -15.45773438 -85.40625 -15.88671875 C-56.976266 -24.54328439 -23.47490586 -18.03468958 0 0 Z M-97.9375 35.375 C-97.9375 36.035 -97.9375 36.695 -97.9375 37.375 C-98.9275 37.705 -99.9175 38.035 -100.9375 38.375 C-110.81847917 48.71493175 -116.32692602 64.21872058 -116.10546875 78.44042969 C-115.41244657 91.56293306 -111.25001903 103.12540074 -102.9375 113.375 C-102.29941406 114.28958984 -102.29941406 114.28958984 -101.6484375 115.22265625 C-93.96943657 125.56339676 -79.38672391 132.40356865 -66.9375 134.375 C-50.03074916 135.33792557 -34.74466881 132.51196355 -21.625 121 C-20.04406512 119.47724353 -18.48019954 117.93648023 -16.9375 116.375 C-15.96490234 115.43527344 -15.96490234 115.43527344 -14.97265625 114.4765625 C-4.51485058 103.62973561 -1.53088464 89.54544018 -1.56958008 75.03198242 C-1.78185938 64.08299822 -4.91336578 54.51273169 -10.9375 45.375 C-11.41703125 44.63765625 -11.8965625 43.9003125 -12.390625 43.140625 C-19.70664555 32.84137277 -30.07981679 26.32756107 -41.9375 22.375 C-42.67226562 22.13007813 -43.40703125 21.88515625 -44.1640625 21.6328125 C-62.51474403 16.61558496 -84.30948027 22.11530512 -97.9375 35.375 Z M75.94921875 40.8984375 C66.27747358 54.36018131 61.7476211 68.66649157 63.6875 85.3125 C65.69191452 97.27305243 69.86775331 106.43986552 78.0625 115.375 C79.2690625 116.7053125 79.2690625 116.7053125 80.5 118.0625 C93.9190929 130.17241311 108.08665212 135.37553447 126.10546875 134.52294922 C140.39683026 133.4425394 154.14381295 126.0312648 163.6640625 115.49609375 C174.01274677 103.12935904 178.58544123 88.78178071 177.90625 72.66796875 C176.13661106 57.23467527 168.63399321 42.29009165 156.5 32.375 C131.8896304 13.2416087 95.99850681 16.95788281 75.94921875 40.8984375 Z M30.0625 114.375 C29.5778125 115.41398438 29.093125 116.45296875 28.59375 117.5234375 C24.55617298 125.99309668 20.32029521 133.30531519 14.0625 140.375 C13.30710938 141.33664062 12.55171875 142.29828125 11.7734375 143.2890625 C8.87985749 146.77327034 5.47666175 149.40775885 1.875 152.125 C-2.69533987 155.55742238 -2.69533987 155.55742238 -6.9375 159.375 C-5.56264468 160.91666642 -5.56264468 160.91666642 -3.9375 162.375 C-3.2775 162.375 -2.6175 162.375 -1.9375 162.375 C-1.66898224 162.96883484 -1.40046448 163.56266968 -1.12380981 164.17449951 C0.06961794 166.38820315 1.26557338 167.82006436 3.04345703 169.58300781 C3.94416428 170.48348846 3.94416428 170.48348846 4.86306763 171.40216064 C5.83190384 172.355513 5.83190384 172.355513 6.8203125 173.328125 C7.48336395 173.98834656 8.14641541 174.64856812 8.82955933 175.32879639 C10.94421832 177.43227824 13.06573212 179.52869142 15.1875 181.625 C16.62415557 183.05162261 18.06035898 184.47870072 19.49609375 185.90625 C23.01300804 189.40113661 26.53608547 192.88970062 30.0625 196.375 C32.85675088 195.0987475 34.91392126 193.77529023 37.08691406 191.609375 C37.64719299 191.05540039 38.20747192 190.50142578 38.784729 189.93066406 C39.67246002 189.03686035 39.67246002 189.03686035 40.578125 188.125 C41.19395447 187.51108398 41.80978394 186.89716797 42.4442749 186.26464844 C43.74102646 184.96925517 45.03526657 183.67134356 46.32714844 182.37109375 C48.31225202 180.37524932 50.30783591 178.39033274 52.3046875 176.40625 C53.56314211 175.14647445 54.82097654 173.88607899 56.078125 172.625 C56.9780014 171.73119629 56.9780014 171.73119629 57.89605713 170.81933594 C61.01502572 168.10214901 61.01502572 168.10214901 62.0625 164.375 C62.7225 164.375 63.3825 164.375 64.0625 164.375 C64.0625 163.715 64.0625 163.055 64.0625 162.375 C64.7225 162.375 65.3825 162.375 66.0625 162.375 C67.69926257 160.4149719 67.69926257 160.4149719 69.0625 158.375 C68.34964844 157.86710937 67.63679688 157.35921875 66.90234375 156.8359375 C63.93805424 154.70547909 60.99668644 152.54669717 58.0625 150.375 C57.43472656 149.92125 56.80695313 149.4675 56.16015625 149 C44.81874543 140.12652454 37.88535554 127.22198787 32.0625 114.375 C31.4025 114.375 30.7425 114.375 30.0625 114.375 Z " fill="#FFFFFF" transform="translate(205.9375,178.625)"/>
<path d="M0 0 C6.01546722 4.59623361 9.70121016 11.44465742 10.9921875 18.87890625 C11.12976471 27.54627068 8.86796954 34.26571 3.0546875 40.81640625 C-4.62645433 47.16632766 -11.08923539 48.60041238 -20.9453125 47.81640625 C-27.86850963 46.0331585 -33.97456952 41.70405963 -37.9453125 35.81640625 C-41.62144474 28.73644786 -42.8788689 22.3481607 -40.7578125 14.62890625 C-38.46874829 7.96793563 -35.00672267 2.61488996 -28.9453125 -1.18359375 C-19.33921647 -5.71477112 -9.15511698 -5.57028202 0 0 Z " fill="#FFFFFF" transform="translate(162.9453125,234.18359375)"/>
<path d="M0 0 C6.98493808 4.5699329 10.45581119 10.04057505 12.52734375 18.03515625 C13.79134274 25.17888088 12.15470737 31.53345668 8.4375 37.6875 C4.49193542 43.22292353 -1.16951898 47.80758206 -8 49 C-17.58607817 49.76336304 -24.52342261 47.82087027 -32.13671875 41.86328125 C-37.48024647 36.51975353 -39.88220644 29.42099444 -40 22 C-39.28871009 13.73125479 -35.40292305 7.49489394 -29.6875 1.625 C-20.32624551 -4.03529342 -9.88495483 -4.9249509 0 0 Z " fill="#FFFFFF" transform="translate(340,233)"/>
</svg>
