<?xml version="1.0" encoding="UTF-8"?>
<svg version="1.1" xmlns="http://www.w3.org/2000/svg" width="512" height="496">
<path d="M0 0 C1.26921799 -0.00671722 2.53843597 -0.01343445 3.84611511 -0.02035522 C7.31335739 -0.03795103 10.78050081 -0.04270798 14.24778342 -0.0439868 C16.41968852 -0.04541305 18.59156887 -0.04969167 20.76346779 -0.05498123 C28.35697638 -0.07346303 35.95041497 -0.08165451 43.54394531 -0.08007812 C50.59502695 -0.07887848 57.64580162 -0.0999505 64.69680566 -0.13156545 C70.77183317 -0.15782256 76.84676104 -0.16844143 82.92184478 -0.16716731 C86.54063942 -0.16666026 90.15916125 -0.17219856 93.77789879 -0.19352341 C97.8221936 -0.21670678 101.86581268 -0.20732766 105.91015625 -0.1953125 C107.09031311 -0.20655151 108.27046997 -0.21779053 109.48638916 -0.22937012 C123.81629149 -0.12175325 134.61119446 4.93789632 145.02856445 14.60302734 C155.09274781 25.23688146 157.73696491 37.11270665 157.68261719 51.35253906 C157.68948044 52.62219513 157.69634369 53.8918512 157.70341492 55.19998169 C157.72122771 58.65470506 157.72020045 62.10917279 157.71447253 65.56392813 C157.7113629 68.46120977 157.71749281 71.35844356 157.72351128 74.25571835 C157.73751631 81.09792896 157.7360293 87.9400146 157.72460938 94.78222656 C157.713136 101.81123323 157.72719963 108.83985799 157.75400585 115.86881435 C157.77624932 121.93117621 157.78278076 127.99341895 157.77692944 134.05581868 C157.77357874 137.66449141 157.77584755 141.27291955 157.79318047 144.88155746 C157.81169395 148.91118846 157.79737424 152.9400892 157.78027344 156.96972656 C157.79477539 158.73289215 157.79477539 158.73289215 157.80957031 160.53167725 C157.68280927 174.87443254 152.61416981 185.74978331 142.84106445 196.10302734 C132.38939448 205.95349507 120.07811939 208.90541358 105.98950195 208.80810547 C104.71955383 208.81511475 103.44960571 208.82212402 102.14117432 208.8293457 C98.69474877 208.84739692 95.24880853 208.84058823 91.80237579 208.82782936 C88.17251914 208.81760606 84.54270032 208.82712064 80.9128418 208.83337402 C74.82048181 208.84062358 68.72831664 208.83113398 62.63598633 208.81201172 C55.62169212 208.790248 48.6078632 208.7973013 41.59358025 208.81931734 C35.53965753 208.83754866 29.48587378 208.83999216 23.43193245 208.82956266 C19.83001215 208.82336992 16.22830957 208.82237418 12.62640381 208.83570862 C8.60653743 208.84955453 4.58745605 208.83029228 0.56762695 208.80810547 C-0.60467468 208.81620239 -1.77697632 208.82429932 -2.98480225 208.8326416 C-17.31501634 208.68700142 -28.18894271 203.61834386 -38.53393555 193.85302734 C-48.37243235 183.41405891 -51.33342963 171.10544716 -51.25488281 157.03320312 C-51.26349838 155.76646759 -51.27211395 154.49973206 -51.2809906 153.1946106 C-51.30327248 149.7563341 -51.30059508 146.3185225 -51.29166913 142.88020182 C-51.28651584 139.99293696 -51.29388677 137.10575619 -51.3011412 134.21850002 C-51.31807353 127.39819431 -51.3146429 120.57811269 -51.29785156 113.7578125 C-51.28094268 106.75939113 -51.29676246 99.76159413 -51.32907444 92.76324093 C-51.35590521 86.71947165 -51.36301009 80.67589511 -51.35455936 74.63207233 C-51.34966842 71.03784943 -51.3516342 67.44400148 -51.37234688 63.84982681 C-51.39438115 59.83504483 -51.37515444 55.82141963 -51.35253906 51.80664062 C-51.36423126 50.64152954 -51.37592346 49.47641846 -51.38796997 48.27600098 C-51.22802288 34.21300442 -46.34289568 23.0964921 -36.6237793 13.14208984 C-25.74878515 2.82331233 -14.59138774 -0.01111104 0 0 Z M-14.65893555 38.04052734 C-18.99717568 44.8765421 -19.0154629 51.34298758 -18.99609375 59.22363281 C-19.00120468 60.30259827 -19.00631561 61.38156372 -19.01158142 62.4932251 C-19.0254434 66.04811197 -19.02452312 69.60280421 -19.0222168 73.15771484 C-19.02610566 75.63721793 -19.03044072 78.11672036 -19.03520203 80.59622192 C-19.042657 85.78943035 -19.04237821 90.98257078 -19.03710938 96.17578125 C-19.03131659 102.81898321 -19.04824493 109.46189915 -19.07145405 116.10507011 C-19.08621153 121.22500221 -19.08706031 126.34486745 -19.08394432 131.46481705 C-19.08445654 133.91354042 -19.08967561 136.36226763 -19.09975624 138.81097031 C-19.11214167 142.24037364 -19.10531575 145.66923761 -19.09375 149.09863281 C-19.10139374 150.10256073 -19.10903748 151.10648865 -19.11691284 152.14083862 C-19.06884403 158.61442699 -18.66392791 165.62346954 -14.44652271 170.87937737 C-7.93597047 176.83187722 -0.06622677 176.58553107 8.21166992 176.56518555 C9.8301181 176.57285194 9.8301181 176.57285194 11.48126221 176.58067322 C15.03614908 176.5945352 18.59084132 176.59361492 22.14575195 176.59130859 C24.62525504 176.59519745 27.10475747 176.59953252 29.58425903 176.60429382 C34.77746746 176.6117488 39.97060789 176.61147 45.16381836 176.60620117 C51.80702032 176.60040839 58.44993626 176.61733672 65.09310722 176.64054585 C70.21303932 176.65530333 75.33290456 176.6561521 80.45285416 176.65303612 C82.90157753 176.65354834 85.35030474 176.6587674 87.79900742 176.66884804 C91.22841075 176.68123347 94.65727472 176.67440754 98.08666992 176.6628418 C99.5925618 176.6743074 99.5925618 176.6743074 101.12887573 176.68600464 C107.6024641 176.63793583 114.61150665 176.23301971 119.86741447 172.01561451 C125.81991433 165.50506227 125.57356817 157.63531857 125.55322266 149.35742188 C125.55833359 148.27845642 125.56344452 147.19949097 125.56871033 146.08782959 C125.58257231 142.53294272 125.58165203 138.97825048 125.5793457 135.42333984 C125.58323456 132.94383676 125.58756963 130.46433433 125.59233093 127.98483276 C125.59978591 122.79162434 125.59950711 117.59848391 125.59423828 112.40527344 C125.5884455 105.76207147 125.60537383 99.11915554 125.62858295 92.47598457 C125.64334044 87.35605247 125.64418921 82.23618724 125.64107323 77.11623764 C125.64158545 74.66751427 125.64680451 72.21878706 125.65688515 69.77008438 C125.66927058 66.34068105 125.66244465 62.91181707 125.65087891 59.48242188 C125.65852264 58.47849396 125.66616638 57.47456604 125.67404175 56.44021606 C125.62597294 49.9666277 125.22105682 42.95758515 121.00365162 37.70167732 C114.49309938 31.74917747 106.62335568 31.99552362 98.34545898 32.01586914 C97.26649353 32.01075821 96.18752808 32.00564728 95.0758667 32.00038147 C91.52097983 31.98651949 87.96628758 31.98743977 84.41137695 31.98974609 C81.93187386 31.98585723 79.45237144 31.98152217 76.97286987 31.97676086 C71.77966145 31.96930589 66.58652102 31.96958468 61.39331055 31.97485352 C54.75010858 31.9806463 48.10719265 31.96371796 41.46402168 31.94050884 C36.34408958 31.92575136 31.22422435 31.92490258 26.10427475 31.92801857 C23.65555138 31.92750635 21.20682417 31.92228728 18.75812149 31.91220665 C15.32871816 31.89982122 11.89985418 31.90664714 8.47045898 31.91821289 C7.46653107 31.91056915 6.46260315 31.90292542 5.42825317 31.89505005 C-1.73066672 31.9482077 -9.54427076 32.44635798 -14.65893555 38.04052734 Z " fill="#000000" transform="translate(322.721435546875,271.70947265625)"/>
<path d="M0 0 C1.26921799 -0.00671722 2.53843597 -0.01343445 3.84611511 -0.02035522 C7.31335739 -0.03795103 10.78050081 -0.04270798 14.24778342 -0.0439868 C16.41968852 -0.04541305 18.59156887 -0.04969167 20.76346779 -0.05498123 C28.35697638 -0.07346303 35.95041497 -0.08165451 43.54394531 -0.08007812 C50.59502695 -0.07887848 57.64580162 -0.0999505 64.69680566 -0.13156545 C70.77183317 -0.15782256 76.84676104 -0.16844143 82.92184478 -0.16716731 C86.54063942 -0.16666026 90.15916125 -0.17219856 93.77789879 -0.19352341 C97.8221936 -0.21670678 101.86581268 -0.20732766 105.91015625 -0.1953125 C107.09031311 -0.20655151 108.27046997 -0.21779053 109.48638916 -0.22937012 C123.81629149 -0.12175325 134.61119446 4.93789632 145.02856445 14.60302734 C155.09274781 25.23688146 157.73696491 37.11270665 157.68261719 51.35253906 C157.68948044 52.62219513 157.69634369 53.8918512 157.70341492 55.19998169 C157.72122771 58.65470506 157.72020045 62.10917279 157.71447253 65.56392813 C157.7113629 68.46120977 157.71749281 71.35844356 157.72351128 74.25571835 C157.73751631 81.09792896 157.7360293 87.9400146 157.72460938 94.78222656 C157.713136 101.81123323 157.72719963 108.83985799 157.75400585 115.86881435 C157.77624932 121.93117621 157.78278076 127.99341895 157.77692944 134.05581868 C157.77357874 137.66449141 157.77584755 141.27291955 157.79318047 144.88155746 C157.81169395 148.91118846 157.79737424 152.9400892 157.78027344 156.96972656 C157.79477539 158.73289215 157.79477539 158.73289215 157.80957031 160.53167725 C157.68280927 174.87443254 152.61416981 185.74978331 142.84106445 196.10302734 C132.38939448 205.95349507 120.07811939 208.90541358 105.98950195 208.80810547 C104.71955383 208.81511475 103.44960571 208.82212402 102.14117432 208.8293457 C98.69474877 208.84739692 95.24880853 208.84058823 91.80237579 208.82782936 C88.17251914 208.81760606 84.54270032 208.82712064 80.9128418 208.83337402 C74.82048181 208.84062358 68.72831664 208.83113398 62.63598633 208.81201172 C55.62169212 208.790248 48.6078632 208.7973013 41.59358025 208.81931734 C35.53965753 208.83754866 29.48587378 208.83999216 23.43193245 208.82956266 C19.83001215 208.82336992 16.22830957 208.82237418 12.62640381 208.83570862 C8.60653743 208.84955453 4.58745605 208.83029228 0.56762695 208.80810547 C-0.60467468 208.81620239 -1.77697632 208.82429932 -2.98480225 208.8326416 C-17.31501634 208.68700142 -28.18894271 203.61834386 -38.53393555 193.85302734 C-48.37243235 183.41405891 -51.33342963 171.10544716 -51.25488281 157.03320312 C-51.26349838 155.76646759 -51.27211395 154.49973206 -51.2809906 153.1946106 C-51.30327248 149.7563341 -51.30059508 146.3185225 -51.29166913 142.88020182 C-51.28651584 139.99293696 -51.29388677 137.10575619 -51.3011412 134.21850002 C-51.31807353 127.39819431 -51.3146429 120.57811269 -51.29785156 113.7578125 C-51.28094268 106.75939113 -51.29676246 99.76159413 -51.32907444 92.76324093 C-51.35590521 86.71947165 -51.36301009 80.67589511 -51.35455936 74.63207233 C-51.34966842 71.03784943 -51.3516342 67.44400148 -51.37234688 63.84982681 C-51.39438115 59.83504483 -51.37515444 55.82141963 -51.35253906 51.80664062 C-51.36423126 50.64152954 -51.37592346 49.47641846 -51.38796997 48.27600098 C-51.22802288 34.21300442 -46.34289568 23.0964921 -36.6237793 13.14208984 C-25.74878515 2.82331233 -14.59138774 -0.01111104 0 0 Z M-14.65893555 38.04052734 C-18.99717568 44.8765421 -19.0154629 51.34298758 -18.99609375 59.22363281 C-19.00120468 60.30259827 -19.00631561 61.38156372 -19.01158142 62.4932251 C-19.0254434 66.04811197 -19.02452312 69.60280421 -19.0222168 73.15771484 C-19.02610566 75.63721793 -19.03044072 78.11672036 -19.03520203 80.59622192 C-19.042657 85.78943035 -19.04237821 90.98257078 -19.03710938 96.17578125 C-19.03131659 102.81898321 -19.04824493 109.46189915 -19.07145405 116.10507011 C-19.08621153 121.22500221 -19.08706031 126.34486745 -19.08394432 131.46481705 C-19.08445654 133.91354042 -19.08967561 136.36226763 -19.09975624 138.81097031 C-19.11214167 142.24037364 -19.10531575 145.66923761 -19.09375 149.09863281 C-19.10139374 150.10256073 -19.10903748 151.10648865 -19.11691284 152.14083862 C-19.06884403 158.61442699 -18.66392791 165.62346954 -14.44652271 170.87937737 C-7.93597047 176.83187722 -0.06622677 176.58553107 8.21166992 176.56518555 C9.8301181 176.57285194 9.8301181 176.57285194 11.48126221 176.58067322 C15.03614908 176.5945352 18.59084132 176.59361492 22.14575195 176.59130859 C24.62525504 176.59519745 27.10475747 176.59953252 29.58425903 176.60429382 C34.77746746 176.6117488 39.97060789 176.61147 45.16381836 176.60620117 C51.80702032 176.60040839 58.44993626 176.61733672 65.09310722 176.64054585 C70.21303932 176.65530333 75.33290456 176.6561521 80.45285416 176.65303612 C82.90157753 176.65354834 85.35030474 176.6587674 87.79900742 176.66884804 C91.22841075 176.68123347 94.65727472 176.67440754 98.08666992 176.6628418 C99.5925618 176.6743074 99.5925618 176.6743074 101.12887573 176.68600464 C107.6024641 176.63793583 114.61150665 176.23301971 119.86741447 172.01561451 C125.81991433 165.50506227 125.57356817 157.63531857 125.55322266 149.35742188 C125.55833359 148.27845642 125.56344452 147.19949097 125.56871033 146.08782959 C125.58257231 142.53294272 125.58165203 138.97825048 125.5793457 135.42333984 C125.58323456 132.94383676 125.58756963 130.46433433 125.59233093 127.98483276 C125.59978591 122.79162434 125.59950711 117.59848391 125.59423828 112.40527344 C125.5884455 105.76207147 125.60537383 99.11915554 125.62858295 92.47598457 C125.64334044 87.35605247 125.64418921 82.23618724 125.64107323 77.11623764 C125.64158545 74.66751427 125.64680451 72.21878706 125.65688515 69.77008438 C125.66927058 66.34068105 125.66244465 62.91181707 125.65087891 59.48242188 C125.65852264 58.47849396 125.66616638 57.47456604 125.67404175 56.44021606 C125.62597294 49.9666277 125.22105682 42.95758515 121.00365162 37.70167732 C114.49309938 31.74917747 106.62335568 31.99552362 98.34545898 32.01586914 C97.26649353 32.01075821 96.18752808 32.00564728 95.0758667 32.00038147 C91.52097983 31.98651949 87.96628758 31.98743977 84.41137695 31.98974609 C81.93187386 31.98585723 79.45237144 31.98152217 76.97286987 31.97676086 C71.77966145 31.96930589 66.58652102 31.96958468 61.39331055 31.97485352 C54.75010858 31.9806463 48.10719265 31.96371796 41.46402168 31.94050884 C36.34408958 31.92575136 31.22422435 31.92490258 26.10427475 31.92801857 C23.65555138 31.92750635 21.20682417 31.92228728 18.75812149 31.91220665 C15.32871816 31.89982122 11.89985418 31.90664714 8.47045898 31.91821289 C7.46653107 31.91056915 6.46260315 31.90292542 5.42825317 31.89505005 C-1.73066672 31.9482077 -9.54427076 32.44635798 -14.65893555 38.04052734 Z " fill="#000000" transform="translate(82.721435546875,271.70947265625)"/>
<path d="M0 0 C1.26921799 -0.00671722 2.53843597 -0.01343445 3.84611511 -0.02035522 C7.31335739 -0.03795103 10.78050081 -0.04270798 14.24778342 -0.0439868 C16.41968852 -0.04541305 18.59156887 -0.04969167 20.76346779 -0.05498123 C28.35697638 -0.07346303 35.95041497 -0.08165451 43.54394531 -0.08007812 C50.59502695 -0.07887848 57.64580162 -0.0999505 64.69680566 -0.13156545 C70.77183317 -0.15782256 76.84676104 -0.16844143 82.92184478 -0.16716731 C86.54063942 -0.16666026 90.15916125 -0.17219856 93.77789879 -0.19352341 C97.8221936 -0.21670678 101.86581268 -0.20732766 105.91015625 -0.1953125 C107.09031311 -0.20655151 108.27046997 -0.21779053 109.48638916 -0.22937012 C123.81629149 -0.12175325 134.61119446 4.93789632 145.02856445 14.60302734 C155.09274781 25.23688146 157.73696491 37.11270665 157.68261719 51.35253906 C157.68948044 52.62219513 157.69634369 53.8918512 157.70341492 55.19998169 C157.72122771 58.65470506 157.72020045 62.10917279 157.71447253 65.56392813 C157.7113629 68.46120977 157.71749281 71.35844356 157.72351128 74.25571835 C157.73751631 81.09792896 157.7360293 87.9400146 157.72460938 94.78222656 C157.713136 101.81123323 157.72719963 108.83985799 157.75400585 115.86881435 C157.77624932 121.93117621 157.78278076 127.99341895 157.77692944 134.05581868 C157.77357874 137.66449141 157.77584755 141.27291955 157.79318047 144.88155746 C157.81169395 148.91118846 157.79737424 152.9400892 157.78027344 156.96972656 C157.79477539 158.73289215 157.79477539 158.73289215 157.80957031 160.53167725 C157.68280927 174.87443254 152.61416981 185.74978331 142.84106445 196.10302734 C132.38939448 205.95349507 120.07811939 208.90541358 105.98950195 208.80810547 C104.71955383 208.81511475 103.44960571 208.82212402 102.14117432 208.8293457 C98.69474877 208.84739692 95.24880853 208.84058823 91.80237579 208.82782936 C88.17251914 208.81760606 84.54270032 208.82712064 80.9128418 208.83337402 C74.82048181 208.84062358 68.72831664 208.83113398 62.63598633 208.81201172 C55.62169212 208.790248 48.6078632 208.7973013 41.59358025 208.81931734 C35.53965753 208.83754866 29.48587378 208.83999216 23.43193245 208.82956266 C19.83001215 208.82336992 16.22830957 208.82237418 12.62640381 208.83570862 C8.60653743 208.84955453 4.58745605 208.83029228 0.56762695 208.80810547 C-0.60467468 208.81620239 -1.77697632 208.82429932 -2.98480225 208.8326416 C-17.31501634 208.68700142 -28.18894271 203.61834386 -38.53393555 193.85302734 C-48.37243235 183.41405891 -51.33342963 171.10544716 -51.25488281 157.03320312 C-51.26349838 155.76646759 -51.27211395 154.49973206 -51.2809906 153.1946106 C-51.30327248 149.7563341 -51.30059508 146.3185225 -51.29166913 142.88020182 C-51.28651584 139.99293696 -51.29388677 137.10575619 -51.3011412 134.21850002 C-51.31807353 127.39819431 -51.3146429 120.57811269 -51.29785156 113.7578125 C-51.28094268 106.75939113 -51.29676246 99.76159413 -51.32907444 92.76324093 C-51.35590521 86.71947165 -51.36301009 80.67589511 -51.35455936 74.63207233 C-51.34966842 71.03784943 -51.3516342 67.44400148 -51.37234688 63.84982681 C-51.39438115 59.83504483 -51.37515444 55.82141963 -51.35253906 51.80664062 C-51.36423126 50.64152954 -51.37592346 49.47641846 -51.38796997 48.27600098 C-51.22802288 34.21300442 -46.34289568 23.0964921 -36.6237793 13.14208984 C-25.74878515 2.82331233 -14.59138774 -0.01111104 0 0 Z M-14.65893555 38.04052734 C-18.99717568 44.8765421 -19.0154629 51.34298758 -18.99609375 59.22363281 C-19.00120468 60.30259827 -19.00631561 61.38156372 -19.01158142 62.4932251 C-19.0254434 66.04811197 -19.02452312 69.60280421 -19.0222168 73.15771484 C-19.02610566 75.63721793 -19.03044072 78.11672036 -19.03520203 80.59622192 C-19.042657 85.78943035 -19.04237821 90.98257078 -19.03710938 96.17578125 C-19.03131659 102.81898321 -19.04824493 109.46189915 -19.07145405 116.10507011 C-19.08621153 121.22500221 -19.08706031 126.34486745 -19.08394432 131.46481705 C-19.08445654 133.91354042 -19.08967561 136.36226763 -19.09975624 138.81097031 C-19.11214167 142.24037364 -19.10531575 145.66923761 -19.09375 149.09863281 C-19.10139374 150.10256073 -19.10903748 151.10648865 -19.11691284 152.14083862 C-19.06884403 158.61442699 -18.66392791 165.62346954 -14.44652271 170.87937737 C-7.93597047 176.83187722 -0.06622677 176.58553107 8.21166992 176.56518555 C9.8301181 176.57285194 9.8301181 176.57285194 11.48126221 176.58067322 C15.03614908 176.5945352 18.59084132 176.59361492 22.14575195 176.59130859 C24.62525504 176.59519745 27.10475747 176.59953252 29.58425903 176.60429382 C34.77746746 176.6117488 39.97060789 176.61147 45.16381836 176.60620117 C51.80702032 176.60040839 58.44993626 176.61733672 65.09310722 176.64054585 C70.21303932 176.65530333 75.33290456 176.6561521 80.45285416 176.65303612 C82.90157753 176.65354834 85.35030474 176.6587674 87.79900742 176.66884804 C91.22841075 176.68123347 94.65727472 176.67440754 98.08666992 176.6628418 C99.5925618 176.6743074 99.5925618 176.6743074 101.12887573 176.68600464 C107.6024641 176.63793583 114.61150665 176.23301971 119.86741447 172.01561451 C125.81991433 165.50506227 125.57356817 157.63531857 125.55322266 149.35742188 C125.55833359 148.27845642 125.56344452 147.19949097 125.56871033 146.08782959 C125.58257231 142.53294272 125.58165203 138.97825048 125.5793457 135.42333984 C125.58323456 132.94383676 125.58756963 130.46433433 125.59233093 127.98483276 C125.59978591 122.79162434 125.59950711 117.59848391 125.59423828 112.40527344 C125.5884455 105.76207147 125.60537383 99.11915554 125.62858295 92.47598457 C125.64334044 87.35605247 125.64418921 82.23618724 125.64107323 77.11623764 C125.64158545 74.66751427 125.64680451 72.21878706 125.65688515 69.77008438 C125.66927058 66.34068105 125.66244465 62.91181707 125.65087891 59.48242188 C125.65852264 58.47849396 125.66616638 57.47456604 125.67404175 56.44021606 C125.62597294 49.9666277 125.22105682 42.95758515 121.00365162 37.70167732 C114.49309938 31.74917747 106.62335568 31.99552362 98.34545898 32.01586914 C97.26649353 32.01075821 96.18752808 32.00564728 95.0758667 32.00038147 C91.52097983 31.98651949 87.96628758 31.98743977 84.41137695 31.98974609 C81.93187386 31.98585723 79.45237144 31.98152217 76.97286987 31.97676086 C71.77966145 31.96930589 66.58652102 31.96958468 61.39331055 31.97485352 C54.75010858 31.9806463 48.10719265 31.96371796 41.46402168 31.94050884 C36.34408958 31.92575136 31.22422435 31.92490258 26.10427475 31.92801857 C23.65555138 31.92750635 21.20682417 31.92228728 18.75812149 31.91220665 C15.32871816 31.89982122 11.89985418 31.90664714 8.47045898 31.91821289 C7.46653107 31.91056915 6.46260315 31.90292542 5.42825317 31.89505005 C-1.73066672 31.9482077 -9.54427076 32.44635798 -14.65893555 38.04052734 Z " fill="#000000" transform="translate(82.721435546875,31.70947265625)"/>
<path d="M0 0 C2.78151446 2.27972493 5.307195 4.75798668 7.83300781 7.31542969 C8.54659454 8.02200714 9.26018127 8.72858459 9.99539185 9.45657349 C12.32472091 11.76846167 14.63930092 14.09447687 16.953125 16.421875 C18.58297437 18.0490255 20.21341677 19.67558219 21.84442139 21.30157471 C25.24982392 24.70110096 28.64794066 28.10770207 32.04101562 31.51953125 C36.37369634 35.87499948 40.72409012 40.21226024 45.08012772 44.54435349 C48.44699419 47.89671179 51.80420907 51.25860598 55.15865326 54.6233902 C56.75838074 56.22577107 58.36104357 57.82522737 59.96677399 59.42159271 C62.21590385 61.6604747 64.45166847 63.91193987 66.68457031 66.16699219 C67.33924286 66.81356781 67.99391541 67.46014343 68.66842651 68.12631226 C78.74223744 78.38444738 84.3324088 90.61109864 84.5 105 C84.31803735 120.62279295 77.66887326 132.98455761 66.68457031 143.83300781 C65.97799286 144.54659454 65.27141541 145.26018127 64.54342651 145.99539185 C62.23153833 148.32472091 59.90552313 150.63930092 57.578125 152.953125 C55.9509745 154.58297437 54.32441781 156.21341677 52.69842529 157.84442139 C49.29889904 161.24982392 45.89229793 164.64794066 42.48046875 168.04101562 C38.12500052 172.37369634 33.78773976 176.72409012 29.45564651 181.08012772 C26.10328821 184.44699419 22.74139402 187.80420907 19.3766098 191.15865326 C17.77422893 192.75838074 16.17477263 194.36104357 14.57840729 195.96677399 C12.3395253 198.21590385 10.08806013 200.45166847 7.83300781 202.68457031 C7.18643219 203.33924286 6.53985657 203.99391541 5.87368774 204.66842651 C-4.27727844 214.63699418 -16.68236009 220.30845967 -31 220.5 C-46.59327125 220.29139436 -59.07196586 213.58037042 -69.83300781 202.68457031 C-70.54659454 201.97799286 -71.26018127 201.27141541 -71.99539185 200.54342651 C-74.32472091 198.23153833 -76.63930092 195.90552313 -78.953125 193.578125 C-80.58297437 191.9509745 -82.21341677 190.32441781 -83.84442139 188.69842529 C-87.24982392 185.29889904 -90.64794066 181.89229793 -94.04101562 178.48046875 C-98.37369634 174.12500052 -102.72409012 169.78773976 -107.08012772 165.45564651 C-110.44699419 162.10328821 -113.80420907 158.74139402 -117.15865326 155.3766098 C-118.75838074 153.77422893 -120.36104357 152.17477263 -121.96677399 150.57840729 C-124.21590385 148.3395253 -126.45166847 146.08806013 -128.68457031 143.83300781 C-129.66657913 142.86314438 -129.66657913 142.86314438 -130.66842651 141.87368774 C-140.74223744 131.61555262 -146.3324088 119.38890136 -146.5 105 C-146.31803735 89.37720705 -139.66887326 77.01544239 -128.68457031 66.16699219 C-127.97799286 65.45340546 -127.27141541 64.73981873 -126.54342651 64.00460815 C-124.23153833 61.67527909 -121.90552313 59.36069908 -119.578125 57.046875 C-117.9509745 55.41702563 -116.32441781 53.78658323 -114.69842529 52.15557861 C-111.29889904 48.75017608 -107.89229793 45.35205934 -104.48046875 41.95898438 C-100.12500052 37.62630366 -95.78773976 33.27590988 -91.45564651 28.91987228 C-88.10328821 25.55300581 -84.74139402 22.19579093 -81.3766098 18.84134674 C-79.77422893 17.24161926 -78.17477263 15.63895643 -76.57840729 14.03322601 C-74.3395253 11.78409615 -72.08806013 9.54833153 -69.83300781 7.31542969 C-69.18643219 6.66075714 -68.53985657 6.00608459 -67.87368774 5.33157349 C-48.28750824 -13.90267004 -22.28968992 -14.83393742 0 0 Z M-48.07519531 32.68701172 C-49.09581558 33.69974655 -49.09581558 33.69974655 -50.13705444 34.73294067 C-52.37499687 36.95772263 -54.60183743 39.19324732 -56.828125 41.4296875 C-58.38373719 42.98327807 -59.93979443 44.53642313 -61.49627686 46.08914185 C-64.75242012 49.34086729 -68.00308799 52.59794442 -71.25 55.85888672 C-75.41171446 60.03770662 -79.58677062 64.20289548 -83.76601028 68.36417961 C-86.97988062 71.56720984 -90.18657185 74.77735056 -93.39113617 77.98968887 C-94.92792315 79.52847648 -96.46694008 81.06504038 -98.00821686 82.5993309 C-100.16028291 84.7437776 -102.30249646 86.89760775 -104.44238281 89.05419922 C-105.08031769 89.6860614 -105.71825256 90.31792358 -106.3755188 90.96893311 C-111.32414886 95.98936048 -113.17032267 99.61131855 -113.36328125 106.83984375 C-112.25929606 113.40440084 -107.83034974 117.60097286 -103.31298828 122.07519531 C-102.63783173 122.75560883 -101.96267517 123.43602234 -101.26705933 124.13705444 C-99.04227737 126.37499687 -96.80675268 128.60183743 -94.5703125 130.828125 C-93.01672193 132.38373719 -91.46357687 133.93979443 -89.91085815 135.49627686 C-86.65913271 138.75242012 -83.40205558 142.00308799 -80.14111328 145.25 C-75.96229338 149.41171446 -71.79710452 153.58677062 -67.63582039 157.76601028 C-64.43279016 160.97988062 -61.22264944 164.18657185 -58.01031113 167.39113617 C-56.47152352 168.92792315 -54.93495962 170.46694008 -53.4006691 172.00821686 C-51.2562224 174.16028291 -49.10239225 176.30249646 -46.94580078 178.44238281 C-46.3139386 179.08031769 -45.68207642 179.71825256 -45.03106689 180.3755188 C-40.01063952 185.32414886 -36.38868145 187.17032267 -29.16015625 187.36328125 C-22.59559916 186.25929606 -18.39902714 181.83034974 -13.92480469 177.31298828 C-13.24439117 176.63783173 -12.56397766 175.96267517 -11.86294556 175.26705933 C-9.62500313 173.04227737 -7.39816257 170.80675268 -5.171875 168.5703125 C-3.61626281 167.01672193 -2.06020557 165.46357687 -0.50372314 163.91085815 C2.75242012 160.65913271 6.00308799 157.40205558 9.25 154.14111328 C13.41171446 149.96229338 17.58677062 145.79710452 21.76601028 141.63582039 C24.97988062 138.43279016 28.18657185 135.22264944 31.39113617 132.01031113 C32.92792315 130.47152352 34.46694008 128.93495962 36.00821686 127.4006691 C38.16028291 125.2562224 40.30249646 123.10239225 42.44238281 120.94580078 C43.08031769 120.3139386 43.71825256 119.68207642 44.3755188 119.03106689 C49.32414886 114.01063952 51.17032267 110.38868145 51.36328125 103.16015625 C50.25929606 96.59559916 45.83034974 92.39902714 41.31298828 87.92480469 C40.63783173 87.24439117 39.96267517 86.56397766 39.26705933 85.86294556 C37.04227737 83.62500313 34.80675268 81.39816257 32.5703125 79.171875 C31.01672193 77.61626281 29.46357687 76.06020557 27.91085815 74.50372314 C24.65913271 71.24757988 21.40205558 67.99691201 18.14111328 64.75 C13.96229338 60.58828554 9.79710452 56.41322938 5.63582039 52.23398972 C2.43279016 49.02011938 -0.77735056 45.81342815 -3.98968887 42.60886383 C-5.52847648 41.07207685 -7.06504038 39.53305992 -8.5993309 37.99178314 C-10.7437776 35.83971709 -12.89760775 33.69750354 -15.05419922 31.55761719 C-15.6860614 30.91968231 -16.31792358 30.28174744 -16.96893311 29.6244812 C-21.98936048 24.67585114 -25.61131855 22.82967733 -32.83984375 22.63671875 C-39.40440084 23.74070394 -43.60097286 28.16965026 -48.07519531 32.68701172 Z " fill="#000000" transform="translate(407,31)"/>
</svg>
