<?xml version="1.0" encoding="UTF-8"?>
<svg version="1.1" xmlns="http://www.w3.org/2000/svg" width="512" height="512">
<path d="M0 0 C1.26965607 -0.00686325 2.53931213 -0.0137265 3.84744263 -0.02079773 C7.302166 -0.03861053 10.75663373 -0.03758326 14.21138906 -0.03185534 C17.10867071 -0.02874571 20.00590449 -0.03487562 22.90317929 -0.04089409 C29.74538989 -0.05489913 36.58747554 -0.05341212 43.4296875 -0.04199219 C50.45869417 -0.03051881 57.48731892 -0.04458244 64.51627529 -0.07138866 C70.57863715 -0.09363214 76.64087989 -0.10016357 82.70327961 -0.09431225 C86.31195234 -0.09096155 89.92038048 -0.09323037 93.5290184 -0.11056328 C97.55864939 -0.12907676 101.58755014 -0.11475705 105.6171875 -0.09765625 C106.79263123 -0.10732422 107.96807495 -0.11699219 109.17913818 -0.12695312 C123.4908597 -0.00046636 134.28352099 5.06339271 144.68798828 14.71655273 C154.75217164 25.35040685 157.39638874 37.22623204 157.34204102 51.46606445 C157.34890427 52.73572052 157.35576752 54.00537659 157.36283875 55.31350708 C157.38065154 58.76823045 157.37962427 62.22269818 157.37389636 65.67745352 C157.37078673 68.57473516 157.37691664 71.47196895 157.38293511 74.36924374 C157.39694014 81.21145435 157.39545313 88.05353999 157.3840332 94.89575195 C157.37255983 101.92475862 157.38662346 108.95338338 157.41342968 115.98233974 C157.43567315 122.0447016 157.44220459 128.10694435 157.43635327 134.16934407 C157.43300257 137.7780168 157.43527138 141.38644494 157.45260429 144.99508286 C157.47111777 149.02471385 157.45679807 153.0536146 157.43969727 157.08325195 C157.45419922 158.84641754 157.45419922 158.84641754 157.46899414 160.64520264 C157.34250738 174.95692415 152.27864831 185.74958544 142.62548828 196.15405273 C131.99163416 206.21823609 120.11580897 208.86245319 105.87597656 208.80810547 C103.97149246 208.81840034 103.97149246 208.81840034 102.02853394 208.8289032 C98.57381057 208.84671599 95.11934284 208.84568873 91.6645875 208.83996081 C88.76730585 208.83685118 85.87007207 208.84298109 82.97279727 208.84899956 C76.13058667 208.8630046 69.28850103 208.86151759 62.44628906 208.85009766 C55.41728239 208.83862428 48.38865764 208.85268791 41.35970128 208.87949413 C35.29733941 208.9017376 29.23509667 208.90826904 23.17269695 208.90241772 C19.56402422 208.89906702 15.95559608 208.90133583 12.34695816 208.91866875 C8.31732717 208.93718223 4.28842642 208.92286252 0.25878906 208.90576172 C-1.50437653 208.92026367 -1.50437653 208.92026367 -3.30316162 208.93505859 C-17.61488314 208.80857183 -28.40754443 203.74471276 -38.81201172 194.09155273 C-48.87619508 183.45769862 -51.52041217 171.58187342 -51.46606445 157.34204102 C-51.4729277 156.07238495 -51.47979095 154.80272888 -51.48686218 153.49459839 C-51.50467498 150.03987502 -51.50364771 146.58540729 -51.4979198 143.13065195 C-51.49481016 140.23337031 -51.50094007 137.33613652 -51.50695854 134.43886173 C-51.52096358 127.59665112 -51.51947657 120.75456548 -51.50805664 113.91235352 C-51.49658327 106.88334685 -51.5106469 99.85472209 -51.53745311 92.82576573 C-51.55969659 86.76340387 -51.56622803 80.70116112 -51.5603767 74.6387614 C-51.55702601 71.03008867 -51.55929482 67.42166053 -51.57662773 63.81302261 C-51.59514121 59.78339162 -51.5808215 55.75449087 -51.5637207 51.72485352 C-51.57338867 50.54940979 -51.58305664 49.37396606 -51.59301758 48.16290283 C-51.46653081 33.85118131 -46.40267174 23.05852003 -36.74951172 12.65405273 C-26.1156576 2.58986937 -14.23983241 -0.05434772 0 0 Z M-14.99951172 38.15405273 C-19.33775185 44.99006749 -19.35603907 51.45651297 -19.33666992 59.3371582 C-19.34178085 60.41612366 -19.34689178 61.49508911 -19.35215759 62.60675049 C-19.36601957 66.16163736 -19.3650993 69.7163296 -19.36279297 73.27124023 C-19.36668183 75.75074332 -19.37101689 78.23024575 -19.3757782 80.70974731 C-19.38323318 85.90295574 -19.38295438 91.09609617 -19.37768555 96.28930664 C-19.37189277 102.9325086 -19.3888211 109.57542454 -19.41203022 116.2185955 C-19.4267877 121.3385276 -19.42763648 126.45839284 -19.42452049 131.57834244 C-19.42503271 134.02706581 -19.43025178 136.47579302 -19.44033241 138.9244957 C-19.45271784 142.35389903 -19.44589192 145.78276301 -19.43432617 149.2121582 C-19.44196991 150.21608612 -19.44961365 151.22001404 -19.45748901 152.25436401 C-19.4094202 158.72795238 -19.00450409 165.73699493 -14.78709888 170.99290276 C-8.27654664 176.94540261 -0.40680294 176.69905646 7.87109375 176.67871094 C9.48954193 176.68637733 9.48954193 176.68637733 11.14068604 176.69419861 C14.6955729 176.70806059 18.25026515 176.70714031 21.80517578 176.70483398 C24.28467887 176.70872284 26.76418129 176.71305791 29.24368286 176.71781921 C34.43689128 176.72527419 39.63003172 176.72499539 44.82324219 176.71972656 C51.46644415 176.71393378 58.10936009 176.73086211 64.75253105 176.75407124 C69.87246315 176.76882872 74.99232838 176.7696775 80.11227798 176.76656151 C82.56100136 176.76707373 85.00972857 176.7722928 87.45843124 176.78237343 C90.88783458 176.79475886 94.31669855 176.78793293 97.74609375 176.77636719 C99.25198563 176.78783279 99.25198563 176.78783279 100.78829956 176.79953003 C107.26188793 176.75146122 114.27093047 176.3465451 119.5268383 172.1291399 C125.47933816 165.61858766 125.232992 157.74884396 125.21264648 149.47094727 C125.21775742 148.39198181 125.22286835 147.31301636 125.22813416 146.20135498 C125.24199613 142.64646811 125.24107586 139.09177587 125.23876953 135.53686523 C125.24265839 133.05736215 125.24699345 130.57785972 125.25175476 128.09835815 C125.25920974 122.90514973 125.25893094 117.7120093 125.25366211 112.51879883 C125.24786933 105.87559686 125.26479766 99.23268093 125.28800678 92.58950996 C125.30276427 87.46957786 125.30361304 82.34971263 125.30049706 77.22976303 C125.30100928 74.78103966 125.30622834 72.33231245 125.31630898 69.88360977 C125.3286944 66.45420644 125.32186848 63.02534246 125.31030273 59.59594727 C125.31794647 58.59201935 125.32559021 57.58809143 125.33346558 56.55374146 C125.28539677 50.08015309 124.88048065 43.07111054 120.66307545 37.81520271 C114.1525232 31.86270286 106.2827795 32.10904901 98.00488281 32.12939453 C96.92591736 32.1242836 95.8469519 32.11917267 94.73529053 32.11390686 C91.18040366 32.10004488 87.62571141 32.10096516 84.07080078 32.10327148 C81.59129769 32.09938263 79.11179527 32.09504756 76.6322937 32.09028625 C71.43908528 32.08283128 66.24594485 32.08311007 61.05273438 32.08837891 C54.40953241 32.09417169 47.76661648 32.07724336 41.12344551 32.05403423 C36.00351341 32.03927675 30.88364818 32.03842797 25.76369858 32.04154396 C23.31497521 32.04103174 20.86624799 32.03581267 18.41754532 32.02573204 C14.98814199 32.01334661 11.55927801 32.02017254 8.12988281 32.03173828 C7.1259549 32.02409454 6.12202698 32.01645081 5.087677 32.00857544 C-2.07124289 32.06173309 -9.88484693 32.55988337 -14.99951172 38.15405273 Z " fill="#000000" transform="translate(323.06201171875,271.595947265625)"/>
<path d="M0 0 C1.26965607 -0.00686325 2.53931213 -0.0137265 3.84744263 -0.02079773 C7.302166 -0.03861053 10.75663373 -0.03758326 14.21138906 -0.03185534 C17.10867071 -0.02874571 20.00590449 -0.03487562 22.90317929 -0.04089409 C29.74538989 -0.05489913 36.58747554 -0.05341212 43.4296875 -0.04199219 C50.45869417 -0.03051881 57.48731892 -0.04458244 64.51627529 -0.07138866 C70.57863715 -0.09363214 76.64087989 -0.10016357 82.70327961 -0.09431225 C86.31195234 -0.09096155 89.92038048 -0.09323037 93.5290184 -0.11056328 C97.55864939 -0.12907676 101.58755014 -0.11475705 105.6171875 -0.09765625 C106.79263123 -0.10732422 107.96807495 -0.11699219 109.17913818 -0.12695312 C123.4908597 -0.00046636 134.28352099 5.06339271 144.68798828 14.71655273 C154.75217164 25.35040685 157.39638874 37.22623204 157.34204102 51.46606445 C157.34890427 52.73572052 157.35576752 54.00537659 157.36283875 55.31350708 C157.38065154 58.76823045 157.37962427 62.22269818 157.37389636 65.67745352 C157.37078673 68.57473516 157.37691664 71.47196895 157.38293511 74.36924374 C157.39694014 81.21145435 157.39545313 88.05353999 157.3840332 94.89575195 C157.37255983 101.92475862 157.38662346 108.95338338 157.41342968 115.98233974 C157.43567315 122.0447016 157.44220459 128.10694435 157.43635327 134.16934407 C157.43300257 137.7780168 157.43527138 141.38644494 157.45260429 144.99508286 C157.47111777 149.02471385 157.45679807 153.0536146 157.43969727 157.08325195 C157.45419922 158.84641754 157.45419922 158.84641754 157.46899414 160.64520264 C157.34250738 174.95692415 152.27864831 185.74958544 142.62548828 196.15405273 C131.99163416 206.21823609 120.11580897 208.86245319 105.87597656 208.80810547 C103.97149246 208.81840034 103.97149246 208.81840034 102.02853394 208.8289032 C98.57381057 208.84671599 95.11934284 208.84568873 91.6645875 208.83996081 C88.76730585 208.83685118 85.87007207 208.84298109 82.97279727 208.84899956 C76.13058667 208.8630046 69.28850103 208.86151759 62.44628906 208.85009766 C55.41728239 208.83862428 48.38865764 208.85268791 41.35970128 208.87949413 C35.29733941 208.9017376 29.23509667 208.90826904 23.17269695 208.90241772 C19.56402422 208.89906702 15.95559608 208.90133583 12.34695816 208.91866875 C8.31732717 208.93718223 4.28842642 208.92286252 0.25878906 208.90576172 C-1.50437653 208.92026367 -1.50437653 208.92026367 -3.30316162 208.93505859 C-17.61488314 208.80857183 -28.40754443 203.74471276 -38.81201172 194.09155273 C-48.87619508 183.45769862 -51.52041217 171.58187342 -51.46606445 157.34204102 C-51.4729277 156.07238495 -51.47979095 154.80272888 -51.48686218 153.49459839 C-51.50467498 150.03987502 -51.50364771 146.58540729 -51.4979198 143.13065195 C-51.49481016 140.23337031 -51.50094007 137.33613652 -51.50695854 134.43886173 C-51.52096358 127.59665112 -51.51947657 120.75456548 -51.50805664 113.91235352 C-51.49658327 106.88334685 -51.5106469 99.85472209 -51.53745311 92.82576573 C-51.55969659 86.76340387 -51.56622803 80.70116112 -51.5603767 74.6387614 C-51.55702601 71.03008867 -51.55929482 67.42166053 -51.57662773 63.81302261 C-51.59514121 59.78339162 -51.5808215 55.75449087 -51.5637207 51.72485352 C-51.57338867 50.54940979 -51.58305664 49.37396606 -51.59301758 48.16290283 C-51.46653081 33.85118131 -46.40267174 23.05852003 -36.74951172 12.65405273 C-26.1156576 2.58986937 -14.23983241 -0.05434772 0 0 Z M-14.99951172 38.15405273 C-19.33775185 44.99006749 -19.35603907 51.45651297 -19.33666992 59.3371582 C-19.34178085 60.41612366 -19.34689178 61.49508911 -19.35215759 62.60675049 C-19.36601957 66.16163736 -19.3650993 69.7163296 -19.36279297 73.27124023 C-19.36668183 75.75074332 -19.37101689 78.23024575 -19.3757782 80.70974731 C-19.38323318 85.90295574 -19.38295438 91.09609617 -19.37768555 96.28930664 C-19.37189277 102.9325086 -19.3888211 109.57542454 -19.41203022 116.2185955 C-19.4267877 121.3385276 -19.42763648 126.45839284 -19.42452049 131.57834244 C-19.42503271 134.02706581 -19.43025178 136.47579302 -19.44033241 138.9244957 C-19.45271784 142.35389903 -19.44589192 145.78276301 -19.43432617 149.2121582 C-19.44196991 150.21608612 -19.44961365 151.22001404 -19.45748901 152.25436401 C-19.4094202 158.72795238 -19.00450409 165.73699493 -14.78709888 170.99290276 C-8.27654664 176.94540261 -0.40680294 176.69905646 7.87109375 176.67871094 C9.48954193 176.68637733 9.48954193 176.68637733 11.14068604 176.69419861 C14.6955729 176.70806059 18.25026515 176.70714031 21.80517578 176.70483398 C24.28467887 176.70872284 26.76418129 176.71305791 29.24368286 176.71781921 C34.43689128 176.72527419 39.63003172 176.72499539 44.82324219 176.71972656 C51.46644415 176.71393378 58.10936009 176.73086211 64.75253105 176.75407124 C69.87246315 176.76882872 74.99232838 176.7696775 80.11227798 176.76656151 C82.56100136 176.76707373 85.00972857 176.7722928 87.45843124 176.78237343 C90.88783458 176.79475886 94.31669855 176.78793293 97.74609375 176.77636719 C99.25198563 176.78783279 99.25198563 176.78783279 100.78829956 176.79953003 C107.26188793 176.75146122 114.27093047 176.3465451 119.5268383 172.1291399 C125.47933816 165.61858766 125.232992 157.74884396 125.21264648 149.47094727 C125.21775742 148.39198181 125.22286835 147.31301636 125.22813416 146.20135498 C125.24199613 142.64646811 125.24107586 139.09177587 125.23876953 135.53686523 C125.24265839 133.05736215 125.24699345 130.57785972 125.25175476 128.09835815 C125.25920974 122.90514973 125.25893094 117.7120093 125.25366211 112.51879883 C125.24786933 105.87559686 125.26479766 99.23268093 125.28800678 92.58950996 C125.30276427 87.46957786 125.30361304 82.34971263 125.30049706 77.22976303 C125.30100928 74.78103966 125.30622834 72.33231245 125.31630898 69.88360977 C125.3286944 66.45420644 125.32186848 63.02534246 125.31030273 59.59594727 C125.31794647 58.59201935 125.32559021 57.58809143 125.33346558 56.55374146 C125.28539677 50.08015309 124.88048065 43.07111054 120.66307545 37.81520271 C114.1525232 31.86270286 106.2827795 32.10904901 98.00488281 32.12939453 C96.92591736 32.1242836 95.8469519 32.11917267 94.73529053 32.11390686 C91.18040366 32.10004488 87.62571141 32.10096516 84.07080078 32.10327148 C81.59129769 32.09938263 79.11179527 32.09504756 76.6322937 32.09028625 C71.43908528 32.08283128 66.24594485 32.08311007 61.05273438 32.08837891 C54.40953241 32.09417169 47.76661648 32.07724336 41.12344551 32.05403423 C36.00351341 32.03927675 30.88364818 32.03842797 25.76369858 32.04154396 C23.31497521 32.04103174 20.86624799 32.03581267 18.41754532 32.02573204 C14.98814199 32.01334661 11.55927801 32.02017254 8.12988281 32.03173828 C7.1259549 32.02409454 6.12202698 32.01645081 5.087677 32.00857544 C-2.07124289 32.06173309 -9.88484693 32.55988337 -14.99951172 38.15405273 Z " fill="#000000" transform="translate(83.06201171875,271.595947265625)"/>
<path d="M0 0 C1.26965607 -0.00686325 2.53931213 -0.0137265 3.84744263 -0.02079773 C7.302166 -0.03861053 10.75663373 -0.03758326 14.21138906 -0.03185534 C17.10867071 -0.02874571 20.00590449 -0.03487562 22.90317929 -0.04089409 C29.74538989 -0.05489913 36.58747554 -0.05341212 43.4296875 -0.04199219 C50.45869417 -0.03051881 57.48731892 -0.04458244 64.51627529 -0.07138866 C70.57863715 -0.09363214 76.64087989 -0.10016357 82.70327961 -0.09431225 C86.31195234 -0.09096155 89.92038048 -0.09323037 93.5290184 -0.11056328 C97.55864939 -0.12907676 101.58755014 -0.11475705 105.6171875 -0.09765625 C106.79263123 -0.10732422 107.96807495 -0.11699219 109.17913818 -0.12695312 C123.4908597 -0.00046636 134.28352099 5.06339271 144.68798828 14.71655273 C154.75217164 25.35040685 157.39638874 37.22623204 157.34204102 51.46606445 C157.34890427 52.73572052 157.35576752 54.00537659 157.36283875 55.31350708 C157.38065154 58.76823045 157.37962427 62.22269818 157.37389636 65.67745352 C157.37078673 68.57473516 157.37691664 71.47196895 157.38293511 74.36924374 C157.39694014 81.21145435 157.39545313 88.05353999 157.3840332 94.89575195 C157.37255983 101.92475862 157.38662346 108.95338338 157.41342968 115.98233974 C157.43567315 122.0447016 157.44220459 128.10694435 157.43635327 134.16934407 C157.43300257 137.7780168 157.43527138 141.38644494 157.45260429 144.99508286 C157.47111777 149.02471385 157.45679807 153.0536146 157.43969727 157.08325195 C157.45419922 158.84641754 157.45419922 158.84641754 157.46899414 160.64520264 C157.34250738 174.95692415 152.27864831 185.74958544 142.62548828 196.15405273 C131.99163416 206.21823609 120.11580897 208.86245319 105.87597656 208.80810547 C103.97149246 208.81840034 103.97149246 208.81840034 102.02853394 208.8289032 C98.57381057 208.84671599 95.11934284 208.84568873 91.6645875 208.83996081 C88.76730585 208.83685118 85.87007207 208.84298109 82.97279727 208.84899956 C76.13058667 208.8630046 69.28850103 208.86151759 62.44628906 208.85009766 C55.41728239 208.83862428 48.38865764 208.85268791 41.35970128 208.87949413 C35.29733941 208.9017376 29.23509667 208.90826904 23.17269695 208.90241772 C19.56402422 208.89906702 15.95559608 208.90133583 12.34695816 208.91866875 C8.31732717 208.93718223 4.28842642 208.92286252 0.25878906 208.90576172 C-1.50437653 208.92026367 -1.50437653 208.92026367 -3.30316162 208.93505859 C-17.61488314 208.80857183 -28.40754443 203.74471276 -38.81201172 194.09155273 C-48.87619508 183.45769862 -51.52041217 171.58187342 -51.46606445 157.34204102 C-51.4729277 156.07238495 -51.47979095 154.80272888 -51.48686218 153.49459839 C-51.50467498 150.03987502 -51.50364771 146.58540729 -51.4979198 143.13065195 C-51.49481016 140.23337031 -51.50094007 137.33613652 -51.50695854 134.43886173 C-51.52096358 127.59665112 -51.51947657 120.75456548 -51.50805664 113.91235352 C-51.49658327 106.88334685 -51.5106469 99.85472209 -51.53745311 92.82576573 C-51.55969659 86.76340387 -51.56622803 80.70116112 -51.5603767 74.6387614 C-51.55702601 71.03008867 -51.55929482 67.42166053 -51.57662773 63.81302261 C-51.59514121 59.78339162 -51.5808215 55.75449087 -51.5637207 51.72485352 C-51.57338867 50.54940979 -51.58305664 49.37396606 -51.59301758 48.16290283 C-51.46653081 33.85118131 -46.40267174 23.05852003 -36.74951172 12.65405273 C-26.1156576 2.58986937 -14.23983241 -0.05434772 0 0 Z M-14.99951172 38.15405273 C-19.33775185 44.99006749 -19.35603907 51.45651297 -19.33666992 59.3371582 C-19.34178085 60.41612366 -19.34689178 61.49508911 -19.35215759 62.60675049 C-19.36601957 66.16163736 -19.3650993 69.7163296 -19.36279297 73.27124023 C-19.36668183 75.75074332 -19.37101689 78.23024575 -19.3757782 80.70974731 C-19.38323318 85.90295574 -19.38295438 91.09609617 -19.37768555 96.28930664 C-19.37189277 102.9325086 -19.3888211 109.57542454 -19.41203022 116.2185955 C-19.4267877 121.3385276 -19.42763648 126.45839284 -19.42452049 131.57834244 C-19.42503271 134.02706581 -19.43025178 136.47579302 -19.44033241 138.9244957 C-19.45271784 142.35389903 -19.44589192 145.78276301 -19.43432617 149.2121582 C-19.44196991 150.21608612 -19.44961365 151.22001404 -19.45748901 152.25436401 C-19.4094202 158.72795238 -19.00450409 165.73699493 -14.78709888 170.99290276 C-8.27654664 176.94540261 -0.40680294 176.69905646 7.87109375 176.67871094 C9.48954193 176.68637733 9.48954193 176.68637733 11.14068604 176.69419861 C14.6955729 176.70806059 18.25026515 176.70714031 21.80517578 176.70483398 C24.28467887 176.70872284 26.76418129 176.71305791 29.24368286 176.71781921 C34.43689128 176.72527419 39.63003172 176.72499539 44.82324219 176.71972656 C51.46644415 176.71393378 58.10936009 176.73086211 64.75253105 176.75407124 C69.87246315 176.76882872 74.99232838 176.7696775 80.11227798 176.76656151 C82.56100136 176.76707373 85.00972857 176.7722928 87.45843124 176.78237343 C90.88783458 176.79475886 94.31669855 176.78793293 97.74609375 176.77636719 C99.25198563 176.78783279 99.25198563 176.78783279 100.78829956 176.79953003 C107.26188793 176.75146122 114.27093047 176.3465451 119.5268383 172.1291399 C125.47933816 165.61858766 125.232992 157.74884396 125.21264648 149.47094727 C125.21775742 148.39198181 125.22286835 147.31301636 125.22813416 146.20135498 C125.24199613 142.64646811 125.24107586 139.09177587 125.23876953 135.53686523 C125.24265839 133.05736215 125.24699345 130.57785972 125.25175476 128.09835815 C125.25920974 122.90514973 125.25893094 117.7120093 125.25366211 112.51879883 C125.24786933 105.87559686 125.26479766 99.23268093 125.28800678 92.58950996 C125.30276427 87.46957786 125.30361304 82.34971263 125.30049706 77.22976303 C125.30100928 74.78103966 125.30622834 72.33231245 125.31630898 69.88360977 C125.3286944 66.45420644 125.32186848 63.02534246 125.31030273 59.59594727 C125.31794647 58.59201935 125.32559021 57.58809143 125.33346558 56.55374146 C125.28539677 50.08015309 124.88048065 43.07111054 120.66307545 37.81520271 C114.1525232 31.86270286 106.2827795 32.10904901 98.00488281 32.12939453 C96.92591736 32.1242836 95.8469519 32.11917267 94.73529053 32.11390686 C91.18040366 32.10004488 87.62571141 32.10096516 84.07080078 32.10327148 C81.59129769 32.09938263 79.11179527 32.09504756 76.6322937 32.09028625 C71.43908528 32.08283128 66.24594485 32.08311007 61.05273438 32.08837891 C54.40953241 32.09417169 47.76661648 32.07724336 41.12344551 32.05403423 C36.00351341 32.03927675 30.88364818 32.03842797 25.76369858 32.04154396 C23.31497521 32.04103174 20.86624799 32.03581267 18.41754532 32.02573204 C14.98814199 32.01334661 11.55927801 32.02017254 8.12988281 32.03173828 C7.1259549 32.02409454 6.12202698 32.01645081 5.087677 32.00857544 C-2.07124289 32.06173309 -9.88484693 32.55988337 -14.99951172 38.15405273 Z " fill="#000000" transform="translate(83.06201171875,31.595947265625)"/>
<path d="M0 0 C0.97018066 0.31348389 0.97018066 0.31348389 1.95996094 0.63330078 C17.63257087 5.9035613 30.32608132 14.46443888 42 26 C42.71542969 26.64324219 43.43085938 27.28648438 44.16796875 27.94921875 C60.2315014 42.73023382 71.00094219 67.31610514 72.16113281 89.01342773 C72.6189849 123.57859834 65.37013528 150.25879743 40.9375 175.5 C20.28509308 196.11926183 -6.37801314 204.28370372 -35.0456543 204.31689453 C-45.1712254 204.21134518 -54.37309321 203.12982396 -64 200 C-64.97018066 199.68651611 -64.97018066 199.68651611 -65.95996094 199.36669922 C-81.63257087 194.0964387 -94.32608132 185.53556112 -106 174 C-107.07314453 173.03513672 -107.07314453 173.03513672 -108.16796875 172.05078125 C-124.2315014 157.26976618 -135.00094219 132.68389486 -136.16113281 110.98657227 C-136.6189849 76.42140166 -129.37013528 49.74120257 -104.9375 24.5 C-78.18757305 -2.20699594 -35.89667073 -11.67044228 0 0 Z M-81.88964844 48.35498047 C-94.83898454 61.07147362 -103.09321135 77.80002822 -103.38037109 96.11987305 C-103.34360246 116.26406797 -98.66433814 132.6730808 -85 148 C-84.07574219 149.04800781 -84.07574219 149.04800781 -83.1328125 150.1171875 C-71.33910397 162.69388083 -54.90255062 170.52608496 -37.65234375 171.37109375 C-25.49794122 171.62983288 -15.240871 170.70427203 -4 166 C-3.06027344 165.61585938 -2.12054688 165.23171875 -1.15234375 164.8359375 C5.33817124 161.88661539 10.67503359 157.69449039 16 153 C16.77472656 152.32066406 17.54945313 151.64132813 18.34765625 150.94140625 C29.86631301 140.17353672 37.97847893 124.55734581 39.17700195 108.65087891 C39.73156137 86.71153609 36.01218033 68.87437827 21 52 C20.40703125 51.31292969 19.8140625 50.62585938 19.203125 49.91796875 C6.45662691 36.10926248 -11.42390805 29.08430777 -29.97949219 28.04296875 C-49.47429157 27.62838626 -67.75869048 35.12074486 -81.88964844 48.35498047 Z " fill="#000000" transform="translate(408,36)"/>
</svg>
