<?xml version="1.0" encoding="UTF-8"?>
<svg version="1.1" xmlns="http://www.w3.org/2000/svg" width="512" height="512">
<path d="M0 0 C1.63050019 -0.00374004 3.26099858 -0.00834297 4.89149415 -0.01373065 C9.35724473 -0.02593248 13.82292023 -0.0257035 18.28868365 -0.02334189 C23.11095499 -0.02293301 27.93320248 -0.03397977 32.75546265 -0.04345703 C42.19816176 -0.06005299 51.6408359 -0.06556596 61.08354838 -0.06668179 C68.76198483 -0.06763301 76.44041305 -0.07174701 84.11884689 -0.07808304 C105.90335403 -0.09569229 127.68784149 -0.1049225 149.4723558 -0.10342209 C150.64617657 -0.10334218 151.81999733 -0.10326227 153.02938843 -0.10317993 C154.20464771 -0.10309817 155.37990699 -0.10301641 156.59078018 -0.10293217 C175.63049549 -0.10211955 194.67013163 -0.12125195 213.70982404 -0.14945666 C233.27409173 -0.17820903 252.83832084 -0.19199564 272.40261018 -0.19026911 C283.38060943 -0.18960598 294.35852571 -0.1950644 305.33650589 -0.21662521 C314.68480417 -0.23486804 324.03298187 -0.23915894 333.38129027 -0.22560637 C338.14672257 -0.21909214 342.91192375 -0.21890342 347.67733383 -0.23631287 C352.04859945 -0.25211745 356.41945211 -0.2491052 360.79070811 -0.2317446 C362.36337578 -0.22869086 363.93607484 -0.23224506 365.50870545 -0.24346475 C386.62888327 -0.38403961 404.66523545 6.13343929 419.94589233 21.20101929 C433.94000267 36.38676784 438.29607426 54.2141236 438.25238037 74.2824707 C438.25612041 75.91297089 438.26072334 77.54346928 438.26611102 79.17396486 C438.27831285 83.63971543 438.27808387 88.10539093 438.27572227 92.57115436 C438.27531338 97.39342569 438.28636014 102.21567318 438.2958374 107.03793335 C438.31243336 116.48063246 438.31794633 125.9233066 438.31906216 135.36601909 C438.32001338 143.04445553 438.32412738 150.72288375 438.33046341 158.4013176 C438.34807266 180.18582474 438.35730288 201.97031219 438.35580246 223.7548265 C438.35568259 225.51555765 438.35568259 225.51555765 438.3555603 227.31185913 C438.35547854 228.48711841 438.35539678 229.66237769 438.35531254 230.87325089 C438.35449992 249.91296619 438.37363232 268.95260233 438.40183704 287.99229474 C438.4305894 307.55656243 438.44437601 327.12079154 438.44264948 346.68508089 C438.44198635 357.66308014 438.44744477 368.64099641 438.46900558 379.61897659 C438.48724841 388.96727487 438.49153932 398.31545257 438.47798674 407.66376098 C438.47147252 412.42919327 438.47128379 417.19439445 438.48869324 421.95980453 C438.50449782 426.33107015 438.50148558 430.70192282 438.48412497 435.07317881 C438.48107123 436.64584648 438.48462543 438.21854554 438.49584512 439.79117616 C438.63641998 460.91135397 432.11894108 478.94770615 417.05136108 494.22836304 C401.86561253 508.22247337 384.03825677 512.57854497 363.96990967 512.53485107 C362.33940948 512.53859112 360.70891109 512.54319405 359.07841551 512.54858172 C354.61266494 512.56078356 350.14698944 512.56055457 345.68122602 512.55819297 C340.85895468 512.55778408 336.03670719 512.56883084 331.21444702 512.57830811 C321.77174791 512.59490406 312.32907377 512.60041703 302.88636129 512.60153286 C295.20792484 512.60248408 287.52949662 512.60659809 279.85106277 512.61293411 C258.06655563 512.63054336 236.28206818 512.63977358 214.49755387 512.63827316 C213.3237331 512.63819325 212.14991233 512.63811334 210.94052124 512.63803101 C209.76526196 512.63794924 208.59000268 512.63786748 207.37912948 512.63778324 C188.33941418 512.63697063 169.29977804 512.65610302 150.26008563 512.68430774 C130.69581794 512.7130601 111.13158883 512.72684671 91.56729949 512.72512019 C80.58930024 512.72445706 69.61138396 512.72991548 58.63340378 512.75147629 C49.2851055 512.76971911 39.9369278 512.77401002 30.5886194 512.76045744 C25.8231871 512.75394322 21.05798592 512.75375449 16.29257584 512.77116394 C11.92131022 512.78696852 7.55045756 512.78395628 3.17920156 512.76659568 C1.60653389 512.76354193 0.03383483 512.76709614 -1.53879578 512.77831583 C-22.6589736 512.91889068 -40.69532578 506.40141178 -55.97598267 491.33383179 C-69.970093 476.14808324 -74.3261646 458.32072747 -74.2824707 438.25238037 C-74.28621075 436.62188019 -74.29081368 434.99138179 -74.29620135 433.36088622 C-74.30840318 428.89513564 -74.3081742 424.42946015 -74.3058126 419.96369672 C-74.30540371 415.14142538 -74.31645047 410.31917789 -74.32592773 405.49691772 C-74.34252369 396.05421861 -74.34803666 386.61154447 -74.34915249 377.16883199 C-74.35010371 369.49039555 -74.35421772 361.81196732 -74.36055374 354.13353348 C-74.37816299 332.34902634 -74.38739321 310.56453888 -74.38589279 288.78002457 C-74.38581288 287.60620381 -74.38573297 286.43238304 -74.38565063 285.22299194 C-74.38556887 284.04773266 -74.38548711 282.87247338 -74.38540287 281.66160019 C-74.38459026 262.62188488 -74.40372265 243.58224874 -74.43192737 224.54255633 C-74.46067973 204.97828864 -74.47446634 185.41405953 -74.47273982 165.84977019 C-74.47207669 154.87177094 -74.47753511 143.89385466 -74.49909592 132.91587448 C-74.51733874 123.5675762 -74.52162965 114.2193985 -74.50807707 104.8710901 C-74.50156285 100.1056578 -74.50137412 95.34045662 -74.51878357 90.57504654 C-74.53458815 86.20378092 -74.53157591 81.83292826 -74.51421531 77.46167226 C-74.51116156 75.88900459 -74.51471577 74.31630553 -74.52593546 72.74367492 C-74.66651031 51.6234971 -68.14903141 33.58714492 -53.08145142 18.30648804 C-37.89570286 4.3123777 -20.0683471 -0.04369389 0 0 Z M-31.89004517 42.39242554 C-43.14119507 54.88147702 -43.31671833 70.38495339 -43.24209595 86.21347046 C-43.24148222 87.92691444 -43.24175206 89.64035893 -43.24282646 91.35380268 C-43.24327519 95.91337453 -43.23174247 100.47283991 -43.21760559 105.03238678 C-43.20615657 109.32187713 -43.20567615 113.61134251 -43.20425415 117.90084839 C-43.19378863 130.41888803 -43.16586611 142.93690815 -43.14004517 155.45492554 C-43.09879517 183.44305054 -43.05754517 211.43117554 -43.01504517 240.26742554 C25.95495483 240.26742554 94.92495483 240.26742554 165.98495483 240.26742554 C165.98495483 171.29742554 165.98495483 102.32742554 165.98495483 31.26742554 C137.99682983 31.22617554 110.00870483 31.18492554 81.17245483 31.14242554 C72.34519653 31.12421753 63.51793823 31.10600952 54.42318726 31.08724976 C46.48920519 31.08055961 46.48920519 31.08055961 38.55522156 31.07653809 C35.02984585 31.07467981 31.50453079 31.0672048 27.97917175 31.05627441 C23.47311436 31.04248986 18.96714432 31.03845549 14.4610678 31.04128098 C12.81312114 31.04069072 11.16517123 31.03676431 9.51724279 31.02899528 C-5.54727103 30.9613118 -20.08768819 31.7599057 -31.89004517 42.39242554 Z M197.98495483 31.26742554 C197.98495483 100.23742554 197.98495483 169.20742554 197.98495483 240.26742554 C266.95495483 240.26742554 335.92495483 240.26742554 406.98495483 240.26742554 C407.02620483 212.27930054 407.06745483 184.29117554 407.10995483 155.45492554 C407.12816284 146.62766724 407.14637085 137.80040894 407.16513062 128.70565796 C407.17182076 120.77167589 407.17182076 120.77167589 407.17584229 112.83769226 C407.17770056 109.31231656 407.18517557 105.78700149 407.19610596 102.26164246 C407.20989051 97.75558506 407.21392488 93.24961502 407.21109939 88.7435385 C407.21168965 87.09559185 407.21561606 85.44764194 407.2233851 83.79971349 C407.29106857 68.73519967 406.49247467 54.19478252 395.85995483 42.39242554 C383.37090335 31.14127564 367.86742698 30.96575237 352.03890991 31.04037476 C350.32546593 31.04098848 348.61202144 31.04071864 346.89857769 31.03964424 C342.33900584 31.03919551 337.77954047 31.05072823 333.21999359 31.06486511 C328.93050324 31.07631413 324.64103786 31.07679456 320.35153198 31.07821655 C307.83349234 31.08868208 295.31547222 31.11660459 282.79745483 31.14242554 C254.80932983 31.18367554 226.82120483 31.22492554 197.98495483 31.26742554 Z M-43.01504517 272.26742554 C-43.05629517 300.25555054 -43.09754517 328.24367554 -43.14004517 357.07992554 C-43.15825317 365.90718384 -43.17646118 374.73444214 -43.19522095 383.82919312 C-43.20191109 391.76317519 -43.20191109 391.76317519 -43.20593262 399.69715881 C-43.20779089 403.22253452 -43.21526591 406.74784958 -43.22619629 410.27320862 C-43.23998085 414.77926601 -43.24401521 419.28523605 -43.24118972 423.79131258 C-43.24177999 425.43925923 -43.24570639 427.08720914 -43.25347543 428.73513758 C-43.32115891 443.7996514 -42.522565 458.34006856 -31.89004517 470.14242554 C-19.40099369 481.39357544 -3.89751731 481.5690987 11.93099976 481.49447632 C13.64444374 481.49386259 15.35788822 481.49413243 17.07133198 481.49520683 C21.63090382 481.49565557 26.1903692 481.48412285 30.74991608 481.46998596 C35.03940643 481.45853694 39.3288718 481.45805652 43.61837769 481.45663452 C56.13641732 481.446169 68.65443745 481.41824648 81.17245483 481.39242554 C109.16057983 481.35117554 137.14870483 481.30992554 165.98495483 481.26742554 C165.98495483 412.29742554 165.98495483 343.32742554 165.98495483 272.26742554 C97.01495483 272.26742554 28.04495483 272.26742554 -43.01504517 272.26742554 Z M197.98495483 272.26742554 C197.98495483 341.23742554 197.98495483 410.20742554 197.98495483 481.26742554 C225.97307983 481.30867554 253.96120483 481.34992554 282.79745483 481.39242554 C291.62471313 481.41063354 300.45197144 481.42884155 309.54672241 481.44760132 C317.48070448 481.45429146 317.48070448 481.45429146 325.41468811 481.45831299 C328.94006382 481.46017127 332.46537888 481.46764628 335.99073792 481.47857666 C340.49679531 481.49236122 345.00276535 481.49639559 349.50884187 481.49357009 C351.15678852 481.49416036 352.80473843 481.49808676 354.45266688 481.5058558 C369.5171807 481.57353928 384.05759785 480.77494537 395.85995483 470.14242554 C407.11110474 457.65337406 407.286628 442.14989768 407.21200562 426.32138062 C407.21139189 424.60793663 407.21166173 422.89449215 407.21273613 421.18104839 C407.21318486 416.62147655 407.20165214 412.06201117 407.18751526 407.50246429 C407.17606624 403.21297394 407.17558582 398.92350857 407.17416382 394.63400269 C407.16369829 382.11596305 407.13577578 369.59794292 407.10995483 357.07992554 C407.04807983 315.09773804 407.04807983 315.09773804 406.98495483 272.26742554 C338.01495483 272.26742554 269.04495483 272.26742554 197.98495483 272.26742554 Z " fill="#000000" transform="translate(74.01504516601563,-0.267425537109375)"/>
<path d="M0 0 C0.81082031 -0.02835937 1.62164062 -0.05671875 2.45703125 -0.0859375 C8.98443163 1.01596986 13.67490173 5.42860171 18.12109375 10.015625 C18.6438942 10.54267029 19.16669464 11.06971558 19.70533752 11.61273193 C21.35248672 13.27650154 22.98881709 14.95045209 24.625 16.625 C25.74864628 17.76371464 26.87298927 18.90174224 27.99804688 20.0390625 C30.73597511 22.80983877 33.46426027 25.58978901 36.1875 28.375 C40.15653581 26.7836413 42.77076873 24.01516617 45.6875 21 C46.20505859 20.47486816 46.72261719 19.94973633 47.25585938 19.40869141 C48.90465141 17.73553544 50.54682516 16.05611401 52.1875 14.375 C54.34836526 12.16087397 56.51579176 9.95348603 58.6875 7.75 C59.42516602 6.98743896 59.42516602 6.98743896 60.17773438 6.20947266 C64.25032511 2.07930391 67.17645103 0.09170943 73 0 C78.26153414 0.13173208 81.02681036 1.12966208 85.1875 4.375 C88.93168735 9.17524019 89.64068545 12.82692787 89.71875 18.84765625 C88.46868708 24.79464675 83.75582795 29.08813369 79.546875 33.2109375 C79.01982971 33.73515289 78.49278442 34.25936829 77.94976807 34.79946899 C76.28369309 36.45444834 74.61076417 38.10229289 72.9375 39.75 C71.79901665 40.87843981 70.66099122 42.00734181 69.5234375 43.13671875 C66.75005488 45.88818208 63.97050766 48.63327383 61.1875 51.375 C62.77458769 55.28316782 65.30287345 57.67536939 68.30859375 60.5859375 C69.33670918 61.59362693 70.36470009 62.60144342 71.39257812 63.609375 C73.00731221 65.18070621 74.62444604 66.7494645 76.24438477 68.31542969 C77.81404147 69.83650577 79.37413025 71.3669225 80.93359375 72.8984375 C82.33629517 74.258479 82.33629517 74.258479 83.76733398 75.64599609 C88.34440399 80.80714696 89.76179695 85.23378322 89.5390625 91.9765625 C88.85003628 96.67725252 86.16174094 99.31479662 83.0625 102.6875 C78.95321339 105.09947257 74.93256067 105.90591588 70.1875 105.375 C64.40393826 103.13113682 60.19696869 99.94903613 55.9375 95.515625 C55.39391846 94.96638367 54.85033691 94.41714233 54.2902832 93.85125732 C52.57961307 92.118442 50.88349463 90.37216897 49.1875 88.625 C48.02047088 87.43787763 46.85250975 86.25167073 45.68359375 85.06640625 C42.84069235 82.17972829 40.01074121 79.28090368 37.1875 76.375 C30.37470875 81.96017687 24.32163417 88.22894558 18.2277832 94.58154297 C16.86827397 95.99573824 15.4948191 97.39648496 14.12109375 98.796875 C13.31728271 99.62799805 12.51347168 100.45912109 11.68530273 101.31542969 C8.35524866 104.0612352 5.1527854 105.27673573 0.84375 105.4921875 C-4.32114793 104.91207215 -7.8424698 103.97572506 -11.8125 100.375 C-14.91214762 96.30788661 -16.15745463 92.49227553 -16 87.375 C-15.36166428 83.66057219 -14.46624249 81.52178846 -11.921875 78.75 C-11.2930542 78.06421875 -10.6642334 77.3784375 -10.01635742 76.671875 C-5.70070604 72.17407416 -1.30233861 67.76247978 3.125 63.375 C4.1050531 62.39997614 5.0848724 61.4247172 6.06445312 60.44921875 C8.43652313 58.08883382 10.8109086 55.73083095 13.1875 53.375 C7.38615378 46.31749451 0.85937959 40.07161805 -5.73242188 33.7578125 C-15.26477149 24.41710357 -15.26477149 24.41710357 -16.09765625 16.75 C-15.57434555 11.16801915 -14.32774576 7.86431167 -10.48046875 3.75 C-7.12545938 0.98427799 -4.33537035 0.06827355 0 0 Z " fill="#000000" transform="translate(98.8125,323.625)"/>
<path d="M0 0 C4.33926194 2.3714571 6.94434948 5.52149602 8.40306091 10.31610107 C9.10907009 13.86632766 8.93311556 17.47246007 8.91015625 21.078125 C8.9087413 21.91591492 8.90732635 22.75370483 8.90586853 23.61688232 C8.90028197 26.28629157 8.88773194 28.9556162 8.875 31.625 C8.86998326 33.43749879 8.86542066 35.24999889 8.86132812 37.0625 C8.85031694 41.50003248 8.83306155 45.93750191 8.8125 50.375 C9.99279785 50.35928955 11.1730957 50.3435791 12.38916016 50.32739258 C16.78362152 50.27294106 21.17805326 50.23859462 25.57275391 50.21020508 C27.47189353 50.19515309 29.37099859 50.17470684 31.27001953 50.14868164 C34.00562081 50.11214008 36.740761 50.09523762 39.4765625 50.08203125 C40.32054596 50.06654739 41.16452942 50.05106354 42.03408813 50.03511047 C47.05374092 50.03368937 50.46186728 50.59250287 54.8125 53.375 C59.39892819 58.33330075 60.17017473 62.30812043 60.09375 68.87109375 C59.54257103 73.77811766 56.80218624 76.45954022 53.3125 79.6875 C48.54394864 82.90627217 43.70540768 82.50828936 38.109375 82.47265625 C37.27158508 82.4712413 36.43379517 82.46982635 35.57061768 82.46836853 C32.90120843 82.46278197 30.2318838 82.45023194 27.5625 82.4375 C25.75000121 82.43248326 23.93750111 82.42792066 22.125 82.42382812 C17.68746752 82.41281694 13.24999809 82.39556155 8.8125 82.375 C8.82821045 83.4894751 8.8439209 84.6039502 8.86010742 85.75219727 C8.91464631 89.91000057 8.9489368 94.0677726 8.97729492 98.22583008 C8.99232716 100.02113167 9.01275857 101.81639688 9.03881836 103.61157227 C9.07544786 106.20077526 9.0922821 108.78949028 9.10546875 111.37890625 C9.12095261 112.17398087 9.13643646 112.96905548 9.15238953 113.78822327 C9.15412738 119.61903042 8.27346983 124.58214366 4.27734375 129.1171875 C-1.50125331 133.40310348 -5.05756071 133.97830256 -12.1875 133.375 C-16.92579769 131.70782118 -19.3886938 129.52137955 -22.1875 125.375 C-23.08958123 122.6687563 -23.30977599 121.13649014 -23.30102539 118.36254883 C-23.30094986 117.56194534 -23.30087433 116.76134186 -23.30079651 115.93647766 C-23.29563522 115.07701035 -23.29047394 114.21754303 -23.28515625 113.33203125 C-23.2837413 112.4484343 -23.28232635 111.56483734 -23.28086853 110.65446472 C-23.27527069 107.83210872 -23.26271861 105.00983203 -23.25 102.1875 C-23.24498472 100.27408969 -23.24042186 98.36067813 -23.23632812 96.44726562 C-23.22530197 91.75647986 -23.20803883 87.06575337 -23.1875 82.375 C-24.29673828 82.39071045 -25.40597656 82.4064209 -26.54882812 82.42260742 C-30.69361002 82.47721427 -34.83836058 82.51146118 -38.98339844 82.53979492 C-40.77186443 82.55481184 -42.56029403 82.57523158 -44.34863281 82.60131836 C-46.93043031 82.63801615 -49.51173779 82.65479745 -52.09375 82.66796875 C-53.27862 82.69119453 -53.27862 82.69119453 -54.48742676 82.71488953 C-60.03490762 82.7165431 -64.1230904 81.68099174 -69.1875 79.375 C-73.19804074 75.36445926 -74.98882909 71.56037998 -75.5 65.9375 C-75.02169667 60.48484202 -73.2498718 57.08225614 -69.125 53.5625 C-64.34883011 50.00577774 -60.81524123 50.24362342 -55.0234375 50.27734375 C-54.11622955 50.2787587 -53.20902161 50.28017365 -52.27432251 50.28163147 C-49.37034845 50.28723904 -46.46645085 50.29979282 -43.5625 50.3125 C-41.59635528 50.31751402 -39.63020935 50.3220771 -37.6640625 50.32617188 C-32.8385121 50.33721094 -28.01301903 50.35448065 -23.1875 50.375 C-23.20844727 49.16440918 -23.22939453 47.95381836 -23.25097656 46.70654297 C-23.3235654 42.20031639 -23.36936835 37.69414116 -23.40722656 33.1875 C-23.42729906 31.23982034 -23.45456332 29.29220063 -23.48925781 27.34472656 C-23.53796852 24.53956279 -23.56051241 21.73519813 -23.578125 18.9296875 C-23.59877014 18.06383026 -23.61941528 17.19797302 -23.64068604 16.30587769 C-23.64270755 10.81659576 -22.84045816 7.73199193 -19.1875 3.375 C-13.3132024 -1.92619539 -7.40054669 -3.32748461 0 0 Z " fill="#000000" transform="translate(143.1875,69.625)"/>
<path d="M0 0 C3.82195713 3.16630758 6.53558226 5.99855142 7.265625 11.06640625 C7.28496094 12.29423828 7.28496094 12.29423828 7.3046875 13.546875 C7.33304687 14.35769531 7.36140625 15.16851562 7.390625 16.00390625 C6.09672578 23.66861434 0.23166527 28.8632017 -5.04833984 34.10058594 C-6.2490789 35.30921043 -6.2490789 35.30921043 -7.47407532 36.54225159 C-10.1106591 39.19199234 -12.75800952 41.83066311 -15.40625 44.46875 C-17.2474788 46.31200055 -19.08826213 48.15569617 -20.92861938 49.99981689 C-24.7816722 53.85831461 -28.64097764 57.71047326 -32.50390625 61.55908203 C-36.96185414 66.00069426 -41.40887644 70.45302596 -45.85040128 74.91105628 C-50.13534867 79.21128502 -54.42871691 83.50300193 -58.72569656 87.79120636 C-60.54834812 89.61185802 -62.36877749 91.43473712 -64.18693161 93.25988007 C-66.7285948 95.80916731 -69.27968651 98.34863075 -71.83349609 100.88574219 C-72.58175156 101.64007034 -73.33000702 102.3943985 -74.10093689 103.17158508 C-79.10917679 108.11937332 -83.67871891 112.1600295 -91.0703125 112.171875 C-97.06274782 111.97392669 -100.10798371 109.59063197 -104.3828125 105.546875 C-106.71989696 101.65173424 -107.24970316 98.25033983 -107.0703125 93.734375 C-104.44618895 84.38593485 -95.97797307 77.49235778 -89.28662109 70.80541992 C-88.17059761 69.68435852 -88.17059761 69.68435852 -87.0320282 68.54064941 C-84.59688713 66.09608716 -82.15806618 63.65523939 -79.71875 61.21484375 C-78.01430095 59.5071782 -76.3099259 57.79943879 -74.60562134 56.09162903 C-71.04517013 52.52521032 -67.48267853 48.9608441 -63.91894531 45.39770508 C-59.35308267 40.83194444 -54.79416056 36.25932036 -50.2369442 31.68493176 C-46.7247943 28.16167159 -43.20811721 24.6429574 -39.69014359 21.12551308 C-38.00682613 19.44101596 -36.3251291 17.75489794 -34.64509201 16.06712914 C-32.2998505 13.71209878 -29.94836835 11.36347847 -27.59521484 9.01635742 C-26.55866508 7.9713784 -26.55866508 7.9713784 -25.50117493 6.9052887 C-18.51332202 -0.03709675 -9.72155612 -5.94298903 0 0 Z " fill="#000000" transform="translate(426.0703125,321.265625)"/>
<path d="M0 0 C0.94625244 -0.0071553 1.89250488 -0.01431061 2.86743164 -0.02168274 C3.903853 -0.02437164 4.94027435 -0.02706055 6.00810242 -0.02983093 C7.10105621 -0.03640213 8.19401001 -0.04297333 9.32008362 -0.04974365 C12.94354823 -0.06948409 16.56697141 -0.08114019 20.19047546 -0.09111023 C21.42691488 -0.09518576 22.6633543 -0.09926128 23.93726158 -0.10346031 C29.80521745 -0.12217154 35.67315701 -0.13673749 41.54113704 -0.14507228 C48.30812515 -0.15484355 55.07478606 -0.18116284 61.84165889 -0.22157317 C67.70800604 -0.25540017 73.57424363 -0.26721953 79.44067955 -0.27127647 C81.93376575 -0.27615239 84.4268482 -0.28779477 86.91987038 -0.30631447 C90.40788058 -0.33061748 93.89503377 -0.32975669 97.38310242 -0.32279968 C98.92862541 -0.34201477 98.92862541 -0.34201477 100.50537109 -0.36161804 C106.47174798 -0.31822335 109.83475566 0.19638135 114.38969421 4.14717102 C117.70634243 7.8223758 119.21400212 10.35511168 119.70219421 15.33467102 C119.3179907 20.02195384 118.10505037 23.31568688 115.38969421 27.14717102 C110.64658007 31.00095126 106.85234902 32.26485013 100.85568237 32.28761292 C99.9515712 32.29332306 99.04746002 32.2990332 98.11595154 32.30491638 C96.63919952 32.30659317 96.63919952 32.30659317 95.13261414 32.30830383 C93.56852562 32.31575119 93.56852562 32.31575119 91.97283936 32.323349 C88.52194052 32.33795869 85.07108765 32.34477056 81.62016296 32.35029602 C79.2212626 32.35604832 76.82236225 32.36180604 74.42346191 32.36756897 C69.39226568 32.37807547 64.36108542 32.38392049 59.32987976 32.3874054 C52.88706714 32.39289028 46.44446583 32.41691991 40.00171947 32.44537735 C35.04571925 32.46401206 30.08976986 32.46920978 25.13373756 32.47074127 C22.75871436 32.47376627 20.38369203 32.48178963 18.00870323 32.49492645 C14.6839584 32.51200439 11.35972894 32.51010219 8.03495789 32.50361633 C7.05652924 32.51283112 6.07810059 32.5220459 5.07002258 32.53153992 C-1.19455211 32.49330904 -6.45737454 31.92542658 -11.35249329 27.61201477 C-15.63840926 21.83341771 -16.21360834 18.27711031 -15.61030579 11.14717102 C-13.94312697 6.40887333 -11.75668534 3.94597722 -7.61030579 1.14717102 C-4.75500002 0.19540243 -2.96313184 0.01539107 0 0 Z " fill="#000000" transform="translate(324.6103057861328,119.85282897949219)"/>
</svg>
