<?xml version="1.0" encoding="UTF-8"?>
<svg version="1.1" xmlns="http://www.w3.org/2000/svg" width="512" height="512">
<path d="M0 0 C0.69547633 -0.00295142 1.39095267 -0.00590285 2.10750404 -0.00894371 C4.45539641 -0.01765722 6.80323965 -0.01921739 9.15114689 -0.02082157 C10.84460269 -0.02555104 12.53805735 -0.03070174 14.2315107 -0.03623921 C18.89901111 -0.05016686 23.56650371 -0.05773501 28.23401964 -0.0642122 C32.23415717 -0.07057736 36.23428183 -0.08064834 40.23441135 -0.09077286 C53.41628507 -0.12412083 66.59816663 -0.14562397 79.78006873 -0.16397271 C83.2123965 -0.16876689 86.64472396 -0.17375032 90.0770514 -0.17877793 C111.38771333 -0.20975095 132.69837796 -0.23643891 154.00905609 -0.25319672 C158.94688707 -0.25714628 163.88471799 -0.26114926 168.82254887 -0.2652216 C170.66348245 -0.26673414 170.66348245 -0.26673414 172.54160661 -0.26827724 C192.41793976 -0.28527998 212.29414831 -0.32638345 232.17042064 -0.37724458 C252.57407709 -0.42902589 272.97766949 -0.45813978 293.38139111 -0.4653936 C304.83842856 -0.47005548 316.29526206 -0.48480276 327.75223446 -0.5251379 C337.5110498 -0.55945254 347.26962441 -0.57337139 357.02849662 -0.56071376 C362.00627934 -0.5548901 366.98355303 -0.55873038 371.96125889 -0.5888834 C376.52334287 -0.61629265 381.08455732 -0.6157121 385.64666105 -0.59337295 C387.29214355 -0.59015666 388.93768476 -0.5969795 390.58306985 -0.61517017 C401.3843549 -0.72729133 410.72572863 0.43907875 419.2192716 7.88330084 C427.48870299 16.47162585 428.38048261 27.26204426 428.37046146 38.57526302 C428.37491815 40.15058743 428.37491815 40.15058743 428.37946486 41.75773656 C428.38813578 45.2765405 428.38965876 48.79531034 428.39115238 52.31412411 C428.39578171 54.83737924 428.40080653 57.36063367 428.40619755 59.88388729 C428.41931296 66.73949125 428.42580191 73.59508401 428.43020821 80.45069838 C428.43297495 84.73538905 428.43721311 89.02007749 428.44171238 93.30476665 C428.45390229 105.17914914 428.46420188 117.05352983 428.46758747 128.92791843 C428.46780704 129.68733267 428.4680266 130.4467469 428.46825282 131.22917368 C428.4684711 131.99035615 428.46868938 132.75153862 428.46891427 133.53578722 C428.46935773 135.07811046 428.46980429 136.62043369 428.47025394 138.16275692 C428.47047537 138.9277948 428.4706968 139.69283267 428.47092494 140.48105352 C428.4748704 152.86892372 428.49231793 165.25673501 428.51561347 177.64458247 C428.53936423 190.37781243 428.55179103 203.11101288 428.55295539 215.84426534 C428.5538701 222.98750639 428.55957082 230.13067067 428.577775 237.2738905 C428.59484673 243.99621017 428.59640085 250.71835973 428.58763599 257.44070339 C428.58686674 259.90288464 428.59119354 262.36507376 428.60109425 264.82723522 C428.61385394 268.19914525 428.60791473 271.57054337 428.59751225 274.94245052 C428.60959685 276.38967729 428.60959685 276.38967729 428.62192559 277.86614096 C428.54670743 288.35479669 426.85143429 298.48421623 419.23001957 306.1398077 C411.3993114 313.01854742 404.23270441 315.26878817 393.81391239 315.26006222 C392.5435413 315.26143688 391.2731702 315.26281155 389.96430302 315.26422787 C388.56931376 315.26068942 387.17432475 315.25705462 385.77933598 315.25333309 C384.30063726 315.25305082 382.82193841 315.25320974 381.34323978 315.2537756 C377.3395782 315.254062 373.33594669 315.24819061 369.33229208 315.24120164 C365.14426197 315.234942 360.95623113 315.23436224 356.76819706 315.23317623 C348.84229676 315.23007061 340.91641028 315.22186759 332.99051607 315.21182674 C323.96515756 315.20064171 314.93979839 315.19514913 305.91443467 315.19013131 C287.35295514 315.17968434 268.79148847 315.1620998 250.23001957 315.1398077 C250.38954609 315.90499722 250.54907261 316.67018673 250.71343327 317.4585638 C251.27908921 320.39449445 251.50805335 323.24181601 251.69486332 326.2257452 C251.77172367 327.39742245 251.84858402 328.56909969 251.92777348 329.77628231 C252.00688969 331.00999569 252.0860059 332.24370907 252.16751957 333.5148077 C252.77121362 342.52346967 253.47981329 351.42886101 254.86283207 360.35465145 C255.21064501 362.99284962 255.25622584 365.48377457 255.23001957 368.1398077 C256.29961918 368.11886044 257.36921879 368.09791317 258.47123051 368.07633114 C262.4444013 368.00386144 266.41751382 367.95798307 270.39115238 367.92008114 C272.11000236 367.89998142 273.82878409 367.87269681 275.54740238 367.83804989 C278.01990446 367.78945736 280.49150167 367.76682335 282.96439457 367.7491827 C284.11461094 367.71821499 284.11461094 367.71821499 285.288064 367.68662167 C288.80499172 367.68514682 290.8321552 367.84966891 293.71146488 369.94937801 C295.96555124 373.20077075 295.83980608 375.27782644 295.23001957 379.1398077 C292.58309538 382.57412875 291.09895813 383.98103906 286.78638554 384.7690134 C285.44219013 384.79636242 284.09726686 384.79645042 282.75296879 384.77472591 C282.00901796 384.78252587 281.26506714 384.79032582 280.49857235 384.79836214 C278.01011085 384.818278 275.52317943 384.80252051 273.03470707 384.78678036 C271.24899243 384.79355671 269.46328478 384.80245994 267.67759037 384.81333065 C262.83042365 384.83612859 257.98378893 384.82728561 253.13661289 384.81143522 C248.06470649 384.79877881 242.99284572 384.81051562 237.92093754 384.81836605 C229.40343896 384.82746336 220.88615712 384.81547253 212.36869144 384.79166317 C202.52044842 384.76445177 192.67272294 384.77326587 182.82449245 384.8007952 C174.36998596 384.82348291 165.9156353 384.82668799 157.46110821 384.81360185 C152.411153 384.8058055 147.36144109 384.80477086 142.3115015 384.82128429 C137.56380574 384.83572485 132.81677742 384.82571497 128.06915379 384.79681301 C126.32647402 384.79019997 124.58373812 384.79210363 122.84108067 384.80312634 C120.46231833 384.81678568 118.08569616 384.79966462 115.70707035 384.77472591 C115.01689257 384.78587952 114.32671478 384.79703313 113.61562252 384.80852473 C109.85426934 384.73199619 108.28642709 384.18438157 105.29786015 381.82278156 C103.23001957 379.1398077 103.23001957 379.1398077 102.66751957 375.5773077 C103.33548526 371.49529516 103.92279552 370.55156928 107.23001957 368.1398077 C110.11967077 367.7907072 112.61594667 367.6716515 115.49564457 367.7491827 C116.2890424 367.75484249 117.08244022 367.76050228 117.89988041 367.76633358 C120.4272143 367.78867623 122.95311622 367.83886594 125.48001957 367.8898077 C127.19614489 367.90987556 128.91229249 367.92812583 130.62845707 367.9444952 C134.82952737 367.98853375 139.02953092 368.05754444 143.23001957 368.1398077 C143.29060551 367.45741024 143.35119144 366.77501278 143.41361332 366.07193661 C143.8260192 361.47440413 144.24778604 356.87903183 144.73001957 352.2882452 C145.66311384 343.40045347 146.48017151 334.53731182 146.88822269 325.60806942 C147.06304557 322.01974075 147.48431959 318.6496691 148.23001957 315.1398077 C147.46525586 315.14165129 146.70049215 315.14349487 145.91255379 315.14539433 C127.28291776 315.18961059 108.65329224 315.22268238 90.02361488 315.24343204 C81.01435363 315.25373377 72.00512745 315.26777297 62.99588871 315.29068661 C55.14117866 315.31065431 47.28649402 315.32353216 39.4317593 315.32798469 C35.27480035 315.33058635 31.1179141 315.33667831 26.96097851 315.35126781 C23.0433605 315.36490518 19.12584471 315.36901796 15.20820522 315.36602306 C13.77519137 315.36657048 12.34217387 315.37051113 10.90918064 315.37821865 C-1.9589431 315.44400026 -11.82886822 314.52729117 -21.56294918 305.47183895 C-29.42431527 296.98932789 -29.92022004 286.76533396 -29.91042233 275.70435238 C-29.91339345 274.65413611 -29.91636457 273.60391984 -29.91942573 272.52187884 C-29.92809664 269.00307491 -29.92961963 265.48430506 -29.93111324 261.96549129 C-29.93574257 259.44223616 -29.94076739 256.91898173 -29.94615841 254.39572811 C-29.95927382 247.54012415 -29.96576277 240.68453139 -29.97016907 233.82891703 C-29.97293582 229.54422635 -29.97717397 225.25953791 -29.98167324 220.97484875 C-29.99386315 209.10046626 -30.00416275 197.22608557 -30.00754833 185.35169697 C-30.0077679 184.59228274 -30.00798746 183.8328685 -30.00821368 183.05044172 C-30.00843196 182.28925925 -30.00865024 181.52807678 -30.00887513 180.74382818 C-30.00931859 179.20150494 -30.00976515 177.65918171 -30.01021481 176.11685848 C-30.01043624 175.35182061 -30.01065767 174.58678273 -30.0108858 173.79856189 C-30.01483126 161.41069168 -30.03227879 149.0228804 -30.05557433 136.63503294 C-30.07932509 123.90180297 -30.09175189 111.16860252 -30.09291625 98.43535006 C-30.09383096 91.29210901 -30.09953168 84.14894473 -30.11773586 77.00572491 C-30.1348076 70.28340524 -30.13636171 63.56125567 -30.12759686 56.83891201 C-30.1268276 54.37673077 -30.1311544 51.91454164 -30.14105511 49.45238018 C-30.1538148 46.08047015 -30.14787559 42.70907203 -30.13747311 39.33716488 C-30.14552951 38.37234703 -30.15358592 37.40752919 -30.16188645 36.41347444 C-30.09014572 26.40972288 -28.51289112 16.90015073 -21.87544918 9.1163702 C-15.42207657 3.05810203 -8.78982396 0.02029936 0 0 Z M-10.20748043 20.4523077 C-13.58147974 26.25558651 -14.0576673 31.37111507 -14.01048946 37.90967464 C-14.01219831 38.78051429 -14.01390716 39.65135394 -14.0156678 40.54858267 C-14.0189559 43.45977196 -14.00797015 46.37072957 -13.99703121 49.28189754 C-13.99646695 51.37142589 -13.99678395 53.46095463 -13.99791622 55.55048275 C-13.99849015 61.21940289 -13.98672919 66.88823844 -13.97276831 72.55713892 C-13.96026778 78.48285366 -13.95909098 84.40857033 -13.95671749 90.33429623 C-13.95050074 101.55389356 -13.93408725 112.77345193 -13.91401851 123.9930321 C-13.89166562 136.76680427 -13.88066761 149.54057829 -13.87062764 162.31436515 C-13.84972122 188.589535 -13.81413865 214.86466753 -13.76998043 241.1398077 C-7.49998043 241.1398077 -1.22998043 241.1398077 5.23001957 241.1398077 C5.2336652 238.72712582 5.23731083 236.31444393 5.24106693 233.82865047 C5.27728936 211.10933026 5.33547972 188.39014227 5.41392231 165.670928 C5.45372338 153.99030484 5.48611049 142.30974916 5.50101566 130.62906551 C5.51402659 120.44760267 5.54097711 110.26628823 5.58463264 100.08490896 C5.60725986 94.6944479 5.62292948 89.30416996 5.62190342 83.91365719 C5.62115757 78.83778458 5.63907873 73.762317 5.6711874 68.68654919 C5.67969155 66.82581206 5.68143283 64.96502953 5.67582226 63.10428143 C5.66916853 60.55799475 5.68713488 58.01299158 5.71103764 55.46683407 C5.69939701 54.36952221 5.69939701 54.36952221 5.68752122 53.25004244 C5.77642943 47.87786811 7.20015545 43.60740321 10.23001957 39.1398077 C15.56813899 34.80258567 19.57194656 34.01612277 26.29088306 34.00837994 C27.54096928 34.00453879 28.7910555 34.00069765 30.07902312 33.9967401 C31.46877183 33.99752034 32.85852049 33.99839913 34.24826908 33.99936581 C35.72269908 33.99678215 37.19712838 33.99376899 38.67155671 33.99036241 C42.72884134 33.98228922 46.78610829 33.98050266 50.8434 33.97976494 C55.21707986 33.97791494 59.59075053 33.97036789 63.96442509 33.96362972 C73.53053473 33.95004372 83.09664019 33.94402129 92.66275787 33.93961906 C98.63489909 33.93685715 104.60703869 33.9326199 110.57917881 33.92811489 C127.11153785 33.91592199 143.6438956 33.90562264 160.17625904 33.9022398 C161.76363681 33.90191045 161.76363681 33.90191045 163.38308282 33.90157445 C164.44387813 33.90135617 165.50467343 33.90113789 166.59761405 33.900913 C168.74721797 33.90046953 170.8968219 33.90002297 173.04642582 33.89957333 C174.11270542 33.8993519 175.17898502 33.89913047 176.27757612 33.89890233 C193.556962 33.89495391 210.83630571 33.87749866 228.1156753 33.8542138 C245.85251689 33.83050523 263.58933731 33.81803818 281.326195 33.81687188 C291.28625328 33.81595486 301.24625663 33.81019556 311.20629978 33.79205227 C319.68716892 33.77665798 328.16796614 33.77152686 336.6488466 33.77979037 C340.97588904 33.78369922 345.30278663 33.78275582 349.62981129 33.76873302 C353.59252734 33.7560083 357.55498948 33.75717899 361.51770511 33.76932374 C362.94975313 33.77128321 364.38181905 33.7681907 365.81384191 33.75947937 C373.2629552 33.71704086 379.49761078 33.76281311 386.23001957 37.1398077 C390.67928095 41.58906908 392.47777966 46.17503017 392.48880863 52.41739559 C392.49511295 53.44518627 392.50141727 54.47297695 392.50791264 55.5319128 C392.50183994 57.18053562 392.50183994 57.18053562 392.49564457 58.86246395 C392.49755802 60.00009686 392.49947147 61.13772976 392.50144291 62.30983639 C392.50280215 64.71125161 392.49912397 67.11267424 392.49076176 69.51407528 C392.48004895 73.19222126 392.49067127 76.86987992 392.50345707 80.54801083 C392.50213562 82.88199628 392.49957354 85.21598143 392.49564457 87.54996395 C392.49969303 88.65107006 392.50374149 89.75217617 392.50791264 90.88664913 C392.49845615 92.42360691 392.49845615 92.42360691 392.48880863 93.99161434 C392.48721745 94.89142529 392.48562626 95.79123623 392.48398685 96.71831417 C392.21131097 99.31818799 391.6274555 100.94147307 390.23001957 103.1398077 C388.42533207 103.8898077 388.42533207 103.8898077 386.35501957 104.1398077 C385.67697269 104.2429327 384.99892582 104.3460577 384.30033207 104.4523077 C382.23001957 104.1398077 382.23001957 104.1398077 380.13651371 102.826087 C377.07179952 98.507858 377.64658348 94.01431419 377.65580082 88.84683895 C377.63455395 87.19418278 377.63455395 87.19418278 377.61287785 85.50813961 C377.57093184 81.98942958 377.55572424 78.47123278 377.54251957 74.9523077 C377.51351344 71.42290916 377.47903715 67.89364246 377.44002628 64.36434078 C377.41744789 62.16755276 377.40168424 59.97068272 377.3931818 57.77379513 C377.38614735 56.78574383 377.37911289 55.79769253 377.37186527 54.77970028 C377.36838581 53.90574108 377.36490635 53.03178188 377.36132145 52.13133907 C377.44972713 50.13982982 377.44972713 50.13982982 376.23001957 49.1398077 C374.34919659 49.04128333 372.46461759 49.01425115 370.58121586 49.01396656 C368.72947128 49.01005494 368.72947128 49.01005494 366.84031773 49.0060643 C365.45264007 49.00822682 364.06496256 49.0104835 362.67728519 49.01282406 C361.21695511 49.01167321 359.75662531 49.01008594 358.29629612 49.00809681 C354.26432117 49.00389844 350.2323697 49.00599646 346.20039463 49.00908303 C341.85951924 49.01133486 337.51864805 49.00785861 333.17777348 49.00510311 C324.66645722 49.00064408 316.15514976 49.00162247 307.64383316 49.00451575 C300.72977151 49.00676926 293.81571234 49.00708253 286.90165043 49.00599194 C285.42856993 49.00576209 285.42856993 49.00576209 283.92573023 49.00552759 C281.93103949 49.00520789 279.93634876 49.00488367 277.94165802 49.004555 C259.21403314 49.00169982 240.48641314 49.00498783 221.75878906 49.01035537 C205.67107178 49.01482344 189.58336172 49.01404752 173.49564457 49.00943661 C154.83746312 49.00409152 136.17928596 49.00197451 117.52110386 49.00504887 C115.53353214 49.00536744 113.54596043 49.00568181 111.55838871 49.00599194 C110.58032938 49.00614621 109.60227004 49.00630049 108.59457254 49.00645944 C101.684561 49.00732479 94.77455217 49.00586133 87.86454105 49.00351238 C79.44965778 49.00071491 71.03478385 49.00145153 62.61990166 49.00679313 C58.32215009 49.00943086 54.02441411 49.01043401 49.72666264 49.00714397 C45.79880824 49.00418247 41.87098402 49.00577137 37.9431324 49.01112153 C36.51583257 49.01224634 35.08853024 49.01165313 33.66123199 49.00924574 C31.73376412 49.00624202 29.80628919 49.00989499 27.87882328 49.01396656 C26.8043771 49.01412891 25.72993092 49.01429127 24.62292576 49.01445854 C22.27703339 48.86974439 22.27703339 48.86974439 21.23001957 50.1398077 C21.13231286 52.6061143 21.10005644 55.04440342 21.10976505 57.51116085 C21.10848103 58.67954243 21.10848103 58.67954243 21.10717106 59.87152767 C21.10550577 62.50988656 21.11105578 65.14818305 21.11649418 67.78653622 C21.11680027 69.69900892 21.11666744 71.61148174 21.11612892 73.52395439 C21.11590235 78.66421284 21.12171513 83.80444821 21.12873936 88.94470119 C21.1344173 93.76099886 21.13470155 98.5772908 21.13541508 103.39359188 C21.14067084 117.49650024 21.15463187 131.59940426 21.16751957 145.7023077 C21.18814457 177.1966827 21.20876957 208.6910577 21.23001957 241.1398077 C138.71001957 241.1398077 256.19001957 241.1398077 377.23001957 241.1398077 C377.56001957 203.8498077 377.89001957 166.5598077 378.23001957 128.1398077 C382.23001957 124.1398077 382.23001957 124.1398077 384.30033207 123.8273077 C384.97837894 123.9304327 385.65642582 124.0335577 386.35501957 124.1398077 C387.03822269 124.2223077 387.72142582 124.3048077 388.42533207 124.3898077 C390.23001957 125.1398077 390.23001957 125.1398077 391.32540798 126.890872 C392.33035301 129.38924454 392.49042388 131.18658129 392.50849247 133.87277889 C392.52523769 135.29460476 392.52523769 135.29460476 392.54232121 136.74515438 C392.54448139 137.77805599 392.54664158 138.8109576 392.54886723 139.87515926 C392.55891285 140.96814327 392.56895847 142.06112728 392.57930851 143.18723202 C392.61021093 146.80162687 392.62719548 150.41594742 392.64408207 154.0304327 C392.66278801 156.53578999 392.68236099 159.04114094 392.70276737 161.54648495 C392.74890206 167.46786897 392.7862886 173.38926733 392.81944025 179.31073451 C392.8614279 186.71476349 392.91699219 194.11868009 392.97220707 201.5226202 C393.06904497 214.72828935 393.15342466 227.93400671 393.23001957 241.1398077 C399.50001957 241.1398077 405.77001957 241.1398077 412.23001957 241.1398077 C412.29946941 213.6366222 412.35300498 186.13345783 412.38545609 158.63020229 C412.40092425 145.85993623 412.4220129 133.08972565 412.45633793 120.3194952 C412.48624171 109.18883047 412.50559494 98.05820594 412.51228505 86.92750216 C412.51619562 81.0340121 412.52538516 75.14063701 412.54720974 69.2471838 C412.56759023 63.69867148 412.57385014 58.15032137 412.56934261 52.60177517 C412.57016711 50.56685409 412.57612336 48.53192752 412.58763599 46.49703884 C412.60260445 43.71455564 412.59895723 40.93268154 412.59078312 38.15018368 C412.59952164 37.34860537 412.60826017 36.54702706 412.6172635 35.7211585 C412.56676321 29.3429722 411.5195057 23.55648751 406.98001957 18.7648077 C401.63334171 15.60540715 396.3390412 14.88977665 390.20934582 14.88533211 C389.5353693 14.88212563 388.86139278 14.87891915 388.16699272 14.87561551 C385.91627691 14.86733665 383.66582868 14.87323226 381.41510868 14.87911129 C379.78205881 14.87608964 378.14901035 14.87220009 376.51596439 14.86751872 C372.03410771 14.85723174 367.55233097 14.85942234 363.07046771 14.86369932 C358.23464548 14.86616526 353.39884255 14.85715401 348.56302738 14.84966183 C339.09131659 14.83690915 329.61963414 14.83512185 320.14791621 14.83746209 C312.44935788 14.83924477 304.75080816 14.83749668 297.05225086 14.83323765 C295.40900669 14.83234486 295.40900669 14.83234486 293.73256566 14.83143404 C291.50709598 14.8302223 289.2816263 14.82900817 287.05615662 14.82779167 C266.18319491 14.81691394 245.31024935 14.81907973 224.43728672 14.82517651 C205.34167231 14.83034588 186.24610892 14.81909011 167.1505046 14.8000783 C147.54338954 14.78070685 127.93629862 14.77244268 108.32917392 14.77620155 C97.32117177 14.77811464 86.31321304 14.77561545 75.3052187 14.76148701 C65.93402349 14.74958109 56.56289842 14.74815947 47.19170226 14.76027717 C42.41086396 14.76617138 37.63015402 14.76725027 32.84932423 14.75527477 C28.47094967 14.74443487 24.09281092 14.74749679 19.71444748 14.76153646 C18.13240758 14.7641886 16.55034931 14.76180061 14.96832742 14.75380059 C1.38861928 14.34737569 1.38861928 14.34737569 -10.20748043 20.4523077 Z M-13.76998043 257.1398077 C-15.40855649 282.19427216 -15.40855649 282.19427216 -10.76998043 293.1398077 C-5.74599494 298.16379319 -0.89803952 299.38895603 6.06986046 299.39707661 C6.74858238 299.40058268 7.42730431 299.40408876 8.12659356 299.40770108 C10.40547925 299.41701987 12.68410966 299.41209059 14.96300602 299.40723324 C16.61154202 299.41096926 18.26007625 299.41557059 19.90860766 299.42096388 C24.4425158 299.43321525 28.97635027 299.4329309 33.51027119 299.43057513 C38.39860083 299.43016751 43.28690667 299.44120093 48.17522526 299.45069027 C57.7538201 299.46731292 67.33239033 299.47280039 76.91099838 299.47391503 C84.6959026 299.47486489 92.48079869 299.47897212 100.26570034 299.48531628 C122.33064978 299.50293209 144.39557976 299.51215461 166.46053628 299.51065533 C167.65040571 299.51057542 168.84027513 299.5104955 170.06620121 299.51041317 C171.25752113 299.51033141 172.44884105 299.51024965 173.67626157 299.51016541 C192.98608721 299.5093524 212.29583486 299.52849301 231.60563795 299.5566899 C251.42625794 299.58540465 271.24683989 299.59923098 291.06748122 299.59750235 C302.19789973 299.59683797 313.32823649 299.60235153 324.45863628 299.62385845 C333.93495751 299.64205169 343.41115992 299.64643285 352.88749103 299.63283961 C357.7229113 299.6263006 362.55810352 299.62622639 367.39350224 299.6435461 C371.82068968 299.65924065 376.24746756 299.65645031 380.67464479 299.63897784 C382.27557102 299.63589996 383.87652753 299.63956998 385.47741804 299.65069799 C396.95632811 299.77742821 396.95632811 299.77742821 407.23001957 295.1398077 C416.31665472 283.95625675 412.23001957 272.482715 412.23001957 257.1398077 C271.65001957 257.1398077 131.07001957 257.1398077 -13.76998043 257.1398077 Z M164.23001957 315.1398077 C163.52942756 319.34335977 163.02499648 323.21722059 162.76517582 327.4366827 C162.68718754 328.64453426 162.60919926 329.85238583 162.52884769 331.09683895 C162.37422005 333.57854881 162.22053633 336.0603177 162.06791019 338.54215145 C161.42401736 348.4779937 160.33330657 358.21022473 159.23001957 368.1398077 C185.63001957 368.1398077 212.03001957 368.1398077 239.23001957 368.1398077 C237.74501957 353.2898077 237.74501957 353.2898077 236.23001957 338.1398077 C235.60501957 328.1398077 235.60501957 328.1398077 235.44095707 324.3898077 C235.25359542 320.66356342 235.25359542 320.66356342 234.23001957 315.1398077 C211.13001957 315.1398077 188.03001957 315.1398077 164.23001957 315.1398077 Z " fill="#000000" transform="translate(56.76998043060303,-0.13980770111083984)"/>
<path d="M0 0 C1.87191513 -0.01902626 1.87191513 -0.01902626 3.78164673 -0.03843689 C5.12966072 -0.03638584 6.47767356 -0.03339814 7.82568359 -0.02954102 C9.2200038 -0.03410632 10.61432176 -0.03941293 12.00863647 -0.04542542 C14.92202943 -0.05433415 17.83514789 -0.05195723 20.74853516 -0.04199219 C24.47902178 -0.03047425 28.20856576 -0.05076699 31.9389286 -0.07990932 C34.81460563 -0.098261 37.69005594 -0.09798158 40.56577682 -0.0922718 C41.94128115 -0.09211862 43.31680088 -0.09816036 44.6922493 -0.11056328 C46.61379037 -0.12545785 48.53548729 -0.11217408 50.45703125 -0.09765625 C51.54923981 -0.09749008 52.64144836 -0.09732391 53.76675415 -0.09715271 C57.25903319 0.5208284 58.43547684 1.65098148 60.59912109 4.40405273 C61.30794412 7.31190155 60.93883898 9.34659174 60.59912109 12.40405273 C58.78748842 15.07836763 57.72151033 15.36325632 54.59912109 16.40405273 C52.7744621 16.52014633 50.94604224 16.58061802 49.11791992 16.609375 C47.99698441 16.62932022 46.87604889 16.64926544 45.72114563 16.66981506 C44.51169785 16.68652756 43.30225006 16.70324005 42.05615234 16.72045898 C40.81741867 16.74124008 39.578685 16.76202118 38.30241394 16.78343201 C35.01286853 16.83777071 31.72329383 16.88801224 28.43365479 16.9362793 C25.07534295 16.98655919 21.71712063 17.04221135 18.35888672 17.09741211 C11.77236951 17.20458321 5.18578525 17.30635409 -1.40087891 17.40405273 C-1.61528122 18.0848439 -1.82968353 18.76563507 -2.05058289 19.46705627 C-4.09332679 25.95259685 -6.13728834 32.43775261 -8.18254375 38.92250156 C-9.2334276 42.25460856 -10.28387606 45.58685137 -11.33325195 48.91943359 C-12.54582175 52.77021093 -13.76042452 56.62034459 -14.97509766 60.47045898 C-15.34301926 61.63984512 -15.71094086 62.80923126 -16.0900116 64.01405334 C-18.77290562 72.5103535 -21.58238062 80.94855788 -24.40087891 89.40405273 C103.63912109 89.40405273 231.67912109 89.40405273 363.59912109 89.40405273 C360.62912109 80.49405273 357.65912109 71.58405273 354.59912109 62.40405273 C352.05496707 54.34798525 349.52667552 46.28918114 347.03662109 38.21655273 C346.40342291 36.17154868 345.76995971 34.12662666 345.13623047 32.08178711 C343.62083541 27.19013953 342.1089208 22.29743006 340.59912109 17.40405273 C338.62700134 17.40185289 338.62700134 17.40185289 336.61504078 17.39960861 C305.41522283 17.3639172 274.21551651 17.3076914 243.01578655 17.22613178 C239.17678451 17.21611416 235.33778205 17.20627006 231.4987793 17.1965332 C230.73449347 17.19459183 229.97020764 17.19265046 229.18276163 17.19065025 C216.80274564 17.15961754 204.42274819 17.14264606 192.04270063 17.13085851 C179.34241414 17.11845352 166.64222508 17.09096693 153.94200009 17.04943967 C146.10338338 17.02428548 138.26492821 17.01093685 130.42627057 17.01262316 C124.41854921 17.0126564 118.41108891 16.99172051 112.40342903 16.9628849 C109.93671829 16.95434691 107.46997312 16.95266221 105.00325394 16.95825005 C101.64151994 16.96485256 98.28077775 16.94705809 94.91914368 16.92303467 C93.93762512 16.93079509 92.95610656 16.9385555 91.94484502 16.94655108 C87.69546966 16.89260314 85.23907508 16.78187949 81.52052593 14.58646011 C78.82564523 11.52550835 78.52816227 9.44870595 78.59912109 5.40405273 C79.95187664 2.7206583 79.95187664 2.7206583 82.59912109 0.40405273 C86.06293899 -0.35460835 89.48375577 -0.26567484 93.01753235 -0.22413635 C94.08998536 -0.23123074 95.16243837 -0.23832513 96.26738995 -0.2456345 C99.87352635 -0.26328519 103.47859501 -0.24507238 107.0847168 -0.22705078 C109.66505425 -0.23218695 112.24538819 -0.23946592 114.82571411 -0.24873352 C121.11487092 -0.26712883 127.40371738 -0.25858461 133.69286457 -0.2406453 C138.80524143 -0.22662538 143.91753397 -0.22272518 149.02992821 -0.22608757 C149.75728519 -0.22656501 150.48464218 -0.22704245 151.23404029 -0.22753436 C152.71164505 -0.22856069 154.1892498 -0.22961605 155.66685452 -0.23070013 C168.73865848 -0.23927148 181.81031259 -0.22258021 194.88208008 -0.19287109 C207.56313375 -0.16405039 220.2439714 -0.15694113 232.92504883 -0.17236328 C246.73257112 -0.18913237 260.53999078 -0.19315107 274.34751576 -0.17565292 C275.82063272 -0.17380855 277.2937497 -0.17197382 278.76686668 -0.17014885 C279.49166275 -0.16923676 280.21645881 -0.16832467 280.96321839 -0.16738494 C286.06707789 -0.16178256 291.17088726 -0.1650841 296.27474403 -0.1716938 C303.14893886 -0.18024262 310.02281715 -0.16724215 316.89696121 -0.13984489 C319.42089221 -0.1329553 321.94485226 -0.13286919 324.46878242 -0.14006042 C327.91278929 -0.14874262 331.35583263 -0.13281796 334.79975891 -0.11061096 C335.79995994 -0.11885173 336.80016098 -0.1270925 337.83067113 -0.13558298 C343.94764668 -0.06273027 347.59519414 0.81721124 352.59912109 4.40405273 C357.87520389 11.18574343 359.88007815 20.82829192 362.39208984 28.91577148 C362.82785461 30.2974071 363.26433597 31.67881687 363.70149231 33.06001282 C364.84082295 36.66672515 365.97000188 40.27653659 367.09710693 43.88708496 C368.24415032 47.55433405 369.40183231 51.21822142 370.55810547 54.88256836 C372.24890127 60.24843608 373.93652675 65.61527687 375.61547852 70.98486328 C375.95125412 72.05834518 376.28702972 73.13182709 376.63298035 74.23783875 C381.15609996 89.06090116 381.15609996 89.06090116 378.41162109 96.71655273 C376.04089919 100.23176107 373.38631347 102.51045655 369.59912109 104.40405273 C367.44216684 104.50305062 365.28205963 104.53508502 363.12283707 104.53827381 C362.44697748 104.54062604 361.7711179 104.54297827 361.07477772 104.54540178 C358.78764929 104.55211109 356.50057741 104.55163298 354.21343994 104.55122375 C352.56606896 104.55452118 350.91869878 104.55824649 349.27132964 104.56236523 C344.72680128 104.57240716 340.18228613 104.57610554 335.63774824 104.57875454 C330.74327499 104.5826511 325.84881226 104.59222986 320.9543457 104.60096741 C309.1256099 104.62075001 297.29687321 104.63080022 285.46812499 104.6396952 C279.90214775 104.64407509 274.33617148 104.64944266 268.77019501 104.65468407 C250.27518537 104.67169801 231.78017633 104.68619319 213.28516006 104.69343281 C208.48323821 104.6953428 203.68131637 104.69726312 198.87939453 104.69921875 C197.68585349 104.69970249 196.49231245 104.70018623 195.26260349 104.70068463 C175.91890729 104.70898866 156.57527286 104.73433114 137.23160365 104.76679943 C117.38623233 104.79983913 97.54089244 104.81787876 77.69549346 104.82107705 C66.54720338 104.82324499 55.39900338 104.83203517 44.25074005 104.85753822 C34.75819218 104.87920304 25.26575626 104.88731647 15.77318648 104.87757144 C10.92790419 104.8730145 6.08285308 104.87499367 1.23760223 104.89433289 C-3.19637772 104.9118781 -7.62995638 104.91103755 -12.06394008 104.89543559 C-13.66963403 104.89304632 -15.27535513 104.897451 -16.8810074 104.90926424 C-19.0615718 104.92431599 -21.24070192 104.91475932 -23.42123032 104.89903736 C-24.63297291 104.90001417 -25.8447155 104.90099098 -27.09317756 104.90199739 C-31.89992553 104.17838476 -35.03492564 101.95841335 -38.21337891 98.34155273 C-41.49293327 92.99070087 -41.05410613 87.13654869 -39.64807129 81.25500488 C-38.55226366 77.5477826 -37.37579089 73.87215468 -36.16650391 70.20092773 C-35.72651868 68.83283191 -35.28771851 67.46435447 -34.85003662 66.09552002 C-33.69906307 62.50637656 -32.53272037 58.92241933 -31.36279297 55.3394165 C-30.18688218 51.72972122 -29.02467851 48.11562472 -27.86181641 44.50170898 C-26.54687153 40.41679109 -25.23080124 36.33228767 -23.90338135 32.25140381 C-23.50326843 31.02012756 -23.10315552 29.78885132 -22.69091797 28.52026367 C-22.3042395 27.33557495 -21.91756104 26.15088623 -21.51916504 24.93029785 C-20.76576613 22.55463642 -20.04520122 20.1683418 -19.35583496 17.77331543 C-19.02490845 16.62568726 -18.69398193 15.47805908 -18.35302734 14.2956543 C-18.07118591 13.28005432 -17.78934448 12.26445435 -17.4989624 11.21807861 C-15.7553511 6.74977785 -13.61546451 4.16573903 -9.55093384 1.61680603 C-6.14062956 0.30385821 -3.64372424 0.01799871 0 0 Z " fill="#000000" transform="translate(86.40087890625,407.595947265625)"/>
<path d="M0 0 C3.3515625 0.4609375 3.3515625 0.4609375 6.3515625 2.5234375 C8.3515625 5.4609375 8.3515625 5.4609375 8.2109375 8.83203125 C7.28150607 12.75676669 6.23611488 14.46100925 3.6015625 17.4609375 C2.79203125 18.399375 1.9825 19.3378125 1.1484375 20.3046875 C0.70177734 20.80871094 0.25511719 21.31273438 -0.20507812 21.83203125 C-1.75642482 23.58280681 -3.28963305 25.34832029 -4.8203125 27.1171875 C-6.49078502 29.04756067 -8.16232504 30.97686768 -9.83984375 32.90112305 C-13.09509145 36.63903555 -16.28031758 40.41939767 -19.3984375 44.2734375 C-22.93034837 48.63676535 -26.63550686 52.7993223 -30.4140625 56.94921875 C-32.64978283 59.46244982 -34.78221432 62.03405229 -36.8984375 64.6484375 C-41.56919861 70.41581209 -46.42444502 76.00903735 -51.296875 81.60546875 C-54.57846125 85.37480677 -57.83600488 89.16429684 -61.0859375 92.9609375 C-61.55749268 93.51177002 -62.02904785 94.06260254 -62.51489258 94.63012695 C-63.19781372 95.42809692 -63.19781372 95.42809692 -63.89453125 96.2421875 C-64.34038574 96.76167969 -64.78624023 97.28117187 -65.24560547 97.81640625 C-66.25619616 99.00111542 -67.25956823 100.19199591 -68.25830078 101.38671875 C-68.79052246 102.01964844 -69.32274414 102.65257812 -69.87109375 103.3046875 C-70.59631226 104.17383789 -70.59631226 104.17383789 -71.33618164 105.06054688 C-73.30732885 107.16408183 -74.58546113 107.45254065 -77.4609375 107.8359375 C-80.6484375 107.4609375 -80.6484375 107.4609375 -83.5234375 105.3359375 C-85.6484375 102.4609375 -85.6484375 102.4609375 -86.3984375 99.7109375 C-85.2100113 94.56109063 -82.06936801 91.39950881 -78.6484375 87.4609375 C-77.6690148 86.32053234 -76.68986659 85.1798914 -75.7109375 84.0390625 C-73.49893167 81.47091493 -71.27636885 78.9123516 -69.046875 76.359375 C-65.87238692 72.72340541 -62.72372802 69.06609238 -59.5859375 65.3984375 C-58.59895833 64.24479167 -57.61197917 63.09114583 -56.625 61.9375 C-55.89265137 61.08140137 -55.89265137 61.08140137 -55.14550781 60.20800781 C-53.61556991 58.42258126 -52.08172949 56.64057605 -50.546875 54.859375 C-45.95466615 49.52543686 -41.39198793 44.18051537 -36.9609375 38.7109375 C-33.40864935 34.33298237 -29.68812693 30.14980099 -25.890625 25.984375 C-23.60327846 23.41011392 -21.43295479 20.76804261 -19.2734375 18.0859375 C-17.73615796 16.2073389 -16.19421955 14.33254616 -14.6484375 12.4609375 C-14.20177734 11.9148584 -13.75511719 11.3687793 -13.29492188 10.80615234 C-11.89237175 9.10922188 -10.46212241 7.43977809 -9.0234375 5.7734375 C-8.59240723 5.24379395 -8.16137695 4.71415039 -7.71728516 4.16845703 C-5.17132376 1.2808589 -3.86840299 0.48872757 0 0 Z " fill="#000000" transform="translate(216.6484375,91.5390625)"/>
<path d="M0 0 C2.91038052 2.06790195 3.83243325 3.26270631 4.625 6.75 C2.99988191 15.20061406 -5.43494713 21.82774626 -11.1484375 27.92578125 C-13.37782873 30.3117104 -15.52847836 32.74553449 -17.625 35.25 C-20.26858061 38.31098808 -20.90271322 38.8536951 -24.8125 39.375 C-28 39 -28 39 -30.875 36.875 C-33.40746809 33.44871964 -33.45045405 32.16408106 -33 28 C-31.671875 25.68359375 -31.671875 25.68359375 -29.75 23.4375 C-29.02683594 22.58671875 -28.30367187 21.7359375 -27.55859375 20.859375 C-7.21489527 -1.87587277 -7.21489527 -1.87587277 0 0 Z " fill="#000000" transform="translate(164,112)"/>
<path d="M0 0 C1.17018677 -0.00717545 1.17018677 -0.00717545 2.36401367 -0.01449585 C4.00799586 -0.01788758 5.65204615 -0.00873581 7.29589844 0.01220703 C9.80557295 0.03898858 12.31077629 0.0124405 14.8203125 -0.01953125 C16.42188482 -0.01622702 18.02345438 -0.00982049 19.625 0 C20.37096436 -0.01012115 21.11692871 -0.02024231 21.88549805 -0.03067017 C25.82227636 0.05743557 27.64697715 0.53494489 30.78515625 2.98291016 C32.8125 5.6640625 32.8125 5.6640625 33.4375 9.2265625 C32.8125 12.6640625 32.8125 12.6640625 30.78515625 14.84570312 C27.03059372 17.14235077 23.89712001 17.24168339 19.625 17.1953125 C18.84487549 17.1991394 18.06475098 17.20296631 17.26098633 17.20690918 C15.61701156 17.20962255 13.97299319 17.20230155 12.32910156 17.18554688 C9.81997977 17.16412636 7.31372078 17.18536523 4.8046875 17.2109375 C3.20311871 17.20829412 1.6015517 17.20316892 0 17.1953125 C-1.11894653 17.20745789 -1.11894653 17.20745789 -2.26049805 17.21984863 C-5.88795509 17.15490217 -8.04136392 16.75345323 -11.16015625 14.84570312 C-13.1875 12.6640625 -13.1875 12.6640625 -13.8125 9.2265625 C-12.43524126 1.37618769 -7.20203007 -0.09771628 0 0 Z " fill="#000000" transform="translate(246.1875,269.3359375)"/>
<path d="M0 0 C0.80695313 -0.02384766 1.61390625 -0.04769531 2.4453125 -0.07226562 C6.61913964 -0.06193437 8.3715644 -0.00549065 11.55859375 2.875 C13 5.5625 13 5.5625 13.0625 9.125 C11.77587736 13.28760265 10.64524427 14.26128457 7 16.5625 C3.625 17.05859375 3.625 17.05859375 0 17 C-1.19625 16.99871094 -2.3925 16.99742187 -3.625 16.99609375 C-7.49601567 16.49877576 -10.21707597 15.34542403 -13 12.5625 C-13.58274421 5.45302064 -13.58274421 5.45302064 -11.54296875 2.3359375 C-7.78751134 -0.28307581 -4.4751451 -0.06076475 0 0 Z " fill="#000000" transform="translate(378,438.4375)"/>
<path d="M0 0 C0.80695313 -0.02384766 1.61390625 -0.04769531 2.4453125 -0.07226562 C6.63291526 -0.06190027 8.36566291 -0.02484915 11.53125 2.90625 C13.32591906 6.15192808 13.62196481 7.90845677 13 11.5625 C11.1329009 13.86525556 9.64352259 15.24073871 7 16.5625 C4.73255726 16.71193856 2.4596825 16.78394902 0.1875 16.8125 C-1.64748047 16.85117187 -1.64748047 16.85117187 -3.51953125 16.890625 C-7.22555603 16.54123546 -9.06429871 15.79819119 -12 13.5625 C-13.54586876 10.47076248 -13.29359521 7.96820448 -13 4.5625 C-9.65671415 -0.46587363 -5.51329835 -0.07486108 0 0 Z " fill="#000000" transform="translate(338,438.4375)"/>
<path d="M0 0 C0.81146484 -0.01998047 1.62292969 -0.03996094 2.45898438 -0.06054688 C6.30933254 -0.05738826 8.40372284 -0.03175204 11.6015625 2.24609375 C13.73183657 5.44150486 13.53174107 7.68357148 13.0625 11.4375 C11.30234869 14.6225357 10.56359084 15.27046972 7.0625 16.4375 C4.75230664 16.55820269 2.4383126 16.612863 0.125 16.625 C-1.10089844 16.63917969 -2.32679688 16.65335937 -3.58984375 16.66796875 C-6.71788908 16.45261907 -8.36745155 16.15086563 -10.9375 14.4375 C-13.03429403 11.74162197 -12.93260821 10.344556 -12.75 6.875 C-10.99063088 -0.56848473 -6.66251033 -0.05793487 0 0 Z " fill="#000000" transform="translate(296.9375,438.5625)"/>
<path d="M0 0 C0.80695313 -0.02384766 1.61390625 -0.04769531 2.4453125 -0.07226562 C6.61870193 -0.06193545 8.37333853 -0.00120918 11.56640625 2.87109375 C13.52167003 6.54187506 13.09775576 8.61057927 12 12.5625 C10.42114034 14.62188216 9.30857577 15.40821211 7 16.5625 C4.73255726 16.71193856 2.4596825 16.78394902 0.1875 16.8125 C-1.64748047 16.85117187 -1.64748047 16.85117187 -3.51953125 16.890625 C-7.22555603 16.54123546 -9.06429871 15.79819119 -12 13.5625 C-13.54586876 10.47076248 -13.29359521 7.96820448 -13 4.5625 C-9.65671415 -0.46587363 -5.51329835 -0.07486108 0 0 Z " fill="#000000" transform="translate(216,438.4375)"/>
<path d="M0 0 C0.80695313 -0.01546875 1.61390625 -0.0309375 2.4453125 -0.046875 C6.27579842 -0.02159126 8.35699676 0.03957793 11.53125 2.3125 C13.69176517 5.53028855 13.54051136 7.71642048 13 11.5 C11.13291495 13.86497439 9.67938569 15.16030715 7 16.5 C4.73255726 16.64943856 2.4596825 16.72144902 0.1875 16.75 C-1.64748047 16.78867187 -1.64748047 16.78867187 -3.51953125 16.828125 C-7.22555603 16.47873546 -9.06429871 15.73569119 -12 13.5 C-13.54586876 10.40826248 -13.29359521 7.90570448 -13 4.5 C-9.65322029 -0.54260106 -5.51708081 -0.10575874 0 0 Z " fill="#000000" transform="translate(175,438.5)"/>
<path d="M0 0 C0.80695313 -0.01095703 1.61390625 -0.02191406 2.4453125 -0.03320312 C6.24860998 0.01386739 8.36810078 0.11851534 11.53515625 2.34375 C13.95280513 6.00568217 13.48095767 8.23388094 13 12.5625 C11.18836733 15.23681489 10.12238923 15.52170359 7 16.5625 C4.71238153 16.73393087 2.41857031 16.82893463 0.125 16.875 C-1.08929688 16.91238281 -2.30359375 16.94976562 -3.5546875 16.98828125 C-7.60980883 16.48713814 -9.1860027 15.47496129 -12 12.5625 C-13.0625 9.125 -13.0625 9.125 -13 5.5625 C-9.8112154 -0.38298457 -6.12133812 -0.18090216 0 0 Z " fill="#000000" transform="translate(134,438.4375)"/>
<path d="M0 0 C0.75925781 -0.01160156 1.51851563 -0.02320313 2.30078125 -0.03515625 C5.59505805 -0.01784832 8.05178438 0.13141995 10.97265625 1.71875 C13.25063476 4.18898757 13.43360858 6.05542877 13.5 9.375 C12.29706174 12.16075175 11.33967095 13.82480465 8.7890625 15.49609375 C5.79779755 16.64461698 3.26188867 16.67640385 0.0625 16.6875 C-1.60619141 16.71263672 -1.60619141 16.71263672 -3.30859375 16.73828125 C-6.82101227 16.33845882 -8.67007785 15.44790527 -11.5 13.375 C-13.44663632 10.8089794 -13.50770736 9.56383026 -13.375 6.3125 C-11.37374637 -0.40599431 -6.17327494 -0.09432848 0 0 Z " fill="#000000" transform="translate(256.5,438.625)"/>
<path d="M0 0 C0.80695313 -0.01546875 1.61390625 -0.0309375 2.4453125 -0.046875 C6.27579842 -0.02159126 8.35699676 0.03957793 11.53125 2.3125 C13.69176517 5.53028855 13.54051136 7.71642048 13 11.5 C11.53125 13.6875 11.53125 13.6875 9 15.5 C5.98811759 16.08790498 3.059863 16.05865552 0 16 C-0.80695313 16.01546875 -1.61390625 16.0309375 -2.4453125 16.046875 C-6.27579842 16.02159126 -8.35699676 15.96042207 -11.53125 13.6875 C-13.69176517 10.46971145 -13.54051136 8.28357952 -13 4.5 C-9.62206437 -0.53096797 -5.53413946 -0.10608574 0 0 Z " fill="#000000" transform="translate(175,465.5)"/>
<path d="M0 0 C0.80695313 -0.01546875 1.61390625 -0.0309375 2.4453125 -0.046875 C6.27579842 -0.02159126 8.35699676 0.03957793 11.53125 2.3125 C13.69176517 5.53028855 13.54051136 7.71642048 13 11.5 C11.53125 13.6875 11.53125 13.6875 9 15.5 C5.98811759 16.08790498 3.059863 16.05865552 0 16 C-0.80695313 16.01546875 -1.61390625 16.0309375 -2.4453125 16.046875 C-6.27579842 16.02159126 -8.35699676 15.96042207 -11.53125 13.6875 C-13.69176517 10.46971145 -13.54051136 8.28357952 -13 4.5 C-9.62206437 -0.53096797 -5.53413946 -0.10608574 0 0 Z " fill="#000000" transform="translate(338,465.5)"/>
<path d="M0 0 C0.8765625 -0.020625 1.753125 -0.04125 2.65625 -0.0625 C3.49929688 -0.06765625 4.34234375 -0.0728125 5.2109375 -0.078125 C5.9848584 -0.0874707 6.7587793 -0.09681641 7.55615234 -0.10644531 C10.16459206 0.34296724 11.01238863 1.19084783 12.625 3.25 C13.66724273 6.29655567 13.7495743 7.83794654 12.8125 10.9375 C11.625 13.25 11.625 13.25 9.625 15.25 C6.49953844 15.69626783 3.3412016 15.57410302 0.1875 15.5625 C-0.68455078 15.57861328 -1.55660156 15.59472656 -2.45507812 15.61132812 C-3.71288086 15.61229492 -3.71288086 15.61229492 -4.99609375 15.61328125 C-5.7636499 15.61626221 -6.53120605 15.61924316 -7.32202148 15.62231445 C-9.921775 15.15084054 -10.77548036 14.31898032 -12.375 12.25 C-13.49803133 8.56003991 -13.71238847 6.94011278 -12 3.4375 C-8.70500902 -0.99806478 -5.30181442 0.03091437 0 0 Z " fill="#000000" transform="translate(256.375,465.75)"/>
<path d="M0 0 C0.80695313 -0.02384766 1.61390625 -0.04769531 2.4453125 -0.07226562 C6.61870193 -0.06193545 8.37333853 -0.00120918 11.56640625 2.87109375 C13.52167003 6.54187506 13.09775576 8.61057927 12 12.5625 C10.44756723 14.56870738 9.57421587 15.44225107 7.07055664 15.96655273 C4.73337398 15.99851105 2.3999092 16.0203253 0.0625 16 C-0.74896484 16.01998047 -1.56042969 16.03996094 -2.39648438 16.06054688 C-6.24553564 16.05738933 -8.34001143 16.0333393 -11.53515625 13.75390625 C-13.68845704 10.53256827 -13.54046833 8.3457783 -13 4.5625 C-9.62554065 -0.4543159 -5.53035012 -0.07509261 0 0 Z " fill="#000000" transform="translate(378,465.4375)"/>
<path d="M0 0 C0.81146484 -0.01998047 1.62292969 -0.03996094 2.45898438 -0.06054688 C6.30803564 -0.05738933 8.40251143 -0.0333393 11.59765625 2.24609375 C13.75095704 5.46743173 13.60296833 7.6542217 13.0625 11.4375 C11.39493441 13.91667332 10.09178096 15.22808923 7.11132812 15.83447266 C4.74865363 16.01347878 2.43149857 16.03216691 0.0625 16 C-0.74445313 16.02384766 -1.55140625 16.04769531 -2.3828125 16.07226562 C-6.55620193 16.06193545 -8.31083853 16.00120918 -11.50390625 13.12890625 C-13.45917003 9.45812494 -13.03525576 7.38942073 -11.9375 3.4375 C-8.68906948 -0.76044366 -4.92668612 -0.04284075 0 0 Z " fill="#000000" transform="translate(296.9375,465.5625)"/>
<path d="M0 0 C0.80695313 -0.02384766 1.61390625 -0.04769531 2.4453125 -0.07226562 C6.61870193 -0.06193545 8.37333853 -0.00120918 11.56640625 2.87109375 C13.52167003 6.54187506 13.09775576 8.61057927 12 12.5625 C10.44756723 14.56870738 9.57421587 15.44225107 7.07055664 15.96655273 C4.73337398 15.99851105 2.3999092 16.0203253 0.0625 16 C-0.74896484 16.01998047 -1.56042969 16.03996094 -2.39648438 16.06054688 C-6.24553564 16.05738933 -8.34001143 16.0333393 -11.53515625 13.75390625 C-13.68845704 10.53256827 -13.54046833 8.3457783 -13 4.5625 C-9.62554065 -0.4543159 -5.53035012 -0.07509261 0 0 Z " fill="#000000" transform="translate(216,465.4375)"/>
<path d="M0 0 C0.81146484 -0.01998047 1.62292969 -0.03996094 2.45898438 -0.06054688 C6.30803564 -0.05738933 8.40251143 -0.0333393 11.59765625 2.24609375 C13.75095704 5.46743173 13.60296833 7.6542217 13.0625 11.4375 C11.39493441 13.91667332 10.09178096 15.22808923 7.11132812 15.83447266 C4.74865363 16.01347878 2.43149857 16.03216691 0.0625 16 C-0.74445313 16.02384766 -1.55140625 16.04769531 -2.3828125 16.07226562 C-6.55620193 16.06193545 -8.31083853 16.00120918 -11.50390625 13.12890625 C-13.45917003 9.45812494 -13.03525576 7.38942073 -11.9375 3.4375 C-8.68906948 -0.76044366 -4.92668612 -0.04284075 0 0 Z " fill="#000000" transform="translate(133.9375,465.5625)"/>
</svg>
