<?xml version="1.0" encoding="UTF-8"?>
<svg version="1.1" xmlns="http://www.w3.org/2000/svg" width="512" height="512">
<path d="M0 0 C3.42022041 1.18467419 5.64071456 3.8697614 8.13815832 6.39092386 C9.04476651 7.2883954 9.04476651 7.2883954 9.96969002 8.20399767 C11.99828493 10.21590907 14.0159629 12.23842412 16.03383398 14.26108682 C17.4836966 15.7036124 18.9341818 17.14551245 20.38524389 18.58683145 C24.32803182 22.50736029 28.26108063 26.4375236 32.19180655 30.37014163 C35.46988361 33.64833814 38.7522861 36.92218685 42.03459138 40.19614893 C49.77399552 47.91630443 57.50518001 55.64462557 65.23158789 63.37778604 C73.2140841 71.36692976 81.21123711 79.34118612 89.21556598 87.3084504 C96.07889072 94.1411396 102.93257465 100.9833952 109.77864808 107.83336931 C113.87141966 111.92821415 117.96792536 116.01914538 122.0739131 120.10074174 C125.93207171 123.93673652 129.77811581 127.78446901 133.61499166 131.64174783 C135.02847649 133.05866069 136.44627946 134.47128028 137.86857557 135.87934816 C139.80284659 137.79559176 141.72122199 139.72642992 143.6362052 141.66191995 C144.20835896 142.22155587 144.78051272 142.78119178 145.37000448 143.35778636 C149.05840443 147.13196783 149.05840443 147.13196783 149.11139822 149.87070501 C147.89641324 152.02405876 146.59173397 153.56368916 144.83643103 155.31095254 C144.14509573 156.00641183 143.45376043 156.70187112 142.74147558 157.41840494 C141.9783103 158.17078439 141.21514502 158.92316385 140.42885351 159.69834268 C139.6289147 160.49871957 138.82897589 161.29909647 138.0047965 162.1237272 C135.355101 164.77133026 132.69493242 167.408145 130.0345664 170.04502237 C128.19688295 171.87711153 126.35986008 173.70986351 124.52347326 175.54325235 C120.17992572 179.87651012 115.82976228 184.20302162 111.47633082 188.52634633 C106.52006726 193.44907578 101.57232133 198.38032828 96.62527406 203.31231678 C86.44954351 213.45669112 76.26315539 223.59031253 66.06972265 233.71689737 C67.02947073 234.84420942 67.99029418 235.97060601 68.95157385 237.09661233 C69.75398929 238.03765172 69.75398929 238.03765172 70.57261515 238.997702 C72.14400422 240.8021982 73.78142238 242.47552191 75.5345664 244.10361612 C76.10626562 244.64953409 76.67796484 245.19545206 77.26698828 245.75791299 C78.44744676 246.87477776 79.63523027 247.98394138 80.82948828 249.08603799 C82.5345664 250.72861612 82.5345664 250.72861612 85.06972265 253.71689737 C84.8467579 257.35796509 83.00729137 259.15579695 80.50590086 261.6610359 C79.73636308 262.43901362 78.9668253 263.21699134 78.1739682 264.01854414 C77.31943136 264.86707092 76.46489453 265.71559771 75.58446264 266.58983743 C74.23310797 267.94927041 74.23310797 267.94927041 72.85445321 269.33616668 C70.34987225 271.85524635 67.83597225 274.36484352 65.32045603 276.87299705 C62.60995127 279.57878269 59.90806754 282.29315336 57.20505285 285.00641763 C51.90397694 290.32471842 46.59471541 295.63477451 41.28240572 300.94185186 C36.95990115 305.26031615 32.64014571 309.58151209 28.32233572 313.90467012 C27.40067689 314.82745159 27.40067689 314.82745159 26.46039868 315.7688751 C25.21207178 317.01873352 23.96374829 318.26859535 22.71542819 319.51846056 C10.99604301 331.25158703 -0.73292752 342.97509482 -12.46491484 354.69561838 C-23.17597872 365.39677398 -33.87560911 376.10927633 -44.5697269 386.82736463 C-55.56057978 397.84266608 -66.5588695 408.8504904 -77.56527126 419.85025626 C-83.74004385 426.02154607 -89.91196241 432.19562346 -96.07620096 438.377437 C-101.33078822 443.6468194 -106.5924821 448.90898206 -111.86313333 454.16229845 C-114.54744045 456.83814817 -117.22858473 459.51695932 -119.9009366 462.20475328 C-133.10912428 475.48381684 -146.2083505 488.36094822 -163.05527735 496.96689737 C-163.83822168 497.37109903 -164.62116602 497.77530069 -165.42783594 498.19175088 C-174.57525471 502.75280824 -184.09363319 505.99620808 -193.93027735 508.71689737 C-194.60606836 508.90896768 -195.28185938 509.10103799 -195.97812891 509.29892862 C-216.89546006 514.94004108 -243.30106546 513.63527334 -263.93027735 507.71689737 C-264.59575586 507.53497842 -265.26123438 507.35305948 -265.94687891 507.16562784 C-298.32198406 498.14028089 -328.2873122 474.94978408 -345.04404688 445.77793252 C-347.54512601 441.18487691 -349.7858604 436.48540347 -351.93027735 431.71689737 C-352.35566797 430.7791044 -352.35566797 430.7791044 -352.78965235 429.82236612 C-366.99011832 398.00528433 -367.20044268 359.04365858 -354.84556055 326.61167276 C-345.98548619 304.61767779 -332.30751798 287.95041455 -315.63674402 271.2694639 C-314.7457456 270.37408322 -313.85474718 269.47870254 -312.9367488 268.55618912 C-310.49287137 266.10050362 -308.04597892 263.64784289 -305.59849417 261.19575334 C-302.94857866 258.53982264 -300.30145759 255.88110883 -297.65387964 253.2228483 C-291.28213028 246.82673569 -284.90557256 240.43542778 -278.5281069 234.04501548 C-276.72652466 232.23971395 -274.92506919 230.43428602 -273.12365794 228.62881386 C-261.92458499 217.4045318 -250.72392745 206.18183363 -239.51848364 194.96391141 C-236.93185166 192.37435013 -234.34523592 189.78477263 -231.75864649 187.19516885 C-231.11582184 186.55159815 -230.47299719 185.90802745 -229.810693 185.24495461 C-219.36549548 174.78706544 -208.93063787 164.31892066 -198.49989542 153.84661595 C-187.78282064 143.08718849 -177.05640422 132.33714604 -166.32074958 121.59625679 C-160.29603789 115.56812692 -154.27558656 109.53586933 -148.26562548 103.49302995 C-143.1563224 98.35581916 -138.03871156 93.2270761 -132.90981939 88.10941932 C-130.29228083 85.49708811 -127.67903501 82.88079976 -125.07643938 80.25357378 C-122.2605998 77.411307 -119.42595981 74.58858846 -116.58889246 71.76751077 C-115.34907445 70.50686964 -115.34907445 70.50686964 -114.08420962 69.220761 C-113.32589888 68.4730222 -112.56758813 67.7252834 -111.78629827 66.95488584 C-111.13350132 66.30073235 -110.48070436 65.64657887 -109.80812567 64.97260255 C-107.93027735 63.71689737 -107.93027735 63.71689737 -105.82092887 63.90415627 C-103.1780086 65.04027781 -101.61104477 66.7001135 -99.60215235 68.75205362 C-98.8029336 69.56094034 -98.00371485 70.36982706 -97.18027735 71.20322549 C-95.94277735 72.47843057 -95.94277735 72.47843057 -94.68027735 73.77939737 C-93.8398086 74.63340127 -92.99933985 75.48740518 -92.13340235 76.36728799 C-90.05880137 78.47725148 -87.99151903 80.59389445 -85.93027735 82.71689737 C-80.72015414 78.36782244 -75.88815825 73.78807295 -71.1307168 68.95151651 C-70.38509485 68.19800912 -69.6394729 67.44450174 -68.87125635 66.6681608 C-67.26393581 65.04373351 -65.65766329 63.4182687 -64.05234194 61.79186571 C-60.64089962 58.33823051 -57.22002612 54.89400246 -53.79968786 51.44918096 C-47.44022025 45.04400165 -41.08470625 38.63501936 -34.74546289 32.20981729 C-30.32611866 27.73127334 -25.89482374 23.26487238 -21.45523119 18.80640352 C-19.76535637 17.10475247 -18.08003606 15.3985662 -16.3993268 13.6878618 C-14.05808182 11.30585913 -11.70195789 8.93961332 -9.3416543 6.57651651 C-8.64702585 5.86234064 -7.9523974 5.14816476 -7.23671961 4.4123472 C-6.59344721 3.77450296 -5.95017481 3.13665872 -5.28740931 2.47948587 C-4.73236373 1.91853251 -4.17731815 1.35757915 -3.60545301 0.7796272 C-1.93027735 -0.28310263 -1.93027735 -0.28310263 0 0 Z M-5.11371851 47.6514982 C-5.97255136 48.52111688 -5.97255136 48.52111688 -6.84873438 49.40830362 C-7.45374781 50.01302499 -8.05876123 50.61774637 -8.6821084 51.24079263 C-10.68887646 53.24895858 -12.68846021 55.26412527 -14.68808985 57.27939737 C-16.07485118 58.6698872 -17.46205355 60.05993731 -18.84968042 61.44956338 C-22.50703236 65.11456465 -26.15833968 68.78553164 -29.80845118 72.45774209 C-33.5316493 76.20137068 -37.26049035 79.93936903 -40.9888711 83.67783487 C-48.30823017 91.01866678 -55.62122054 98.36580874 -62.93027735 105.71689737 C-57.98845016 111.67814959 -52.64525906 117.13724777 -47.16123438 122.59946573 C-46.18477727 123.57564024 -45.20854134 124.55203603 -44.23250818 125.52863443 C-41.60088348 128.1605443 -38.96620213 130.78937441 -36.33093357 133.41763508 C-33.57048793 136.17180035 -30.81290184 138.92882578 -28.05500269 141.68554056 C-22.84043646 146.89700723 -17.62332792 152.10592102 -12.40528619 157.31390756 C-6.46131585 163.24667393 -0.52020804 169.18230336 5.42066884 175.11816716 C17.63385251 187.3209176 29.85060076 199.52009319 42.06972265 211.71689737 C46.57048111 207.94696252 50.86912462 204.06085121 55.00502539 199.89512002 C55.82585859 199.07450586 55.82585859 199.07450586 56.66327429 198.23731363 C58.44567318 196.45422604 60.22451788 194.66763854 62.0033164 192.88095987 C63.2486261 191.63378227 64.49415887 190.38682736 65.73990393 189.14008462 C68.99877631 185.87741632 72.25463283 182.61175486 75.50984716 179.34543741 C78.83982044 176.00518675 82.17266938 172.66780806 85.50526953 169.33017862 C92.02955405 162.79520844 98.55065261 156.25706906 105.06972265 149.71689737 C103.58177149 146.26020016 101.62093107 144.01681144 98.97035742 141.36356485 C98.1122547 140.49982248 97.25415197 139.63608011 96.37004614 138.74616373 C95.41717403 137.79717995 94.46419813 136.84830037 93.5111289 135.89951456 C92.50875028 134.89442525 91.5067975 133.8889111 90.50523901 132.88300455 C87.78684078 130.15549165 85.06215786 127.43433926 82.33603048 124.71455419 C79.48588498 121.86947062 76.64062053 119.01951251 73.79457617 116.17032754 C69.01651247 111.38862596 64.23424831 106.61115575 59.44960546 101.83603799 C53.91198727 96.30931645 48.38162781 90.77540981 42.85495996 85.23773968 C38.11295466 80.48667129 33.36707905 75.73949543 28.6179204 70.99557745 C25.779879 68.16065955 22.94321924 65.32439469 20.11003637 62.48462045 C17.44861705 59.81744209 14.78238798 57.15516892 12.11229849 54.49667108 C11.13095505 53.51798144 10.15132677 52.53756867 9.17350912 51.55535638 C7.84331086 50.21973005 6.50639023 48.89080861 5.16908789 47.56229532 C4.04747511 46.44181362 4.04747511 46.44181362 2.90320349 45.29869592 C-0.75524789 42.1424409 -2.17159631 44.72480019 -5.11371851 47.6514982 Z M-109.44825613 108.98647916 C-110.0489737 109.58795617 -110.64969126 110.18943317 -111.26861238 110.80913675 C-111.96230681 111.49884907 -112.65600123 112.1885614 -113.37071669 112.89917409 C-114.13529877 113.66958186 -114.89988085 114.43998962 -115.68763208 115.23374307 C-116.90301041 116.44655812 -116.90301041 116.44655812 -118.14294183 117.68387449 C-120.39958276 119.93778043 -122.65165456 122.19614192 -124.90192056 124.45640934 C-127.32638867 126.88948388 -129.75660221 129.31680733 -132.18613672 131.74482095 C-136.39754559 135.95517918 -140.60526607 140.16919489 -144.81053019 144.38569009 C-150.89070092 150.48208873 -156.97636195 156.57298208 -163.06339358 162.66252947 C-172.93813775 172.54165501 -182.80840383 182.42524216 -192.67588282 192.31162393 C-202.26338839 201.91747689 -211.85298438 211.52123496 -221.44541407 221.12217081 C-222.33176358 222.00930849 -222.33176358 222.00930849 -223.23601915 222.91436815 C-226.20028961 225.88124861 -229.16460137 228.84808781 -232.12893367 231.81490648 C-256.73578884 256.44250791 -281.33538881 281.07734541 -305.93027735 305.71689737 C-302.07360359 310.3273377 -298.07895301 314.71167426 -293.81788111 318.94954813 C-293.23289012 319.53539353 -292.64789914 320.12123894 -292.04518116 320.72483724 C-290.10380575 322.66784674 -288.15890215 324.60728389 -286.21396875 326.54673135 C-284.81387184 327.94654592 -283.41399562 329.34658127 -282.01432276 330.74681985 C-278.22777815 334.53365058 -274.43816502 338.31739684 -270.6479826 342.10058606 C-266.68237449 346.05992987 -262.7196106 350.02211828 -258.75654078 353.98400247 C-251.25764308 361.47979591 -243.75620059 368.97303723 -236.25383461 376.46535915 C-227.71016266 384.99784182 -219.16934048 393.5331746 -210.62875342 402.0687449 C-193.06575804 419.62129641 -175.49919689 437.17027567 -157.93027735 454.71689737 C-152.62203596 450.28244601 -147.67899393 445.60542802 -142.79943323 440.70630777 C-142.0094102 439.91713917 -141.21938718 439.12797056 -140.40542406 438.31488776 C-137.77143658 435.68254113 -135.14102789 433.0466479 -132.51059961 430.41074502 C-130.61818003 428.51804324 -128.72556295 426.62554088 -126.83269739 424.73328531 C-122.76434537 420.66545627 -118.69782051 416.59580813 -114.63254976 412.52489984 C-108.75493101 406.6391356 -102.87453538 400.75615211 -96.99346995 394.87383203 C-87.45067168 385.32884804 -77.91010625 375.7816355 -68.37095118 366.23301065 C-59.10747813 356.9603511 -49.8429498 347.688748 -40.57700586 338.41855752 C-40.00534178 337.84663071 -39.43367769 337.2747039 -38.84469045 336.68544598 C-35.97666044 333.81611088 -33.10860973 330.94679648 -30.24054873 328.07749236 C-6.4672483 304.29383422 17.30242575 280.50655489 41.06972265 256.71689737 C39.19284344 252.64974391 36.48687165 249.85485651 33.33791113 246.73111856 C32.74549832 246.13558577 32.15308551 245.54005298 31.54272079 244.92647374 C29.554507 242.93027643 27.55921322 240.94131125 25.56386328 238.95224893 C24.13784439 237.52352041 22.71225143 236.09436666 21.28705359 234.66481912 C17.41374378 230.78238154 13.53412203 226.90630903 9.65307951 223.03160322 C5.59776697 218.98134666 1.5473278 214.92622135 -2.50388575 210.87186563 C-9.30632 204.06579139 -16.11296398 197.26394858 -22.92197657 190.46445596 C-30.80444705 182.5928788 -38.6796747 174.71411053 -46.55119514 166.83158457 C-53.30167621 160.07204197 -60.05602901 153.31638673 -66.81366253 146.56399453 C-70.85336689 142.52741499 -74.89169168 138.48948023 -78.92653894 134.44804513 C-82.71734175 130.65148566 -86.51296395 126.85981265 -90.31243944 123.07193315 C-91.70982362 121.6772042 -93.10548882 120.28075069 -94.49934816 118.8824991 C-96.39448805 116.98193649 -98.29561087 115.08757505 -100.19846582 113.19474161 C-100.7554634 112.63328258 -101.31246099 112.07182356 -101.88633728 111.49335063 C-105.2838512 107.54732339 -105.2838512 107.54732339 -109.44825613 108.98647916 Z M-323.93027735 333.71689737 C-334.46604532 360.74343261 -335.60106959 389.41906734 -324.39902735 416.50205362 C-312.26223025 443.06743663 -292.19741661 463.70052689 -264.77598047 474.57090127 C-252.51106016 478.98162077 -240.40215798 481.11139678 -227.36777735 481.09189737 C-226.23461084 481.09028604 -225.10144434 481.08867471 -223.93393946 481.08701456 C-210.20161617 480.88871386 -197.63380853 477.97739046 -184.93027735 472.71689737 C-190.72382523 465.62857581 -197.24177585 459.26467425 -203.71274805 452.80503213 C-205.0126935 451.50373018 -206.31242644 450.20221591 -207.61196375 448.90050638 C-211.12576062 445.38216754 -214.64269267 441.86697862 -218.16034961 438.3524996 C-221.84225397 434.67313235 -225.52171191 430.9913199 -229.20156336 427.30989969 C-235.37406737 421.1355793 -241.54867082 414.96336433 -247.7244668 408.79233682 C-254.87351534 401.64874435 -262.01893475 394.50153698 -269.16250783 387.35246938 C-275.29578846 381.21465969 -281.43100444 375.07878964 -287.56786078 368.9445551 C-291.23363784 365.28034011 -294.89872856 361.6154455 -298.56207705 357.94880235 C-301.99978078 354.50822243 -305.43989759 351.07007408 -308.88193941 347.63383424 C-310.1482564 346.3688456 -311.41371194 345.10299396 -312.678267 343.83624399 C-314.39627695 342.11552579 -316.11729767 340.39787874 -317.83916712 338.68102396 C-318.34576673 338.17219362 -318.85236635 337.66336328 -319.37431747 337.13911384 C-321.31643571 334.75493155 -321.31643571 334.75493155 -323.93027735 333.71689737 Z " fill="#000000" transform="translate(362.9302773475647,0.2831026315689087)"/>
<path d="M0 0 C9.22846481 9.02338781 14.82740427 20.82346105 15.0625 33.8125 C14.9178169 47.23185752 10.30001099 57.77531457 1.23046875 67.421875 C-7.91160589 76.22426028 -19.47816474 80.87071282 -32.1875 80.75 C-46.31356251 79.92932641 -57.69465604 74.24120009 -67.1875 63.75 C-75.35080021 52.77355405 -78.33166758 40.44389951 -76.6875 26.875 C-74.0200649 13.39650346 -66.55376568 2.53536593 -55.1875 -5.125 C-36.56491075 -15.90454268 -16.7720749 -11.83911169 0 0 Z M-41.1875 23.75 C-44.5310476 27.26072498 -45.46025047 30.02036909 -45.6875 34.75 C-45.48301484 39.43905622 -44.39146186 42.19966389 -41.1875 45.75 C-37.35122342 49.13494992 -33.55001573 49.27293892 -28.62109375 49.08984375 C-24.85819496 48.56436671 -22.92854368 47.36051779 -20.1875 44.75 C-17.45291967 40.99306897 -15.81584855 37.3921481 -16.0625 32.6875 C-16.97649303 28.00674782 -19.58209529 24.76984014 -23.1875 21.75 C-30.10202732 18.56931743 -35.07959604 19.74481708 -41.1875 23.75 Z " fill="#000000" transform="translate(223.1875,285.25)"/>
<path d="M0 0 C3.65544568 1.5397666 5.98265286 3.73594764 8.77093506 6.53042603 C9.23579417 6.99357629 9.70065329 7.45672656 10.17959905 7.93391168 C11.73357279 9.48459534 13.28029752 11.04231113 14.82714844 12.60009766 C15.94059514 13.71410858 17.05448258 14.82767915 18.16877747 15.94084167 C21.19153403 18.96302414 24.20808206 21.99133586 27.22356319 25.02077532 C30.37636236 28.18607221 33.53482159 31.34571082 36.69268799 34.50595093 C42.67124494 40.49072545 48.64468511 46.48058023 54.6163094 52.47227132 C61.41522889 59.29354114 68.21982445 66.10913663 75.02490568 72.92425847 C89.02293437 86.94319545 103.01381006 100.96925255 117 115 C115.3413812 118.52344644 113.43342692 120.79901878 110.6484375 123.546875 C109.79765625 124.39121094 108.946875 125.23554688 108.0703125 126.10546875 C107.18085938 126.97816406 106.29140625 127.85085938 105.375 128.75 C104.4778125 129.63816406 103.580625 130.52632812 102.65625 131.44140625 C100.44192996 133.63216969 98.22307565 135.81812763 96 138 C92.34455432 136.4602334 90.01734714 134.26405236 87.22906494 131.46957397 C86.76420583 131.00642371 86.29934671 130.54327344 85.82040095 130.06608832 C84.26642721 128.51540466 82.71970248 126.95768887 81.17285156 125.39990234 C80.05940486 124.28589142 78.94551742 123.17232085 77.83122253 122.05915833 C74.80846597 119.03697586 71.79191794 116.00866414 68.77643681 112.97922468 C65.62363764 109.81392779 62.46517841 106.65428918 59.30731201 103.49404907 C53.32875506 97.50927455 47.35531489 91.51941977 41.3836906 85.52772868 C34.58477111 78.70645886 27.78017555 71.89086337 20.97509432 65.07574153 C6.97706563 51.05680455 -7.01381006 37.03074745 -21 23 C-19.3413812 19.47655356 -17.43342692 17.20098122 -14.6484375 14.453125 C-13.79765625 13.60878906 -12.946875 12.76445312 -12.0703125 11.89453125 C-11.18085938 11.02183594 -10.29140625 10.14914063 -9.375 9.25 C-8.4778125 8.36183594 -7.580625 7.47367188 -6.65625 6.55859375 C-4.44192996 4.36783031 -2.22307565 2.18187237 0 0 Z " fill="#000000" transform="translate(208,187)"/>
<path d="M0 0 C6.3338126 5.22642983 12.10262848 10.96783967 17.89233398 16.77880859 C18.97688155 17.86363866 20.06165022 18.94824772 21.1466217 20.03265381 C24.07397637 22.95972299 26.99824972 25.88985276 29.92195773 28.82056379 C32.9844251 31.88930622 36.04974749 34.95519417 39.11476135 38.02139282 C44.91059045 43.82032303 50.70386692 49.62179638 56.49621874 55.4241997 C63.09402938 62.03320945 69.6946988 68.6393609 76.29560363 75.24528003 C89.86690733 88.82702048 103.43463714 102.412326 117 116 C116.04359074 117.12203297 115.08629732 118.24331233 114.12863159 119.36427307 C113.59563383 119.98876626 113.06263607 120.61325945 112.51348686 121.25667667 C110.79249612 123.23901519 108.99709481 125.1169148 107.1328125 126.96484375 C106.14667969 127.94614258 106.14667969 127.94614258 105.140625 128.94726562 C104.47546875 129.60404297 103.8103125 130.26082031 103.125 130.9375 C102.43664062 131.62134766 101.74828125 132.30519531 101.0390625 133.00976562 C99.36166489 134.67551464 97.68196209 136.3388622 96 138 C92.34455432 136.4602334 90.01734714 134.26405236 87.22906494 131.46957397 C86.76420583 131.00642371 86.29934671 130.54327344 85.82040095 130.06608832 C84.26642721 128.51540466 82.71970248 126.95768887 81.17285156 125.39990234 C80.05940486 124.28589142 78.94551742 123.17232085 77.83122253 122.05915833 C74.80846597 119.03697586 71.79191794 116.00866414 68.77643681 112.97922468 C65.62363764 109.81392779 62.46517841 106.65428918 59.30731201 103.49404907 C53.32875506 97.50927455 47.35531489 91.51941977 41.3836906 85.52772868 C34.58477111 78.70645886 27.78017555 71.89086337 20.97509432 65.07574153 C6.97706563 51.05680455 -7.01381006 37.03074745 -21 23 C-19.3413812 19.47655356 -17.43342692 17.20098122 -14.6484375 14.453125 C-13.79765625 13.60878906 -12.946875 12.76445312 -12.0703125 11.89453125 C-11.18085938 11.02183594 -10.29140625 10.14914063 -9.375 9.25 C-8.4778125 8.36183594 -7.580625 7.47367188 -6.65625 6.55859375 C-4.44192996 4.36783031 -2.22307565 2.18187237 0 0 Z " fill="#000000" transform="translate(251,144)"/>
<path d="M0 0 C2.69088678 1.35840401 4.43875015 3.11154953 6.54907227 5.26464844 C7.3934082 6.11865234 8.23774414 6.97265625 9.10766602 7.85253906 C9.98036133 8.75037109 10.85305664 9.64820313 11.75219727 10.57324219 C12.64036133 11.47494141 13.52852539 12.37664062 14.44360352 13.30566406 C16.63668041 15.53411317 18.82245771 17.76925812 21.00219727 20.01074219 C19.48843645 23.57838504 17.39706598 25.84780506 14.65063477 28.55761719 C13.79985352 29.40195313 12.94907227 30.24628906 12.07250977 31.11621094 C11.18305664 31.98890625 10.29360352 32.86160156 9.37719727 33.76074219 C8.48000977 34.64890625 7.58282227 35.53707031 6.65844727 36.45214844 C4.44412723 38.64291188 2.22527292 40.82886982 0.00219727 43.01074219 C-5.43690128 40.64752114 -9.16176503 36.25526914 -13.31030273 32.13574219 C-14.15915039 31.31976563 -15.00799805 30.50378906 -15.88256836 29.66308594 C-16.67985352 28.87289062 -17.47713867 28.08269531 -18.29858398 27.26855469 C-19.03246338 26.54812988 -19.76634277 25.82770508 -20.52246094 25.08544922 C-21.99780273 23.01074219 -21.99780273 23.01074219 -21.98608398 21.03100586 C-19.6871422 16.33146454 -15.34716426 12.84937298 -11.68530273 9.19824219 C-10.81711914 8.30169922 -9.94893555 7.40515625 -9.05444336 6.48144531 C-8.21461914 5.63904297 -7.37479492 4.79664063 -6.50952148 3.92871094 C-5.7408374 3.15293701 -4.97215332 2.37716309 -4.18017578 1.57788086 C-1.99780273 0.01074219 -1.99780273 0.01074219 0 0 Z " fill="#000000" transform="translate(405.997802734375,127.9892578125)"/>
<path d="M0 0 C5.43909855 2.36322105 9.1639623 6.75547305 13.3125 10.875 C14.16134766 11.69097656 15.01019531 12.50695312 15.88476562 13.34765625 C17.08069336 14.53294922 17.08069336 14.53294922 18.30078125 15.7421875 C19.03466064 16.4626123 19.76854004 17.18303711 20.5246582 17.92529297 C22 20 22 20 21.98828125 21.97973633 C19.68933947 26.67927765 15.34936153 30.1613692 11.6875 33.8125 C10.81931641 34.70904297 9.95113281 35.60558594 9.05664062 36.52929688 C8.21681641 37.37169922 7.37699219 38.21410156 6.51171875 39.08203125 C5.74303467 39.85780518 4.97435059 40.6335791 4.18237305 41.43286133 C2 43 2 43 0.00219727 43.01074219 C-2.68868952 41.65233818 -4.43655289 39.89919266 -6.546875 37.74609375 C-7.39121094 36.89208984 -8.23554688 36.03808594 -9.10546875 35.15820312 C-9.97816406 34.26037109 -10.85085938 33.36253906 -11.75 32.4375 C-12.63816406 31.53580078 -13.52632813 30.63410156 -14.44140625 29.70507812 C-16.63448315 27.47662902 -18.82026044 25.24148407 -21 23 C-19.48623919 19.43235715 -17.39486871 17.16293713 -14.6484375 14.453125 C-13.79765625 13.60878906 -12.946875 12.76445313 -12.0703125 11.89453125 C-11.18085938 11.02183594 -10.29140625 10.14914063 -9.375 9.25 C-8.4778125 8.36183594 -7.580625 7.47367187 -6.65625 6.55859375 C-4.44192996 4.36783031 -2.22307565 2.18187237 0 0 Z " fill="#000000" transform="translate(362,85)"/>
</svg>
