<?xml version="1.0" encoding="UTF-8"?>
<svg id="Layer_2" data-name="Layer 2" xmlns="http://www.w3.org/2000/svg" viewBox="0 0 710.53 258.29">
  <g id="OBJECT">
    <g>
      <g>
        <path d="M163.7,173.92c.05.63-.05,1.33-.51,1.76-.19,1.24-.6,2.29-.8,3.52-.11.66-.33,1.46-.98,1.63-.44.12-.89-.1-1.22-.42-.45-.44-.73-1.07-.75-1.7-.02-.47.07-1-.25-1.34-.17-.19-.44-.27-.65-.43-1.07-.74-.3-2.58-1.06-3.63-.26-.36-.65-.57-.97-.87-.54-.51-.84-1.23-1.24-1.85-.41-.63-1.01-1.23-1.76-1.25-.24-.01-.48.06-.64.23-.17.18-.2.44-.24.68-.08.6-.16,1.21-.01,1.79.12.47.39.89.61,1.33.51,1.05.68,2.26.48,3.41-.02.14-.06.28-.15.39-.09.12-.24.19-.39.25-.95.32-2.09-.07-2.65-.91-.54-.79-.6-1.91-1.4-2.44-.84-.56-2.12-.15-2.88-.81-.38-.34-.53-.87-.79-1.32-.55-.96-1.6-1.51-2.6-1.99-.27-.14-.56-.27-.86-.19-.2.06-.36.19-.5.35-.55.64-.81,1.54-.66,2.38.04.26.1.56-.07.74-.07.07-.16.11-.26.14-.53.14-1.06-.21-1.5-.53-1.13-.83-2.26-1.66-3.32-2.57-.7-.61-1.4-1.28-1.73-2.14-1.36-.69-2.86-1.9-3.78-3.11-.33-.42-.62-.88-1.05-1.21-.41-.3-.91-.47-1.27-.83-.21-.19-.36-.44-.59-.62-.34-.27-.8-.35-1.23-.45-2.6-.59-4.93-2.25-6.34-4.5-.18-.28-.34-.57-.56-.82-.27-.3-.61-.52-.96-.73-1.26-.8-2.53-1.6-3.8-2.4-.41-.26-.82-.52-1.15-.87-.27-.29-.47-.64-.72-.96-1.01-1.25-2.79-1.87-3.4-3.36-.39-1.01-.18-2.25-.82-3.11-.42-.56-1.16-.91-1.32-1.6-1.34-1.16-3.45-1.81-4.65-3.12-.37-.42-.68-.89-1.09-1.25-.78-.68-1.86-.89-2.66-1.54-1.08-.89-1.53-2.53-2.85-3.02-.32-.12-.66-.16-.97-.33-.34-.18-.56-.5-.79-.8-1.41-1.95-2.82-3.93-3.73-6.15-.16-.39-.32-.8-.61-1.1-.28-.28-.66-.44-1.01-.64.88-2.8,2.44-1.67,3.13-2.7,1.04,1.72,2.87,1.05,4.13,2.7,1.26,1.66,1.49.97,2.41,2.34.91,1.39.23.81,1.95,1.95,1.72,1.15,2.17,1.84,3.21,2.52,2.55-.3,2.39-2.34,3.95-2.18,1.57.16,1.7-.48,3.51-.01,1.81.48,4.32-.3,4.64-1.71.32-1.41-.95-1.58,0-2.91.93-1.33,1.57-3.92,2.5-2.7.95,1.22,1.72,3.1,2.67,1.85.93-1.25,1.25-1.51,2.04-2.16.78-.65,1.57.44,2.66,1.23,1.1.78,1.88.6,1.26-1.43-.63-2.03-.65-4.37.21-5,.88-.63.65-2.5,3.19-1.72,2.55.79,4.43.56,5.37-.19.93-.74,1.09-.81,2.97,0,1.88.82,5.11,1.62,5.11,1.62.17.1.36.18.55.17.48-.01.91-.51,1.36-.35.32.1.45.47.57.79.26.6.7,1.13,1.25,1.49.44.29,1.04.74.77,1.19-.39.69-.12,1.35-.15,2.14-.81.25-1.41,1.07-1.37,1.91.01.34.1.68-.01.99-.06.17-.18.36-.1.53.05.08.12.12.21.17.72.32,1.55-.06,2.2-.53.63-.48,1.22-1.08,1.98-1.27.66-.17,1.36,0,2.03.18,1.13.33,2.32.75,3.01,1.7.11.16.21.33.37.43.19.11.42.11.63.1,1.2-.08,2.48-.52,3.56.01,1.32.64,1.64,2.34,1.66,3.81.01.33.01.68.19.95.12.21.34.35.53.51.72.6,1.17,1.51,1.2,2.44.01.3-.02.63.03.93.06.3.2.59.3.88.3.95.05,2.04-.64,2.75-.41.42-.96.71-1.27,1.22-.55.87-.2,1.99.15,2.96.35.97.66,2.13.06,2.96-.08.92.15,1.61.07,2.53.54.09.83.72.81,1.26-.03.55-.27,1.06-.41,1.6-.29,1.23.03,2.51.17,3.77.21,1.95-.03,3.92-.38,5.84-.1.55-.21,1.15.02,1.66.08.19.21.36.28.56.21.61-.16,1.24-.37,1.85-.26.79-.24,1.67.07,2.43.12.33.3.63.37.98.1.5-.05,1-.08,1.51-.1,1.26.43,2.49.53,3.76Z" fill="#1d2088"/>
        <path d="M143.56,117.11s-3.23-.8-5.11-1.62c-1.88-.81-2.04-.74-2.97,0-.95.75-2.83.98-5.37.19-2.53-.78-2.31,1.09-3.19,1.72-.87.63-.84,2.97-.21,5,.62,2.03-.16,2.21-1.26,1.43-1.09-.79-1.88-1.88-2.66-1.23-.79.65-1.1.91-2.04,2.16-.95,1.25-1.72-.63-2.67-1.85-.93-1.22-1.57,1.37-2.5,2.7-.95,1.33.32,1.5,0,2.91-.32,1.41-2.83,2.2-4.64,1.71-1.81-.47-1.95.17-3.51.01-1.57-.16-1.41,1.88-3.95,2.18-1.04-.69-1.49-1.37-3.21-2.52-1.72-1.14-1.04-.56-1.95-1.95-.92-1.37-1.15-.69-2.41-2.34-1.26-1.66-3.1-.98-4.13-2.7-.69,1.04-2.25-.1-3.13,2.7-.56-.34-1.05-.82-1.36-1.4-.5-.87-.62-1.89-.73-2.88-.06-.43-.1-.86-.16-1.28-.12-1.11-.26-2.22-.29-3.33-.02-.95-.5-1.39-.75-2.3-.08-.28-.17-.59-.37-.81-.39-.42-1.07-.39-1.57-.69-1.32-.78-.59-2.98-1.53-4.19-.64-.81-1.95-1.04-2.29-2.02-.18-.53,0-1.15-.27-1.64-.53-1.01-2.34-.65-2.85-1.68-.17-.36-.12-.78-.14-1.18-.05-.84-.47-1.67-1.14-2.21-.5-.39-1.16-.69-1.39-1.28-.14-.37-.07-.78-.14-1.17-.11-.61-.54-1.1-.96-1.58-1.66-1.87-3.32-3.74-4.98-5.61-.97.19-1.97.38-2.94.19-.98-.18-1.93-.82-2.17-1.78-.17-.68-.08-1.57-.7-1.87-.12-.07-.28-.09-.41-.17-.51-.3-.3-1.06-.17-1.64.32-1.39-.25-2.93-1.36-3.8-.89-.69-1.46-1.5-2.26-2.29-.26-.26-.53-.53-.59-.89-.07-.44.21-.84.27-1.28.12-.98-.8-1.72-1.3-2.57-.61-1.04-.6-2.32-.43-3.51.03-.19.07-.39.03-.6-.05-.34-.26-.63-.44-.92-1.06-1.69-1.13-3.78-1.44-5.74-.07-.39-.14-.79-.35-1.11-.15-.23-.36-.41-.53-.61-.66-.83-.79-2.12-1.7-2.66-.37-.21-.81-.27-1.18-.45-.99-.5-1.33-1.75-2.13-2.51-1.31-1.26-3.65-1.06-4.73-2.51-1.73-.51-3.18-1-4.9-1.52.38-1.04-.2-2.18-.93-3-.74-.82-1.67-1.51-2.18-2.48-.32-.59-.52-1.32-1.09-1.66-.36-.21-.81-.24-1.18-.45-.63-.35-.84-1.13-1.06-1.81-.77-2.49-2.14-4.74-3.5-6.96-.34-.56-.69-1.13-1.02-1.68-.66-1.09-1.35-2.2-2.31-3.03-.24-.2-.5-.41-.64-.69-.16-.28-.18-.62-.28-.92-.55-1.76-2.96-1.81-4.57-2.69-2.68-1.46-3.58-5.66-6.61-5.99-.75-.09-1.76-.01-2.04-.72-.19-.51.16-1.05.21-1.59.12-1.07-.87-1.89-1.72-2.56-2.61-2.06-4.83-4.64-6.46-7.55-.98-1.73-1.75-3.57-2.51-5.41C-.01,1.96-.26.83.45,0c2.47,2.41,5.75,3.95,9.19,4.34.64.08,1.31.11,1.9.39.53.25.96.69,1.48.96,1.55.78,3.43-.11,5.16.14,1.11.17,2.13.8,3.25.83,2.27.09,4.71-2.23,6.52-.86.59.45.88,1.17,1.34,1.73,1.22,1.49,2.3.81,3.8,1.02,1.99.29,4.11,1.49,5.99,2.21.55.21,1.11.44,1.49.9.39.5.47,1.16.69,1.76.6,1.59,2.02,2.4,3.66,3.02h0c2.8,1.06,6.24,1.54,7.29,4.21.8,2.05-.09,4.97,1.77,6.15.44.28.96.39,1.43.6.88.39,1.55,1.11,2.21,1.82,1.85,1.99,3.41,3.19,5.57,4.63,2.38,1.58,4.36,4.57,6.3,6.67.29.33.6.66.73,1.08.43,1.32-.99,2.5-1.3,3.85-.3,1.39.86,2.83,2.22,3.01,1.75.21,2.42-2.06,3.19-3.3.45-.05.95-.08,1.34.16.78.48.52,1.32.55,2.04.05.98.21,1.69.74,2.58.62,1.05,1.45,1.52,2.34,2.25.91.75,1.39,1.75,1.96,2.75.57.99,1.4,1.98,2.52,2.12,1.41.18,2.59-1.02,3.31-2.25.46-.79,1-1.73,1.91-1.81.37-.03.81.08,1.08-.17.33-.3.16-.84.32-1.25.27-.7,1.37-.64,1.86-.07.47.56.51,1.37.53,2.13.02.74.09,1.57.61,2.09.19.2.46.37.56.63.18.47-.21.96-.28,1.45-.09.75.82,1.43,1.52,1.11.57-.26.84-.97,1.43-1.19.86-.33,1.68.55,2.03,1.4.34.86.59,1.87,1.4,2.27.45.24,1.25.23,1.61.59.86.88-.06,1.72,1.29,2.41.7.35,1.53.39,2.16.92,1.48,1.26.68,3.27,1.41,4.81.29.62,1.05.86,1.7,1.07.09.03.19.07.27.14.26.23.1.64.11.98.03.75,1.27,1.63,1.84,2.04,1.02.74,2.08.54,3.42.68,1.31.15,2.56.66,3.74,1.25.88.43,1.8.99,2.13,1.91.35.98-.38,2.36-.5,3.36.35.12.63.42.75.77.03.09.07.2.17.25.07.03.16,0,.24-.02.35-.12.68-.35.84-.69.08-.18.11-.37.19-.55.16-.42.53-.73.96-.83.82-.19,1.73.21,2.58.24.23.38.45.77.66,1.15.09.16.19.32.34.42.26.16.59.09.89.07,1.35-.1,2.55.8,3.59,1.66.38.33.81.7.87,1.19.02.28-.06.55-.15.81-.19.54-.44,1.08-.87,1.45-.69.6-1.69.63-2.58.79-.9.16-1.91.64-2.04,1.55-.03.25.01.5-.06.74-.21.78-1.28.92-1.79,1.55-.55.69-.27,1.71.2,2.45.46.74,1.1,1.43,1.26,2.29.03.18.05.36-.01.54-.19.59-1.07.79-1.17,1.4-.09.56.53.97,1.08,1.14.54.18,1.19.37,1.35.92.08.26.01.56.14.81.34.75,1.61.18,2.29.66.54.39.45,1.32.99,1.72.56.42,1.34.01,2.04-.08,1.44-.18,2.78,1.09,4.26,1.05.69-.02,1.33-.28,2-.42.68-.14,1.44-.11,1.95.35.41.37.56.95.96,1.33.36.34.89.48,1.18.9.64.92-.46,2.21-.15,3.29.08.25.21.46.32.7.47,1.19-.38,2.51-.32,3.8.05.89.57,1.73,1.35,2.17Z" fill="#1d2088"/>
        <path d="M163.07,112.19c.24,0,.52-.04.64-.24.08-.15.05-.34.12-.5.1-.23.38-.32.63-.33,1-.05,1.9.67,2.37,1.55.47.88.59,1.9.7,2.89.12,1.05.24,2.11.08,3.15-.04.27-.1.53-.05.8.07.39.36.7.61,1.01.53.67.9,1.46,1.08,2.3.11.53.17,1.13.59,1.49.44.37,1.08.32,1.65.24,1.34-.18,2.67-.36,4.01-.54-.1.65.74.96,1.34,1.22.72.32,1.33.94,1.53,1.7.2.76-.08,1.66-.73,2.1-.66.44-1.54.37-2.32.21-1.67-.33-3.5-.94-4.99-.12-.18.1-.37.22-.56.17-.2-.05-.31-.24-.43-.41-.66-.95-1.86-1.3-2.94-1.7-1.08-.4-2.24-1.06-2.47-2.19-.15-.74.13-1.59-.28-2.23-.19-.29-.5-.49-.67-.79-.22-.39-.17-.87-.31-1.29-.34-1-1.6-1.32-2.65-1.26-1.05.06-2.16.33-3.12-.1-.64-.28-1.19-.86-1.89-.86-.32,0-.69.12-.94-.09-.16-.13-.21-.35-.25-.56-.18-1.07-.23-2.17-.12-3.25.18-1.94,1.4-4.76,3.88-3.95.69.23,1.08.88,1.72,1.19,1.09.53,2.59.38,3.77.36Z" fill="#1d2088"/>
        <path d="M36.16,65.3c.1.42.24.88.62,1.08.31.17.69.11,1.03.17,1.55.27,1.89,2.62,3.38,3.14.23.08.49.12.69.26.15.11.26.28.35.44.5.89.82,1.88.93,2.9.07.66.05,1.34.23,1.98.18.64.6,1.27,1.24,1.45.16.23-.05.58-.32.66-.27.08-.56-.02-.83-.11-1.95-.69-4.01-1.46-5.29-3.1-.33-.43-.66-.94-1.19-1.06-.31-.07-.65.02-.94-.11-.25-.11-.41-.37-.56-.6-.77-1.17-1.86-2.13-3.12-2.73-.58-.28-1.25-.54-1.49-1.13-.17-.4-.09-.86-.23-1.26-.12-.37-.41-.66-.61-.99-.97-1.54,0-3.42,1.63-3.71.7-.12,2.16-.05,2.82.1,1.47.34,1.29,1.08,1.67,2.61Z" fill="#1d2088"/>
        <path d="M57.24,105.5c-.27.54-.09,1.21.27,1.7.36.49.86.84,1.33,1.22.17.14.35.29.43.5.07.17.08.35.08.53.03,1.37.02,2.92,1.02,3.86.19.18.43.36.45.63,0,.14-.05.27-.13.38-.43.62-1.38.65-2.06.31-.68-.34-1.18-.94-1.77-1.41-.21-.17-.44-.33-.6-.56-.23-.32-.29-.73-.44-1.09-.37-.9-1.23-1.48-1.94-2.14-.68-.64-1.25-1.39-1.82-2.14-.39-.53-.8-1.08-.9-1.73-.66-4.18,4.81-.82,6.08-.05Z" fill="#1d2088"/>
        <path d="M71.62,127.28c.54,1.13,1.07,2.26,1.61,3.39.23.48.59,1.04,1.12,1,.46-.04.74-.53.83-.97.19-.91-.09-1.9-.72-2.58s-1.6-1.02-2.52-.9c-.16.51.02,1.1.42,1.44" fill="#1d2088"/>
        <path d="M81.73,136.04c.13.11.25.22.34.36.33.56-.15,1.25-.68,1.62-.88.61-1.98.9-3.05.79-.2-.02-.41-.06-.58-.16-.25-.15-.39-.43-.51-.69-.52-1.08-1.86-4.4.2-4.93,1.27-.32,3.43,2.29,4.28,3.01Z" fill="#1d2088"/>
        <path d="M143.21,68.8c.55.37.72,1.26,1.38,1.39.22.05.46-.02.68.02.94.13,1.02,1.53,1.78,2.09.3.22.69.29,1,.49.37.24.59.65.86,1,.46.59,1.1,1.04,1.81,1.27.45.14,1.05.41.92.86-.05.17-.21.29-.37.37-1,.51-2.2.02-3.22-.46l-2.39-1.14c-.19-.09-.39-.19-.49-.37-.16-.28-.02-.63-.05-.95-.05-.69-.79-1.12-1.48-1.19-.69-.07-1.38.08-2.06-.03-.52-.08-.99-.32-1.5-.47-1.07-.32-2.14-.16-3.18.14-1.96-2.97,4.89-3.97,6.31-3Z" fill="#1d2088"/>
        <path d="M137.61,74.41c.85.18,1.7.37,2.54.55.23.05.47.1.66.25.19.14.31.41.21.62-.06.13-.18.23-.3.31-.29.2-.58.39-.92.49-.66.2-1.37.01-2.04-.18-.16-.4-.32-.82-.28-1.25.04-.43.35-.87.78-.9" fill="#1d2088"/>
        <path d="M140.29,93.8c-.43,1.2-.73,2.45-.91,3.71.53.3,1.21.23,1.76-.04.55-.27.98-.73,1.35-1.21.3-.38.57-.79.66-1.27.09-.47-.04-1.02-.44-1.29-.34-.24-.79-.24-1.21-.23-.4,0-.87.06-1.07.41" fill="#1d2088"/>
        <path d="M207.78,202.02c1.02.28,1.61,1.14,1.41,1.82-.21.68-.72,1.01-.72,1.87s-1.31,3.19-1.31,3.19c-.45.08-.92.16-1.36.06-.43-.09-.82-.35-1.25-.45-1.43-.34-2.89,1.08-4.28.61-.42-.15-.77-.44-1.15-.63-1.26-.65-2.77-.25-4.18-.41-2.75-.29-4.89-2.69-7.61-3.15-1.31-.23-2.7-.01-3.89-.6-.66-.33-1.22-.9-1.93-1.13-1.07-.33-2.21.18-3.32.14-1.15-.06-2.18-.71-3.31-.96-1.33-.29-2.75,0-4.08-.36-1.32-.35-2.53-1.85-1.84-3.02.19-.32.5-.55.69-.87.44-.71.25-1.68-.25-2.35-.5-.66-1.23-1.11-1.95-1.54-2.23-1.35-4.54-2.73-7.12-3.12-1.31-.2-2.78-.21-3.69-1.16-.34-.36-.56-.82-.93-1.15-.28-.26-.65-.42-.9-.72-.25-.29-.3-.81.02-1.01.21-.14.5-.07.74-.01,1.66.43,3.39.54,5.08.35,1.53-.18,3.22-.78,3.82-2.2.39-.93.21-2.03.63-2.95.41-.92,1.36-1.52,2.34-1.77.99-.24,2.02-.18,3.03-.11,1.09.07,2.21.15,3.22.55.27.11.52.25.8.34.29.09.61.14.91.18,2.39.35,4.77.69,7.16,1.04,1.8.26,3.78-.11,5.56.23.96.19,1.9.42,2.84.7,1.57.46,3.1,1.05,4.57,1.73,1.1.51,2.32,1.09,3.47.71.77-.26,1.35-.91,2.11-1.18,1.23-.43,2.74.38,3.04,1.64.18.78.06,1.78.75,2.17.33.19.74.15,1.09.28,1.01.41.92,1.81,1.16,2.87.42,1.94,2.68,3.24,4.57,2.64-.04,1.55-1.07,1.79-1.91,3.12-.86,1.33-2.22,2.48-2.89,2.76-.69.27-.17,1.58.84,1.86Z" fill="#1d2088"/>
        <path d="M299.11,211.33c-.09.24-.33.38-.51.56-.33.32-.48.75-.63,1.19-.55,1.61-.99,3.27-1.31,4.94-.3,1.59-.6,3.37-1.88,4.36-.95.73-2.23.86-3.41.69-1.18-.18-2.32-.61-3.48-.87-.39-.08-.79-.16-1.16-.32-2.15-.93-2.44-4.53-4.76-4.91-.65-.11-1.31.09-1.96.15-1.08.11-2.15-.15-3.23-.19-1.08-.06-2.26.14-2.98.93-.19.21-.36.47-.62.61-.32.16-.7.09-1.06.03-2.16-.41-4.39-.46-6.58-.18-.71.09-1.43.21-2.13.03-.44-.11-.84-.35-1.3-.43-.47-.08-.96.03-1.43.1-3.73.56-6.77-.45-10.51.02-3.56.45-7.04-1.11-10.62-1.37-1.44-.1-2.91.01-4.35-.23-1.43-.24-2.88-.91-3.6-2.16-.24-.41-.38-.86-.68-1.22-.25-.3-.56-.52-.89-.72-2.68-1.66-5.88-2.44-9.02-2.21-.98.07-1.98.24-2.94,0-.56-.15-1.08-.43-1.62-.68-1.76-.81-3.49-1.59-5.41-1.25-1.31.21-2.6.44-3.9.66,0,0,1.31-2.34,1.31-3.19s.51-1.19.72-1.87c.2-.69-.38-1.54-1.41-1.82-1.01-.28-1.53-1.59-.84-1.86.68-.28,2.04-1.43,2.89-2.76.84-1.33,1.87-1.57,1.91-3.12.56-.19,1.09-.52,1.67-.65.59-.14,1.19-.07,1.79-.01,2.89.27,5.79.45,8.69.52,1.23.03,2.56-.14,3.77-.02,1.52.14,2.77,2.15,4.05,1.99.81-.1,1.37-.81,2.05-1.27,1.37-.95,3.41-.99,4.28-2.41.43-.7.45-1.57.78-2.32.53-1.24,1.93-2.05,3.27-1.88,1.35.16,2.51,1.3,2.71,2.62,3.15,1.08,6.87.88,9.58,2.79.6.42,1.35-.18,2.06-.34,1.05-.24,2.02.53,3,.92,1.64.68,3.5.37,5.28.48,1.77.12,3.8.99,4.12,2.74.54,0,1.08.01,1.62.01.35.2.06.77-.33.9-.37.14-.83.15-1.08.45-.19.24-.18.57-.16.88.05.77.19,1.69.91,1.98,1.05.42,2.58-.86,3.2.09-.24.88-.47,1.78-.41,2.69.06.9.46,1.85,1.25,2.31.55.34,1.23.39,1.88.44,1.98.15,3.98.29,5.97.43.89.06,1.8.11,2.67-.11,1.31-.35,2.35-1.31,3.56-1.9,1.22-.59,2.92-.69,3.71.42.2.28.33.62.55.88.72.82,2.02.54,3.07.3,1.07-.23,2.51-.15,2.82.9.15.47-.01,1.01.17,1.46.25.64,1.11,1.13.86,1.76Z" fill="#1d2088"/>
        <path d="M277.84,194.69c.49-.08.99-.03,1.48.02,2.74.24,5.49.28,8.24.12.28-.02.57-.03.83.06.16.06.31.16.47.24.6.3,1.32.23,1.99.18,1.09-.08,2.18-.08,3.26,0,.47.04,1.09.26,1.02.73-.03.19-.17.33-.31.46-.85.76-1.99,1.2-3.13,1.19-.33,0-.66-.04-.98.06-.61.19-.98.81-1.55,1.1-.62.31-1.35.18-2.04.19-1.99.04-3.87,1.38-5.83,1.05-.69-.12-1.34-.44-2.04-.5-1.26-.1-2.56.67-3.75.24-.54-.19-.66-.51-.88-.98-.29-.62-.17-.52-.75-.72-.65-.22-1.73-.98-1.65-1.89.05-.56.85-.96,1.32-.99.54-.03,1.08.1,1.63.04.91-.1,1.75-.48,2.64-.63Z" fill="#1d2088"/>
        <path d="M306.51,215.22c.37-.12.81,0,1.15-.19.28-.17.4-.5.61-.74.5-.57,1.39-.51,2.14-.41.62.09,1.26.18,1.8.5.64.39,1.09,1.08,1.79,1.34.18.07.39.13.45.31.03.09,0,.19.01.29.06.44.66.47.98.55.57.14,1.08.36,1.6.64-.1.1-.01.27.04.4.12.33-.07.69-.25.99-.16.27-.32.54-.53.76-.34.35-.99.57-1.47.61-.45.04-.89-.11-1.34-.15-.45-.04-.96.05-1.21.42-.18.26-.18.61-.34.89-.44.77-1.71.52-2.32,1.17-.23.25-.34.6-.56.86-.48.57-1.53.48-1.91-.17-.48-.83.08-2.13-.69-2.7-.51-.38-1.3-.14-1.82-.51-.21-.15-.35-.38-.55-.54-.45-.35-1.08-.26-1.65-.31-.8-.06-1.57-.42-2.13-.98-.43-.44-.75-1.09-.53-1.66.43-1.13,2.2-1.02,3.18-.99.52.02,1.04.1,1.56.14.85.06,1.22-.27,1.97-.51Z" fill="#1d2088"/>
        <path d="M323.55,217.31c.12-.06.25-.12.34-.23.11-.12.15-.29.25-.42.14-.16.36-.22.57-.26,1.13-.24,2.28-.39,3.44-.45.24-.01.5-.02.69.12.16.11.26.31.42.43.24.18.58.13.88.11.74-.05,1.57.14,1.98.76.36.55.29,1.3-.01,1.88-.3.58-.8,1.04-1.29,1.48-.48.43-.96.87-1.44,1.3-.15.14-.31.28-.39.47-.12.26-.07.57-.11.85-.13.89-1.05,1.41-1.89,1.74-.45.17-.92.33-1.41.33-.95,0-1.84-.59-2.79-.53-.51.03-1.05.24-1.49-.01-.19-.11-.33-.28-.45-.46-.67-.94-1.09-2.19-.64-3.25.38-.89,1.25-1.29,1.8-2.03.51-.69.73-1.38,1.56-1.83Z" fill="#1d2088"/>
        <path d="M334.77,220.94c.07.47-.42.81-.81,1.08-1.19.83-1.98,2.2-2.12,3.64-.03.32-.03.65.07.95.2.64.78,1.1,1.41,1.32.63.22,1.31.23,1.98.22.67,0,1.35-.04,1.98-.26.67-.24,1.26-.71,1.97-.81.7-.1,1.4.18,2.09.36,2.36.61,4.85,0,7.28-.04.78-.01,1.56.04,2.33-.1.77-.14,1.53-.51,1.95-1.16.08-.13.15-.29.08-.43-.04-.08-.12-.13-.21-.18-.95-.47-2.32.04-3.01-.76-.38-.44-.38-1.11-.74-1.57-.33-.42-.92-.6-1.13-1.09-.1-.24-.09-.51-.14-.76-.13-.62-.68-1.13-1.31-1.21-.32-.04-.69.01-.93-.2-.22-.19-.25-.51-.33-.78-.26-.81-1.12-1.31-1.97-1.4-.85-.09-1.69.16-2.51.4-1.07.32-2.13.54-3.07,1.16-.34.23-2.85,1.45-2.85,1.62Z" fill="#1d2088"/>
        <path d="M350.41,218.7c.47.36.67.99,1.14,1.33.43.31,1.02.35,1.41.72.36.35.44.89.49,1.39.03.31.06.65-.14.9-.12.15-.3.24-.48.28-.55.15-1.17-.02-1.58-.42-.41-.41-.64-1.05-1.2-1.19-.2-.05-.41-.02-.61-.07-.66-.16-.83-1.01-.84-1.68,0-.38,0-.8-.24-1.1-.29-.37-2.86-1.63-1.14-2.01.94-.21,2.5,1.35,3.17,1.87Z" fill="#1d2088"/>
        <path d="M358.29,216.84c-.08.83.01,1.81.71,2.26.5.33,1.23.25,1.65-.19.42-.43.47-1.17.12-1.66-.16-.23-.41-.49-.27-.73.57.03,1.14.05,1.71.08.26.01.54.03.76.17.22.14.35.46.19.68,1.31.39,2.42-1.15,3.77-1.36.99-.16,2.05.55,2.29,1.52.29,1.18-.51,2.47-.08,3.61.24.64.86,1.29.54,1.91-.1.2-.3.35-.49.47-1.36.89-3,1.24-4.61,1.46-.69.09-1.39.16-2.06,0-.67-.16-1.32-.59-1.57-1.23-.19-.5-.15-1.1-.49-1.51-.82-.95-2.8.16-3.48-.89-.23-.35-.22-.86-.57-1.08-.29-.18-.67-.06-1.01-.08-1.09-.05-3.28-2.27-3.6-3.27-.29-.91.57-1.7,1.32-2.07,1.23-.6,1.29-.07,2,.67.26.27.68.31.94.58.23.23.2.69.49.85.55.29,1.17-.44,1.76-.19Z" fill="#1d2088"/>
        <path d="M375.15,234.78c.97-.14,1.92-.57,2.89-.44.49.07.96.28,1.44.38,1.1.24,2.24-.09,3.35-.27,1.11-.18,2.38-.18,3.22.57,1.08.96,1.21,2.92,2.6,3.36.55.17,1.16.04,1.71.21.47.15.84.51,1.18.86,1,1.04,1.94,2.13,2.8,3.29.41.54.81,1.16.75,1.83-.07.68-.61,1.23-1.18,1.61-1.42.94-3.18,1.27-4.88,1.15-1.66-.11-3.31-.65-4.61-1.68-1.35-1.08-2.28-2.67-3.79-3.52-1.17-.67-2.55-.81-3.89-.95-1.61-.16-3.21-.32-4.82-.48-.51-.05-1.05-.11-1.45-.42-.35-.27-.55-.68-.73-1.08-.33-.71-.67-1.45-.75-2.23-.4-3.65,4.09-1.89,6.17-2.19Z" fill="#1d2088"/>
        <path d="M382.21,219.61c.25.33.14.82-.11,1.16-.24.34-.59.58-.85.91-.92,1.19-.2,3.1,1.15,3.77,1.35.66,3.01.32,4.3-.45.34-.21.68-.44,1.06-.55.98-.29,1.99.26,2.97.57,3.07.97,6.61-.49,9.53.86.35.16.68.36,1.06.43.67.13,1.34-.16,1.98-.39,2.05-.75,4.25-.94,6.42-1.13,2.61-.23,5.23-.46,7.84-.69,1.06-.09,2.41-.43,2.55-1.49-.89-.66-2.48.79-3.14-.1-.11-.15-.16-.35-.22-.53-.46-1.48-1.86-2.62-3.41-2.76s-3.13.71-3.87,2.07c-.16.29-.3.63-.6.78-.2.1-.44.08-.67.07-1.07-.07-2.3-.23-2.9-1.12-.27-.39-.37-.89-.69-1.24-1-1.1-2.93.08-4.27-.54-.47-.22-.81-.63-1.2-.98-1.3-1.18-3.09-1.6-4.8-1.98-.36-.08-.74-.16-1.09-.07-.56.13-1,.65-1.58.67-.33.01-.63-.14-.94-.25-2.66-.96-6.26,1.8-8.52,2.99Z" fill="#1d2088"/>
        <path d="M427.99,218.03c.24-.19.46-.41.74-.56.68-.35,1.62-.07,2,.6.38.67.12,1.62-.53,2.02-.45.27-1.01.29-1.53.22-.1-.01-.21-.03-.28.03-.12.08-.1.26-.09.4.06.92-.86,1.66-1.78,1.75-1.26.13-4.7-.97-2.82-2.63,1.08-.95,3.07-.84,4.31-1.84Z" fill="#1d2088"/>
        <path d="M434.38,218.83c-.06.12-.07.25-.13.36s-.19.21-.31.16c-.05-.02-.08-.06-.11-.1-.14-.16-.28-.33-.42-.49-.39-.46-.42-1.01-.11-1.53.3-.51.48-.43.99-.14.4.23,1.21.63,1,1.04-.16.32-.73.32-.91.69Z" fill="#1d2088"/>
        <path d="M437.03,221.7c-.18.39-.78.26-1.17.44-.25.11-.42.37-.43.64,0,.17.07.36.22.44.15.07.33.02.48-.04,1.03-.44,1.71-1.55,2.8-1.81.23-.05.5-.09.6-.3.1-.2,0-.44.04-.66.06-.29.38-.45.62-.63.47-.35.73-.97.65-1.55-.01-.09-.03-.18-.09-.25-.54-.6-1.77,1.1-2.07,1.44-.34.4-.77.61-1.16.94-.59.49-.23.75-.49,1.33Z" fill="#1d2088"/>
        <path d="M448.22,216.12c.08-.09.16-.18.27-.22.12-.04.26-.01.39-.03.12-.01.24-.07.37-.06.25.01.41.25.54.46.1.16.2.35.15.53-.04.14-.16.24-.28.33-.3.24-.59.51-.85.8-.36.41-.68.86-1.11,1.2-.42.34-.99.57-1.52.42-.05-.02-.11-.04-.15-.08-.08-.08-.08-.21-.07-.32.18-1.45,1.38-2.06,2.25-3.04Z" fill="#1d2088"/>
        <path d="M456.44,214.61c.43-.31.97-.41,1.5-.45,1.21-.1,2.5.06,3.51.74.32.22.61.49.94.71.74.5,1.67.71,2.55.57.12-.02.26-.04.37.01.3.15.11.61-.14.84-1.04.96-2.6,1.33-3.96.93-.22-.07-.45-.15-.68-.14-.77.03-1.14.99-1.83,1.32-.36.17-.78.16-1.18.14-.5-.03-1-.08-1.5-.14-.91-.11-2.46-.58-2.21-1.83.18-.9,1.45-1.04,2.14-1.32-.13-.52.07-1.06.51-1.38Z" fill="#1d2088"/>
        <path d="M454.9,232.1c-.41.59-.97,1.05-1.53,1.51-1.01.83-2.29,1.7-3.52,1.28.11-.93-1.02-1.58-1.95-1.47-.93.11-1.73.69-2.6,1.04-1.35.54-2.99.59-3.95,1.67-.68.76-.82,1.85-.92,2.87-.11,1.21-.19,2.42-.23,3.63-.51-.04-.91.46-1.09.94-.18.48-.27,1.03-.64,1.39-.16.16-.36.27-.49.45-.56.75.4,1.97-.19,2.69-.22.26-.57.35-.86.53-.29.18-.52.58-.31.85,1.35-.03,2.69-.35,3.91-.93.74-.36,1.46-.82,2.28-.87,1.38-.08,2.62,1.03,4,.92,1.32-.1,2.31-1.29,3.58-1.66,1.25-.37,2.64.09,3.87-.34,1.58-.54,2.35-2.29,3-3.84.18-.43.37-.87.71-1.2.44-.43,1.1-.64,1.43-1.16.39-.61.19-1.41.18-2.14-.03-3.05,4.45-5.85,1.58-8.53-.96-.89-1.91-1.2-3.17-.82-.62.18-1.81.54-2.26,1-.49.5-.33,1.49-.83,2.21Z" fill="#1d2088"/>
        <path d="M435.96,256.28c-.09.06-.18.14-.2.24-.01.11.07.2.11.3.08.22-.07.47-.27.59-.2.12-.45.14-.68.15-.63.04-1.27.08-1.87-.11-.2-.06-.41-.15-.61-.1-.24.06-.38.29-.55.46-.23.24-.54.4-.86.46-.28.05-.62-.02-.72-.29-.09-.27.13-.53.33-.73,1.3-1.27,3.04-3.55,4.88-4.06.62-.17,1.98-.05,2.24.64.33.89-1.19,2.02-1.79,2.45Z" fill="#1d2088"/>
        <path d="M479.12,206.92c.48-.48,1.28-.2,1.96-.24.44-.02.86-.2,1.27-.36,1.72-.69,3.5-1.23,5.32-1.63.19-.04.39-.08.57-.04.42.09.67.57.65,1-.03.43-.26.82-.49,1.19-.57.88-1.52,1.81-2.52,1.49-.25-.08-.49-.24-.76-.24-.5,0-.8.58-.84,1.09-.04.5.06,1.03-.14,1.49-.35.8-1.44.97-2.29.77-.85-.2-1.66-.64-2.53-.65-.27,0-.55.04-.81-.02-.19-.04-.36-.14-.54-.21-.46-.18-.96-.2-1.44-.09-.38.09-.91.61-1.28.57-.88-.11-.83-1.06-.44-1.62.46-.66,1.63-1.21,2.39-1.41.42-.11.95,0,1.32-.24.29-.18.36-.61.6-.85Z" fill="#1d2088"/>
        <path d="M316.75,110.5c-1.28.07-3.6-1.73-3.86,1.35-.25,3.09-1.54,2.49-2.83,4.08-1.28,1.58-.77.52-1.8,3.89-1.02,3.36-.77,2.06-2.83,3.86-2.06,1.8-3.34.26-3.6,3.09-.25,2.84,1.8,4.12-.77,4.63-2.57.52-3.34.33-3.6,2.22-.26,1.9.78.87-.26,1.9-.63.63-1.13,1.93-1.4,2.82-.14-.34-.68-.46-1.05-.32-.44.17-.77.54-1.2.71-1.18.44-2.64-.81-3.71-.12-.5.32-.68.95-1.01,1.43-.73,1.09-2.34,1.48-3.49.84-.34-.18-.65-.54-.53-.89.08-.25.36-.42.39-.68.02-.17-.07-.34-.17-.48-.39-.64-.81-1.28-1.42-1.72-.61-.43-1.46-.6-2.11-.21-.3.19-.53.5-.84.66-.64.35-1.48.1-1.99-.42-.51-.52-.75-1.23-.95-1.93-.15-.53-.35-1.16-.88-1.3-.56-.15-1.06.38-1.39.87-.53.8-.98,1.72-.84,2.67.03.28.12.56.05.83-.18.68-1.1.71-1.77.95-1.25.46-1.86,2.05-3.14,2.38-1.68.44-3.13-1.52-4.86-1.51-.6,0-1.16.25-1.75.36-1.02.2-2.14-.2-3.15-.5-.52-.15-.93.44-1.17.92-.35.75-.7,1.5-1.05,2.25-.12.25-.25.52-.5.66-.35.21-.83.07-1.13-.23-.28-.29-.42-.71-.52-1.1-.43-1.62-.46-3.34-.11-4.98.03-.17.07-.34.03-.51-.1-.35-.5-.5-.78-.73-.75-.62-.57-1.82-.19-2.71.38-.9.92-1.85.68-2.79l-2.94.44c-.44.07-.89.15-1.24.41-.34.27-.54.79-.29,1.15-.88.28-1.67.81-2.24,1.52-.14.18-.27.37-.44.52-.38.35-.92.46-1.44.51-1.72.16-3.5-.28-5.18.15-.64.17-1.27.46-1.94.42-.66-.03-1.36-.6-1.23-1.25-.78.45-1.62-.53-2.51-.62-1.43-.16-2.58,1.96-3.91,1.4-.41-.17-.68-.55-.92-.92-.6-.91-1.23-2.06-.72-3.04.11-.19.26-.38.26-.61s-.14-.39-.2-.6c-.28-.79.5-1.55.55-2.39.03-.54-.23-1.05-.5-1.52-.26-.46-.54-.96-.54-1.5s.41-1.11.93-1.1c-.12-1.19-.15-2.07-.26-3.27-.52-.59-.81-1.35-.83-2.13,0-.19,0-.38-.06-.56-.18-.5-.84-.64-1.15-1.07-.36-.51-.11-1.22.19-1.76.32-.54.7-1.11.6-1.72-.11-.7-.82-1.22-.79-1.93.01-.17.07-.36-.02-.52-.12-.26-.48-.24-.75-.34-.68-.25-.7-1.19-.66-1.91.03-1.2-.16-2.41-.56-3.55-.08-.19-.17-.41-.35-.5-.19-.1-.42-.05-.63-.09-.62-.11-.82-.88-1.27-1.31-1.08-1.02-3.21.1-4.21-1-.1-.11-.18-.25-.17-.41.01-.23.25-.38.34-.6.19-.46-.36-.95-.3-1.45.03-.21.16-.41.28-.59.35-.56,1.06-2.22.56-2.86-.47-.62-1.96-.15-2.56-.01-1.88.43-4.16-.03-5.11-1.71-.46-.81-.54-1.81-.33-2.73.06-.24.15-.48.32-.66.47-.45,1.26-.15,1.9-.26,1.79-.29,1.43-2.74.88-3.89-.84-1.73-2.18-2.75-3.33-4.23-.55-.71-.41-1.75-1.06-2.43-.74-.78-2.31-1.06-2.22-2.13.08-.84,1.18-1.14,1.7-1.8.43-.53.44-1.25.59-1.91.21-1.05.78-2,1.32-2.93.65-1.1,1.32-2.21,1.97-3.32.42-.7.81-1.63.27-2.24-.74-.42-1.62.25-2.26.82-.64.56-1.66,1.09-2.27.48.07-.43.14-.87.2-1.3,1.02.42,2.16-.41,2.74-1.36.7-1.14,1.01-2.57,1.81-3.65.35-.46.82-.79,1.3-1.11.39-.28.78-.48,1.02-.86.19-.29,0-.65.41-.95.33-.25.77-.32,1.18-.32.09,0,.18.01.28.01.72.06,1.43.32,2.03.74.08.06.16.12.2.2.03.07.05.16.06.24.09.6.11.71.59,1.06.96.68,1.72,1.63,2.2,2.7.25.59.42,1.2.8,1.7.65.82,1.77,1.14,2.48,1.89.69.71.96,1.77,1.71,2.4.56.45,1.3.62,1.93.97,1,.55,1.68,1.55,2.63,2.15,2.23,1.4,5.12.32,7.74.63.91.11,1.82.41,2.75.38.82-.03,1.6-.3,2.41-.46,1.3-.27,2.17-.15,3.49-.11,1.33-.44,2.69-.88,4.08-.75.45.05.9.15,1.34.07.5-.1.91-.42,1.37-.62.6-.28,1.25-.38,1.87-.61.62-.21,1.23-.61,1.46-1.22.12-.32.14-.66.23-.99.35-1.25,1.71-1.86,2.76-2.61.87-.63,1.63-1.46,2.67-1.75.48-.12,1-.12,1.5-.11,1.86.03,3.72.06,5.57.09.73.01,1.68.2,1.78.92.02.17-.01.36.06.52.18.48.88.36,1.37.5.29.08.53.27.79.43,2.08,1.31,5.29-.18,7.3,1.25.71.52,1.69-.11,2.21-.82.52-.71,1-1.6,1.86-1.77.47-.09.96.07,1.42.21,1.59.51,3.54.8,4.75-.34-1.23,2.03-.2,5.62-2.77,6.4-2.58.77-3.41,1.3-4.16,3.34-.73,2.05.03,5.27-1.25,5.86,2.57.57,5.54-4.16,8.18-2.57,2.62,1.6,3.14.98,5.45,0,2.32-.98,4.38-2.14,5.66-1.17s1.28.95,0,3.78-.78,4.41-.52,6.07-2.31,2.56-1.02,4.17c1.28,1.6,3.85,1.48,4.63,0,.77-1.49,2.83-1.35,2.06,1.16-.78,2.5-1.98,6.66.17,7.67,2.14,1,4.2,1.24,4.97,3.95.78,2.71,2.58,2.59,3.09,4.32.52,1.72-1.28,2.89-2.57,2.95Z" fill="#1d2088"/>
        <path d="M366.53,73.29c-2,.59-4.1.86-6.18.79-.81-.02-1.61-.1-2.42-.18-.69-.07-1.43-.17-1.93-.65-.23-.21-.38-.51-.65-.66-.54-.33-1.22-.01-1.84-.01-1.24,0-2.07-1.22-2.98-2.06-.28-.26-.64-.51-1.01-.45-.23.03-.42.17-.56.33-.54.62-.33,1.73.41,2.11.21.11.46.17.66.3.45.32.53.96.43,1.49-.27,1.28-1.32,2.24-1.97,3.38-.5.86-.79,1.88-1.53,2.55-.29.26-.65.45-.88.78-.37.56-.25,1.31-.37,1.97-.16.86-.75,1.55-1.02,2.38-.45,1.34-.02,2.82-.25,4.2-.09.61-.32,1.22-.29,1.82.01.33.09.64.15.96.21,1.15.18,2.33.13,3.49-.01.59-.03,1.18-.23,1.73-.27.81-.84,1.58-1.43,2.2-.15.66-.75,1.1-1.39,1.36-.62.25-1.29.38-1.87.72-.63.38-1.1,1.02-1.28,1.75-.1.42-.1.86-.28,1.24-.25.51-.8.84-1.36.83-.56-.01-1.1-.38-1.32-.9-.27-.66-.06-1.49-.48-2.06-.11-.15-.33-.27-.48-.16-.08.06-.11.15-.14.24-.27.83-.54,1.68-.47,2.54.03.43.16.86.18,1.28.07,1.08-.54,2.17-1.49,2.69-.53.29-1.2.46-1.46,1-.11.24-.14.51-.21.74-.27.8-1.15,1.19-1.94,1.5-.2.08-.41.16-.62.12-.2-.02-.38-.14-.57-.21-.86-.36-1.95.19-2.18,1.08-.23.89.47,1.9,1.4,2,.43.05.96-.06,1.22.29.29.36.02.88-.24,1.26.68.56.44,1.63.23,2.48-.21.86-.15,2.05.71,2.26.2.04.42.02.62.09.36.1.62.44.71.8.18.72-.27,1.53-.96,1.78-.52.18-1.09.07-1.63.17,0,0-4.26-1.48-5.28-.71-1.04.78-1.3,0-1.3-1.36s-1.02-1.21-2.57-2.64c-1.54-1.43-1.28-1.66-1.54-4.01-.26-2.35.77-2.53,0-5.43,1.28-.06,3.09-1.23,2.57-2.95-.51-1.73-2.31-1.61-3.09-4.32-.77-2.71-2.83-2.95-4.97-3.95-2.15-1.01-.95-5.17-.17-7.67.77-2.51-1.3-2.65-2.06-1.16-.78,1.48-3.34,1.6-4.63,0-1.28-1.61,1.28-2.51,1.02-4.17s-.77-3.23.52-6.07,1.28-2.82,0-3.78-3.34.19-5.66,1.17c-2.31.98-2.83,1.6-5.45,0-2.64-1.59-5.61,3.14-8.18,2.57,1.28-.59.52-3.81,1.25-5.86.74-2.05,1.58-2.58,4.16-3.34,2.57-.78,1.54-4.37,2.77-6.4.33-.32.57-.71.97-.92.64-.36,1.5-.15,2.14-.5.48-.26.77-.79,1.01-1.27.68-1.34,1.36-2.69,2.04-4.03.15-.3.3-.63.27-.97-.03-.28-.21-.53-.35-.79-.37-.72-.42-1.62-.03-2.34.37-.71,1.18-1.2,1.99-1.11.38.05.79.19,1.11.01.28-.15.39-.47.52-.75.47-1.15,1.33-2.14,2.39-2.78.57-.36,1.26-.65,1.6-1.25.24-.42.26-.95.06-1.37-.16-.34-.43-.61-.65-.91-.84-1.22-.57-3.07.6-3.99,1.84-1.44,4.23-.68,5.21-3.24.29-.77.9-1.35,1.17-2.09.11-.32.09-.66.11-1,.03-.83.27-1.67.68-2.4.17-.3.37-.6.44-.93.12-.64-.24-1.26-.39-1.89-.41-1.62.54-3.29,1.67-4.54.32-.35.66-.7.82-1.15.11-.34.11-.7.2-1.04.24-.81,1-1.35,1.71-1.81.64-.42,1.3-.84,2.05-1.02.51-.12,1.02-.12,1.55-.12h6.31c.73,0,1.49.01,2.21.16.34.07.68.17,1.01.23.62.1,1.25.03,1.87-.02,1.11-.1,2.24-.21,3.36-.33.42-.03.86-.08,1.25.06.46.15.83.51,1.17.87.62.63,1.25,1.26,1.87,1.89.15.16.3.32.52.38.63.21,1.23-.54,1.89-.47.72.08.98,1,.91,1.72-.07.72-.25,1.53.2,2.09.42.53,1.22.59,1.7,1.06.66.63.42,1.87-.37,2.33-.79.46-1.87.18-2.47-.52-.3-.35-.51-.8-.91-1.04-.51-.29-1.15-.15-1.68.09-.53.24-1.04.57-1.61.65-.75.11-1.49-.24-2.24-.35-.75-.11-1.71.15-1.88.9-.15.7.51,1.32,1.14,1.66.78.42,1.64.69,2.52.77.61.06,1.33.1,1.63.62.38.65-.21,1.54.12,2.22.41.82,1.77.65,2.26,1.42.55.86-.38,2.23.35,2.94.3.29.81.35,1.04.7.1.16.12.35.17.53.27,1.43,1.24,2.38,2.32,3.34,1.75,1.58,3.49,3.14,5.24,4.71.68.62,1.41,1.32,1.5,2.23.1,1.22-1,2.23-2.15,2.65-.78.28-1.68.44-2.18,1.08-.69.87-.32,2.2.42,3.02.74.82,1.76,1.32,2.6,2.04,1.43,1.2,2.35,3.03,4.03,3.85.47.24,1,.38,1.41.71.74.61.95,1.7,1.67,2.34.95.83,2.6.73,3.23,1.82.2.36.28.83.63,1.06.21.14.48.16.73.24.56.2.93.78,1.06,1.36.11.6.07,1.36-.02,1.96Z" fill="#1d2088"/>
        <path d="M326.7,130.9c.06.88-.24,1.77-.8,2.44-.19.23-.44.44-.73.43-.61-.05-.69-.9-.59-1.5.1-.6,0-1.45-.61-1.48-.29,0-.54.21-.71.45-.39.56-.56,1.29-.45,1.97.07.42.24.81.33,1.23.33,1.41-.25,2.87-1,4.1-.9,1.5-2.07,2.82-3.23,4.12-1.07,1.21-2.3,2.49-3.9,2.62-.52.05-1.1-.02-1.5.32-.34.29-.41.78-.62,1.17-.56,1-1.9,1.14-2.93,1.67-.66.35-1.25.9-1.98,1.07-.42.09-.86.06-1.27.1-1.04.09-2,.69-2.57,1.55-.15.24-.27.48-.47.68-.18.16-.42.26-.65.32-.88.2-1.91-.15-2.31-.96-.17-.35-.21-.74-.25-1.13-.21-2.2.46-4.53-.72-6.39-.51-.79-1.02-1.69-.82-2.6.08-.34.25-.65.28-1,.02-.35-.19-.77-.54-.77-.19-.01-.36.11-.52.24-.46.35-.96.72-1.54.75-.57.02-1.22-.48-1.07-1.05,0,0,0-.01.01-.03.09-.26.3-.48.29-.75,0-.06-.01-.11-.03-.16.27-.89.77-2.18,1.4-2.82,1.04-1.04,0,0,.26-1.9.26-1.89,1.04-1.7,3.6-2.22,2.57-.51.52-1.79.77-4.63.26-2.83,1.54-1.28,3.6-3.09,2.06-1.8,1.8-.51,2.83-3.86,1.04-3.37.52-2.31,1.8-3.89,1.28-1.59,2.58-.99,2.83-4.08.26-3.09,2.58-1.28,3.86-1.35.77,2.89-.26,3.07,0,5.43.26,2.35,0,2.58,1.54,4.01,1.54,1.43,2.57,1.27,2.57,2.64s.26,2.14,1.3,1.36c1.02-.77,5.28.71,5.28.71-1.36.25-2.17,2.06-1.42,3.24.14.21.32.41.44.63.39.74.19,1.55.25,2.39Z" fill="#1d2088"/>
        <path d="M324.65,142.65c-.28,1.64-.49,3.29-.61,4.95.33-.28.71.28,1.1.47.63.3,1.23-.47,1.52-1.11.41-.93.83-1.86,1.24-2.8.22-.49.44-1.06.19-1.54-.18-.36-.59-.6-.64-1-.06-.59.72-1.25.29-1.66-.14-.13-.36-.15-.56-.13-1.55.12-2.85,1.62-2.75,3.17" fill="#1d2088"/>
        <path d="M256.16,64.17c-.45-.23-.88-.66-1.38-.55-1.09.25-1.43.85-2.5-.07-.47-.41-1.19-1.62-1.01-2.3.33-1.32,1.74-.78,2.76-.52,1.35.35,4.09.6,5.19,1.3,1.94,1.24-1.74,2.82-3.06,2.13Z" fill="#1d2088"/>
        <path d="M428.34,102.28c-.09.33-.19.66-.43.91-.42.41-1.07.38-1.64.36-.59-.01-1.26.05-1.57.54-.21.33-.2.79-.48,1.05-.29.27-.78.24-1.06.51-.14.14-.2.32-.27.5-1.28,3.18-4.76,3.94-6.54,6.66-.8,1.22-1.23,3.01-2.67,3.27-.73.14-1.46-.23-2.18-.43-.73-.2-1.67-.15-2.03.51-.26.47-.14,1.13-.51,1.52-.5.54-1.41.14-1.9-.39-.5-.54-.97-1.24-1.69-1.32-1.02-.1-1.69,1.26-1.3,2.21.39.95,1.42,1.46,2.4,1.76.98.3,2.03.47,2.87,1.05,2.09,1.44,2.39,5.02,4.85,5.68.38.1.8.12,1.1.37.66.53.29,1.6.52,2.42.48,1.82,3.7,1.96,3.86,3.84,0,0-3.9,2.15-5.37,1.62-1.46-.53-2.32-1.18-4.21-1.75,1.89-.95,1.14-1.89,2.24-3.8,1.11-1.89-2.43-1.51-3.01-2.47-.56-.95-1.89-1.51-3.03-3.02s-2.47-.01-4.74-.01-2.08.19-2.66-1.28c-.56-1.48-1.7-.8-3.98-1.75-2.27-.95-1.33-.95-3.03-2.51-1.71-1.57-2.47.05-4.74,0-2.27-.05-3.99,1.57-7.38,1.5-.97,1.39-1.7,1.77-1.05,3.48.65,1.7,1.98,1.7,1.7,3.41-.29,1.7-.61,3.98-1.68,3.41-1.08-.57-1.84-.97-2.41.08-.56,1.06-.95,1.06,0,2.76.95,1.71.18,3.6-.57,3.6s-.75-2.27-.75,0-.95,3.13,0,3.27c.96.15-1.22,2.09-1.22,2.09-.57.14-.9.75-1.43.99-.6.26-1.31-.01-1.85-.38-.54-.37-1.01-.86-1.63-1.09-.68-.26-1.46-.18-2.09-.52-1.16-.63-1.24-2.27-.88-3.55.36-1.26,1.02-2.52.81-3.82-.3-1.77-2.02-4.43.52-5.36.97-.35,2.08-.39,2.86-1.08.82-.72.98-1.93,1.08-3.02.1-1.1-.06-1.8-.15-2.91-.02-.36-.05-.74.17-1.02.15-.2.38-.32.54-.5.56-.69-.19-1.82.3-2.56.28-.42.86-.51,1.23-.84.61-.57.45-1.59.09-2.34-.35-.75-.87-1.5-.83-2.33.03-.87.65-1.61.73-2.47.08-.81-.35-1.67-.07-2.43.24-.63.88-1.02,1.13-1.64.24-.57.15-1.33.64-1.7.7-.53,1.76.26,2.53-.12.71-.36.66-1.36.59-2.15-.1-1.05-.07-2.12.09-3.16.05-.29.2-.65.48-.62.1.01.18.08.26.15.77.64,1.22,1.67,1.17,2.67-.01.37-.08.77.11,1.08.36.59,1.36.33,1.67-.29.3-.62.14-1.35-.03-2.03-.41-1.59-.82-3.19-1.23-4.79-.45-1.75-.84-3.8.28-5.21,1.02-1.28.81-3.18,1.09-4.8.18-1.05.36-2.09.54-3.15.07-.42.15-.84.34-1.23.37-.7,1.1-1.14,1.6-1.76.2-.27.36-.56.61-.78.6-.5,1.5-.39,2.15-.79.42-.25.69-.66,1-1.02,1.14-1.3,2.48-1.61,4.19-1.34,2.36-1.13,5.02-2.64,5.43-5.23.12-.81.28-1.96,1.1-1.95.68.01.97.89,1.54,1.24.35.2.77.2,1.16.23,2.11.11,4.11.89,6.07,1.66l6.96,2.74s-5.16.74-6.3,1.88c-1.14,1.14-1.51-.37-3.22,0-1.71.38-.75,1.14-1.89,1.9-1.14.75-.77,2.45-.78,3.69-.54.32-1.07.7-1.69.77-.98.12-1.85-.51-2.71-.96-1.52-.79-3.3-1.06-4.98-.75-2.29.42-4.34,1.88-5.63,3.82-1.75,2.58-2.18,5.83-2.08,8.95.07,2.02.34,4.03.8,5.99.3,1.25.8,2.62,1.97,3.15.78.36,1.69.25,2.51.5,2.17.69,2.74,3.41,3.18,5.65.12.59.27,1.2.66,1.67.6.68,1.6.81,2.5.89,2.53.2,5.61-.01,6.84-2.24.7-1.28.56-2.94,1.4-4.14.92-1.34,2.76-1.7,4.39-1.68,1.63.02,3.31.3,4.88-.18.75-.24,1.43-.65,2.16-.95.79-.3,1.62-.48,2.45-.65.7-.15,1.4-.29,2.11-.44,1.82-.37,4.03-.9,5.91-.66.12.01.25.03.34.12.09.08.11.19.18.29.1.16.27.25.41.37.7.6.51,1.71.26,2.6Z" fill="#1d2088"/>
        <path d="M431.05,154.63c-.09.69-.9,1.08-1.6,1.02-.7-.06-1.33-.42-1.99-.65-.65-.24-1.45-.33-2.02.1-.21.16-.37.39-.62.53-.29.17-.65.15-.99.14-1.25-.06-2.51-.03-3.76.06-.6.04-1.22.11-1.73.41-.73.41-1.19,1.17-1.55,1.93-.48,1.02-.88,2.09-1.16,3.2-.08.3-.16.63-.38.86-.21.23-.54.3-.84.35-1.16.16-2.33-.17-3.46-.5-1.08-.32-2.26-.72-2.76-1.72-.82-1.67.87-3.56.73-5.41-.04-.66-.33-1.28-.6-1.89-.24-.5-.46-1-.69-1.51-.17-.36-.34-.72-.52-1.07-.74-1.44-1.89-2.8-3.47-3.18-.46-.1-.97-.14-1.35-.41-1.13-.81-.21-2.65-.71-3.93-.41-1.08-1.75-1.61-2.07-2.71-.25-.8.14-1.67.63-2.35.5-.68,1.13-1.27,1.49-2.03.53-1.08.44-2.39-.05-3.48-.48-1.09-1.33-1.99-2.29-2.73-.47-.36-1-.7-1.6-.71-.36,0-.71.11-1.07.14-.5.03-.99-.11-1.49-.14-1.67-.09-3.09,1.1-4.31,2.23-.69.62-1.39,1.26-1.82,2.09-.43.82-.54,1.87-.05,2.66.19.3.47.56.59.9.12.41.01.83,0,1.25-.08,2.11,2.45,3.78,1.99,5.83-.23,1-1.16,1.86-1.01,2.87.09.65.61,1.17.74,1.81.24,1.1-.7,2.12-.81,3.24-.09,1.06.47,2.35-.34,3.05-.25.2-.59.3-.79.55-.35.41-.23,1-.09,1.52.37,1.35.73,2.71,1.1,4.07.29,1.06-.11,2.26-.55,3.27-.26.57-.7,1.06-1,1.62-.3.55-.45,1.26-.12,1.8.14.23.34.39.45.62.21.43.06.93.15,1.4.1.63.61,1.11.74,1.73.15.66-.17,1.36-.64,1.86-.47.48-1.09.8-1.7,1.1-2.18,1.1-4.64,2.23-6.98,1.53-.56-.17-1.09-.44-1.64-.64-2.36-.86-4.98-.39-7.49-.56-.42-.03-.84-.09-1.21-.3-1.02-.61-.92-2.13-.51-3.24.9-2.38,2.67-4.34,4.62-5.97.64-.53,1.36-1.15,1.4-1.98.02-.59-.32-1.16-.28-1.75.06-1.06,1.17-1.68,1.89-2.47.87-.95,1.18-2.36.8-3.6.5-1.71-.93-3.77-.92-5.56,0-.33.05-.66-.09-.97-.16-.36-.54-.56-.86-.81-.71-.54-1.16-1.4-1.2-2.29-.05-.81.24-1.61.16-2.41-.08-.81-.77-1.67-1.54-1.49,0,0,2.17-1.95,1.22-2.09-.95-.14,0-.99,0-3.27s0,0,.75,0,1.52-1.89.57-3.6c-.95-1.7-.56-1.7,0-2.76.57-1.05,1.33-.65,2.41-.08,1.07.56,1.39-1.71,1.68-3.41.28-1.71-1.05-1.71-1.7-3.41-.65-1.71.08-2.09,1.05-3.48,3.39.07,5.1-1.54,7.38-1.5,2.27.05,3.03-1.57,4.74,0,1.7,1.57.75,1.57,3.03,2.51,2.27.95,3.41.27,3.98,1.75.57,1.48.38,1.28,2.66,1.28s3.6-1.5,4.74.01,2.47,2.07,3.03,3.02c.57.96,4.12.57,3.01,2.47-1.1,1.9-.35,2.85-2.24,3.8,1.89.56,2.75,1.22,4.21,1.75,1.48.53,5.37-1.62,5.37-1.62.16,1.82-.69,3.46-.59,5.28.03.57.23,1.14.15,1.7-.06.45-.28.86-.42,1.28-.42,1.35.17,2.92,1.31,3.76.26.19.54.34.81.52,1.39.89,2.48,2.25,3.04,3.81.11.29.2.61.43.82.35.33.89.33,1.33.51.79.32,1.23,1.17,1.97,1.6.62.35,1.37.37,2.05.59.69.21,1.39.79,1.3,1.5Z" fill="#1d2088"/>
        <path d="M465.05,63.46c-1.22,1.46-2.43,2.93-3.64,4.39-1.3,1.58-2.6,3.14-3.81,4.79-1.88,2.53-3.64,5.33-6.37,6.91-2.39,1.4-5.25,1.69-8,1.96-1.46.14-2.93.28-4.38.42-1.79.17-3.63.34-5.37-.11-.72-.19-1.42-.5-2.14-.7-1.22-.34-2.48-.41-3.74-.47-2.07-.12-4.16-.24-6.23-.35-1.07-.06-2.17-.11-3.2.18-.89.26-1.7.78-2.61.88-1.6.18-3.02-.91-4.48-1.6-2.7-1.26-6.01-1.1-8.59.41.01-1.24-.36-2.94.78-3.69,1.14-.77.18-1.52,1.89-1.9,1.71-.37,2.08,1.14,3.22,0,1.14-1.14,6.3-1.88,6.3-1.88.86.34,1.72.68,2.64.74,2.35.18,4.72-1.44,6.95-.71,1.23.41,2.13,1.45,3.25,2.11,1.11.64,2.83.74,3.45-.39.21-.37.29-.86.65-1.07.24-.14.52-.11.78-.09,4,.3,8,.61,11.99.92.87.07,1.76.12,2.59-.12.65-.2,1.23-.57,1.82-.9.99-.54,2.06-.93,3.05-1.49,2.33-1.3,4.08-3.39,6.07-5.16,1.98-1.78,4.47-3.31,7.13-3.06Z" fill="#1d2088"/>
        <path d="M436.89,97.98c.22.89.03,1.85-.36,2.68-.1.22-.22.44-.25.68-.03.24.04.49.04.73,0,.24-.06.52-.28.64-.12.07-.27.07-.42.07-.63,0-1.4-.14-1.59-.73-.19-.62.4-1.33.09-1.89-.18-.33-.61-.45-.98-.4-.37.05-.71.23-1.07.36-.41.15-.85.23-1.29.24-.94.02-1.06-1.89-.78-2.57.31-.76.99-.71,1.71-.81,1.8-.25,4.67-1.97,5.16,1Z" fill="#1d2088"/>
        <path d="M422.75,160.73c.06-.14.06-.3.11-.45.12-.3.45-.45.75-.54.69-.19,1.43-.17,2.11.04.3.09.61.25.72.54.11.28.01.6.08.9.08.35.38.62.43.97.14.87-1.14,1.26-1.45,2.08-.27.71.27,1.55-.01,2.25-.27.68-1.2.95-1.38,1.65-.06.24-.03.49-.04.74-.1,1.48-1.78,1.94-2.84,1.11-.78-.62-1.42-1.83-1.43-2.83-.01-1.22.65-2.43.94-3.59.15-.59.17-1.42.58-1.91.37-.43,1.19-.41,1.41-.98Z" fill="#1d2088"/>
        <path d="M430.48,161.12c.02-.39.01-.8.16-1.16.09-.22.23-.41.31-.64.09-.28.07-.58.19-.85.19-.44.77-.66,1.2-.46.42.19.63.69.63,1.16,0,.46-.19.9-.37,1.33-.22.52-.44,1.05-.58,1.6-.29,1.14-.21,2.37.22,3.47.04.11.09.22.18.28.09.07.21.08.32.09.91.05,1.96-.43,2.67.14.51.41.54,1.25.16,1.79-.38.54-1.06.81-1.71.85s-1.31-.12-1.95-.27c-.38-.09-.78-.18-1.14-.02-.23.1-.4.3-.57.5-.48.56-.95,1.11-1.43,1.67-.11.13-.23.27-.4.34-.3.13-.67-.01-.89-.26-.22-.25-.32-.57-.41-.89-.13-.45-.24-.93-.09-1.37.23-.69.91-.93,1.38-1.41.51-.53.55-.98.78-1.63.5-1.46,1.29-2.65,1.37-4.25Z" fill="#1d2088"/>
        <path d="M426.99,174.51c.81.09,1.62.17,2.43.26-.21.47-.47.93-.85,1.26-.39.33-.94.52-1.43.35-.49-.16-.83-.74-.63-1.22.23-.55.94-.66,1.54-.69" fill="#1d2088"/>
        <path d="M415.73,170.8c.32.43.57.93.55,1.46-.02.53-.4,1.07-.93,1.12-.33.03-.65-.12-.95-.27-.42-.21-.84-.42-1.25-.62-.11-.06-.23-.11-.32-.21-.09-.1-.15-.22-.19-.35-.32-.81-.61-2.34.45-2.78,1-.41,2.13.94,2.65,1.64Z" fill="#1d2088"/>
        <path d="M473.25,115.6c.55.16,1.3-.04,1.58.47.28.51-.34,1.06-.9,1.2-1.55.39-3.25-.33-4.78.14-.6.18-1.14.54-1.73.75-2.96,1.06-7.25-3.75-3.72-4.52,1.65-.36,3.48.32,5.15.25,1.03-.04,1.83-.51,2.73.09.66.44.82,1.38,1.67,1.63Z" fill="#1d2088"/>
        <path d="M482.17,115.3c1.1.52,2.19,1.03,3.29,1.55-.57.47-1.27.79-2,.91-.63.1-1.28.05-1.92,0-.46-.03-.92-.07-1.38-.1-.14,0-.28-.02-.4-.1-.16-.1-.23-.29-.25-.48-.06-.61.4-1.18.96-1.43.56-.25,1.19-.25,1.8-.19" fill="#1d2088"/>
        <path d="M507.65,109.37c.41.02.82.05,1.2.18.57.19,1.04.59,1.49.98.25.21.52.47.52.8,0,.3-.21.55-.44.74-.89.75-2.09,1-3.25,1.06-1.16.06-2.33-.04-3.48.12-.78.11-1.57.34-2.35.22-2.07-.32-1.76-2.88-.24-3.67,1.74-.91,4.68-.52,6.54-.43Z" fill="#1d2088"/>
        <path d="M500.89,61.97c.42-.51,1.19-.8,1.29-1.46.06-.38-.14-.75-.2-1.13-.11-.69.25-1.36.6-1.96,1.19-2.09,2.62-4.37,4.96-4.97.44.8.06,1.81-.51,2.52-.57.71-1.33,1.26-1.81,2.04-.48.78-.57,1.92.14,2.5.58.47,1.42.36,2.17.35.75-.01,1.66.24,1.83.97.05.2.03.42,0,.63-.1.93-.19,1.86-.29,2.79-.03.29-.06.59.03.88.05.15.13.3.19.45.31.78.05,1.66-.2,2.45-.11.33-.22.67-.45.93-.5.57-1.36.65-1.94,1.13-.69.57-.95,1.26-1.86,1.59-1.2.45-2.51.24-3.37-.71-.77-.85-1.71-2.92-1.74-4.04-.02-.86.52-1.59.65-2.44.13-.85-.07-1.78.52-2.49Z" fill="#1d2088"/>
        <path d="M501.62,74.58c.32,1.71.11,3.5-.58,5.09-.28.63-.61,1.42-.19,1.96.16.2.4.33.57.52.42.51.18,1.3.48,1.89.14.27.39.48.59.71,1.03,1.2.82,2.98.89,4.56.05,1.24.34,2.53,1.18,3.44.55.43,1.1.86,1.64,1.29,1.11.88,2.3,1.86,2.62,3.24.07.32.13.69.41.86.37.21.86-.15.94-.56.08-.42-.11-.84-.29-1.22-.61-1.28-1.23-2.56-1.84-3.84-.14-.3-.29-.62-.24-.95.04-.29.23-.53.35-.8.47-1.07-.24-2.25-.69-3.33-.65-1.56-.74-3.35-.26-4.97.23-.77.69-1.59,1.47-1.77.92-.21,1.76.56,2.33,1.31s1.15,1.64,2.07,1.83c1.41.29,2.58-1.2,4-1.36.81-.09,1.61.27,2.42.35.81.08,1.82-.33,1.88-1.15.06-.93-1.13-1.43-2.06-1.36-.93.07-1.93.39-2.76-.04-.82-.44-1.13-1.46-1.77-2.14-.73-.76-1.91-1.12-2.32-2.09-.47-1.12.38-2.36,1.37-3.07,1.86-1.34,4.34-1.75,5.94-3.4,1.12-1.16,1.63-2.75,2.11-4.28.35-1.12.7-2.25,1.05-3.37.36-1.15.61-2.65-.36-3.36-.88-.64-2.12-.13-2.96.56-2.47,2.05-3.61,5.53-6.43,7.08-.33.18-.68.34-.94.61-.22.24-.35.55-.48.85-.33.82-.65,1.67-1.17,2.39-.72.98-1.79,1.63-2.83,2.27-1.09.66-2.31,1.35-3.56,1.14-.52-.09-1.07-.32-1.53-.06-.35.19-.5.6-.63.97-.22.66-.45,1.31-.67,1.97" fill="#1d2088"/>
        <path d="M511.49,55.01c.05.17.11.34.23.47.27.31.75.31,1.15.24.41-.07.83-.19,1.22-.06.24.08.45.25.71.28.34.04.65-.18.87-.44.22-.26.38-.57.63-.79.66-.61,1.84-.6,2.24-1.4.14-.27.15-.58.17-.89.03-.73.07-1.45.1-2.17.02-.4.02-.84-.26-1.13-.2-.2-.49-.27-.76-.33-1.73-.37-3.62-.39-4.81,1.11-.98,1.24-1.89,3.56-1.48,5.11Z" fill="#1d2088"/>
        <path d="M500.46,96.3c-.23.19-.33.53-.22.81.56.28,1.4.13,1.7.68.11.2.1.44.15.66.06.27.21.52.21.8,0,.17-.06.33-.16.47-.34.44-1.02.42-1.52.18-.5-.24-.9-.65-1.39-.91-.5-.26-1.08-.35-1.53-.69-.59-.44-1.6-2.6-.91-3.24.7-.65,3,.87,3.68,1.24Z" fill="#1d2088"/>
        <path d="M556.85,88.68c.26.04.53.09.73.26.19.17.27.44.44.64.32.38.95.48,1.13.94.16.42-.17.89-.58,1.05-.42.16-.88.09-1.32.02-.99-.16-1.99-.31-2.98-.47-.29-.05-.59-.09-.86-.22-.43-.2-.76-.58-.98-1-1.59-3.02,3.19-1.42,4.43-1.23Z" fill="#1d2088"/>
        <path d="M542.05,90.87c.45.6,1.23.92,1.97.82,1.08-.15,1.51-.09,2.55.17.65.16,1.94.42,2.53-.07.92-.76.05-1.51-.7-2.13-1.06-.87-2.65-1.9-3.79-1.58-.35.1-.7.5-1.11.62-.36.1-1.06-.08-1.34.07-.73.37-.67,1.37-.11,2.11Z" fill="#1d2088"/>
        <path d="M620.02,148.81c-1.01,1.21-3.49,3.71-3.49,3.71-.28-.07-.6.01-.88-.1-.39-.16-.56-.65-.46-1.06.1-.42.42-.74.75-.99.16-.11.33-.23.39-.39.09-.23-.02-.48-.16-.68-.73-1.05-2.42-1.24-3.38-.38-.37.34-.66.81-1.15.95-.45.11-.97-.17-1.11-.61-.07-.18-.08-.39-.18-.55-.12-.2-.36-.29-.59-.35-.83-.24-1.77-.27-2.42-.84-.62-.55-.79-1.43-1.08-2.21-.3-.78-.95-1.58-1.77-1.49-.36.03-.66.25-.99.41-.96.48-2.08.62-3.13.36-.35-.08-.72-.24-.9-.54-.16-.26-.17-.56-.29-.83-.3-.66-1.19-.84-1.63-1.43-.53-.7-.23-1.7.17-2.47.57-1.09,1.32-2.09,2.2-2.95.43-.42.92-.89.89-1.48-.03-.72-.88-1.16-1.59-1.05-.71.11-1.28.61-1.82,1.08-1.22,1.06-2.47,2.18-3.03,3.69-.44,1.23-.39,2.62-1.08,3.73-.32.53-.81,1.06-.71,1.67.07.42.41.73.63,1.09.51.82.39,1.91-.11,2.73-.5.82-1.32,1.39-2.18,1.79-1.7.79-3.61,1-5.5,1.04-.79.01-1.69-.06-2.14-.69-.43-.59-.29-1.41-.53-2.09-.24-.66-.8-1.14-1.32-1.62-.11-.09-.21-.2-.25-.34-.06-.19.05-.38.15-.54.34-.59.66-1.16,1-1.73.52.37,1.32.17,1.72-.33.41-.51.48-1.2.37-1.84-.07-.41-.21-.83-.54-1.08-.35-.27-.83-.3-1.22-.54-.71-.44-.81-1.44-.68-2.26.12-.82.57-1.72-.02-2.31-1.34-1.31-3.06-2.23-4.91-2.61-1.61-.34-3.46-.34-4.65-1.48-.64-.62-.96-1.78-.29-2.38.59-.52,1.47-.32,2.25-.28,1.61.06,3.15-.8,4.75-.71.6.05,1.18.21,1.77.33,1.34.28,2.71.32,4.09.35.83.02,1.98-.26,1.91-1.09-.02-.32-.25-.63-.14-.92.07-.19.27-.3.46-.41.7-.37,1.42-.74,2.21-.79.79-.03,1.66.36,1.9,1.11.1.32.08.68.23.98.2.46.71.7,1.18.89,1.5.57,3.1.92,4.7,1.04.62.03,1.27.03,1.79-.29.62-.41.88-1.17,1.1-1.88.57-1.84,1.1-3.96.05-5.57-.93-1.41-2.75-1.87-4.39-2.22-.61-.14-1.24-.26-1.86-.17-1.58.23-2.64,1.81-4.16,2.3-1.89.6-3.91-.64-5.89-.45-1.05.1-2.02.6-3.05.81-.84.18-1.71.17-2.55.36-.87.2-1.69.62-2.58.57-.72-.03-1.4-.37-2.05-.7-1.44-.73-3.04-1.67-3.34-3.25-.2-1.02.21-2.06.47-3.07.27-1,.35-2.21-.36-2.97-.9-.96-2.48-.68-3.73-1.07-.83-.26-1.59-.84-2.45-.82-.56.01-1.08.28-1.6.47-1.32.51-2.76.59-4.17.65-1.2.06-2.61.03-3.36-.9-.59-.73-.55-1.76-.5-2.69-.9-.06-1.77-.41-2.45-.99.05-1.02-1.31-1.57-1.57-2.55-.24-.91.56-1.79,1.43-2.15.63-.26,1.33-.32,1.97-.56.47-.18.96-.64,1.48-.64.06,0,.11.01.17.03.12.08.15.24.19.38.14.47.64.8,1.13.73.45,1.52-.02,4.79,2.36,4.77.61-1.31.72-2.85.29-4.22-.17-.56-.43-1.16-.25-1.72.2-.66.97-1.04,1.17-1.71.09-.28.06-.6.1-.9.19-1.19,1.77-1.9,2.79-1.26.29.19.53.46.86.59.28.11.6.1.9.07,2.78-.25,5.37-1.45,7.89-2.65,1.2-.56,2.4-1.13,3.59-1.69.54-.26,1.09-.52,1.69-.59.91-.1,1.81.26,2.67.61,2.04.86,4.18,1.77,5.56,3.5.46.57.84,1.25,1.44,1.7,1.33,1,3.19.59,4.83.37,2.49-.33,5.01-.07,7.5.19,1.19.12,2.5.3,3.28,1.22,1.84,2.14-1.02,5.75.44,8.16.26.42.62.75.86,1.18.38.69.38,1.52.37,2.32-.87.36-1.4,1.4-1.19,2.31.11.45.37.88.36,1.35-.02.45-.29.83-.51,1.24-.59,1.11-.71,2.41-.81,3.67-.09,1.01-.17,2.07.24,3.01.37.87,1.1,1.51,1.75,2.2,1.67,1.8,2.76,4.11,3.11,6.52,1.54.74,3.99-.47,5.02.89-.5,2.15-1.7,2.83-2.31,3.59-.6.77-2,.53-1,2.15,1,1.63,1,.51,3.31,1.77q2.32,1.27,3.32,2.68c1,1.41,2.41-.72,3.22,1.25.8,1.97,1,2.38,0,3.58Z" fill="#1d2088"/>
        <path d="M710.05,229.43c-2.04-1.52-4.07-3.03-6.09-4.54-.57-.43-1.15-.86-1.8-1.13-.52-.23-1.07-.34-1.57-.59-1.32-.68-2.02-2.17-2.24-3.64-.09-.6-.16-1.26-.62-1.64-.52-.44-1.27-.32-1.94-.34-.66-.02-1.49-.46-1.36-1.13.05-.27.25-.48.41-.71.77-1.09.38-2.8-.77-3.48-1.16-.66-2.84-.15-3.41,1.06-.35.74-.5,1.81-1.31,1.95-.47.07-.9-.26-1.37-.36-.8-.17-1.57.33-2.31.69-.73.36-1.76.53-2.27-.11.55-.75.88-1.69.91-2.62-.75-.63-1.93.19-2.18,1.14-.26.95-.03,1.97-.29,2.92-.43,1.61-2.42,2.59-3.96,1.96-.24-.1-.47-.24-.59-.46-.14-.27-.07-.6.01-.88.41-1.48,1.13-2.85,2.11-4.02.35-.42.73-.82.91-1.34.36-1.06-.29-2.21-.15-3.32.05-.36.18-.71.14-1.07-.09-.74-.84-1.17-1.4-1.68-.54-.51-.86-1.54-.19-1.89.46-.25,1.04.1,1.36.51.34.41.61.91,1.09,1.14.71.33,1.61-.19,1.89-.93.27-.74.06-1.59-.34-2.27-.81-1.43-2.69-2.39-4.14-1.62-1.14-.97-1.79-2.42-2.91-3.41-.89-.79-1.22-2.13-.8-3.24,1.27.59,2.54,1.17,3.83,1.76.51.24,1.23.41,1.51-.07.18-.3.06-.69-.07-1.01-.27-.68-.54-1.36-.81-2.04-.09-.23-.19-.47-.38-.62-.46-.35-1.16-.03-1.68-.27-.32-.15-.5-.46-.66-.75-.87-1.5-1.75-3.27-1.09-4.86.09-.24.23-.47.19-.72-.06-.48-.65-.68-1.13-.79-1.05-.26-2.05-.65-3.01-1.16-.64-.34-1.32-.83-1.44-1.55-.18-1.13,1.01-1.91,1.91-2.62,1.52-1.19,2.52-3.57,1.26-5.03-1.9-2.21-6.25.21-8.16-1.98-.37-.41-.57-.93-.9-1.39-1.49-2.04-5.17-2.08-5.84-4.53-.17-.63-.14-1.41-.66-1.79-.23-.17-.52-.21-.81-.25-2.26-.27-4.82.18-6.62-1.23-.53-.41-1-.97-1.67-1.02-.34-.02-.68.1-1.02.14-.68.05-1.32-.3-1.89-.66-1.99-1.24-3.96-2.79-6.31-2.95-2.06-.15-3.84-.64-5.9-.44-2.09.21-4.19.38-6.13-.37-1.9-.75-3.47-.84-5.41-1.08-1.36-.16-2.27-.98-2.98-2.13-.46-.73-1.5-2.2-2.47-2.4,0,0,2.48-2.5,3.49-3.71,1-1.2.8-1.61,0-3.58-.81-1.97-2.22.16-3.22-1.25q-1-1.41-3.32-2.68c-2.31-1.26-2.31-.14-3.31-1.77-1-1.62.41-1.39,1-2.15.61-.77,1.81-1.44,2.31-3.59.7.92.54,2.55,1.62,2.95.53.19,1.25,0,1.61.44.35.43.09,1.16.48,1.54.25.26.66.23,1.01.3,1.37.29,1.9,2.11,3.21,2.61,1.5.59,3.01-.79,4.59-.97.97-.1,2.04.23,2.88-.26.57-.33.9-.97,1.19-1.57,1.41-2.89,2.82-5.79,4.23-8.68.6-1.23,1.36-2.6,2.7-2.88.34-.07.71-.07,1-.26.54-.35.51-1.13.54-1.78.03-.82.33-1.68.97-2.2.65-.51,1.7-.55,2.24.08,2.05-1.02,4.94-.75,6.8-2.07.26-.18.5-.41.79-.51.42-.14.88-.02,1.31-.08,1.01-.14,1.73-1.32,1.37-2.27-.16-.43-.5-.79-.62-1.24-.33-1.15.87-2.17,2-2.55,1.14-.36,2.44-.46,3.3-1.31.34-.34.56-.75.9-1.08,1.04-1.02,2.73-.9,4.13-.54.44.11.89.24,1.34.2.84-.08,1.66-.72,2.44-.44,1.99.72,2.59,3.55,4.67,3.85.57.08,1.24-.05,1.64.36.2.21.28.53.51.73.38.35.98.17,1.5.1,2.13-.27,4.04,1.71,6.18,1.5.55-.06,1.08-.26,1.63-.19.48.06.92.32,1.34.56,2.53,1.54,5.06,3.07,7.59,4.62.59.36,1.19.72,1.88.83,1.67.28,3.29-1,4.95-.74,2.51.38,3.69,3.94,6.24,4.07,1.15.06,2.35-.66,3.41-.2.44.19.78.55,1.05.96,1.81,2.66.78,6.23,1.16,9.43.12,1.01.39,2,.53,3.01.17,1.22.15,2.44.12,3.67-.14,7.11-.27,14.21-.41,21.31-.03,1.43-.06,2.85-.24,4.27-.41,3.07-.25,5.8-.03,8.89.25,3.58.5,7.15.74,10.72.01.19.02.39-.03.59-.12.38-.51.61-.81.88-.89.78-1.24,1.99-1.53,3.14-.26.98-.42,2.24.43,2.8.51.35,1.3.33,1.6.87.11.21.12.47.12.72.07,5.19-.35,10.38-1.23,15.51-.23,1.26-.47,2.55-.25,3.81.19,1.16.77,2.21,1.2,3.3,1.12,2.79,1.3,5.95.52,8.85Z" fill="#1d2088"/>
        <path d="M672.22,203.22c.6.28,1.11.73,1.71,1.02.59.3,1.34.42,1.9.06,1.07,1.5,1.45,3.47,1.04,5.27-.15.66-.4,1.4-.05,1.98.14.23.37.41.54.63.57.75.26,1.91-.45,2.54-.71.63-1.68.84-2.62.96-.94.12-1.91.17-2.77.55-1,.44-1.77,1.27-2.71,1.82-1.81,1.06-4.05.96-6.14.84-3.6-.22-2.68-8.2-1.28-10.4,1.85-2.9,7.34-6.92,10.84-5.27Z" fill="#1d2088"/>
        <path d="M668.29,222.13c1.38-1.02,2.77-2.04,4.15-3.06.22-.16.46-.34.74-.36.72-.06,1.11.82,1.27,1.53.09.38.17.79.04,1.16-.13.38-.46.66-.78.91-.41.33-.82.65-1.24.98-.84.66-1.99,1.35-2.89.78-.67-.43-.79-1.33-.86-2.12" fill="#1d2088"/>
        <path d="M484.49,135.75c.02.48.73.61,1.14.37.41-.25.67-.69,1.07-.96.97-.65,2.26-.02,3.24.61,1.15.73,2.35,1.51,3.02,2.69.66,1.16.9,2.77,2.15,3.24.6.23,1.31.12,1.84.47.66.44.71,1.47.25,2.12-.46.65-1.26.97-2.05,1.06-.64.08-1.29.04-1.9.23-1.13.36-1.91,1.46-3.03,1.83-1.94.64-3.8-1.06-5.77-1.61-.83-.24-1.74-.27-2.49-.7-1.33-.75-1.79-2.46-2.96-3.44-.27-.22-.58-.43-.7-.76-.08-.23-.05-.48,0-.71.21-1.17.53-2.68,1.59-3.29,1.17-.68,3.28-.81,4.61-1.16Z" fill="#1d2088"/>
        <path d="M506.59,139.52c.49.09.92-.31,1.22-.7.8-1.02,1.66-3.59-.5-2.47-1.18.62-3.15,2.72-.72,3.16Z" fill="#1d2088"/>
        <path d="M509.85,139.61c.02-.14,0-.29.04-.44.07-.24.3-.39.46-.58.19-.23.28-.52.44-.78.16-.25.42-.48.72-.44.46.07.57.69.93.98.25.2.63.25.81.52.17.24.11.57-.01.83-.12.26-.3.5-.38.78-.25.9.61,1.8.46,2.72-.07.44-.36.8-.69,1.1-.67.61-1.58,1.01-2.48.88-.73-.11-1.37-.55-1.97-.97-2.52-1.78,1.42-3.04,1.68-4.61Z" fill="#1d2088"/>
        <path d="M513.35,137.55c.87-.1,1.77.52,1.99,1.38.1.4.07.85.29,1.2.3.49.95.61,1.52.66.65.06,1.31.1,1.93-.08s1.21-.62,1.4-1.24c.18-.59,0-1.25.23-1.81.27-.62.96-.93,1.6-1.17.76-.29,1.83-.48,2.22.23.35.64-.21,1.49.09,2.16.24.53.89.7,1.46.8,1.24.21,2.71.3,3.55-.64.22-.24.37-.54.61-.76.65-.61,1.69-.52,2.52-.21.83.32,1.61.83,2.49.94.96.13,2.07-.18,2.81.44.31.26.5.65.79.94.3.29.7.45,1.08.6,1.05.42,2.11.84,3.22,1.11.84.21,1.73.33,2.46.79.8.51,1.31,1.35,1.9,2.1.59.74,1.37,1.45,2.32,1.48.86.03,1.69-.51,2.53-.32.28.07.55.22.84.24.29.02.63-.15.64-.45,0-.22-.18-.39-.35-.54-1.62-1.36-3.03-2.97-4.17-4.76-.07-.11-.14-.23-.16-.36-.03-.23.13-.45.19-.67.08-.28.01-.58-.07-.86-.4-1.48-1.1-2.94-2.34-3.84-.99-.72-2.22-1.02-3.41-1.29-1.63-.38-3.26-.76-4.89-1.14-.37-.09-.76-.18-1.08-.39-.22-.14-.39-.34-.58-.51-.95-.86-2.27-1.15-3.52-1.42-.6-.13-1.23-.25-1.83-.09-1.06.3-1.64,1.4-2.23,2.34-.58.94-1.53,1.91-2.61,1.68-1.25-.26-1.88-2.01-3.17-2.03-.53,0-1.03.31-1.56.31-.37,0-.72-.15-1.07-.3-1.41-.58-2.92-.99-4.44-.99-1.24,0-3.76.35-4.41,1.63-.87,1.7,1.39,3,1.22,4.8Z" fill="#1d2088"/>
        <path d="M538.42,116.76c.82-.68,1.72-1.25,2.67-1.71.41-.19.88-.43.97-.88.02-.12.02-.25.09-.34.1-.12.29-.11.45-.09.94.15,1.87.41,2.75.78.24.1.49.22.62.45.18.31.06.7-.05,1.04-.24.69-.51,1.42-1.11,1.83-.42.28-.93.36-1.42.5-.79.23-1.57.64-2.39.57-.8-.07-1.49-.57-2.13-1.06-.23-.18-.48-.38-.56-.66-.09-.31.06-.65.28-.88.23-.23.53-.37.82-.51" fill="#1d2088"/>
        <path d="M586.23,170.16c.37.27.41.79.42,1.24.02.87.03,1.8-.44,2.53-.16.25-.38.48-.47.77-.21.67.3,1.47-.08,2.06-.2.31-.63.54-.56.9.03.15.14.26.24.36.47.47.98.97,1.64,1.09.32.06.65.03.96.11.71.18,1.16.91,1.24,1.64.08.72-.13,1.44-.34,2.14,1.12,0,1.78-1.34,1.73-2.46-.05-1.12-.53-2.2-.5-3.33.03-1.19.63-2.28.99-3.42.41-1.29,1.03-4.93-.33-5.9-1.54-1.1-3.92,2.69-4.5,2.27Z" fill="#1d2088"/>
        <path d="M585.41,186.43c-.81.17-1.48.88-1.61,1.7-.13.84.23,1.8-.28,2.48-.34.46-.98.6-1.54.5-.56-.1-1.06-.4-1.55-.69-.18-.11-.36-.22-.48-.39-.1-.15-.14-.34-.18-.52-.19-.92-.38-1.86-.2-2.78.2-1.04,1.04-3.03,2.29-3.04,1.17,0,2.69,2.91,3.54,2.73Z" fill="#1d2088"/>
        <path d="M565.3,203.64c-.17.73-.54,1.57-.08,2.16.17.22.44.37.58.61.32.55-.14,1.21-.58,1.67-1.61,1.71-3.22,3.42-4.83,5.13-.36.38-.74.78-1.25.93-.95.29-1.9-.38-2.84-.68-.46-1.91.41-3.9,1.5-5.53,1.95-2.91,3.66-5.71,6.96-7.21.63.76.76,1.97.54,2.92Z" fill="#1d2088"/>
        <path d="M588.02,194.49c1.55.67,2.99,1.57,4.27,2.67-.45.11-.9.22-1.35.33.21-.02.33.27.22.45-.1.18-.33.25-.53.3-1.64.34-3.46-.47-4.3-1.93-.14-.24-.26-.51-.23-.79.03-.29.22-.54.43-.75.61-.6,1.63-.96,2.3-.43" fill="#1d2088"/>
        <path d="M295.53,139.27s0-.01.01-.03c.02-.1.11-.45.26-.91" fill="#1d2088" stroke="#353535" stroke-miterlimit="10"/>
      </g>
      <g>
        <path d="M43.22,53.65s-.73-1.74-.58-2.99c.07-.54.49-.97.22-1.45-.27-.48-.71-.84-.94-1.34-.18-.38-.22-.81-.26-1.23-.12-1.38-.25-2.75-.37-4.13-.06-.69-.13-1.4-.48-2-.76-1.28-2.76-2.09-2.39-3.53.25-.96,1.46-1.33,1.95-2.19,1.11-1.94-2.05-4.62-.63-6.35.57-.7,1.79-1,1.8-1.9,0-.29-.14-.56-.22-.84-.38-1.43.98-2.65,2.1-3.62,1.12-.96,1.12-2.31,1.29-3.78l.22-1.88" fill="#1d2088" stroke="#fff" stroke-miterlimit="10"/>
        <path d="M79.29,52.19c-.59,1.92-2.08,2.14-1.74,4.44s-.9,2.87-.05,4.13c.85,1.26.17,3.78-1.55,4.36-1.72.57-3.21-1.03-2.75,1.61.46,2.64,2.64,3.21,2.18,5.28-.46,2.06-1.66,3.44-2.26,3.1-.6-.34-1.52.11-2.55.05s-1.95-1.66-2.06.52c-.11,2.18.46,3.1,0,4.24-.46,1.15-.8.69-2.41.46-1.61-.23-2.18.92-2.98.8-.8-.11-3.11.14-3.11.14" fill="#1d2088" stroke="#fff" stroke-miterlimit="10"/>
        <path d="M75.37,72c1.26,1.72,1.38,2.22,1.38,4.72s-.11,4.15.8,4.59c.92.44,1.72-.02,2.52.67.8.69,3.21,1.38,3.21,2.98s1.38,1.61,1.38,3.21,0,2.29.57,2.98c.57.69,2.41,2.91,3.78,4.44s2.41,2.1,3.67,3.7,2.52,1.72,3.44,2.18,2.06.48,2.64,2.02c.57,1.54,0,4.08,0,5.68s-.34,2.05-2.18,3.54c-1.84,1.49-3.78-.11-4.93,1.03s-1.95,1.26-1.61,2.52,1.26,1.61,1.84,2.98c.57,1.38.57,2.64-.11,3.67-.69,1.03-2.25-.1-3.13,2.7" fill="#1d2088" stroke="#fff" stroke-miterlimit="10"/>
        <path d="M91.77,122.92c1.03,1.72,2.87,1.05,4.13,2.7,1.26,1.66,1.49.97,2.41,2.34.92,1.38.23.8,1.95,1.95s2.18,1.84,3.21,2.52c1.03.69,2.18,1.84,3.44,2.41,1.26.57,2.06,1.61,3.1,2.29,1.03.69,1.15.5,2.18,1.68,1.03,1.19,2.75,1.07,3.9,1.07s2.75.23,2.98,1.61.8,1.61-1.03,2.87c-1.84,1.26-3.33-.69-3.21,1.49.11,2.18,1.49,2.98,2.87,3.33s1.95.8,3.44,1.83c1.49,1.03,1.95.57,3.21,2.06s2.06,1.26,2.98,3.33c.92,2.06,2.18,1.03,2.52,2.87.34,1.84.34,2.06,0,2.98-.34.92-.7,1.56-.7,1.56" fill="#1d2088" stroke="#fff" stroke-miterlimit="10"/>
        <path d="M103.47,132.44c2.55-.31,2.39-2.35,3.96-2.19,1.57.16,1.7-.49,3.51,0s4.32-.3,4.63-1.71c.31-1.41-.94-1.58,0-2.9.94-1.33,1.57-3.92,2.51-2.7.94,1.22,1.72,3.1,2.66,1.84.94-1.25,1.25-1.5,2.04-2.16.78-.66,1.57.44,2.66,1.22s1.88.6,1.25-1.42c-.63-2.02-.65-4.37.22-5,.87-.63.65-2.51,3.19-1.72,2.54.78,4.42.56,5.36-.19.94-.75,1.1-.81,2.98,0,1.88.81,5.11,1.62,5.11,1.62" fill="#1d2088" stroke="#fff" stroke-miterlimit="10"/>
        <path d="M124.12,98.76c-2.29.15-3.38-.62-5.26,0-1.88.62-1.88-1-3.29.05-1.41,1.04-1.57,1.2-2.35,2.77-.78,1.57-.96,3.83-2.28,1.92-1.32-1.92-2.42-3.95-3.83-3.48-1.41.47-2.27.16-3.64.31-1.37.16-1.68-.79-2.15,1.01-.47,1.81-5.19.14-5.19.14" fill="#1d2088" stroke="#fff" stroke-miterlimit="10"/>
        <path d="M129.85,162.26c2,1.23,3.7,1.22,5.07,1.56s1.53-.03,2.89-.78c1.36-.75,1.26-1.77,1.57-3.13s-2.18-2.38,0-3.24c2.18-.85,2.87-.68,3.8-1.36.93-.68.76-.51,2.29-.85,1.53-.34,1.19-1.93,2.72-2.24,1.53-.31,3.06-.31,3.75-1.5.68-1.19.49-1.87,1.69-2.72s2.22-2.55,3.24-1.7c1.02.85,2.55,1.87,2.55,3.23s.68,3.01,1.53,2.69,2.14-.67,2.14-.67" fill="#1d2088" stroke="#fff" stroke-miterlimit="10"/>
        <path d="M182.58,182.49c-.34,1.43-.51,2.96-1.53,3.64-1.02.68-2.89,0-4.43,0s-1.87-.51-2.72,1.02c-.85,1.53-1.19,1.7-1.19,2.89s2.04,1.87,1.02,2.89c-1.02,1.02-1.53,1.36-1.02,2.21.51.85,1.53,1.87.68,2.55-.85.68-.4,1.02-.88,1.7-.48.68-1.7,2.61-1.7,2.61" fill="#1d2088" stroke="#fff" stroke-miterlimit="10"/>
        <path d="M211.75,194.28c-.04,1.56-1.06,1.8-1.92,3.12s-2.21,2.48-2.89,2.75c-.68.28-.17,1.58.85,1.87,1.02.28,1.61,1.13,1.4,1.82-.21.68-.72,1.02-.72,1.87s-1.31,3.19-1.31,3.19" fill="#1d2088" stroke="#fff" stroke-miterlimit="10"/>
        <path d="M230.04,212.37c.22-2.23,1.24-4.28,2.77-4.28s2.72-.09,3.58.81c.85.9.68,2.09,1.87,2.77,1.19.68.51,2.05,2.04,2.13,1.53.08,3.24-.09,3.92-1.11.68-1.02,1.02-1.43,1.87-1.74s2.21-.4,1.87-2.05c-.34-1.66-.85-1.66-1.36-3.36s-1.02-2.11.34-3.95c1.36-1.84.85-1.88,2.38-1.43,1.53.45,3.75.11,3.41-1.43-.34-1.53-1.02-1.53-.85-2.55s2.51-2.54,2.51-2.54" fill="#1d2088" stroke="#fff" stroke-miterlimit="10"/>
        <path d="M377.51,103.22c.35,2.06.21,1.3,0,3.01-.21,1.71-1.06,1.71.22,3.03s2.22,1.33,2.03,3.22c-.19,1.9-.71,2.46.02,4.17.73,1.71.97,1.76,0,3.16-.97,1.39-1.7,1.77-1.05,3.48.65,1.71,1.98,1.71,1.7,3.41-.29,1.71-.6,3.98-1.68,3.41-1.08-.57-1.84-.96-2.4.09-.57,1.05-.95,1.05,0,2.75.95,1.71.17,3.6-.58,3.6s-.75-2.27-.75,0-.95,3.13,0,3.27c.95.14-1.22,2.09-1.22,2.09" fill="#1d2088" stroke="#fff" stroke-miterlimit="10"/>
        <path d="M379.78,119.81c3.39.07,5.09-1.53,7.37-1.49s3.03-1.56,4.74,0c1.71,1.56.76,1.56,3.03,2.51,2.27.95,3.41.27,3.98,1.75s.38,1.28,2.65,1.28,3.6-1.5,4.74,0c1.14,1.51,2.46,2.08,3.03,3.03.57.95,4.12.57,3.01,2.46-1.11,1.9-.35,2.84-2.25,3.79-1.9.95-2.65.19-3.98,0-1.33-.19-4.53-.76-4.53-.76" fill="#1d2088" stroke="#fff" stroke-miterlimit="10"/>
        <path d="M410.09,133.14c1.9.57,2.75,1.22,4.22,1.74,1.47.53,5.37-1.62,5.37-1.62" fill="#1d2088" stroke="#fff" stroke-miterlimit="10"/>
        <path d="M402.49,80.15c.01-1.23-.37-2.93.77-3.69,1.14-.76.19-1.52,1.9-1.9,1.71-.38,2.09,1.14,3.22,0,1.14-1.14,6.3-1.88,6.3-1.88" fill="#1d2088" stroke="#fff" stroke-miterlimit="10"/>
        <path d="M432.39,73.26c1.58,1.68,4,1.41,4.59,3.16s2.68.2,2.87,1.83c.19,1.63-1,3.68-1,3.68" fill="#1d2088" stroke="#fff" stroke-miterlimit="10"/>
        <path d="M613.48,133.79c-.5,2.15-1.71,2.82-2.31,3.59-.6.77-2.01.53-1.01,2.16s1,.5,3.32,1.77q2.31,1.27,3.32,2.68c1.01,1.41,2.41-.72,3.22,1.25s1.01,2.37,0,3.58c-1.01,1.21-3.49,3.71-3.49,3.71" fill="#1d2088" stroke="#fff" stroke-miterlimit="10"/>
        <path d="M294.83,64.56c-1.23,2.03-.2,5.63-2.77,6.4-2.57.77-3.41,1.3-4.15,3.35s.03,5.27-1.25,5.85,1.29-2-1.29.57c-2.57,2.57-3.09,4.14-4.37,5.54-1.29,1.4,2.57,2.05,0,4.17-2.57,2.12-5.66,5.1-8.23,5.15-2.57.05-4.63.52-6.94,2.86-2.31,2.34-1.04-1.52-6.05,1.31-5.01,2.83-3.98,1.73-5.78,4.47-1.8,2.73-5.66,1.84-7.2,3.32-1.54,1.47-.77.84-2.57,2.96-1.8,2.12-.77,2.32,0,4.4.77,2.09,3.34,2.57,1.54,5.03s-4.37-.38-5.4,3.74,2.31,2.64,0,5.69c-2.31,3.06-4.56,4.61-4.56,4.61" fill="#1d2088" stroke="#fff" stroke-miterlimit="10"/>
        <path d="M286.66,80.15c2.57.57,5.54-4.15,8.17-2.56,2.63,1.59,3.15.98,5.46,0s4.37-2.14,5.66-1.18c1.29.97,1.29.94,0,3.78-1.29,2.84-.77,4.41-.51,6.07s-2.31,2.56-1.03,4.17c1.29,1.61,3.86,1.48,4.63,0,.77-1.48,2.83-1.35,2.06,1.16-.77,2.51-1.97,6.66.17,7.67,2.14,1.01,4.2,1.24,4.97,3.95.77,2.71,2.57,2.59,3.09,4.32.51,1.73-1.29,2.9-2.57,2.96s-3.6-1.74-3.86,1.35c-.26,3.09-1.54,2.5-2.83,4.08-1.29,1.58-.77.53-1.8,3.88s-.77,2.07-2.83,3.87-3.34.26-3.6,3.09c-.26,2.83,1.8,4.11-.77,4.63-2.57.51-3.34.32-3.6,2.22-.26,1.9.77.87-.26,1.9s-1.67,3.76-1.67,3.76" fill="#1d2088" stroke="#fff" stroke-miterlimit="10"/>
        <path d="M316.75,110.5c.77,2.89-.26,3.07,0,5.42.26,2.35,0,2.58,1.54,4.01,1.54,1.43,2.57,1.27,2.57,2.64s.26,2.14,1.29,1.36,5.29.71,5.29.71" fill="#1d2088" stroke="#fff" stroke-miterlimit="10"/>
      </g>
    </g>
    <path d="M230.67,75.96s92.13,55.64,153.38,144.63c0,0,84.21-98.24,216.85-103.82" fill="none" stroke="#d8d8d8" stroke-dasharray="7 5" stroke-miterlimit="10"/>
    <path d="M459.56,114.27c-110.25,13.65-242.89-43.03-242.89-43.03,0,0-58.51-21.63-117.45-1.87,0,0,189.53,37.36,284.84,151.22,0,0,22.86-77.16,75.5-106.32,0,0,60.56-27.28,141.35,6.38" fill="none" stroke="#d8d8d8" stroke-dasharray="7 5" stroke-miterlimit="10"/>
    <g>
      <path d="M241.34,61.55c0,6.59-10.67,14.41-10.67,14.41,0,0-10.67-6.58-10.67-14.41,0-5.89,4.78-10.67,10.67-10.67s10.67,4.78,10.67,10.67Z" fill="#f92603"/>
      <circle cx="230.67" cy="61.55" r="6.59" fill="#fff"/>
    </g>
    <g>
      <path d="M470.23,99.86c0,6.59-10.67,14.41-10.67,14.41,0,0-10.67-6.58-10.67-14.41,0-5.89,4.78-10.67,10.67-10.67s10.67,4.78,10.67,10.67Z" fill="#f92603"/>
      <circle cx="459.56" cy="99.86" r="6.59" fill="#fff"/>
    </g>
    <g>
      <path d="M611.57,106.24c0,6.59-10.67,14.41-10.67,14.41,0,0-10.67-6.58-10.67-14.41,0-5.89,4.78-10.67,10.67-10.67s10.67,4.78,10.67,10.67Z" fill="#f92603"/>
      <circle cx="600.91" cy="106.24" r="6.59" fill="#fff"/>
    </g>
    <g>
      <path d="M109.88,54.96c0,6.59-10.67,14.41-10.67,14.41,0,0-10.67-6.58-10.67-14.41,0-5.89,4.78-10.67,10.67-10.67s10.67,4.78,10.67,10.67Z" fill="#f92603"/>
      <circle cx="99.21" cy="54.96" r="6.59" fill="#fff"/>
    </g>
    <g>
      <path d="M394.72,206.18c0,6.59-10.67,14.41-10.67,14.41,0,0-10.67-6.58-10.67-14.41,0-5.89,4.78-10.67,10.67-10.67s10.67,4.78,10.67,10.67Z" fill="#f92603"/>
      <circle cx="384.06" cy="206.18" r="6.59" fill="#fff"/>
    </g>
    <path d="M99.21,69.37s90.11,66.56,106.78,120.05c0,0,122.56-5.34,178.06,31.17" fill="none" stroke="#d8d8d8" stroke-dasharray="7 5" stroke-miterlimit="10"/>
    <g>
      <path d="M216.67,175.01c0,6.59-10.67,14.41-10.67,14.41,0,0-10.67-6.58-10.67-14.41,0-5.89,4.78-10.67,10.67-10.67s10.67,4.78,10.67,10.67Z" fill="#f92603"/>
      <circle cx="206" cy="175.01" r="6.59" fill="#fff"/>
    </g>
  </g>
</svg>