<?xml version="1.0" encoding="UTF-8"?>
<svg version="1.1" xmlns="http://www.w3.org/2000/svg" width="512" height="512">
<path d="M0 0 C0.75023437 0.05542969 1.50046875 0.11085938 2.2734375 0.16796875 C5.49441372 1.05079446 7.18592008 2.5371998 9.625 4.8125 C10.9609375 7.53979492 10.9609375 7.53979492 12 10.79296875 C12.20185913 11.40855148 12.40371826 12.02413422 12.61169434 12.65837097 C13.29877946 14.76743351 13.96148858 16.88341255 14.625 19 C15.12413175 20.54883028 15.62484695 22.09715096 16.12695312 23.64501953 C17.28910686 27.23784915 18.44038985 30.83397113 19.5859375 34.43212891 C21.69689351 41.05289036 23.84192581 47.66245681 25.98932457 54.27145767 C33.78462508 78.2649789 41.54211111 102.27160153 49.16699219 126.31988525 C49.676413 127.92655426 50.18665302 129.53296378 50.69775391 131.13909912 C51.38101666 133.28838666 52.06041527 135.43884903 52.73828125 137.58984375 C53.29189331 139.34155884 53.29189331 139.34155884 53.85668945 141.12866211 C54.625 143.8125 54.625 143.8125 54.625 145.8125 C55.79687866 145.78893433 55.79687866 145.78893433 56.99243164 145.76489258 C60.55737979 145.70224761 64.12221177 145.66341511 67.6875 145.625 C68.91662109 145.59986328 70.14574219 145.57472656 71.41210938 145.54882812 C83.36942339 145.45213825 83.36942339 145.45213825 88.625 148.8125 C91.26103879 152.42426721 92.00087584 154.95520284 92.00811005 159.39571381 C92.01716669 160.51378874 92.02622333 161.63186368 92.03555441 162.78381968 C92.03022648 164.00705738 92.02489856 165.23029508 92.01940918 166.49060059 C92.02550028 167.79399808 92.03159139 169.09739558 92.03786707 170.44028997 C92.05428033 174.0565067 92.05194593 177.67250562 92.0464921 181.2887466 C92.04382365 185.18929523 92.0583501 189.08978556 92.07058716 192.99031067 C92.0916501 200.63080258 92.09618156 208.27121862 92.09439927 215.91173613 C92.09309226 222.12058473 92.09689268 228.32940964 92.10432434 234.53825378 C92.1064235 236.32587035 92.1085211 238.11348692 92.11061716 239.9011035 C92.11166069 240.79080727 92.11270422 241.68051104 92.11377937 242.59717554 C92.13268469 259.42643881 92.13163043 276.25565849 92.12481004 293.08492798 C92.11923243 308.48779991 92.14006875 323.89050563 92.17317051 339.29333872 C92.20688448 355.103539 92.22207884 370.91365959 92.21745348 386.7238965 C92.21520671 395.60238467 92.22048238 404.48071914 92.24534607 413.35917664 C92.26632945 420.9164347 92.26998065 428.47345476 92.25104648 436.0307225 C92.24187077 439.8876436 92.24080108 443.74412061 92.26140213 447.60100746 C92.28347274 451.77915303 92.26693988 455.95624614 92.24645996 460.13439941 C92.25897781 461.35763711 92.27149566 462.58087481 92.28439283 463.84118032 C92.18811385 472.95969172 92.18811385 472.95969172 89.20961761 476.02416229 C83.00944394 480.31416028 78.25825047 480.17860955 70.8125 480.1875 C69.74451172 480.21199219 68.67652344 480.23648437 67.57617188 480.26171875 C61.05579824 480.28591309 56.83836292 479.86654757 51.625 475.8125 C48.64216948 471.71728794 48.98010258 466.66495989 49.625 461.8125 C51.94707253 457.83180424 53.43749643 456.90625179 57.625 454.8125 C60.925 454.8125 64.225 454.8125 67.625 454.8125 C67.625 442.2725 67.625 429.7325 67.625 416.8125 C22.415 416.8125 -22.795 416.8125 -69.375 416.8125 C-69.375 429.3525 -69.375 441.8925 -69.375 454.8125 C-66.52858887 454.79155273 -63.68217773 454.77060547 -60.74951172 454.74902344 C-51.34189764 454.68272569 -41.93427321 454.63855344 -32.52648735 454.60525131 C-26.822871 454.58438233 -21.11949414 454.55607677 -15.41601562 454.51074219 C-9.91117119 454.46726061 -4.40655703 454.44335771 1.09844589 454.43299103 C3.19800313 454.42560387 5.29754785 454.41117847 7.39700699 454.38957977 C10.33932924 454.36051551 13.28070168 454.35654532 16.22314453 454.35839844 C17.08989304 454.34401733 17.95664154 454.32963623 18.84965515 454.31481934 C24.2483173 454.35157722 27.37137846 455.17335015 31.625 458.8125 C34.19316719 462.90551646 34.92742547 465.80889727 34.125 470.5 C32.98869976 474.64290832 31.40159748 476.60180879 27.625 478.8125 C24.8082262 479.7514246 23.08205019 479.94200879 20.16654968 479.95294189 C19.25395386 479.95865204 18.34135803 479.96436218 17.40110779 479.97024536 C16.40208939 479.97136322 15.40307098 479.97248108 14.3737793 479.97363281 C13.31983978 479.97859772 12.26590027 479.98356262 11.18002319 479.98867798 C7.68641512 480.00330694 4.19285245 480.01010286 0.69921875 480.015625 C-1.72592673 480.02137586 -4.1510722 480.0271336 -6.57621765 480.03289795 C-11.66466484 480.04341004 -16.75309621 480.04925134 -21.84155273 480.05273438 C-28.36184076 480.05821941 -34.88191999 480.082247 -41.40214252 480.11070633 C-46.41300568 480.12932968 -51.42381852 480.13453816 -56.43471336 480.13607025 C-58.83847381 480.13909799 -61.24223334 480.14713058 -63.64595985 480.16025543 C-67.0093334 480.17730909 -70.37219646 480.17543706 -73.7355957 480.16894531 C-74.72854141 480.1781601 -75.72148712 480.18737488 -76.74452209 480.1968689 C-82.04705041 480.16480721 -85.79945089 479.80775329 -90.375 476.8125 C-93.85655135 472.97078816 -94.49976194 469.63366346 -94.50642776 464.55626202 C-94.51026891 463.46020285 -94.51411005 462.36414369 -94.5180676 461.23487061 C-94.51720112 460.02594409 -94.51633463 458.81701757 -94.51544189 457.57145691 C-94.51841302 456.29089159 -94.52138414 455.01032627 -94.5244453 453.69095594 C-94.53252364 450.12921948 -94.53430533 446.56750317 -94.53504276 443.00575864 C-94.53689186 439.16720944 -94.54443845 435.32867072 -94.55117798 431.49012756 C-94.56476758 423.09347736 -94.57078695 414.69683193 -94.57518864 406.30017257 C-94.5779499 401.0588971 -94.58218704 395.81762348 -94.58669281 390.57634926 C-94.59888611 376.06937749 -94.60918543 361.5624072 -94.6125679 347.05543041 C-94.61278747 346.12671521 -94.61300703 345.19800002 -94.61323325 344.24114193 C-94.61345153 343.31018532 -94.61366981 342.37922871 -94.6138947 341.42006129 C-94.61433817 339.53354021 -94.61478473 337.64701913 -94.61523438 335.76049805 C-94.6154558 334.82471538 -94.61567723 333.8889327 -94.61590537 332.92479298 C-94.61985419 317.75854384 -94.63731046 302.59234272 -94.6605939 287.42611214 C-94.68429685 271.86119547 -94.69676926 256.2963029 -94.69793582 240.73136789 C-94.69885316 231.98978677 -94.70462021 223.24826823 -94.72275543 214.50670433 C-94.73814215 207.06366462 -94.74328534 199.62070682 -94.73501733 192.17765423 C-94.73110579 188.37945356 -94.73206486 184.58141791 -94.74607468 180.78323746 C-94.76111943 176.66686992 -94.75296211 172.5508756 -94.74249268 168.43449402 C-94.75054908 167.23225966 -94.75860548 166.0300253 -94.76690602 164.7913596 C-94.70641233 154.65789987 -94.70641233 154.65789987 -91.375 149.8125 C-87.03288472 145.75052119 -82.84003996 145.68766491 -77.078125 145.71484375 C-75.87285156 145.71806641 -74.66757812 145.72128906 -73.42578125 145.72460938 C-72.17152344 145.73298828 -70.91726563 145.74136719 -69.625 145.75 C-67.72041016 145.75676758 -67.72041016 145.75676758 -65.77734375 145.76367188 C-62.64318164 145.77545444 -59.50911459 145.79190584 -56.375 145.8125 C-56.13450928 144.61343018 -55.89401855 143.41436035 -55.64624023 142.17895508 C-54.18922279 135.64347263 -52.08973078 129.31595799 -50.03515625 122.94921875 C-49.59613041 121.57807923 -49.15749627 120.20681423 -48.71922302 118.83543396 C-47.54119147 115.15264483 -46.35844701 111.47138773 -45.17428589 107.79056549 C-43.18043082 101.59194568 -41.19111223 95.39186763 -39.2029686 89.19141388 C-38.69376696 87.60341813 -38.18437917 86.01548205 -37.6748085 84.42760468 C-34.24335774 73.73070624 -30.86988751 63.01767386 -27.5599041 52.28257942 C-26.28027024 48.13707142 -24.9921686 43.99418302 -23.70483112 39.85106182 C-22.69152738 36.58598833 -21.68504813 33.31909867 -20.69314575 30.04745483 C-19.592065 26.42511802 -18.4701297 22.80984802 -17.34375 19.1953125 C-17.02893173 18.13799423 -16.71411346 17.08067596 -16.38975525 15.99131775 C-14.4855144 9.96301211 -12.31756183 4.95527556 -7.375 0.8125 C-4.44395546 -0.16451485 -3.00146 -0.27146311 0 0 Z M-1.375 54.8125 C-8.22485452 75.10069548 -14.91044766 95.43990037 -21.46389771 115.82583618 C-22.2391914 118.23742404 -23.01546006 120.64869867 -23.79269409 123.05966187 C-24.89098856 126.46845982 -25.98522686 129.87853115 -27.078125 133.2890625 C-27.4119368 134.32393295 -27.7457486 135.35880341 -28.0896759 136.42503357 C-28.39169418 137.37096878 -28.69371246 138.31690399 -29.00488281 139.29150391 C-29.40359589 140.53427597 -29.40359589 140.53427597 -29.81036377 141.80215454 C-30.46513411 143.7853935 -30.46513411 143.7853935 -30.375 145.8125 C-10.905 145.8125 8.565 145.8125 28.625 145.8125 C19.01707337 115.46018633 9.34173299 85.1301327 -0.375 54.8125 C-0.705 54.8125 -1.035 54.8125 -1.375 54.8125 Z M-69.375 170.8125 C-69.375 180.7125 -69.375 190.6125 -69.375 200.8125 C-24.165 200.8125 21.045 200.8125 67.625 200.8125 C67.625 190.9125 67.625 181.0125 67.625 170.8125 C22.415 170.8125 -22.795 170.8125 -69.375 170.8125 Z M-69.375 225.8125 C-69.375 280.5925 -69.375 335.3725 -69.375 391.8125 C-24.165 391.8125 21.045 391.8125 67.625 391.8125 C67.625 337.0325 67.625 282.2525 67.625 225.8125 C22.415 225.8125 -22.795 225.8125 -69.375 225.8125 Z " fill="#000000" transform="translate(420.375,16.1875)"/>
<path d="M0 0 C0.70649329 -0.00538554 1.41298658 -0.01077108 2.14088875 -0.01631981 C4.50231252 -0.03059878 6.86317568 -0.02349609 9.22462463 -0.01637268 C10.92004344 -0.0220763 12.6154584 -0.02904053 14.31086731 -0.03717041 C18.91212236 -0.05511795 23.51318688 -0.05393044 28.11446643 -0.04822803 C31.95648322 -0.04513847 35.79846329 -0.05122604 39.64047486 -0.05726677 C48.70452588 -0.07131564 57.76848266 -0.06974771 66.83253479 -0.05836487 C76.18195274 -0.04688308 85.53108386 -0.06095951 94.88046402 -0.08776134 C102.90948743 -0.10991594 110.9384208 -0.11655627 118.96747261 -0.11068493 C123.76201976 -0.1073136 128.55638303 -0.10974214 133.35090446 -0.12693596 C137.85965834 -0.14239918 142.3679872 -0.13845656 146.87672424 -0.11963081 C148.53030376 -0.1159432 150.18391473 -0.11905847 151.83746529 -0.1295166 C154.09737417 -0.14271718 156.35587408 -0.13118917 158.61572266 -0.11352539 C160.51132761 -0.11321146 160.51132761 -0.11321146 162.44522762 -0.1128912 C167.42242601 0.61429828 170.58112312 2.79780357 173.72506714 6.67190552 C175.17554192 10.10836243 175.26976899 13.17567839 175.21192932 16.84007263 C175.2123674 17.57232056 175.21280548 18.30456848 175.21325684 19.05900574 C175.21117532 21.467017 175.18787525 23.87432244 175.1643219 26.2822113 C175.15872366 27.95657979 175.15445464 29.6309532 175.15145874 31.30532837 C175.14002789 35.70307586 175.110576 40.10052408 175.0773468 44.49815369 C175.04660788 48.98928276 175.03294525 53.48046039 175.01783752 57.97166443 C174.98570447 66.77714 174.9345296 75.58237275 174.87135315 84.38768005 C176.17282288 84.36673279 177.4742926 84.34578552 178.81520081 84.32420349 C183.65688518 84.25164812 188.49852175 84.20582358 193.34059143 84.16795349 C195.43377268 84.14787346 197.52689807 84.12060365 199.61988831 84.08592224 C202.63353784 84.03724572 205.64644388 84.01467494 208.66041565 83.99705505 C209.59189423 83.97640991 210.5233728 83.95576477 211.483078 83.93449402 C217.12056114 83.93255955 220.44515269 84.53767651 224.87135315 88.38768005 C227.06391182 91.67651806 227.12219719 92.62887106 227.12582874 96.44368553 C227.13166094 97.49507725 227.13749313 98.54646897 227.14350206 99.62972105 C227.13972273 100.78874736 227.13594341 101.94777367 227.13204956 103.141922 C227.13587511 104.3701067 227.13970065 105.59829141 227.14364213 106.86369383 C227.15219621 110.27920988 227.1517306 113.69451147 227.14746153 117.11002159 C227.14500124 120.79109211 227.15399981 124.47213701 227.16149902 128.15319824 C227.17426784 135.36749867 227.17603698 142.58176192 227.17369876 149.79607175 C227.17191775 155.65885313 227.17366057 161.5216232 227.1779232 167.38440323 C227.17851839 168.21793688 227.17911358 169.05147053 227.17972681 169.91026277 C227.18093852 171.60344652 227.18215266 173.29663026 227.18336918 174.989814 C227.19425328 190.87958343 227.19207821 206.76933165 227.18598434 222.65910228 C227.18081528 237.20201173 227.19206878 251.7448542 227.21108256 266.28775041 C227.23044561 281.21194965 227.2387196 296.13611719 227.2349593 311.06032908 C227.23304481 319.44249272 227.23555881 327.82459936 227.24967384 336.20675278 C227.26156917 343.34313878 227.26301343 350.47943269 227.25088368 357.61581992 C227.24498172 361.25794931 227.24393163 364.89991011 227.25588608 368.54202843 C227.26868723 372.48792678 227.25831154 376.43356772 227.24557495 380.37947083 C227.25294924 381.5340357 227.26032352 382.68860057 227.26792127 383.87815225 C227.26071473 384.93475947 227.25350818 385.99136668 227.24608326 387.07999229 C227.24613828 387.99083403 227.24619329 388.90167577 227.24624997 389.84011877 C226.78666574 392.96316202 225.69945195 394.83374105 223.87135315 397.38768005 C218.5308209 401.22762945 212.98649641 400.80862525 206.67420959 400.76863098 C204.97615386 400.77565094 204.97615386 400.77565094 203.24379396 400.78281271 C199.44830411 400.79478428 195.65317386 400.78529668 191.85768127 400.77586365 C189.13749445 400.77827797 186.41732292 400.78516113 183.69714355 400.79179382 C177.0744556 400.80513018 170.45186968 400.80225387 163.82917774 400.7935559 C158.44654495 400.78677938 153.06394076 400.7858625 147.68130493 400.78912735 C146.53196025 400.7898169 146.53196025 400.7898169 145.35939649 400.79052038 C143.80279107 400.79147956 142.24618566 400.7924522 140.68958026 400.79343815 C126.09499341 400.80199176 111.5004631 400.79215838 96.90588552 400.77603705 C84.38441803 400.76263389 71.86303398 400.76496199 59.34156799 400.77879333 C44.79902825 400.79484967 30.25653806 400.80116779 15.71399069 400.79195654 C14.16312759 400.7910009 12.61226448 400.79005779 11.06140137 400.78912735 C10.29835702 400.78866452 9.53531268 400.7882017 8.74914578 400.78772485 C3.37328926 400.78513512 -2.00253581 400.78950559 -7.37838745 400.79656601 C-13.930215 400.8049818 -20.48193473 400.80269925 -27.03374994 400.78672378 C-30.37632701 400.77884197 -33.71857554 400.77736379 -37.06117439 400.78567123 C-40.68479763 400.79384785 -44.30791259 400.78361132 -47.9315033 400.76863098 C-48.98772621 400.77532315 -50.04394912 400.78201531 -51.13217878 400.78891027 C-57.54947885 400.73732083 -61.93752248 400.10824726 -66.97983742 395.80946255 C-68.84757213 391.87212786 -68.54027872 387.94053122 -68.50959778 383.63916016 C-68.51427775 382.63879996 -68.51895772 381.63843976 -68.52377951 380.60776561 C-68.53577334 377.24593998 -68.52625494 373.88451869 -68.51683044 370.52268982 C-68.52089421 368.11644756 -68.52623499 365.71020717 -68.53276062 363.30397034 C-68.54503971 357.44067645 -68.5432152 351.57748809 -68.5345227 345.71419711 C-68.52775023 340.94887912 -68.52682753 336.18359343 -68.53009415 331.41827202 C-68.53055385 330.74029409 -68.53101354 330.06231616 -68.53148717 329.36379344 C-68.53244634 327.98652323 -68.53341898 326.60925302 -68.53440495 325.23198282 C-68.54296224 312.31323429 -68.53311975 299.39454959 -68.51700385 286.47581153 C-68.50360337 275.39065694 -68.50592584 264.30559661 -68.51976013 253.22044373 C-68.5358152 240.34978509 -68.54213504 227.47918245 -68.53292334 214.6085152 C-68.53196769 213.2359781 -68.53102458 211.86344098 -68.53009415 210.49090385 C-68.52963132 209.81558035 -68.52916849 209.14025685 -68.52869164 208.44446899 C-68.5261013 203.68532246 -68.53047375 198.92621143 -68.53753281 194.16707039 C-68.54682602 187.76079577 -68.54020789 181.35465736 -68.52285004 174.94839859 C-68.51887699 172.59455219 -68.52003314 170.24069084 -68.52663803 167.88685036 C-68.53481118 164.67875761 -68.52458262 161.47123953 -68.50959778 158.26318359 C-68.51628994 157.32719395 -68.52298211 156.3912043 -68.52987707 155.42685133 C-68.48604431 150.60320958 -68.31646685 147.27460446 -65.12864685 143.38768005 C-60.8105217 140.30330494 -57.33781235 139.94906632 -52.24583435 140.75486755 C-48.76933765 141.79396804 -47.21562839 143.47855427 -45.12864685 146.38768005 C-43.13669992 151.9320104 -42.84804902 156.85499267 -42.88813782 162.65744019 C-42.88556976 164.02295013 -42.88556976 164.02295013 -42.88294983 165.41604614 C-42.87964937 168.4645327 -42.89067035 171.51279768 -42.90159607 174.56126404 C-42.90220894 176.78484878 -42.90194142 179.00843391 -42.90086555 181.23201847 C-42.90041438 187.18204321 -42.91199895 193.13198736 -42.92608643 199.0819931 C-42.93748345 204.66700492 -42.93801306 210.25199722 -42.93943787 215.83702087 C-42.94992897 232.16641792 -42.9778513 248.49580001 -43.00364685 264.82518005 C-43.04489685 301.31080505 -43.08614685 337.79643005 -43.12864685 375.38768005 C37.72135315 375.38768005 118.57135315 375.38768005 201.87135315 375.38768005 C201.87135315 287.60768005 201.87135315 199.82768005 201.87135315 109.38768005 C121.02135315 109.38768005 40.17135315 109.38768005 -43.12864685 109.38768005 C-43.45864685 113.01768005 -43.78864685 116.64768005 -44.12864685 120.38768005 C-46.19978394 123.88718755 -48.20311841 126.18821303 -52.12864685 127.38768005 C-57.00962072 127.86003236 -59.15534773 127.91037773 -63.50364685 125.57518005 C-66.58126851 123.01049534 -68.01767167 121.50433287 -68.41917419 117.46434021 C-68.50000915 111.16703671 -68.50000915 111.16703671 -68.49925232 108.04588318 C-68.50361776 106.02614005 -68.53992261 104.00859796 -68.5778656 101.98924255 C-68.58173279 100.71049255 -68.58559998 99.43174255 -68.58958435 98.11424255 C-68.59780212 96.94457947 -68.6060199 95.77491638 -68.61448669 94.56980896 C-68.02480321 90.7075303 -66.88061105 89.1190756 -64.12864685 86.38768005 C-61.19322834 84.61253365 -59.04740602 84.14102052 -55.63548279 84.16062927 C-54.31456635 84.16085587 -54.31456635 84.16085587 -52.96696472 84.16108704 C-51.554263 84.17657089 -51.554263 84.17657089 -50.11302185 84.19236755 C-49.14205566 84.19519745 -48.17108948 84.19802734 -47.17070007 84.20094299 C-44.073223 84.21212713 -40.97603635 84.23722864 -37.87864685 84.26268005 C-35.77708853 84.27271213 -33.67552567 84.28183758 -31.57395935 84.2900238 C-26.42541016 84.31206072 -21.27707773 84.3465786 -16.12864685 84.38768005 C-16.1375293 83.46139801 -16.14641174 82.53511597 -16.15556335 81.58076477 C-16.23579051 72.84129511 -16.29665261 64.10194956 -16.33589554 55.36219597 C-16.35674922 50.86922846 -16.38502602 46.37656585 -16.43040466 41.8837738 C-16.47394203 37.54601683 -16.49780065 33.20855268 -16.50815582 28.87059402 C-16.51553308 27.21760068 -16.52993932 25.56462292 -16.55156708 23.91175461 C-16.58070705 21.59201985 -16.5845986 19.27348706 -16.58274841 16.95359802 C-16.59163086 15.63455475 -16.60051331 14.31551147 -16.60966492 12.95649719 C-16.03768631 8.71281653 -14.87301806 6.6493113 -12.12864685 3.38768005 C-8.05493232 0.33698912 -5.03595796 0.00968596 0 0 Z M8.87135315 25.38768005 C8.87135315 44.85768005 8.87135315 64.32768005 8.87135315 84.38768005 C55.40135315 84.38768005 101.93135315 84.38768005 149.87135315 84.38768005 C149.87135315 64.91768005 149.87135315 45.44768005 149.87135315 25.38768005 C103.34135315 25.38768005 56.81135315 25.38768005 8.87135315 25.38768005 Z " fill="#000000" transform="translate(68.12864685058594,95.61231994628906)"/>
<path d="M0 0 C7.01441601 6.11895865 11.12260116 15.25903598 15.5625 23.3125 C16.8025514 25.54603616 18.04345 27.77910216 19.28515625 30.01171875 C19.9002002 31.11821777 20.51524414 32.2247168 21.14892578 33.36474609 C23.72702473 37.97407453 26.36329966 42.54904339 29 47.125 C76.0277274 129.10417952 76.0277274 129.10417952 67.37744141 162.10571289 C61.74445644 181.9176005 49.17086405 198.38419492 31.3125 208.80859375 C12.39675014 218.63865357 -8.02272596 221.30916176 -28.65234375 215.5625 C-41.36301746 211.29283723 -51.57423595 205.00386983 -61.0625 195.5625 C-61.83464844 194.82515625 -62.60679688 194.0878125 -63.40234375 193.328125 C-76.611792 179.87029396 -83.25284996 160.20977482 -83.14453125 141.54736328 C-81.71993179 107.07714423 -55.81282119 69.63577091 -38.76171875 40.859375 C-36.06256433 36.29573563 -33.43044953 31.69943993 -30.83203125 27.078125 C-30.11370036 25.80443647 -29.39535731 24.5307548 -28.67700195 23.25708008 C-27.63096067 21.40150915 -26.58740347 19.54477872 -25.55209351 17.68319702 C-12.45996733 -5.84855609 -12.45996733 -5.84855609 0 0 Z M-7.0625 36.5625 C-12.42607116 45.87868681 -17.75935199 55.2117959 -23.0625 64.5625 C-23.41664978 65.18684937 -23.77079956 65.81119873 -24.13568115 66.45446777 C-51.36680307 109.04650537 -51.36680307 109.04650537 -56.0625 156.5625 C-52.71655796 165.99654712 -47.47340322 173.84098313 -40.0625 180.5625 C-39.46179688 181.11808594 -38.86109375 181.67367187 -38.2421875 182.24609375 C-28.35706632 190.72687114 -15.94622067 194.02211991 -3.0625 193.5625 C10.11994851 192.16414082 23.32832988 186.57281418 31.890625 176.1953125 C40.74310767 164.62151108 45.89052881 152.3738079 44.69921875 137.609375 C39.55496363 113.11292206 23.95643679 89.0074031 11.65039062 67.56494141 C9.86893375 64.44231361 8.11130877 61.30724724 6.359375 58.16796875 C5.77583252 57.12487549 5.19229004 56.08178223 4.59106445 55.00708008 C3.47454929 53.00993325 2.36094719 51.01115412 1.25073242 49.01049805 C0.74388916 48.10726807 0.2370459 47.20403809 -0.28515625 46.2734375 C-0.72609619 45.48243652 -1.16703613 44.69143555 -1.62133789 43.87646484 C-3.24843169 41.26396356 -5.10102087 38.93116762 -7.0625 36.5625 Z " fill="#B93B63" transform="translate(154.0625,229.4375)"/>
<path d="M0 0 C3.82172612 2.68687534 6.01005628 5.20874533 8.234375 9.296875 C9.08890259 10.84689209 9.08890259 10.84689209 9.96069336 12.42822266 C10.55116455 13.52440918 11.14163574 14.6205957 11.75 15.75 C12.9958074 18.02359443 14.24190096 20.29703208 15.48828125 22.5703125 C16.08979004 23.67536133 16.69129883 24.78041016 17.31103516 25.91894531 C19.11356798 29.20717374 20.96668002 32.46230644 22.83837891 35.71142578 C32.31731576 52.21429274 41.14388652 68.58851691 37.37890625 88.2421875 C33.42027483 101.78950393 24.62629198 110.64869123 12.51953125 117.37890625 C2.62856966 121.78000079 -10.90846077 121.79969907 -21.125 118.375 C-32.9104871 113.14712551 -42.07230354 105.09935734 -47.0234375 93.0078125 C-53.09899598 74.29509238 -46.83339678 60.36474601 -38.47265625 43.69921875 C-13.90048508 -4.20069604 -13.90048508 -4.20069604 0 0 Z M-6 37 C-8.07256611 40.74451786 -10.13110527 44.49658049 -12.1875 48.25 C-12.76564453 49.29414063 -13.34378906 50.33828125 -13.93945312 51.4140625 C-22.46102663 65.85216492 -22.46102663 65.85216492 -24 82 C-22.186034 87.44189799 -18.61737362 90.7783325 -14 94 C-8.74818379 95.7506054 -2.93942151 96.0572037 2.32421875 94.1640625 C7.40219873 91.28170434 10.83642656 87.43363193 13 82 C16.60803008 67.73313295 1.60960135 48.80492119 -5 37 C-5.33 37 -5.66 37 -6 37 Z " fill="#B93B63" transform="translate(425,265)"/>
</svg>
