<?xml version="1.0" encoding="UTF-8"?>
<svg version="1.1" xmlns="http://www.w3.org/2000/svg" width="512" height="512">
<path d="M0 0 C3.9323173 2.65202795 6.18648186 5.30944559 7.6875 9.8125 C7.85903242 11.71175656 8.02839994 13.61126964 8.18017578 15.51220703 C9.10342832 26.11688473 11.49728976 35.28708729 19.5625 42.8125 C27.1926416 48.8055231 34.01138235 50.95683035 43.63037109 50.97021484 C44.42776703 50.97529556 45.22516296 50.98037628 46.04672241 50.98561096 C47.77745852 50.99630132 49.50820833 51.00492672 51.23896408 51.01173019 C53.99040551 51.02356424 56.74169313 51.04303338 59.49307251 51.06484985 C67.3161292 51.12628008 75.1391727 51.18027368 82.96240234 51.21386719 C87.75230854 51.23498524 92.54193774 51.27043157 97.33168411 51.31462479 C99.14545014 51.32865991 100.95926522 51.33747855 102.77308273 51.34067917 C116.33759062 51.36712593 129.62244406 51.89275818 141.875 58.4375 C142.54152588 58.78522461 143.20805176 59.13294922 143.89477539 59.49121094 C159.29255179 67.80671489 170.31937071 80.77163548 175.53588867 97.53955078 C177.48105653 104.84475068 178.19776421 111.63938712 178.125 119.1875 C178.11887695 120.27732178 178.11275391 121.36714355 178.10644531 122.48999023 C177.91155526 132.5590597 176.16401381 140.9508416 171.60839844 149.99780273 C171.24856873 150.71354965 170.88873901 151.42929657 170.51800537 152.16673279 C170.2439386 152.70983597 169.96987183 153.25293915 169.6875 153.8125 C170.55441656 153.81488835 171.42133312 153.81727671 172.31451988 153.81973743 C193.43146613 153.87893411 214.54829868 153.95451413 235.66512108 154.04821491 C245.87716005 154.09313538 256.08916444 154.1325587 266.30126953 154.15893555 C275.20458288 154.18194597 284.10778645 154.21537803 293.01101267 154.26120156 C297.72298907 154.2850927 302.43485701 154.30384839 307.14689255 154.31011391 C311.58744771 154.31618337 316.02772552 154.33625018 320.4681778 154.36677551 C322.09264064 154.37552599 323.71713977 154.37928455 325.34162521 154.37750816 C339.43200209 154.36697067 351.42912876 156.18938809 362.17578125 166.109375 C375.49171623 180.14450123 374.9899808 196.88393077 374.94628906 215.18188477 C374.94900433 217.10519543 374.95256826 219.02850506 374.95690918 220.95181274 C374.9659711 226.139726 374.96251482 231.32755907 374.95615101 236.5154736 C374.95105949 241.96441428 374.95579111 247.41334846 374.95892334 252.86228943 C374.96255353 262.00870995 374.95778848 271.15509808 374.94824219 280.30151367 C374.93735622 290.85286413 374.9408881 301.40413729 374.951895 311.95548588 C374.96099103 321.04121737 374.96224194 330.12692568 374.95701766 339.21266025 C374.9539111 344.62761669 374.9534524 350.04253686 374.96009064 355.45749092 C374.96589735 360.54900963 374.96180669 365.64042932 374.95030212 370.73193741 C374.9476734 372.59263508 374.9483898 374.45334118 374.95282745 376.31403542 C374.98922181 393.13359406 374.60465518 408.7429881 362.4375 421.75 C354.17521522 429.42808282 344.17298812 433.13672527 332.9255724 433.06976891 C332.17145273 433.07327498 331.41733306 433.07678105 330.64036128 433.08039337 C328.11700368 433.0896867 325.59387793 433.08478942 323.07051086 433.07992554 C321.24160852 433.08366284 319.41270777 433.08826469 317.58380955 433.09365618 C312.56047527 433.10589175 307.53720756 433.10562505 302.51386178 433.10326743 C297.09515298 433.1028594 291.67646556 433.11389711 286.25776672 433.12338257 C275.64203812 433.13999688 265.02633173 433.14549232 254.41059122 433.14660732 C245.78099444 433.14755765 237.15140499 433.15166715 228.52181053 433.15800858 C204.0540892 433.17562258 179.58638541 433.18484726 155.11865769 433.18334763 C153.79954215 433.18326772 152.48042662 433.1831878 151.12133789 433.18310547 C150.46117705 433.18306273 149.8010162 433.18302 149.12085049 433.18297596 C127.05146242 433.18167215 104.98215137 433.20030204 82.91278384 433.2293822 C60.9360181 433.25811176 38.95928668 433.27192244 16.98250169 433.27019465 C4.64473542 433.26953075 -7.69295706 433.27502311 -20.03070641 433.29655075 C-30.53599141 433.3147635 -41.04116919 433.31910909 -51.54646315 433.3055319 C-56.90490358 433.29900265 -62.2631383 433.29888371 -67.62155914 433.3162384 C-72.53120564 433.33197584 -77.44048345 433.32909843 -82.350121 433.31167014 C-84.12198599 433.30860174 -85.89387853 433.31222657 -87.66571101 433.32339029 C-102.56591632 433.41101999 -114.38461378 431.51062444 -125.4375 420.7421875 C-133.5383051 412.19464683 -136.46230552 403.90607087 -136.45967102 392.28123474 C-136.46334771 391.41169806 -136.4670244 390.54216138 -136.4708125 389.6462751 C-136.48184231 386.72698668 -136.48569202 383.80773387 -136.48950195 380.88842773 C-136.49576721 378.7973367 -136.50241407 376.70624678 -136.50941467 374.61515808 C-136.53045277 367.74214452 -136.54081789 360.86913074 -136.55078125 353.99609375 C-136.55482912 351.62885082 -136.55894605 349.261608 -136.56313133 346.89436531 C-136.58218366 335.7708703 -136.59641374 324.64738193 -136.6047433 313.52387375 C-136.61451159 300.69134091 -136.64082044 287.85898075 -136.68124419 275.02650875 C-136.7114276 265.10361919 -136.72621436 255.18077907 -136.72952431 245.25784451 C-136.73187255 239.33355076 -136.74080359 233.40944149 -136.76598549 227.48519707 C-136.78930948 221.90784828 -136.79348189 216.33080484 -136.78322411 210.75341988 C-136.78272967 208.71169136 -136.78902285 206.6699476 -136.80278015 204.62826538 C-136.90585687 188.4176024 -135.20388491 177.27591681 -123.69140625 165.09765625 C-115.09318114 156.99429301 -104.75679788 154.65749789 -93.35054016 154.68119812 C-91.99489253 154.67802455 -91.99489253 154.67802455 -90.61185807 154.67478687 C-87.58277927 154.66879436 -84.55374221 154.66978649 -81.5246582 154.6706543 C-79.35298085 154.66762228 -77.18130413 154.66410071 -75.0096283 154.66012573 C-70.33175397 154.65223923 -65.65388726 154.64709273 -60.97600746 154.64383507 C-53.57554926 154.63792217 -46.17513908 154.62137884 -38.77470398 154.60249329 C-36.24039558 154.59615594 -33.70608714 154.58983031 -31.17177868 154.58351612 C-29.90259637 154.58035031 -28.63341407 154.5771845 -27.32577169 154.57392275 C-10.09747156 154.53185872 7.13078636 154.4988734 24.35913086 154.48657227 C35.98103028 154.47818892 47.60281076 154.45568806 59.22465068 154.4172166 C65.37299209 154.39746567 71.52115571 154.38504826 77.66953087 154.39005089 C83.45541203 154.39470126 89.24095636 154.38087013 95.02676964 154.35303879 C97.1463002 154.34613371 99.26586563 154.34599305 101.38539505 154.35323906 C115.49988664 154.39660624 126.8343804 153.89039677 137.6875 143.8125 C145.58684432 135.25487699 146.39966222 125.29836796 146.0234375 114.12890625 C145.45989022 104.85835362 141.60273029 98.68154787 135.26171875 92.015625 C127.45348168 85.33300633 118.62868085 83.66356012 108.64697266 83.6706543 C107.45306915 83.66544266 107.45306915 83.66544266 106.23504639 83.66012573 C104.51032835 83.65279008 102.78560101 83.64743306 101.06087112 83.64383507 C98.31747199 83.63662921 95.57424757 83.62092836 92.8309021 83.60249329 C85.03166221 83.55024418 77.23251628 83.5021581 69.43310547 83.48657227 C64.65495073 83.47640063 59.87723474 83.44684171 55.09925461 83.40525246 C53.29189777 83.39306149 51.48447861 83.38779905 49.67708206 83.39005089 C29.09739395 83.40936713 11.38795157 79.31829966 -3.6953125 64.453125 C-4.55898437 63.58171875 -5.42265625 62.7103125 -6.3125 61.8125 C-6.90804687 61.25046875 -7.50359375 60.6884375 -8.1171875 60.109375 C-18.85657899 49.07972969 -23.22817092 32.3017222 -23.75 17.4375 C-23.59825403 11.79760807 -23.0445063 7.20699262 -19.3125 2.8125 C-13.70689798 -2.27029976 -6.89018471 -2.47006622 0 0 Z M-104.3125 189.8125 C-106.57369001 194.37711504 -106.59873411 198.92497607 -106.57319641 203.92784119 C-106.57893473 205.12868696 -106.57893473 205.12868696 -106.58478898 206.35379225 C-106.59508061 209.02751422 -106.59113416 211.7010199 -106.5871582 214.37475586 C-106.59150678 216.29529519 -106.59669042 218.21583278 -106.60264587 220.1363678 C-106.61603091 225.3470797 -106.61661512 230.55771904 -106.61408257 235.76844478 C-106.6130126 240.11990173 -106.61789687 244.47134402 -106.622688 248.82279783 C-106.63378131 259.08882626 -106.63422146 269.35481809 -106.62817383 279.62084961 C-106.62213228 290.20910135 -106.6344501 300.79722027 -106.6557439 311.38544935 C-106.67335974 320.47945596 -106.67936131 329.57342029 -106.67610615 338.66744334 C-106.67429325 344.09745906 -106.67693036 349.52738002 -106.69082069 354.95738029 C-106.7033942 360.06359816 -106.70145937 365.16960891 -106.68840981 370.27582359 C-106.6860435 372.14829325 -106.68878063 374.02077747 -106.69703293 375.89323044 C-106.70749749 378.45245207 -106.69940225 381.01097835 -106.6867218 383.57017517 C-106.69409609 384.30831843 -106.70147037 385.04646169 -106.70906812 385.80697292 C-106.65042982 391.44564419 -105.74400659 396.34854552 -101.6600492 400.48700237 C-98.47067926 402.28781757 -95.58996835 402.2277503 -92.02510166 402.19281673 C-91.28585334 402.19747665 -90.54660502 402.20213657 -89.78495523 402.2069377 C-87.29408565 402.21894131 -84.80375614 402.20947186 -82.31288147 402.20018005 C-80.51457636 402.20435063 -78.71627388 402.20982662 -76.91797632 402.21649987 C-71.96552851 402.23100946 -67.01324632 402.2266926 -62.06078923 402.21933305 C-56.72395631 402.21461728 -51.38716005 402.22709709 -46.05033875 402.23735046 C-35.59094213 402.25457504 -25.13160549 402.25537091 -14.67219836 402.25013756 C-6.17356892 402.24610147 2.32504275 402.24753273 10.82367134 402.25288582 C12.03174327 402.25363424 13.23981519 402.25438266 14.48449536 402.25515376 C16.93843257 402.25668519 19.39236978 402.25822354 21.84630699 402.25976873 C44.8756509 402.27350697 67.90496086 402.26804675 90.93430401 402.25658352 C112.01804841 402.24664941 133.10170508 402.25959256 154.18543594 402.28351771 C175.81742325 402.30788068 197.44936965 402.31752351 219.08137041 402.31086498 C231.23283569 402.30736657 243.38423346 402.3096458 255.5356884 402.32711601 C265.87985635 402.34180297 276.22390927 402.34251945 286.56807487 402.3250451 C291.84866401 402.31650382 297.12904734 402.31446156 302.40962601 402.32969666 C307.24008407 402.3434609 312.07015843 402.3388878 316.90059382 402.31945742 C318.6515599 402.31567157 320.40255612 402.31869308 322.15349554 402.32906907 C324.52755143 402.34214134 326.90026366 402.33074451 329.27426052 402.31307125 C329.95947668 402.32272176 330.64469283 402.33237227 331.35067311 402.34231523 C336.03775971 402.27031079 338.40638613 401.12840273 341.6875 397.8125 C343.86777503 393.19900729 343.9738052 388.71395143 343.94819641 383.69715881 C343.95202196 382.89659496 343.95584751 382.09603111 343.95978898 381.27120775 C343.97008061 378.59748578 343.96613416 375.9239801 343.9621582 373.25024414 C343.96650678 371.32970481 343.97169042 369.40916722 343.97764587 367.4886322 C343.99103091 362.2779203 343.99161512 357.06728096 343.98908257 351.85655522 C343.9880126 347.50509827 343.99289687 343.15365598 343.997688 338.80220217 C344.00878131 328.53617374 344.00922146 318.27018191 344.00317383 308.00415039 C343.99713228 297.41589865 344.0094501 286.82777973 344.0307439 276.23955065 C344.04835974 267.14554404 344.05436131 258.05157971 344.05110615 248.95755666 C344.04929325 243.52754094 344.05193036 238.09761998 344.06582069 232.66761971 C344.0783942 227.56140184 344.07645937 222.45539109 344.06340981 217.34917641 C344.0610435 215.47670675 344.06378063 213.60422253 344.07203293 211.73176956 C344.08249749 209.17254793 344.07440225 206.61402165 344.0617218 204.05482483 C344.06909609 203.31668157 344.07647037 202.57853831 344.08406812 201.81802708 C344.03058078 196.67467335 343.18150237 193.23472954 340.6875 188.8125 C336.60984554 185.63783788 333.39919796 185.43617061 328.31108189 185.43218327 C327.20599315 185.42519339 327.20599315 185.42519339 326.0785794 185.4180623 C323.60230062 185.40608212 321.12656747 185.41551917 318.65028381 185.42481995 C316.86007793 185.42064835 315.06987469 185.41517179 313.27967638 185.40850013 C308.35422132 185.39400398 303.42893299 185.39830325 298.50346863 185.40566695 C293.1939009 185.41038601 287.8843699 185.39789998 282.57481384 185.38764954 C272.17069829 185.37043151 261.76664305 185.36962773 251.36251695 185.37486244 C242.90825638 185.37889971 234.45401367 185.37746586 225.99975395 185.37211418 C224.79765696 185.37136576 223.59555997 185.37061734 222.3570358 185.36984624 C219.91517985 185.3683148 217.47332391 185.36677645 215.03146797 185.36523127 C192.11940496 185.35149541 169.20737607 185.35695159 146.29531383 185.36841648 C125.32223934 185.37835049 104.34925305 185.36540719 83.37619216 185.34148229 C61.85377952 185.31711522 40.331408 185.3074775 18.80898184 185.31413502 C6.72065665 185.3176325 -5.36760067 185.31536032 -17.45591545 185.29788399 C-27.746232 185.28319193 -38.03643291 185.2824873 -48.32674711 185.2999549 C-53.57911375 185.3084919 -58.83127354 185.31054873 -64.08362961 185.29530334 C-68.88942838 185.28152656 -73.69484174 185.28612864 -78.50061781 185.30554258 C-80.24147764 185.30932452 -81.98236784 185.30631793 -83.72320079 185.29593093 C-86.0860151 185.2828325 -88.44748504 185.29427907 -90.81024075 185.31192875 C-92.7803412 185.31208975 -92.7803412 185.31208975 -94.79024166 185.31225401 C-98.93260349 185.90056971 -101.0950677 187.18036011 -104.3125 189.8125 Z " fill="#000000" transform="translate(137.3125,40.1875)"/>
<path d="M0 0 C0.88954758 -0.00226556 1.77909516 -0.00453111 2.69559872 -0.00686532 C5.67640234 -0.01319557 8.65716037 -0.01237658 11.63796997 -0.0115509 C13.77510639 -0.01454299 15.91224227 -0.01794563 18.04937744 -0.02172852 C23.85515422 -0.03056736 29.66091627 -0.03290657 35.46669912 -0.0335443 C40.31268187 -0.03449368 45.15866118 -0.03817228 50.00464261 -0.0417164 C61.43710766 -0.04986041 72.86956485 -0.05230067 84.30203247 -0.05158997 C96.09730973 -0.05098907 107.89254127 -0.06154339 119.68780696 -0.07733363 C129.81362558 -0.09040622 139.93942925 -0.09577398 150.06525624 -0.09513456 C156.11342483 -0.0948795 162.16155279 -0.09773495 168.20971298 -0.10831261 C173.89780313 -0.1179889 179.58581377 -0.11807594 185.27390671 -0.11079597 C187.36084611 -0.10974958 189.44779045 -0.11211628 191.53472137 -0.11815643 C194.38505762 -0.12587141 197.23511891 -0.12123473 200.08544922 -0.11352539 C201.32208858 -0.12124074 201.32208858 -0.12124074 202.58371055 -0.12911195 C208.77165653 -0.0921659 214.13560541 0.37082364 218.98220825 4.57121277 C223.22712352 9.54382779 223.77091192 12.63203065 223.69314575 19.03996277 C222.84963996 24.0254597 220.08476128 27.07376768 216.16970825 30.13371277 C212.20016913 31.45689248 208.40129931 31.27828976 204.26275635 31.27415466 C203.34083807 31.27712579 202.41891979 31.28009691 201.46906459 31.28315806 C198.36682865 31.29185894 195.26463123 31.29335448 192.16238403 31.29484558 C189.9434806 31.29947272 187.72457797 31.30449724 185.50567627 31.30989075 C179.46852095 31.32302561 173.43137676 31.32946167 167.39420938 31.33390141 C163.62501659 31.33683 159.85582685 31.34093437 156.08663559 31.34540558 C145.65180942 31.35751502 135.21698506 31.36789721 124.78215218 31.37128067 C124.11433521 31.37150024 123.44651824 31.3717198 122.75846439 31.37194602 C122.08904774 31.3721643 121.41963109 31.37238258 120.72992909 31.37260747 C119.37342969 31.37305094 118.0169303 31.3734975 116.66043091 31.37394714 C115.65112459 31.37427929 115.65112459 31.37427929 114.62142824 31.37461814 C103.71593579 31.37856706 92.81051014 31.39602432 81.9050435 31.41930667 C70.7098926 31.44301469 59.51476607 31.45522421 48.31958759 31.45664859 C42.03333301 31.45769834 35.74717263 31.46364249 29.46094131 31.4814682 C23.54960819 31.49790458 17.63844053 31.50012595 11.72709274 31.49132919 C9.55545866 31.49055647 7.38381584 31.49493227 5.21220398 31.50478745 C2.25147951 31.5174376 -0.70865274 31.51166784 -3.66937256 31.50120544 C-4.53211631 31.50926185 -5.39486006 31.51731825 -6.28374755 31.52561879 C-12.65458668 31.4728336 -15.78874692 29.90305162 -20.64279175 25.69621277 C-23.68897664 21.84992235 -23.46319367 17.71188917 -23.25216675 12.98136902 C-22.50489533 7.93728693 -20.39750265 5.29907472 -16.39279175 2.32121277 C-11.05492895 -0.15243097 -5.76801945 -0.01077633 0 0 Z " fill="#000000" transform="translate(216.83029174804688,379.8662872314453)"/>
<path d="M0 0 C1.41194933 -0.00269785 2.82389684 -0.00658271 4.23583984 -0.01159668 C7.18800632 -0.01747811 10.13968708 -0.00897345 13.09179688 0.00976562 C16.86472235 0.03255538 20.63650954 0.01942486 24.40939331 -0.00452423 C27.3229216 -0.01901955 30.23618264 -0.01435937 33.14971924 -0.00401306 C34.54030494 -0.00135603 35.93091537 -0.00457936 37.32147217 -0.01393127 C50.74233362 -0.08439556 50.74233362 -0.08439556 55.625 4.53125 C59.05417072 8.23114473 59.92469749 11.1104849 60.125 16.03125 C59.91078227 20.96495215 59.17211702 23.89545505 55.625 27.53125 C48.51531939 32.1149363 42.27816007 32.10210626 33.96484375 32.02734375 C32.66100235 32.02879898 31.35716095 32.03025421 30.0138092 32.03175354 C27.26607834 32.03313115 24.51887352 32.02068665 21.77124023 31.99780273 C18.26539417 31.96939099 14.76041882 31.97217118 11.25450802 31.98489285 C7.88703027 31.99355411 4.51980686 31.97839195 1.15234375 31.96484375 C-0.09885757 31.96777939 -1.3500589 31.97071503 -2.63917542 31.97373962 C-8.95004532 31.90560743 -13.86428795 31.74187215 -19.375 28.53125 C-24.09864213 23.43468875 -24.73228376 20.08786992 -24.65234375 13.29296875 C-24.14647248 8.25563091 -21.66949941 5.75495648 -18.125 2.40429688 C-12.84051201 -0.99596138 -6.04524873 -0.04065612 0 0 Z " fill="#000000" transform="translate(380.375,256.46875)"/>
<path d="M0 0 C1.41194933 -0.00269785 2.82389684 -0.00658271 4.23583984 -0.01159668 C7.18800632 -0.01747811 10.13968708 -0.00897345 13.09179688 0.00976562 C16.86472235 0.03255538 20.63650954 0.01942486 24.40939331 -0.00452423 C27.3229216 -0.01901955 30.23618264 -0.01435937 33.14971924 -0.00401306 C34.54030494 -0.00135603 35.93091537 -0.00457936 37.32147217 -0.01393127 C50.74233362 -0.08439556 50.74233362 -0.08439556 55.625 4.53125 C59.05417072 8.23114473 59.92469749 11.1104849 60.125 16.03125 C59.91078227 20.96495215 59.17211702 23.89545505 55.625 27.53125 C48.51531939 32.1149363 42.27816007 32.10210626 33.96484375 32.02734375 C32.66100235 32.02879898 31.35716095 32.03025421 30.0138092 32.03175354 C27.26607834 32.03313115 24.51887352 32.02068665 21.77124023 31.99780273 C18.26539417 31.96939099 14.76041882 31.97217118 11.25450802 31.98489285 C7.88703027 31.99355411 4.51980686 31.97839195 1.15234375 31.96484375 C-0.09885757 31.96777939 -1.3500589 31.97071503 -2.63917542 31.97373962 C-8.95004532 31.90560743 -13.86428795 31.74187215 -19.375 28.53125 C-24.09864213 23.43468875 -24.73228376 20.08786992 -24.65234375 13.29296875 C-24.14647248 8.25563091 -21.66949941 5.75495648 -18.125 2.40429688 C-12.84051201 -0.99596138 -6.04524873 -0.04065612 0 0 Z " fill="#000000" transform="translate(238.375,256.46875)"/>
<path d="M0 0 C1.41194933 -0.00269785 2.82389684 -0.00658271 4.23583984 -0.01159668 C7.18800632 -0.01747811 10.13968708 -0.00897345 13.09179688 0.00976562 C16.86472235 0.03255538 20.63650954 0.01942486 24.40939331 -0.00452423 C27.3229216 -0.01901955 30.23618264 -0.01435937 33.14971924 -0.00401306 C34.54030494 -0.00135603 35.93091537 -0.00457936 37.32147217 -0.01393127 C50.74233362 -0.08439556 50.74233362 -0.08439556 55.625 4.53125 C59.05417072 8.23114473 59.92469749 11.1104849 60.125 16.03125 C59.91078227 20.96495215 59.17211702 23.89545505 55.625 27.53125 C48.51531939 32.1149363 42.27816007 32.10210626 33.96484375 32.02734375 C32.66100235 32.02879898 31.35716095 32.03025421 30.0138092 32.03175354 C27.26607834 32.03313115 24.51887352 32.02068665 21.77124023 31.99780273 C18.26539417 31.96939099 14.76041882 31.97217118 11.25450802 31.98489285 C7.88703027 31.99355411 4.51980686 31.97839195 1.15234375 31.96484375 C-0.09885757 31.96777939 -1.3500589 31.97071503 -2.63917542 31.97373962 C-8.95004532 31.90560743 -13.86428795 31.74187215 -19.375 28.53125 C-24.09864213 23.43468875 -24.73228376 20.08786992 -24.65234375 13.29296875 C-24.14647248 8.25563091 -21.66949941 5.75495648 -18.125 2.40429688 C-12.84051201 -0.99596138 -6.04524873 -0.04065612 0 0 Z " fill="#000000" transform="translate(96.375,256.46875)"/>
<path d="M0 0 C1.26496307 -0.00960754 2.52992615 -0.01921509 3.83322144 -0.02911377 C5.21579813 -0.03396169 6.59837693 -0.03824053 7.98095703 -0.04199219 C9.39958701 -0.04774609 10.81821697 -0.0535038 12.23684692 -0.05926514 C15.21096152 -0.06976608 18.18504916 -0.07561471 21.15917969 -0.07910156 C24.96456243 -0.08458541 28.7695872 -0.10861451 32.57485771 -0.13707352 C35.50543246 -0.15572433 38.43592137 -0.16090678 41.36655045 -0.16243744 C42.76914553 -0.16545884 44.1717393 -0.17347011 45.57427597 -0.18662262 C47.53902828 -0.20373273 49.50392866 -0.19995088 51.46875 -0.1953125 C52.58555145 -0.19895813 53.70235291 -0.20260376 54.85299683 -0.20635986 C59.89761721 0.40938275 63.75872165 3.17742521 66.91064453 7.15722656 C69.00873393 11.56837354 68.56358231 16.43739655 67.86376953 21.16113281 C65.71389726 25.69975206 63.38473941 28.01367212 58.86376953 30.16113281 C55.60553473 31.18115379 52.60183254 31.29902278 49.1965332 31.32226562 C48.05822556 31.33187317 46.91991791 31.34148071 45.74711609 31.35137939 C44.52104141 31.35562927 43.29496674 31.35987915 42.03173828 31.36425781 C40.13407463 31.37280792 40.13407463 31.37280792 38.19807434 31.38153076 C35.52076625 31.39097748 32.84357016 31.39787605 30.16625977 31.40136719 C26.75007254 31.40684428 23.3342854 31.4308637 19.91822338 31.45933914 C16.64359237 31.48254118 13.36893996 31.48442014 10.09423828 31.48925781 C8.26423531 31.50777802 8.26423531 31.50777802 6.39726257 31.52667236 C-1.58346518 31.50580488 -6.87733507 31.06580045 -13.01123047 25.59863281 C-16.72412137 21.33972854 -16.64448176 17.82174127 -16.62451172 12.29003906 C-15.84064583 7.26702644 -13.06842124 4.23447249 -9.13623047 1.16113281 C-5.86709903 0.07142233 -3.44139395 0.02107033 0 0 Z " fill="#000000" transform="translate(372.13623046875,318.8388671875)"/>
<path d="M0 0 C1.26496307 -0.00960754 2.52992615 -0.01921509 3.83322144 -0.02911377 C5.21579813 -0.03396169 6.59837693 -0.03824053 7.98095703 -0.04199219 C9.39958701 -0.04774609 10.81821697 -0.0535038 12.23684692 -0.05926514 C15.21096152 -0.06976608 18.18504916 -0.07561471 21.15917969 -0.07910156 C24.96456243 -0.08458541 28.7695872 -0.10861451 32.57485771 -0.13707352 C35.50543246 -0.15572433 38.43592137 -0.16090678 41.36655045 -0.16243744 C42.76914553 -0.16545884 44.1717393 -0.17347011 45.57427597 -0.18662262 C47.53902828 -0.20373273 49.50392866 -0.19995088 51.46875 -0.1953125 C52.58555145 -0.19895813 53.70235291 -0.20260376 54.85299683 -0.20635986 C59.89761721 0.40938275 63.75872165 3.17742521 66.91064453 7.15722656 C69.00873393 11.56837354 68.56358231 16.43739655 67.86376953 21.16113281 C65.71389726 25.69975206 63.38473941 28.01367212 58.86376953 30.16113281 C55.60553473 31.18115379 52.60183254 31.29902278 49.1965332 31.32226562 C48.05822556 31.33187317 46.91991791 31.34148071 45.74711609 31.35137939 C44.52104141 31.35562927 43.29496674 31.35987915 42.03173828 31.36425781 C40.13407463 31.37280792 40.13407463 31.37280792 38.19807434 31.38153076 C35.52076625 31.39097748 32.84357016 31.39787605 30.16625977 31.40136719 C26.75007254 31.40684428 23.3342854 31.4308637 19.91822338 31.45933914 C16.64359237 31.48254118 13.36893996 31.48442014 10.09423828 31.48925781 C8.26423531 31.50777802 8.26423531 31.50777802 6.39726257 31.52667236 C-1.58346518 31.50580488 -6.87733507 31.06580045 -13.01123047 25.59863281 C-16.72412137 21.33972854 -16.64448176 17.82174127 -16.62451172 12.29003906 C-15.84064583 7.26702644 -13.06842124 4.23447249 -9.13623047 1.16113281 C-5.86709903 0.07142233 -3.44139395 0.02107033 0 0 Z " fill="#000000" transform="translate(230.13623046875,318.8388671875)"/>
<path d="M0 0 C1.26496307 -0.00960754 2.52992615 -0.01921509 3.83322144 -0.02911377 C5.21579813 -0.03396169 6.59837693 -0.03824053 7.98095703 -0.04199219 C9.39958701 -0.04774609 10.81821697 -0.0535038 12.23684692 -0.05926514 C15.21096152 -0.06976608 18.18504916 -0.07561471 21.15917969 -0.07910156 C24.96456243 -0.08458541 28.7695872 -0.10861451 32.57485771 -0.13707352 C35.50543246 -0.15572433 38.43592137 -0.16090678 41.36655045 -0.16243744 C42.76914553 -0.16545884 44.1717393 -0.17347011 45.57427597 -0.18662262 C47.53902828 -0.20373273 49.50392866 -0.19995088 51.46875 -0.1953125 C52.58555145 -0.19895813 53.70235291 -0.20260376 54.85299683 -0.20635986 C59.89761721 0.40938275 63.75872165 3.17742521 66.91064453 7.15722656 C69.00873393 11.56837354 68.56358231 16.43739655 67.86376953 21.16113281 C65.71389726 25.69975206 63.38473941 28.01367212 58.86376953 30.16113281 C55.60553473 31.18115379 52.60183254 31.29902278 49.1965332 31.32226562 C48.05822556 31.33187317 46.91991791 31.34148071 45.74711609 31.35137939 C44.52104141 31.35562927 43.29496674 31.35987915 42.03173828 31.36425781 C40.13407463 31.37280792 40.13407463 31.37280792 38.19807434 31.38153076 C35.52076625 31.39097748 32.84357016 31.39787605 30.16625977 31.40136719 C26.75007254 31.40684428 23.3342854 31.4308637 19.91822338 31.45933914 C16.64359237 31.48254118 13.36893996 31.48442014 10.09423828 31.48925781 C8.26423531 31.50777802 8.26423531 31.50777802 6.39726257 31.52667236 C-1.58346518 31.50580488 -6.87733507 31.06580045 -13.01123047 25.59863281 C-16.72412137 21.33972854 -16.64448176 17.82174127 -16.62451172 12.29003906 C-15.84064583 7.26702644 -13.06842124 4.23447249 -9.13623047 1.16113281 C-5.86709903 0.07142233 -3.44139395 0.02107033 0 0 Z " fill="#000000" transform="translate(88.13623046875,318.8388671875)"/>
<path d="M0 0 C1.09819061 -0.00637985 2.19638123 -0.0127597 3.32785034 -0.01933289 C4.50501617 -0.02044571 5.68218201 -0.02155853 6.89501953 -0.02270508 C8.72397263 -0.02769768 8.72397263 -0.02769768 10.58987427 -0.03279114 C13.1670087 -0.03784976 15.74414967 -0.04019979 18.32128906 -0.04003906 C22.25613234 -0.04222428 26.19069463 -0.06038818 30.12548828 -0.0793457 C32.63199774 -0.08228012 35.13850853 -0.08426459 37.64501953 -0.08520508 C39.40469559 -0.09598335 39.40469559 -0.09598335 41.19992065 -0.10697937 C54.84795621 -0.06896204 54.84795621 -0.06896204 60.21533203 4.58276367 C64.46024729 9.55537869 65.0040357 12.64358155 64.92626953 19.05151367 C64.08276374 24.0370106 61.31788506 27.08531859 57.40283203 30.14526367 C54.13370059 31.23497415 51.70799552 31.28532615 48.26660156 31.30639648 C47.00163849 31.31600403 45.73667542 31.32561157 44.43338013 31.33551025 C43.05080343 31.34035817 41.66822464 31.34463702 40.28564453 31.34838867 C38.86701455 31.35414258 37.44838459 31.35990028 36.02975464 31.36566162 C33.05564004 31.37616256 30.0815524 31.3820112 27.10742188 31.38549805 C23.30203914 31.39098189 19.49701436 31.41501099 15.69174385 31.44347 C12.76116911 31.46212082 9.83068019 31.46730326 6.90005112 31.46883392 C5.49745603 31.47185532 4.09486227 31.47986659 2.69232559 31.4930191 C0.72757328 31.51012921 -1.2373271 31.50634737 -3.20214844 31.50170898 C-4.87735062 31.50717743 -4.87735062 31.50717743 -6.58639526 31.51275635 C-11.63101565 30.89701374 -15.49212009 28.12897128 -18.64404297 24.14916992 C-20.74213237 19.73802294 -20.29698075 14.86899993 -19.59716797 10.14526367 C-17.45380316 5.6203824 -15.131351 3.24647044 -10.59716797 1.14526367 C-7.01743003 0.26960979 -3.67925983 0.01456923 0 0 Z " fill="#000000" transform="translate(91.59716796875,379.854736328125)"/>
</svg>
