<?xml version="1.0" encoding="UTF-8"?>
<svg version="1.1" xmlns="http://www.w3.org/2000/svg" width="512" height="512">
<path d="M0 0 C1.10163986 -0.00619858 2.20327972 -0.01239716 3.33830261 -0.01878357 C5.65171433 -0.02583575 7.96517729 -0.02278912 10.27856445 -0.01000977 C13.77457364 0.00383341 17.26788848 -0.03026288 20.76367188 -0.06835938 C36.32811258 -0.1242157 49.97849615 0.80602841 62.79296875 10.56640625 C63.44273682 11.03570557 64.09250488 11.50500488 64.76196289 11.98852539 C66.13861194 12.98563483 67.50928595 13.99104294 68.87402344 15.00439453 C71.0338484 16.60598935 73.21096643 18.18095134 75.39453125 19.75 C78.42744093 21.92993465 81.45431935 24.1178028 84.4765625 26.3125 C88.78528347 29.43439875 93.12734806 32.50684203 97.48046875 35.56640625 C103.34544135 39.69018323 109.1747248 43.85966225 114.98046875 48.06640625 C123.59573511 54.30683877 132.27798639 60.44841981 140.98046875 66.56640625 C173.8467965 89.67196845 173.8467965 89.67196845 183.3046875 97.23828125 C184.69589018 98.34086613 186.14470777 99.37028557 187.60546875 100.37890625 C211.19322655 122.10447265 207.80799642 164.78080999 209.16796875 194.25390625 C209.232155 195.61509583 209.232155 195.61509583 209.29763794 197.00378418 C213.26991197 282.98564706 205.79919393 387.67457985 146.98046875 455.56640625 C146.2740625 456.39527344 145.56765625 457.22414063 144.83984375 458.078125 C116.96982679 490.00834228 77.16466106 509.05760711 34.98046875 512.56640625 C28.991125 512.87838026 22.99930422 512.89668763 17.00317383 512.88208008 C14.31354773 512.87893035 11.62503737 512.9024429 8.93554688 512.92773438 C-7.12088757 512.98738625 -22.86839624 511.22612082 -38.33203125 506.75390625 C-39.25024658 506.49383789 -40.16846191 506.23376953 -41.11450195 505.96582031 C-60.6008538 500.30711616 -79.3389645 491.56505537 -95.01953125 478.56640625 C-95.81931396 477.91454346 -95.81931396 477.91454346 -96.63525391 477.24951172 C-151.09864871 432.82341599 -170.37306979 361.87133215 -178.26953125 294.69140625 C-178.39415741 293.63243134 -178.39415741 293.63243134 -178.52130127 292.55206299 C-180.12854019 278.729162 -181.09530516 264.91150582 -181.58203125 251.00390625 C-181.64680664 249.35938477 -181.64680664 249.35938477 -181.71289062 247.68164062 C-182.34592851 230.02691742 -182.0817424 212.39751213 -181.26953125 194.75390625 C-181.22729431 193.82472382 -181.18505737 192.89554138 -181.14154053 191.9382019 C-180.48184987 177.80255204 -179.49398504 163.71528932 -178.14453125 149.62890625 C-178.06948364 148.80377533 -177.99443604 147.97864441 -177.91711426 147.12850952 C-176.22507056 128.82874906 -172.09131026 110.62622209 -157.34765625 98.33984375 C-149.19267698 91.94974805 -140.69460162 86.02726714 -132.20458984 80.09423828 C-128.65777932 77.61424496 -125.1190334 75.12286206 -121.58203125 72.62890625 C-120.53450684 71.89051514 -120.53450684 71.89051514 -119.46582031 71.13720703 C-113.52823568 66.94332848 -107.63669336 62.68734082 -101.75024414 58.42211914 C-96.00379608 54.26346461 -90.2165044 50.16594767 -84.4140625 46.0859375 C-79.2538629 42.45185978 -74.13029562 38.76961945 -69.01953125 35.06640625 C-61.00322196 29.259275 -52.93316143 23.53230861 -44.83203125 17.84423828 C-43.23262486 16.71663954 -41.64107812 15.57791026 -40.05078125 14.4375 C-27.53620906 5.49576092 -15.64922115 -0.07547129 0 0 Z M-28.45141602 44.63818359 C-33.69292139 48.6276353 -39.05953978 52.38292952 -44.51953125 56.06640625 C-50.47259538 60.08852068 -56.30648548 64.20991231 -62.01953125 68.56640625 C-68.61706764 73.59612035 -75.39577901 78.31034078 -82.26293945 82.96362305 C-88.27719377 87.04141076 -94.18848193 91.22915383 -100.01953125 95.56640625 C-98.82006026 101.3168113 -97.37112977 106.90029725 -95.65917969 112.51806641 C-87.85330956 138.16776149 -81.98778478 164.69003547 -81.01953125 191.56640625 C-80.9922998 192.27345703 -80.96506836 192.98050781 -80.93701172 193.70898438 C-80.3059296 212.49062337 -83.2361382 230.68901931 -86.14453125 249.19140625 C-87.52291129 257.99843485 -88.79618119 266.64211457 -89.01953125 275.56640625 C-89.03999512 276.35901855 -89.06045898 277.15163086 -89.08154297 277.96826172 C-89.85144901 312.58858216 -85.11965394 348.86620205 -61.01953125 375.56640625 C-43.76519253 393.44169418 -18.78467254 401.26629994 5.6171875 401.8671875 C8.30203569 401.88633198 10.98343743 401.89307979 13.66796875 401.87890625 C14.3681311 401.87741577 15.06829346 401.87592529 15.78967285 401.87438965 C42.82992288 401.77109432 68.65612277 395.49258967 88.47314453 376.11328125 C108.07557825 355.99649796 116.28221619 325.01076775 116.98046875 297.56640625 C117.00093262 296.798125 117.02139648 296.02984375 117.04248047 295.23828125 C117.52249643 274.29213026 115.26308677 254.04995534 111.74536133 233.43774414 C105.77034405 198.26965798 110.37846477 163.37397765 118.91796875 129.00390625 C119.0810553 128.34312073 119.24414185 127.68233521 119.41217041 127.00152588 C121.55688903 118.37397501 124.08854215 109.97960857 127.02954102 101.59790039 C128.13012027 98.61885057 128.13012027 98.61885057 127.98046875 95.56640625 C125.56315807 93.63867748 123.16714483 91.908843 120.60546875 90.19140625 C119.0343923 89.11178795 117.46410469 88.031021 115.89453125 86.94921875 C115.08016602 86.39137695 114.26580078 85.83353516 113.42675781 85.25878906 C109.56718183 82.58867123 105.77521357 79.82750479 101.98046875 77.06640625 C96.17571935 72.85830704 90.34532612 68.69030411 84.48046875 64.56640625 C78.61558194 60.44248769 72.78660656 56.27261941 66.98046875 52.06640625 C63.98166462 49.89808039 60.98147211 47.73168716 57.98046875 45.56640625 C57.19978027 45.00260254 56.4190918 44.43879883 55.61474609 43.85791016 C53.30325294 42.19243629 50.9864297 40.53466203 48.66796875 38.87890625 C47.61899414 38.1209375 47.61899414 38.1209375 46.54882812 37.34765625 C36.92451456 30.50411889 27.72147273 30.37969637 16.12939453 30.38110352 C14.11729702 30.37891909 12.10575079 30.36072236 10.09375 30.34179688 C-6.28896369 30.31729631 -15.73114964 34.91793731 -28.45141602 44.63818359 Z M-138.6171875 124.12109375 C-157.35278653 145.32039541 -150.40189623 197.57647283 -150.33203125 225.12890625 C-150.3298076 226.6833292 -150.32763115 228.23775221 -150.32550049 229.79217529 C-150.28306068 252.14732391 -150.09487321 274.38372094 -147.01953125 296.56640625 C-146.92007202 297.29146362 -146.82061279 298.016521 -146.71813965 298.7635498 C-139.83733567 348.33980874 -127.5471758 405.12647001 -89.66015625 440.8984375 C-88.01953125 442.56640625 -88.01953125 442.56640625 -86.2109375 444.9375 C-70.46021239 463.8327549 -42.60322925 475.28842127 -19.01953125 479.56640625 C-18.05208984 479.74228271 -17.08464844 479.91815918 -16.08789062 480.09936523 C-6.93508333 481.58928009 2.02600854 481.90705452 11.28320312 481.88208008 C13.7140021 481.87892761 16.14356955 481.90245602 18.57421875 481.92773438 C54.95000607 482.07282338 88.30630352 469.27158714 114.98046875 444.56640625 C117.45795457 442.00207129 119.72226638 439.32257119 121.98046875 436.56640625 C122.50382812 436.0146875 123.0271875 435.46296875 123.56640625 434.89453125 C159.32748588 396.95085051 171.03395962 336.5764519 175.98046875 286.56640625 C176.07811523 285.58075684 176.17576172 284.59510742 176.27636719 283.57958984 C180.44735136 239.96682432 179.42972788 196.11353781 174.98046875 152.56640625 C174.90432343 151.81082428 174.8281781 151.05524231 174.74972534 150.27676392 C174.51311542 147.96985479 174.2645329 145.6645598 174.01171875 143.359375 C173.93969742 142.66016937 173.86767609 141.96096375 173.79347229 141.24057007 C172.66895299 131.39344021 168.65823137 125.51490653 161.26171875 119.16015625 C158.90576382 117.51421513 156.65460389 116.58776192 153.98046875 115.56640625 C146.57290355 140.82612076 140.43781212 166.17413856 138.98046875 192.56640625 C138.94050781 193.28908691 138.90054687 194.01176758 138.859375 194.75634766 C138.20968703 208.79935314 140.45606056 222.53544386 142.77734375 236.34765625 C151.01270848 285.47353297 150.37106944 341.66113455 121.16796875 384.20703125 C119.51037139 386.40181294 117.78306655 388.48950008 115.98046875 390.56640625 C115.305 391.37335938 114.62953125 392.1803125 113.93359375 393.01171875 C105.91629093 402.3083784 96.77122517 409.72725234 85.98046875 415.56640625 C84.93246094 416.14261719 83.88445312 416.71882813 82.8046875 417.3125 C48.0555077 435.6118982 1.90312907 436.67823713 -35.25512695 425.54589844 C-65.43898914 415.82197604 -88.52972824 395.69946128 -103.01953125 367.56640625 C-111.73094053 349.74216152 -115.8240625 330.14194033 -118.01953125 310.56640625 C-118.21675781 309.01179688 -118.21675781 309.01179688 -118.41796875 307.42578125 C-121.38767852 279.97603145 -117.80002232 251.70187464 -112.88671875 224.703125 C-106.43449837 188.26524002 -115.40298099 150.35254964 -126.01953125 115.56640625 C-130.67223932 115.56640625 -135.4144299 121.00447389 -138.6171875 124.12109375 Z " fill="#000000" transform="translate(242.01953125,-0.56640625)"/>
<path d="M0 0 C4.60945611 2.18342658 6.74742183 4.48984714 9 9 C9.36076355 11.91706848 9.36076355 11.91706848 9.34057617 15.16723633 C9.34023628 16.99856865 9.34023628 16.99856865 9.33988953 18.86689758 C9.32440567 20.17539169 9.30892181 21.4838858 9.29296875 22.83203125 C9.28736884 24.19251537 9.2831006 25.55300557 9.28010559 26.91349792 C9.26868776 30.48270567 9.23924765 34.05154329 9.20599365 37.62060547 C9.17522626 41.26720168 9.16158606 44.91385809 9.14648438 48.56054688 C9.11437449 55.70718205 9.06321571 62.85356677 9 70 C9.75345703 69.98042236 10.50691406 69.96084473 11.28320312 69.94067383 C12.27255859 69.92544678 13.26191406 69.91021973 14.28125 69.89453125 C15.26158203 69.87495361 16.24191406 69.85537598 17.25195312 69.83520508 C21.1545108 70.06923372 23.16086307 71.37379834 26 74 C29.01681826 78.07284154 29.38234614 81.06040225 29.40405273 86.08178711 C29.41091599 86.77513657 29.41777924 87.46848602 29.42485046 88.18284607 C29.44308446 90.46455628 29.43928604 92.74557663 29.43359375 95.02734375 C29.43815731 96.62008385 29.44346341 98.21282197 29.44947815 99.80555725 C29.45840262 103.14022837 29.45599393 106.47465992 29.44604492 109.80932617 C29.43455775 114.0743197 29.45476552 118.33848497 29.48396206 122.60336971 C29.50234382 125.89174111 29.50202769 129.17991476 29.49632454 132.46832466 C29.49617156 134.04034143 29.50219697 135.6123718 29.51461601 137.18433952 C29.52956205 139.38635476 29.51882476 141.58684939 29.50170898 143.78881836 C29.50154282 145.03948593 29.50137665 146.2901535 29.50120544 147.57872009 C28.78316127 152.4801635 26.56252651 155.57952135 22.9375 158.875 C19.77211429 160.08727538 17.68111009 160.11481262 14.31640625 160.0703125 C13.3219751 160.06016113 12.32754395 160.05000977 11.30297852 160.03955078 C10.54299561 160.02649902 9.7830127 160.01344727 9 160 C9.00888245 160.75088898 9.01776489 161.50177795 9.0269165 162.27542114 C9.10720729 169.36667919 9.16803761 176.45777865 9.20724869 183.54936409 C9.22808571 187.1948912 9.25633084 190.84004136 9.30175781 194.48535156 C9.34535643 198.00614987 9.36916631 201.52658661 9.37950897 205.04763412 C9.39045006 207.03847947 9.42165399 209.02918022 9.45318604 211.01980591 C9.45597541 222.29103621 9.45597541 222.29103621 5 227 C-0.22259857 231.05630398 -5.65340142 230.77397544 -12 230 C-16.60945611 227.81657342 -18.74742183 225.51015286 -21 221 C-21.36076355 218.08293152 -21.36076355 218.08293152 -21.34057617 214.83276367 C-21.34034958 213.61187546 -21.34012299 212.39098724 -21.33988953 211.13310242 C-21.32440567 209.82460831 -21.30892181 208.5161142 -21.29296875 207.16796875 C-21.28736884 205.80748463 -21.2831006 204.44699443 -21.28010559 203.08650208 C-21.26868776 199.51729433 -21.23924765 195.94845671 -21.20599365 192.37939453 C-21.17522626 188.73279832 -21.16158606 185.08614191 -21.14648438 181.43945312 C-21.11437449 174.29281795 -21.06321571 167.14643323 -21 160 C-21.75345703 160.01957764 -22.50691406 160.03915527 -23.28320312 160.05932617 C-24.27255859 160.07455322 -25.26191406 160.08978027 -26.28125 160.10546875 C-27.26158203 160.12504639 -28.24191406 160.14462402 -29.25195312 160.16479492 C-33.1545108 159.93076628 -35.16086307 158.62620166 -38 156 C-41.01681826 151.92715846 -41.38234614 148.93959775 -41.40405273 143.91821289 C-41.41091599 143.22486343 -41.41777924 142.53151398 -41.42485046 141.81715393 C-41.44308446 139.53544372 -41.43928604 137.25442337 -41.43359375 134.97265625 C-41.43815731 133.37991615 -41.44346341 131.78717803 -41.44947815 130.19444275 C-41.45840262 126.85977163 -41.45599393 123.52534008 -41.44604492 120.19067383 C-41.43455775 115.9256803 -41.45476552 111.66151503 -41.48396206 107.39663029 C-41.50234382 104.10825889 -41.50202769 100.82008524 -41.49632454 97.53167534 C-41.49617156 95.95965857 -41.50219697 94.3876282 -41.51461601 92.81566048 C-41.52956205 90.61364524 -41.51882476 88.41315061 -41.50170898 86.21118164 C-41.50154282 84.96051407 -41.50137665 83.7098465 -41.50120544 82.42127991 C-40.78316127 77.5198365 -38.56252651 74.42047865 -34.9375 71.125 C-31.77211429 69.91272462 -29.68111009 69.88518738 -26.31640625 69.9296875 C-25.3219751 69.93983887 -24.32754395 69.94999023 -23.30297852 69.96044922 C-22.54299561 69.97350098 -21.7830127 69.98655273 -21 70 C-21.00888245 69.24911102 -21.01776489 68.49822205 -21.0269165 67.72457886 C-21.10720729 60.63332081 -21.16803761 53.54222135 -21.20724869 46.45063591 C-21.22808571 42.8051088 -21.25633084 39.15995864 -21.30175781 35.51464844 C-21.34535643 31.99385013 -21.36916631 28.47341339 -21.37950897 24.95236588 C-21.39045006 22.96152053 -21.42165399 20.97081978 -21.45318604 18.98019409 C-21.45597541 7.70896379 -21.45597541 7.70896379 -17 3 C-11.77740143 -1.05630398 -6.34659858 -0.77397544 0 0 Z M-11 100 C-11 109.9 -11 119.8 -11 130 C-7.7 130 -4.4 130 -1 130 C-1 120.1 -1 110.2 -1 100 C-4.3 100 -7.6 100 -11 100 Z " fill="#000000" transform="translate(262,70)"/>
</svg>
