<?xml version="1.0" encoding="UTF-8"?>
<svg version="1.1" xmlns="http://www.w3.org/2000/svg" width="512" height="512">
<path d="M0 0 C95.04 0 190.08 0 288 0 C288 31.68 288 63.36 288 96 C294.6 96 301.2 96 308 96 C325.26334563 99.22077344 337.87622716 105.60439369 350 118 C350.66644531 118.63421875 351.33289063 119.2684375 352.01953125 119.921875 C356.03094815 124.01478795 358.64496913 128.69516955 361.25 133.75 C361.57967773 134.38123779 361.90935547 135.01247559 362.24902344 135.6628418 C368.05761534 147.51337998 368.426042 159.26638267 368.34057617 172.16113281 C368.3397284 173.96583543 368.34020796 175.77053907 368.34190369 177.57524109 C368.34275922 182.44017011 368.32520546 187.30487412 368.30418181 192.16975117 C368.28534091 197.26661836 368.28365876 202.36349154 368.28010559 207.46038818 C368.27080681 217.09672263 368.24622253 226.73295413 368.21605712 236.36924338 C368.17615217 249.40160615 368.16004071 262.43399735 368.14255047 275.46640587 C368.11439976 295.97768091 368.05461578 316.4887388 368 337 C341.6 337 315.2 337 288 337 C288 352.84 288 368.68 288 385 C192.96 385 97.92 385 0 385 C0 369.16 0 353.32 0 337 C-26.4 337 -52.8 337 -80 337 C-80.16121214 291.71282388 -80.16121214 291.71282388 -80.1953125 272.68164062 C-80.21901296 259.56023885 -80.24681927 246.4389401 -80.30175781 233.31762695 C-80.34175661 223.75986988 -80.36746379 214.20219668 -80.37635398 204.64435822 C-80.38154671 199.58840135 -80.39366169 194.53268436 -80.42292023 189.47680473 C-80.45029587 184.70714127 -80.45840074 179.93781394 -80.45243073 175.16807938 C-80.45352114 173.42796177 -80.46134201 171.68783161 -80.4768219 169.94778252 C-80.6427822 150.31094216 -76.46108158 132.979461 -62.3671875 118.33984375 C-61.58601563 117.56769531 -60.80484375 116.79554688 -60 116 C-59.23945312 115.21753906 -58.47890625 114.43507813 -57.6953125 113.62890625 C-41.30942327 97.69967295 -22.27916384 96 0 96 C0 64.32 0 32.64 0 0 Z M32 33 C32 53.79 32 74.58 32 96 C105.92 96 179.84 96 256 96 C256 75.21 256 54.42 256 33 C182.08 33 108.16 33 32 33 Z M-41 144 C-48.1973807 154.92865438 -48.30019867 167.34218764 -48.22705078 180.03027344 C-48.22648508 181.39163199 -48.22680633 182.75299116 -48.22793579 184.11434937 C-48.22850409 187.77060193 -48.21683555 191.42672033 -48.20278788 195.08294201 C-48.19019234 198.91858915 -48.18910312 202.75424016 -48.18673706 206.58990479 C-48.18054801 213.83564137 -48.16417245 221.08131681 -48.14403808 228.32702661 C-48.12159842 236.58348741 -48.11066547 244.83995131 -48.10064721 253.09643507 C-48.07980361 270.06433137 -48.04316 287.03214356 -48 304 C-32.16 304 -16.32 304 0 304 C0 288.16 0 272.32 0 256 C95.04 256 190.08 256 288 256 C288 271.84 288 287.68 288 304 C303.84 304 319.68 304 336 304 C336.04524034 286.21428037 336.08204345 268.42861026 336.10362434 250.64284897 C336.11391344 242.38362307 336.12792825 234.1244356 336.15087891 225.86523438 C336.17088554 218.66202589 336.18373361 211.45884525 336.18817699 204.25560975 C336.19077211 200.44563741 336.19682181 196.63574471 336.21146011 192.82579803 C336.2251593 189.23073318 336.22919806 185.63577985 336.22621536 182.04069138 C336.22701737 180.11068032 336.23771384 178.18068106 336.24884033 176.2507019 C336.21590905 162.14489641 334.74192285 149.88402101 324.875 139.1875 C317.84852789 132.53765621 309.15148095 128.88354478 299.50974178 128.86577892 C298.3869079 128.86132108 297.26407402 128.85686324 296.10721487 128.85227031 C294.8734842 128.85245467 293.63975353 128.85263903 292.36863708 128.85282898 C291.05807675 128.84915229 289.74751641 128.8454756 288.39724213 128.8416875 C284.75620798 128.83167487 281.11519031 128.82795189 277.47414434 128.82529819 C273.54826176 128.82139291 269.6223922 128.81181468 265.69651794 128.80308533 C256.21343999 128.78332652 246.73036097 128.77325513 237.24726757 128.76435754 C232.7802472 128.7599734 228.31322801 128.75460689 223.84620857 128.74936867 C208.99435771 128.73235644 194.14250757 128.71786285 179.29064846 128.71061993 C175.43684831 128.70871007 171.58304817 128.70678973 167.72924805 128.70483398 C166.77141751 128.70435024 165.81358698 128.7038665 164.82673127 128.7033681 C149.31471634 128.69506996 133.80277859 128.66973666 118.29079735 128.63725331 C102.36083123 128.60416697 86.43090432 128.58616971 70.50090367 128.58297569 C61.55850601 128.58081197 52.61622087 128.57208371 43.67385674 128.54651451 C36.05713023 128.52478595 28.44054357 128.51676766 20.82378959 128.52648129 C16.93985364 128.53101986 13.05620609 128.52916591 9.17230988 128.50971985 C5.6108993 128.49204302 2.04998654 128.4931219 -1.51142966 128.50861714 C-3.39797937 128.51210177 -5.28453459 128.49600057 -7.17101103 128.47901267 C-20.83180455 128.58174076 -32.2237016 133.31670219 -41 144 Z M32 289 C32 309.79 32 330.58 32 352 C105.92 352 179.84 352 256 352 C256 331.21 256 310.42 256 289 C182.08 289 108.16 289 32 289 Z " fill="#000000" transform="translate(112,64)"/>
<path d="M0 0 C21.12 0 42.24 0 64 0 C64 10.56 64 21.12 64 32 C42.88 32 21.76 32 0 32 C0 21.44 0 10.88 0 0 Z " fill="#00B6FF" transform="translate(224,224)"/>
</svg>
