<?xml version="1.0" encoding="UTF-8"?>
<svg version="1.1" xmlns="http://www.w3.org/2000/svg" width="512" height="512">
<path d="M0 0 C6.56064007 7.01835915 8.48999287 14.43056831 8.6875 23.875 C10.09902344 23.82279297 10.09902344 23.82279297 11.5390625 23.76953125 C13.40691406 23.72892578 13.40691406 23.72892578 15.3125 23.6875 C16.54226563 23.65269531 17.77203125 23.61789063 19.0390625 23.58203125 C24.13395523 23.99115005 27.38516414 25.53648814 30.9375 29.1875 C33.93274927 33.7873471 34.93705553 38.11148059 34.94197559 43.55726433 C34.94780779 44.67199682 34.95363998 45.78672931 34.95964891 46.93524158 C34.95586958 48.14962913 34.95209026 49.36401668 34.94819641 50.61520386 C34.95393473 52.56228137 34.95393473 52.56228137 34.95978898 54.54869378 C34.97007115 58.1454237 34.96788661 61.74205398 34.96360838 65.33879209 C34.96114155 69.22027744 34.97015481 73.10173877 34.97764587 76.98321533 C34.9903962 84.58513159 34.99218614 92.18701253 34.98984561 99.78893767 C34.98806262 105.9681736 34.98981168 112.14739881 34.99407005 118.32663345 C34.99466524 119.2060756 34.99526043 120.08551776 34.99587366 120.99160967 C34.99708541 122.77820062 34.99829954 124.56479156 34.99951603 126.35138251 C35.01039291 143.10681656 35.00822841 159.86223048 35.00213119 176.61766566 C34.99696221 191.9440393 35.0082167 207.27034937 35.02722941 222.59671043 C35.0466043 238.33575775 35.0548644 254.07477499 35.05110615 269.81383431 C35.04919354 278.6493267 35.05168752 287.48476499 35.06582069 296.32024765 C35.07773104 303.84221442 35.0791433 311.3640938 35.06703053 318.88606177 C35.06113932 322.72300625 35.060049 326.55979085 35.07203293 330.3967247 C35.08487939 334.55821963 35.07443302 338.71933359 35.0617218 342.88082886 C35.06909609 344.09075497 35.07647037 345.30068107 35.08406812 346.54727161 C35.03618311 353.98894261 34.85843983 360.70406017 29.3125 366.25 C24.1369682 369.45390064 19.84013846 370.17304509 13.8112793 370.16552734 C13.03336029 370.17224457 12.25544128 370.17896179 11.45394897 370.18588257 C8.88980671 370.20483375 6.32592664 370.20878543 3.76171875 370.2109375 C1.97198887 370.21736793 0.18226004 370.22409648 -1.60746765 370.23110962 C-5.35739579 370.24307554 -9.10723186 370.2467912 -12.85717773 370.24560547 C-17.64877811 370.24540243 -22.43978436 370.27269143 -27.23124409 370.30714989 C-30.92800069 370.329452 -34.62461513 370.33344198 -38.32143211 370.33238602 C-40.08718092 370.33473749 -41.8529339 370.34353537 -43.6186161 370.35905075 C-46.09552513 370.37877634 -48.57116365 370.37284755 -51.0480957 370.36083984 C-51.76888809 370.37207886 -52.48968048 370.38331787 -53.23231506 370.39489746 C-58.49533661 370.33047282 -63.10468622 369.15890325 -67.3125 365.875 C-72.5911799 360.28736332 -71.87310516 354.177786 -71.82043457 346.81762695 C-71.82504545 345.472033 -71.83139964 344.12644408 -71.83934355 342.78086567 C-71.85603462 339.08895495 -71.84779178 335.39745807 -71.83539867 331.7055459 C-71.8263495 327.72183084 -71.84031723 323.738187 -71.85131836 319.75448608 C-71.86910962 311.9526716 -71.86526092 304.151011 -71.8536678 296.34919047 C-71.84463613 290.00879195 -71.84340832 283.66843656 -71.84776306 277.32803345 C-71.84837599 276.42581096 -71.84898893 275.52358847 -71.84962043 274.59402591 C-71.85089933 272.76120749 -71.85219618 270.92838908 -71.8535108 269.09557068 C-71.86491837 251.90715162 -71.85180011 234.71881787 -71.83030933 217.53041279 C-71.81243819 202.78032361 -71.81554224 188.03036035 -71.83398438 173.28027344 C-71.85538795 156.15357865 -71.86381972 139.02695864 -71.85153532 121.90025234 C-71.85026112 120.07415709 -71.84900363 118.24806183 -71.84776306 116.42196655 C-71.84714596 115.5234808 -71.84652886 114.62499506 -71.84589306 113.69928247 C-71.84243862 107.36612326 -71.84827052 101.03301148 -71.85768127 94.69985962 C-71.86889694 86.98237166 -71.86587035 79.26504645 -71.8445583 71.54757714 C-71.834042 67.60958285 -71.82993576 63.67185996 -71.84315491 59.73386765 C-71.85507292 56.12897911 -71.84852665 52.52461358 -71.8272447 48.91977251 C-71.82065887 46.99783136 -71.83372015 45.07585391 -71.84747362 43.15395069 C-71.78936475 36.78189453 -71.71141379 32.66028213 -67.3125 27.875 C-60.86185966 22.4277926 -53.29694823 23.50506417 -45.3125 23.875 C-45.35890625 23.25753906 -45.4053125 22.64007813 -45.453125 22.00390625 C-45.79223705 14.0468842 -44.13264577 8.32184483 -39.0625 2.125 C-26.52518033 -8.132807 -13.83078536 -8.87257929 0 0 Z M-28.125 14.625 C-29.85705172 17.48275862 -29.85705172 17.48275862 -29.3125 23.875 C-22.0525 23.875 -14.7925 23.875 -7.3125 23.875 C-7.64372421 16.64127165 -7.64372421 16.64127165 -11.5 12.375 C-14.016223 10.48654634 -15.27057921 9.88254574 -18.4375 9.3125 C-22.58339539 10.12365345 -25.10840516 11.71242567 -28.125 14.625 Z M-55.3125 39.875 C-55.3125 80.795 -55.3125 121.715 -55.3125 163.875 C-30.8925 163.875 -6.4725 163.875 18.6875 163.875 C18.6875 122.955 18.6875 82.035 18.6875 39.875 C-5.7325 39.875 -30.1525 39.875 -55.3125 39.875 Z M-55.3125 179.875 C-55.3125 237.295 -55.3125 294.715 -55.3125 353.875 C-30.8925 353.875 -6.4725 353.875 18.6875 353.875 C18.6875 296.455 18.6875 239.035 18.6875 179.875 C-5.7325 179.875 -30.1525 179.875 -55.3125 179.875 Z " fill="#000000" transform="translate(342.3125,74.125)"/>
<path d="M0 0 C5.87859395 3.87737048 9.43079295 8.9969778 11.0234375 15.8984375 C11.17393743 19.239536 11.14230964 22.5568096 11.0234375 25.8984375 C12.52583984 25.82882813 12.52583984 25.82882813 14.05859375 25.7578125 C27.59273375 25.31250989 27.59273375 25.31250989 33.0234375 29.8984375 C38.23117824 35.57037281 37.58455057 41.50723707 37.53137207 48.91111755 C37.53598299 50.25187404 37.5423372 51.59262547 37.55028105 52.93336636 C37.56697178 56.61194539 37.55872941 60.29010908 37.54633617 63.96868956 C37.53728678 67.93810879 37.55125491 71.90745654 37.56225586 75.87686157 C37.58004737 83.65093776 37.57619816 91.42485951 37.5646053 99.19894176 C37.55557308 105.51740191 37.55434606 111.83581877 37.55870056 118.15428352 C37.55931349 119.05344193 37.55992643 119.95260033 37.56055793 120.87900596 C37.56183683 122.70562165 37.56313368 124.53223733 37.5644483 126.35885299 C37.57585611 143.48959841 37.56273757 160.62025824 37.54124683 177.75098962 C37.52337871 192.4490262 37.5264772 207.14693641 37.54492188 221.8449707 C37.56633028 238.91271151 37.57475425 255.98037726 37.56247282 273.04812962 C37.56119862 274.86834497 37.55994114 276.68856034 37.55870056 278.50877571 C37.55808346 279.40435664 37.55746636 280.29993756 37.55683056 281.2226573 C37.55337734 287.53280445 37.55920546 293.84290398 37.56861877 300.15304375 C37.57983993 307.84415289 37.57679641 315.53509874 37.5554958 323.22618919 C37.54498643 327.1501308 37.54086141 331.07380022 37.55409241 334.99773979 C37.56602496 338.59096168 37.55944015 342.18365946 37.5381822 345.7768339 C37.5316081 347.69008273 37.54464473 349.60336802 37.55841112 351.51657861 C37.49766103 358.1695718 37.16862877 362.57223794 33.0234375 367.8984375 C28.28466414 371.8404289 22.76691536 372.48341025 16.80664062 372.41601562 C15.639105 372.42652954 15.639105 372.42652954 14.44798279 372.43725586 C11.89984428 372.45472188 9.35283539 372.44325452 6.8046875 372.4296875 C5.01924427 372.43238571 3.23380248 372.43627086 1.44836426 372.44128418 C-2.2837531 372.44716378 -6.01548611 372.43866615 -9.74755859 372.41992188 C-14.51559803 372.39713311 -19.28273666 372.41026449 -24.0507431 372.43421173 C-27.73466701 372.44871148 -31.41837968 372.44404465 -35.10231018 372.43370056 C-36.85966602 372.4310448 -38.61704145 372.43426226 -40.37437439 372.44361877 C-42.83668336 372.45385379 -45.29756233 372.43818831 -47.75976562 372.41601562 C-48.47584488 372.42411255 -49.19192413 372.43220947 -49.92970276 372.44055176 C-55.27518952 372.35201302 -59.53057735 370.90689817 -63.9765625 367.8984375 C-68.12344919 362.79457696 -69.09964487 358.89056315 -69.10799026 352.46226883 C-69.11183141 351.35151843 -69.11567255 350.24076804 -69.1196301 349.09635854 C-69.11876362 347.8761453 -69.11789713 346.65593207 -69.11700439 345.39874268 C-69.11997552 344.10239985 -69.12294664 342.80605703 -69.1260078 341.47043109 C-69.13407651 337.86920896 -69.1358673 334.26800676 -69.13660526 330.66677666 C-69.13845604 326.78389832 -69.1460035 322.90103032 -69.15274048 319.01815796 C-69.16632336 310.52639438 -69.17234844 302.03463553 -69.17675114 293.54286289 C-69.17951361 288.24076042 -69.18375097 282.93865977 -69.18825531 277.63655853 C-69.20044787 262.95712524 -69.21074724 248.27769341 -69.2141304 233.59825516 C-69.21434997 232.65870776 -69.21456953 231.71916036 -69.21479575 230.75114183 C-69.21501403 229.80934445 -69.21523231 228.86754706 -69.2154572 227.89721036 C-69.21590067 225.98876524 -69.21634723 224.08032012 -69.21679688 222.171875 C-69.2170183 221.22521999 -69.21723973 220.27856498 -69.21746787 219.30322346 C-69.22141595 203.96379305 -69.23887031 188.62441015 -69.2621564 173.28499809 C-69.28586985 157.53697812 -69.29833225 141.78898198 -69.29949832 126.04094386 C-69.30041508 117.19870972 -69.3061676 108.35653747 -69.32431793 99.51432037 C-69.33971882 91.98499153 -69.34483945 84.45574372 -69.33657983 76.92640212 C-69.33267329 73.08541677 -69.33360301 69.24459458 -69.34763718 65.4036293 C-69.36271954 61.23765732 -69.35450975 57.07205297 -69.34405518 52.90606689 C-69.35211158 51.69477655 -69.36016798 50.4834862 -69.36846852 49.23549008 C-69.2878717 35.5229265 -69.2878717 35.5229265 -64.56002927 30.34793019 C-59.70737899 26.09738916 -56.04952884 25.77850203 -49.7890625 25.8359375 C-48.51675781 25.84496094 -47.24445313 25.85398437 -45.93359375 25.86328125 C-44.46986328 25.88068359 -44.46986328 25.88068359 -42.9765625 25.8984375 C-42.95529297 24.88136719 -42.95529297 24.88136719 -42.93359375 23.84375 C-42.52427862 15.85657374 -40.92501687 8.89751308 -35.1484375 3.046875 C-24.51772209 -5.44932669 -11.9820919 -6.67776663 0 0 Z M-23.9765625 14.8984375 C-26.64738289 18.42018669 -26.64738289 18.42018669 -26.9765625 25.8984375 C-19.7165625 25.8984375 -12.4565625 25.8984375 -4.9765625 25.8984375 C-4.70455635 19.04192986 -4.70455635 19.04192986 -8.28515625 14.06640625 C-13.30250944 10.60176744 -19.40279205 11.01766257 -23.9765625 14.8984375 Z M-52.9765625 41.8984375 C-52.9765625 97.3384375 -52.9765625 152.7784375 -52.9765625 209.8984375 C-28.5565625 209.8984375 -4.1365625 209.8984375 21.0234375 209.8984375 C21.0234375 154.4584375 21.0234375 99.0184375 21.0234375 41.8984375 C-3.3965625 41.8984375 -27.8165625 41.8984375 -52.9765625 41.8984375 Z M-52.9765625 225.8984375 C-52.9765625 268.7984375 -52.9765625 311.6984375 -52.9765625 355.8984375 C-28.5565625 355.8984375 -4.1365625 355.8984375 21.0234375 355.8984375 C21.0234375 312.9984375 21.0234375 270.0984375 21.0234375 225.8984375 C-3.3965625 225.8984375 -27.8165625 225.8984375 -52.9765625 225.8984375 Z " fill="#000000" transform="translate(203.9765625,72.1015625)"/>
<path d="M0 0 C5.71794409 5.71794409 8.22743577 11.48969704 8.25 19.5 C8.21816134 21.04190094 8.17982724 22.58374525 8.125 24.125 C9.62740234 24.05539063 9.62740234 24.05539063 11.16015625 23.984375 C24.69429625 23.53907239 24.69429625 23.53907239 30.125 28.125 C35.3410711 33.80134919 34.68867015 39.76471886 34.6396637 47.17564392 C34.64499103 48.52052607 34.65205781 49.86540226 34.66071075 51.21026713 C34.67934059 54.90023796 34.67303215 58.58980754 34.66255772 62.27979505 C34.6555666 66.26149136 34.67156297 70.24310517 34.68455505 74.22477722 C34.70620191 82.02290932 34.7060664 89.82089554 34.69792951 97.61904781 C34.69163064 103.95705556 34.6927655 110.29502074 34.69920158 116.63302803 C34.70010324 117.53496179 34.70100489 118.43689556 34.70193387 119.36616065 C34.70378507 121.19841334 34.70564763 123.03066602 34.70752143 124.86291868 C34.72410234 142.04659502 34.71537828 159.23018927 34.69853585 176.41386069 C34.68383917 192.13541453 34.69846632 207.85677726 34.72730602 223.57830649 C34.7566974 239.72077826 34.76767302 255.86316181 34.75812382 272.00565916 C34.75710126 273.83149149 34.75610665 275.65732384 34.7551403 277.4831562 C34.75442572 278.83067376 34.75442572 278.83067376 34.7536967 280.20541389 C34.7515322 286.53511337 34.76133858 292.86472936 34.77591133 299.19441032 C34.79342548 306.9093318 34.79333061 314.62400962 34.77055968 322.33892148 C34.75940892 326.27507257 34.75627341 330.21079423 34.77486038 334.14692688 C34.79166192 337.75134619 34.78531978 341.35496142 34.76064359 344.9593286 C34.75344714 346.87855161 34.77079517 348.79781836 34.78905493 350.716968 C34.71154637 357.86645372 34.13286165 361.8757958 29.125 367.125 C24.15003415 370.00256534 19.66352875 370.56434285 14.02172852 370.52905273 C12.85441193 370.53934761 12.85441193 370.53934761 11.66351318 370.54985046 C9.11012133 370.56804009 6.55734852 370.56429233 4.00390625 370.55859375 C2.21703392 370.56315932 0.43016334 370.56846601 -1.35670471 370.57447815 C-5.0947281 370.58339385 -8.83253766 370.58100372 -12.57055664 370.57104492 C-17.34643948 370.5595571 -22.12158271 370.57977155 -26.89736843 370.60896206 C-30.58556255 370.62736141 -34.27358064 370.62702418 -37.96180916 370.62132454 C-39.72196554 370.62117178 -41.48213419 370.62717825 -43.24224663 370.63961601 C-45.70940624 370.6545955 -48.17521488 370.64379928 -50.64233398 370.62670898 C-51.35998428 370.63637695 -52.07763458 370.64604492 -52.81703186 370.65600586 C-58.06842593 370.58033055 -62.67573779 369.39898847 -66.875 366.125 C-71.58003214 360.83141436 -71.44472731 356.13658867 -71.3896637 349.40792847 C-71.39660922 348.32756636 -71.40355475 347.24720425 -71.41071075 346.13410389 C-71.42900915 342.5135091 -71.41870811 338.89356742 -71.40844727 335.27294922 C-71.41550413 332.67759714 -71.42424816 330.08224917 -71.43455505 327.48690796 C-71.45618503 321.16967598 -71.45607114 314.85262419 -71.44792951 308.53536735 C-71.44162838 303.40204081 -71.44276755 298.26876681 -71.44920158 293.13544083 C-71.45010324 292.40471329 -71.45100489 291.67398575 -71.45193387 290.92111496 C-71.45378507 289.43665907 -71.45564763 287.9522032 -71.45752143 286.46774735 C-71.47409558 272.55182594 -71.4653831 258.63600595 -71.44853585 244.72009064 C-71.43383035 231.98402854 -71.44847982 219.24820217 -71.47730602 206.51217042 C-71.50668315 193.43543189 -71.5176778 180.35880222 -71.50812382 167.28203213 C-71.50710125 165.80366399 -71.50610665 164.32529582 -71.5051403 162.84692764 C-71.50466391 162.11953531 -71.50418752 161.39214297 -71.5036967 160.64270844 C-71.50153081 155.51384781 -71.51134553 150.38509009 -71.52591133 145.25625229 C-71.54523313 138.35656348 -71.53838353 131.45732138 -71.51371193 124.55765152 C-71.50868544 122.02116366 -71.512241 119.48464261 -71.52486038 116.94818115 C-71.54068891 113.49430962 -71.52593476 110.04190521 -71.50318909 106.58810425 C-71.51502482 105.57663798 -71.52686054 104.56517172 -71.53905493 103.52305496 C-71.44844531 96.7840272 -71.44844531 96.7840272 -68.56230068 93.46714973 C-64.89308381 91.63459021 -62.77767076 92.04092479 -58.875 93.125 C-57.18534851 94.34675598 -57.18534851 94.34675598 -55.875 96.125 C-55.51423645 98.57377625 -55.51423645 98.57377625 -55.53442383 101.5144043 C-55.53496765 103.18883606 -55.53496765 103.18883606 -55.53552246 104.89709473 C-55.55087036 106.06929565 -55.56621826 107.24149658 -55.58203125 108.44921875 C-55.58656311 110.06648865 -55.58656311 110.06648865 -55.59118652 111.71643066 C-55.60689663 115.74855098 -55.64878053 119.78053499 -55.6875 123.8125 C-55.749375 132.825625 -55.81125 141.83875 -55.875 151.125 C-31.125 151.125 -6.375 151.125 19.125 151.125 C19.125 114.495 19.125 77.865 19.125 40.125 C-5.625 40.125 -30.375 40.125 -55.875 40.125 C-55.875 50.025 -55.875 59.925 -55.875 70.125 C-58.875 73.125 -58.875 73.125 -61.03125 73.5234375 C-61.8046875 73.51570313 -62.578125 73.50796875 -63.375 73.5 C-64.53515625 73.51160156 -64.53515625 73.51160156 -65.71875 73.5234375 C-68.54328287 73.00151295 -69.2109835 72.48228377 -70.875 70.125 C-71.18566182 67.39549337 -71.31923765 64.89870544 -71.30859375 62.16796875 C-71.3138356 61.38738602 -71.31907745 60.60680328 -71.32447815 59.80256653 C-71.33089965 58.15086047 -71.32955965 56.4991087 -71.32104492 54.84741211 C-71.31256465 52.33167949 -71.34124247 49.81824087 -71.37304688 47.30273438 C-71.37465988 45.69531318 -71.37407946 44.08788798 -71.37109375 42.48046875 C-71.38232773 41.73339157 -71.39356171 40.98631439 -71.40513611 40.21659851 C-71.33670039 35.03256536 -70.1368455 32.11904349 -66.875 28.125 C-60.42435966 22.6777926 -52.85944823 23.75506417 -44.875 24.125 C-44.92720703 23.18140625 -44.92720703 23.18140625 -44.98046875 22.21875 C-45.23546043 14.15615598 -44.02376613 7.69190244 -38.46484375 1.5078125 C-26.9477744 -8.50949106 -12.42385755 -8.10251579 0 0 Z M-27.875 15.125 C-28.535 18.095 -29.195 21.065 -29.875 24.125 C-22.285 24.125 -14.695 24.125 -6.875 24.125 C-8.00879419 15.61702847 -8.00879419 15.61702847 -11.5625 12.0625 C-18.23245718 8.16120429 -22.8555705 9.40518499 -27.875 15.125 Z M-55.875 167.125 C-55.875 228.835 -55.875 290.545 -55.875 354.125 C-31.125 354.125 -6.375 354.125 19.125 354.125 C19.125 292.415 19.125 230.705 19.125 167.125 C-5.625 167.125 -30.375 167.125 -55.875 167.125 Z " fill="#000000" transform="translate(70.875,73.875)"/>
<path d="M0 0 C5.71794409 5.71794409 8.22743577 11.48969704 8.25 19.5 C8.21816134 21.04190094 8.17982724 22.58374525 8.125 24.125 C9.62740234 24.05539063 9.62740234 24.05539063 11.16015625 23.984375 C24.69429625 23.53907239 24.69429625 23.53907239 30.125 28.125 C34.84002557 33.54359116 34.69210722 38.23922994 34.63293457 45.07658386 C34.63917453 46.18215285 34.6454145 47.28772184 34.65184355 48.42679292 C34.66780286 52.13264571 34.65515721 55.83784346 34.64257812 59.54370117 C34.64799784 62.19980287 34.65497478 64.85585937 34.66381836 67.51194763 C34.68159716 73.97724317 34.67776705 80.44235288 34.6661678 86.90765568 C34.65713354 92.16064921 34.65590942 97.41359067 34.66026306 102.66658974 C34.66087599 103.41425816 34.66148893 104.16192659 34.66212043 104.93225164 C34.66339933 106.45109525 34.66469618 107.96993886 34.6660108 109.48878244 C34.67741411 123.72705737 34.6643056 137.96522923 34.64280933 152.20348725 C34.62492755 164.42631843 34.62805178 176.64899771 34.64648438 188.87182617 C34.66787658 203.06386244 34.67632708 217.2558085 34.66403532 231.44785863 C34.6627611 232.96019159 34.66150362 234.47252457 34.66026306 235.98485756 C34.65964596 236.72897527 34.65902886 237.47309298 34.65839306 238.23975971 C34.65493601 243.48929588 34.66077588 248.73877491 34.67018127 253.98830223 C34.68138386 260.38141409 34.6783977 266.77432943 34.6570583 273.16741868 C34.64652576 276.43066584 34.64460631 279.69351617 34.65565491 282.95677185 C34.66651716 286.48963523 34.6529589 290.02156394 34.63293457 293.55436707 C34.64185746 294.59209186 34.65078034 295.62981666 34.65997362 296.69898766 C34.64432714 298.1131723 34.64432714 298.1131723 34.62836456 299.55592632 C34.62771515 300.37173064 34.62706574 301.18753496 34.62639666 302.02806062 C34.125 304.125 34.125 304.125 32.31228971 305.8871296 C29.11672256 307.69562253 26.73112474 307.51137051 23.125 307.125 C20.93463135 305.98429871 20.93463135 305.98429871 19.125 304.125 C18.64398193 301.37251282 18.64398193 301.37251282 18.67089844 298.0012207 C18.67138184 296.72251099 18.67186523 295.44380127 18.67236328 294.12634277 C18.69250539 292.76781433 18.7131717 291.40929355 18.734375 290.05078125 C18.73840332 288.81533569 18.74243164 287.57989014 18.74658203 286.30700684 C18.76753983 281.68368723 18.82338504 277.06057899 18.875 272.4375 C18.9575 262.104375 19.04 251.77125 19.125 241.125 C-5.625 241.125 -30.375 241.125 -55.875 241.125 C-55.875 278.415 -55.875 315.705 -55.875 354.125 C-31.125 354.125 -6.375 354.125 19.125 354.125 C19.125 346.535 19.125 338.945 19.125 331.125 C23.125 327.125 23.125 327.125 26.625 326.625 C30.74322988 327.21331855 31.63852171 327.87530219 34.125 331.125 C34.96454258 335.85448722 34.7273655 340.64191472 34.6875 345.4375 C34.72327148 347.39719727 34.72327148 347.39719727 34.75976562 349.39648438 C34.74223757 360.88904322 34.74223757 360.88904322 30.88256836 365.81713867 C25.63251362 369.72386784 20.42381027 370.5690985 14.02172852 370.52905273 C12.85441193 370.53934761 12.85441193 370.53934761 11.66351318 370.54985046 C9.11012133 370.56804009 6.55734852 370.56429233 4.00390625 370.55859375 C2.21703392 370.56315932 0.43016334 370.56846601 -1.35670471 370.57447815 C-5.0947281 370.58339385 -8.83253766 370.58100372 -12.57055664 370.57104492 C-17.34643948 370.5595571 -22.12158271 370.57977155 -26.89736843 370.60896206 C-30.58556255 370.62736141 -34.27358064 370.62702418 -37.96180916 370.62132454 C-39.72196554 370.62117178 -41.48213419 370.62717825 -43.24224663 370.63961601 C-45.70940624 370.6545955 -48.17521488 370.64379928 -50.64233398 370.62670898 C-51.35998428 370.63637695 -52.07763458 370.64604492 -52.81703186 370.65600586 C-58.06842593 370.58033055 -62.67573779 369.39898847 -66.875 366.125 C-72.15385496 360.53764129 -71.43560393 354.42761545 -71.38293457 347.06762695 C-71.38754545 345.722033 -71.39389964 344.37644408 -71.40184355 343.03086567 C-71.41853462 339.33895495 -71.41029178 335.64745807 -71.39789867 331.9555459 C-71.3888495 327.97183084 -71.40281723 323.988187 -71.41381836 320.00448608 C-71.43160962 312.2026716 -71.42776092 304.401011 -71.4161678 296.59919047 C-71.40713613 290.25879195 -71.40590832 283.91843656 -71.41026306 277.57803345 C-71.41087599 276.67581096 -71.41148893 275.77358847 -71.41212043 274.84402591 C-71.41339933 273.01120749 -71.41469618 271.17838908 -71.4160108 269.34557068 C-71.42741837 252.15715162 -71.41430011 234.96881787 -71.39280933 217.78041279 C-71.37493819 203.03032361 -71.37804224 188.28036035 -71.39648438 173.53027344 C-71.41788795 156.40357865 -71.42631972 139.27695864 -71.41403532 122.15025234 C-71.41276112 120.32415709 -71.41150363 118.49806183 -71.41026306 116.67196655 C-71.40964596 115.7734808 -71.40902886 114.87499506 -71.40839306 113.94928247 C-71.40493862 107.61612326 -71.41077052 101.28301148 -71.42018127 94.94985962 C-71.43139694 87.23237166 -71.42837035 79.51504645 -71.4070583 71.79757714 C-71.396542 67.85958285 -71.39243576 63.92185996 -71.40565491 59.98386765 C-71.41757292 56.37897911 -71.41102665 52.77461358 -71.3897447 49.16977251 C-71.38315887 47.24783136 -71.39622015 45.32585391 -71.40997362 43.40395069 C-71.35186475 37.03189453 -71.27391379 32.91028213 -66.875 28.125 C-60.42435966 22.6777926 -52.85944823 23.75506417 -44.875 24.125 C-44.92720703 23.18140625 -44.92720703 23.18140625 -44.98046875 22.21875 C-45.23546043 14.15615598 -44.02376613 7.69190244 -38.46484375 1.5078125 C-26.9477744 -8.50949106 -12.42385755 -8.10251579 0 0 Z M-27.875 15.125 C-28.535 18.095 -29.195 21.065 -29.875 24.125 C-22.285 24.125 -14.695 24.125 -6.875 24.125 C-8.00879419 15.61702847 -8.00879419 15.61702847 -11.5625 12.0625 C-18.23245718 8.16120429 -22.8555705 9.40518499 -27.875 15.125 Z M-55.875 40.125 C-55.875 101.175 -55.875 162.225 -55.875 225.125 C-31.125 225.125 -6.375 225.125 19.125 225.125 C19.125 164.075 19.125 103.025 19.125 40.125 C-5.625 40.125 -30.375 40.125 -55.875 40.125 Z " fill="#000000" transform="translate(477.875,73.875)"/>
</svg>
