<?xml version="1.0" encoding="UTF-8"?>
<svg version="1.1" xmlns="http://www.w3.org/2000/svg" width="512" height="512">
<path d="M0 0 C1.1882991 -0.01007584 1.1882991 -0.01007584 2.40060425 -0.02035522 C5.0225042 -0.03937104 7.64414864 -0.04326126 10.26611328 -0.04541016 C12.08830878 -0.05183582 13.91050323 -0.058564 15.73269653 -0.06558228 C19.5542439 -0.07756415 23.3757008 -0.08126219 27.19726562 -0.08007812 C32.09234588 -0.07987493 36.98684558 -0.10717305 41.88178825 -0.14162254 C45.64619608 -0.16386943 49.41046373 -0.16791634 53.17493057 -0.16685867 C54.9794426 -0.16921812 56.78395829 -0.178061 58.58840561 -0.19352341 C61.11403693 -0.21313816 63.63841057 -0.20736362 66.1640625 -0.1953125 C66.90813354 -0.20655151 67.65220459 -0.21779053 68.41882324 -0.22937012 C71.96551991 -0.18640517 74.04889822 0.18998447 77.08938599 2.07089233 C80.79141398 5.94318114 81.46244973 8.56321 81.43847656 13.88525391 C81.43823486 15.02172363 81.43799316 16.15819336 81.43774414 17.32910156 C81.42751221 18.51777832 81.41728027 19.70645508 81.40673828 20.93115234 C81.40472412 22.0279834 81.40270996 23.12481445 81.40063477 24.25488281 C81.3901747 28.35014023 81.36225212 32.44533801 81.33642578 36.54052734 C81.29517578 45.69802734 81.25392578 54.85552734 81.21142578 64.29052734 C99.69142578 64.29052734 118.17142578 64.29052734 137.21142578 64.29052734 C137.05330049 46.1308638 137.05330049 46.1308638 136.85107422 27.97167969 C136.83938842 25.68994902 136.82919634 23.40820999 136.82080078 21.12646484 C136.80033691 19.94802002 136.77987305 18.7695752 136.75878906 17.55541992 C136.7560801 11.18800913 136.77633674 7.05299203 141.21142578 2.29052734 C144.90540995 -0.17212877 147.72537395 -0.00517885 152 0 C153.1882991 -0.01007584 153.1882991 -0.01007584 154.40060425 -0.02035522 C157.0225042 -0.03937104 159.64414864 -0.04326126 162.26611328 -0.04541016 C164.08830878 -0.05183582 165.91050323 -0.058564 167.73269653 -0.06558228 C171.5542439 -0.07756415 175.3757008 -0.08126219 179.19726562 -0.08007812 C184.09234588 -0.07987493 188.98684558 -0.10717305 193.88178825 -0.14162254 C197.64619608 -0.16386943 201.41046373 -0.16791634 205.17493057 -0.16685867 C206.9794426 -0.16921812 208.78395829 -0.178061 210.58840561 -0.19352341 C213.11403693 -0.21313816 215.63841057 -0.20736362 218.1640625 -0.1953125 C219.28016907 -0.21217102 219.28016907 -0.21217102 220.41882324 -0.22937012 C223.96551991 -0.18640517 226.04889822 0.18998447 229.08938599 2.07089233 C232.79141398 5.94318114 233.46244973 8.56321 233.43847656 13.88525391 C233.43823486 15.02172363 233.43799316 16.15819336 233.43774414 17.32910156 C233.42751221 18.51777832 233.41728027 19.70645508 233.40673828 20.93115234 C233.40472412 22.0279834 233.40270996 23.12481445 233.40063477 24.25488281 C233.3901747 28.35014023 233.36225212 32.44533801 233.33642578 36.54052734 C233.29517578 45.69802734 233.25392578 54.85552734 233.21142578 64.29052734 C251.69142578 64.29052734 270.17142578 64.29052734 289.21142578 64.29052734 C289.05330049 46.1308638 289.05330049 46.1308638 288.85107422 27.97167969 C288.83938842 25.68994902 288.82919634 23.40820999 288.82080078 21.12646484 C288.80033691 19.94802002 288.77987305 18.7695752 288.75878906 17.55541992 C288.7560801 11.18800913 288.77633674 7.05299203 293.21142578 2.29052734 C296.90540995 -0.17212877 299.72537395 -0.00517885 304 0 C305.1882991 -0.01007584 305.1882991 -0.01007584 306.40060425 -0.02035522 C309.0225042 -0.03937104 311.64414864 -0.04326126 314.26611328 -0.04541016 C316.08830878 -0.05183582 317.91050323 -0.058564 319.73269653 -0.06558228 C323.5542439 -0.07756415 327.3757008 -0.08126219 331.19726562 -0.08007812 C336.09234588 -0.07987493 340.98684558 -0.10717305 345.88178825 -0.14162254 C349.64619608 -0.16386943 353.41046373 -0.16791634 357.17493057 -0.16685867 C358.9794426 -0.16921812 360.78395829 -0.178061 362.58840561 -0.19352341 C365.11403693 -0.21313816 367.63841057 -0.20736362 370.1640625 -0.1953125 C371.28016907 -0.21217102 371.28016907 -0.21217102 372.41882324 -0.22937012 C375.96551991 -0.18640517 378.04889822 0.18998447 381.08938599 2.07089233 C384.79141398 5.94318114 385.46244973 8.56321 385.43847656 13.88525391 C385.4383255 15.00611389 385.43817444 16.12697388 385.4380188 17.28179932 C385.42769623 18.48608582 385.41737366 19.69037231 385.40673828 20.93115234 C385.40249344 22.78713043 385.40249344 22.78713043 385.39816284 24.68060303 C385.38886779 27.96204276 385.37091284 31.24328488 385.34875488 34.5246582 C385.32825627 37.87628356 385.31932302 41.22791742 385.30908203 44.57958984 C385.28702608 51.14997958 385.2535516 57.7202373 385.21142578 64.29052734 C386.17967285 64.26434326 387.14791992 64.23815918 388.14550781 64.21118164 C391.75708675 64.12029809 395.36856582 64.06314185 398.98095703 64.01586914 C400.54070057 63.99081107 402.10032768 63.95675433 403.65966797 63.91333008 C405.90898421 63.85228542 408.15674138 63.82423309 410.40673828 63.80224609 C411.09760529 63.77643967 411.78847229 63.75063324 412.50027466 63.7240448 C416.34626565 63.72184488 418.69918817 64.31719886 421.63671875 66.69604492 C425.44406704 70.53263608 425.33806866 72.36477653 425.34844017 77.67310715 C425.351092 78.33883649 425.35374382 79.00456583 425.35647601 79.69046879 C425.36419523 81.94313492 425.36472918 84.19574679 425.36532593 86.44842529 C425.36933882 88.07104767 425.37377675 89.69366904 425.37860548 91.31628919 C425.39059608 95.79240617 425.39622517 100.26851235 425.40078664 104.74464226 C425.4067333 109.56549668 425.41834543 114.38633814 425.42907715 119.20718384 C425.45362205 130.85793959 425.46823104 142.50869964 425.48113722 154.1594733 C425.48484752 157.44843345 425.48882088 160.73739316 425.49288988 164.02635288 C425.51812394 184.43675759 425.54018382 204.84716294 425.55261803 225.2575798 C425.55554787 229.98731234 425.55850952 234.71704486 425.56152344 239.44677734 C425.56226949 240.6223747 425.56301554 241.79797205 425.5637842 243.00919357 C425.57644337 262.06191209 425.60967279 281.11453741 425.65132527 300.16721234 C425.69370936 319.71425977 425.71730896 339.26125943 425.72253859 358.80835271 C425.72595664 369.78899338 425.73775814 380.76948839 425.77064133 391.75008392 C425.79859453 401.09991601 425.80966198 410.44957258 425.79844587 419.79944322 C425.79324714 424.57186866 425.79622449 429.34392628 425.82091141 434.11629868 C425.84331556 438.48373872 425.84273332 442.85054483 425.82370754 447.21799532 C425.82089507 448.79946712 425.82657498 450.38098111 425.84152047 451.96238479 C425.86058394 454.11055863 425.84887107 456.25646181 425.82945824 458.40458298 C425.83081477 459.59809899 425.83217129 460.791615 425.83356893 462.02129817 C424.99430365 466.43145768 423.33898795 468.10763549 420.21142578 471.29052734 C417.17799533 472.80724257 414.03213243 472.43292329 410.70439529 472.42754173 C409.91710305 472.43019356 409.1298108 472.43284539 408.31866121 472.43557757 C405.65247216 472.44330182 402.98632892 472.44383093 400.32012939 472.44442749 C398.40052156 472.44844005 396.48091458 472.45287793 394.56130862 472.45770705 C389.26427822 472.46970132 383.96725694 472.47532759 378.67021561 472.4798882 C372.96591846 472.48583345 367.26163229 472.49744592 361.55734253 472.50817871 C347.77086061 472.53272664 333.98437506 472.54733294 320.197878 472.56023878 C316.30634641 472.56394883 312.41481519 472.56792221 308.52328396 472.57199144 C284.376016 472.59722498 260.22874848 472.61930211 236.08147049 472.63171959 C230.48546598 472.63464101 224.88946149 472.63760851 219.29345703 472.640625 C218.25058748 472.64118136 218.25058748 472.64118136 217.18664986 472.64174897 C194.64007321 472.65390717 172.09357459 472.68485512 149.5470346 472.72654652 C125.7193441 472.77052671 101.89170534 472.79625117 78.06397319 472.80164015 C65.07125361 472.805059 52.0786571 472.81687002 39.08597565 472.84974289 C28.0233735 472.877686 16.96091965 472.88876797 5.89828494 472.87754743 C0.25096613 472.87234617 -5.39604184 472.87534273 -11.04331589 472.90001297 C-16.21010658 472.92239645 -21.37636119 472.92185071 -26.54316059 472.9028091 C-28.41534245 472.89999374 -30.28755982 472.90569217 -32.15968427 472.92062204 C-34.69984039 472.93964562 -37.23806862 472.92799663 -39.77817917 472.9085598 C-40.50947037 472.92140902 -41.24076157 472.93425824 -41.9942131 472.94749683 C-47.65080202 472.85202722 -49.95803219 471.15773626 -53.78857422 467.29052734 C-55.20573467 464.45620645 -54.91939271 462.07912281 -54.92558861 458.90794754 C-54.92824043 458.2422182 -54.93089226 457.57648886 -54.93362445 456.8905859 C-54.94134367 454.63791976 -54.94187761 452.3853079 -54.94247437 450.13262939 C-54.94648726 448.51000702 -54.95092519 446.88738565 -54.95575392 445.2647655 C-54.96774451 440.78864852 -54.97337361 436.31254233 -54.97793508 431.83641243 C-54.98388173 427.015558 -54.99549387 422.19471655 -55.00622559 417.37387085 C-55.03077049 405.7231151 -55.04537948 394.07235505 -55.05828565 382.42158139 C-55.06199596 379.13262124 -55.06596932 375.84366152 -55.07003832 372.55470181 C-55.09527237 352.1442971 -55.11733226 331.73389175 -55.12976646 311.32347488 C-55.13269631 306.59374235 -55.13565795 301.86400983 -55.13867188 297.13427734 C-55.13941793 295.95867999 -55.14016398 294.78308263 -55.14093263 293.57186112 C-55.1535918 274.51914259 -55.18682122 255.46651728 -55.22847371 236.41384235 C-55.27085779 216.86679492 -55.29445739 197.31979525 -55.29968703 177.77270198 C-55.30310507 166.7920613 -55.31490658 155.8115663 -55.34778976 144.83097076 C-55.37574297 135.48113868 -55.38681042 126.13148211 -55.3755943 116.78161147 C-55.37039558 112.00918602 -55.37337293 107.23712841 -55.39805984 102.46475601 C-55.420464 98.09731597 -55.41988176 93.73050986 -55.40085597 89.36305937 C-55.3980435 87.78158757 -55.40372342 86.20007358 -55.41866891 84.6186699 C-55.43773238 82.47049606 -55.42601951 80.32459287 -55.40660667 78.17647171 C-55.4079632 76.9829557 -55.40931973 75.78943968 -55.41071737 74.55975652 C-54.57145209 70.149597 -52.91613639 68.47341919 -49.78857422 65.29052734 C-46.77644392 63.7844622 -43.675748 64.16892404 -40.37451172 64.19287109 C-39.28005234 64.19499352 -39.28005234 64.19499352 -38.16348267 64.19715881 C-35.83013837 64.20276204 -33.49688958 64.215315 -31.16357422 64.22802734 C-29.58284644 64.23304193 -28.00211715 64.23760491 -26.42138672 64.24169922 C-22.54374568 64.2527325 -18.66617615 64.26999923 -14.78857422 64.29052734 C-14.79745667 63.60227875 -14.80633911 62.91403015 -14.81549072 62.20492554 C-14.90405717 55.03481357 -14.9643476 47.86485728 -15.00830078 40.69433594 C-15.02614247 38.01889359 -15.05568471 35.34430718 -15.09033203 32.66894531 C-15.13890928 28.82134163 -15.16155787 24.97431947 -15.17919922 21.12646484 C-15.19984436 19.93250092 -15.2204895 18.73853699 -15.24176025 17.50839233 C-15.2434724 11.157282 -15.21157889 7.04001566 -10.78857422 2.29052734 C-7.09459005 -0.17212877 -4.27462605 -0.00517885 0 0 Z M10.21142578 24.29052734 C10.21142578 37.49052734 10.21142578 50.69052734 10.21142578 64.29052734 C25.39142578 64.29052734 40.57142578 64.29052734 56.21142578 64.29052734 C56.21142578 51.09052734 56.21142578 37.89052734 56.21142578 24.29052734 C41.03142578 24.29052734 25.85142578 24.29052734 10.21142578 24.29052734 Z M162.21142578 24.29052734 C162.21142578 37.49052734 162.21142578 50.69052734 162.21142578 64.29052734 C177.39142578 64.29052734 192.57142578 64.29052734 208.21142578 64.29052734 C208.21142578 51.09052734 208.21142578 37.89052734 208.21142578 24.29052734 C193.03142578 24.29052734 177.85142578 24.29052734 162.21142578 24.29052734 Z M314.21142578 24.29052734 C314.21142578 37.49052734 314.21142578 50.69052734 314.21142578 64.29052734 C329.39142578 64.29052734 344.57142578 64.29052734 360.21142578 64.29052734 C360.21142578 51.09052734 360.21142578 37.89052734 360.21142578 24.29052734 C345.03142578 24.29052734 329.85142578 24.29052734 314.21142578 24.29052734 Z M-30.78857422 88.29052734 C-30.78857422 207.09052734 -30.78857422 325.89052734 -30.78857422 448.29052734 C11.45142578 448.29052734 53.69142578 448.29052734 97.21142578 448.29052734 C97.21142578 329.49052734 97.21142578 210.69052734 97.21142578 88.29052734 C54.97142578 88.29052734 12.73142578 88.29052734 -30.78857422 88.29052734 Z M121.21142578 88.29052734 C121.21142578 207.09052734 121.21142578 325.89052734 121.21142578 448.29052734 C163.45142578 448.29052734 205.69142578 448.29052734 249.21142578 448.29052734 C249.21142578 329.49052734 249.21142578 210.69052734 249.21142578 88.29052734 C206.97142578 88.29052734 164.73142578 88.29052734 121.21142578 88.29052734 Z M273.21142578 88.29052734 C273.21142578 207.09052734 273.21142578 325.89052734 273.21142578 448.29052734 C315.45142578 448.29052734 357.69142578 448.29052734 401.21142578 448.29052734 C401.21142578 329.49052734 401.21142578 210.69052734 401.21142578 88.29052734 C358.97142578 88.29052734 316.73142578 88.29052734 273.21142578 88.29052734 Z " fill="#000000" transform="translate(70.78857421875,19.70947265625)"/>
<path d="M0 0 C14.84764692 13.42227281 19.69109667 38.99333627 21.41015625 57.9609375 C21.71707929 69.4105014 18.24873744 78.4492042 10.43359375 86.8828125 C3.03999927 93.71030809 -5.8280495 96.47785381 -15.80859375 96.26953125 C-25.75028518 95.59459073 -34.0248267 91.61781631 -40.8125 84.25 C-48.35263963 74.96709225 -49.90726515 65.91015681 -48.9375 54.125 C-46.44419944 34.87590887 -41.29216448 13.09064919 -26.9375 -0.875 C-17.979994 -7.27321857 -8.90576067 -5.68452809 0 0 Z M-14.9375 25.125 C-22.652092 44.02311352 -22.652092 44.02311352 -23.9375 64.125 C-21.89416465 67.55488433 -19.82718615 69.98097466 -15.9375 71.125 C-11.05904698 70.91740625 -8.46155739 69.44768268 -4.9375 66.125 C-0.78764635 57.82529271 -5.83186305 44.44493402 -8.61767578 36.08349609 C-9.94545832 32.38407683 -11.40232927 28.74271792 -12.9375 25.125 C-13.5975 25.125 -14.2575 25.125 -14.9375 25.125 Z " fill="#000000" transform="translate(269.9375,253.875)"/>
<path d="M0 0 C13.2596009 7.62953226 18.46186073 23.58071158 22.36474609 37.50585938 C22.90539123 39.52094933 23.42702392 41.53958033 23.9375 43.5625 C24.185 44.52671875 24.4325 45.4909375 24.6875 46.484375 C26.84427928 56.36961339 28.23010702 69.55419709 23.19140625 78.6484375 C22.77761719 79.28007812 22.36382812 79.91171875 21.9375 80.5625 C21.51339844 81.25601563 21.08929688 81.94953125 20.65234375 82.6640625 C17.01600592 88.07298841 12.60330595 91.42676946 6.9375 94.5625 C6.03257812 95.07490234 6.03257812 95.07490234 5.109375 95.59765625 C-2.12884379 98.98073677 -11.44647767 98.74221737 -19.04296875 96.80078125 C-29.06472272 92.9649208 -36.94401998 86.69489991 -41.4375 76.8125 C-48.44668865 59.8685483 -40.88825947 36.75292471 -34.23339844 20.54296875 C-30.25090096 11.69297435 -25.07851407 4.48090819 -16.625 -0.4375 C-10.79892955 -2.0728882 -5.65624269 -2.41776648 0 0 Z M-9.0625 27.5625 C-14.46246141 39.44684129 -19.94377199 53.26144136 -19.0625 66.5625 C-17.46295348 69.99856289 -16.17100319 71.6833423 -13.25 74 C-9.844292 74.87575348 -7.44969708 74.45386765 -4.0625 73.5625 C-0.89901599 71.90071811 -0.89901599 71.90071811 0.9375 68.5625 C3.5900424 55.68796495 -2.72852013 39.15422161 -8.0625 27.5625 C-8.3925 27.5625 -8.7225 27.5625 -9.0625 27.5625 Z " fill="#000000" transform="translate(414.0625,250.4375)"/>
<path d="M0 0 C13.94883337 8.07709126 18.95435993 24.10687762 22.99487305 38.84130859 C24.77052696 45.64725171 26.22810201 52.42269992 26.875 59.4375 C26.9575 60.22898437 27.04 61.02046875 27.125 61.8359375 C27.62410288 70.72620749 23.98674803 78.92873367 18.4375 85.7265625 C12.27547041 92.4739849 4.76379364 96.94204861 -4.375 97.7109375 C-15.24565091 98.00535096 -23.9386673 96.13990869 -32.5625 89.125 C-39.22810496 82.75040897 -43.29442704 75.17939038 -43.50537109 65.83178711 C-43.45276612 45.44257711 -37.99131193 19.79494093 -23.6875 4.4375 C-16.90637085 -1.75009487 -8.4921806 -3.81080445 0 0 Z M-9.125 27.4375 C-17.31086394 47.30534119 -17.31086394 47.30534119 -18.125 68.4375 C-15.62923188 72.29459618 -14.03975318 73.15475811 -9.6875 74.5 C-5.24430066 74.42204913 -3.46354529 73.31020176 -0.125 70.4375 C3.11912123 65.43659551 1.74463891 60.05234255 0.875 54.4375 C-1.13547951 45.01213319 -4.141942 36.2034924 -8.125 27.4375 C-8.455 27.4375 -8.785 27.4375 -9.125 27.4375 Z " fill="#000000" transform="translate(115.125,250.5625)"/>
</svg>
