<svg width="239" height="269" viewBox="0 0 239 269" fill="none" xmlns="http://www.w3.org/2000/svg">
<path d="M163.212 201.122C161.716 213.99 153.915 224.409 141.833 229.56C135.063 232.414 126.022 233.978 118.77 233.513C107.613 233.048 97.1542 230.284 87.3922 225.376C84.0152 223.517 78.8112 220.032 74.8412 216.778C73.8622 215.848 73.6982 215.383 74.4082 214.421C74.7202 213.857 75.4172 212.825 76.8462 210.735C79.0252 207.654 79.2582 207.247 79.4902 206.852C80.1872 205.852 81.2492 205.761 82.3592 206.551C82.5112 206.706 82.5112 206.706 82.5952 206.781C82.7432 206.943 82.7432 206.943 83.1412 207.246C83.5522 207.561 83.8502 207.711 83.9232 207.889C94.3842 216.078 106.561 220.727 118.854 221.192C135.917 220.962 148.179 213.29 150.438 201.434C152.764 188.531 142.595 177.267 122.709 170.986C116.444 169.127 100.678 162.83 97.7672 161.078C84.1382 153.095 77.7412 142.617 78.6712 129.623C80.0662 111.665 96.7492 98.299 117.834 98.182C127.193 98.182 136.627 100.133 145.577 103.898C148.805 105.271 154.566 108.392 156.482 109.884C157.632 110.736 157.877 111.665 157.168 112.706C156.932 113.341 156.238 114.287 155.04 116.315C153.293 118.979 153.228 119.09 152.911 119.676C152.289 120.654 151.4 120.732 150.216 120.032C140.65 113.526 129.86 110.27 118.071 110.038C103.428 110.27 92.4182 118.998 91.7092 130.957C91.5632 141.7 99.5862 149.526 116.961 155.419C152.3 166.804 165.78 180.105 163.212 201.122ZM119.636 15.737C142.596 15.737 161.353 37.522 162.282 64.832H77.0452C77.8652 37.522 96.6772 15.737 119.636 15.737ZM238.637 70.006C238.637 67.156 236.431 64.832 233.616 64.832H233.432H178.331C176.937 28.8 151.163 0 119.636 0C88.0902 0 62.3832 28.8 61.0082 64.832H5.67623C2.90123 64.895 0.699231 67.168 0.699231 70.006C0.699231 70.17 0.699231 70.242 0.699231 70.406H0.63623L8.49523 244.204C8.49523 244.674 8.58723 245.148 8.58723 245.713C8.58723 245.823 8.60223 245.857 8.60223 246.064V246.33L8.66023 246.422C9.84323 258.539 18.5972 268.199 30.5612 268.672V268.764H206.07C206.162 268.764 206.216 268.764 206.307 268.764C206.443 268.764 206.443 268.764 206.543 268.764H206.907V268.672C219.041 268.377 228.976 258.539 229.923 246.289L229.976 246.064C229.976 245.949 229.976 245.824 229.976 245.713C229.976 245.359 230.068 245.134 230.068 244.766L238.637 70.242C238.637 70.178 238.637 70.079 238.637 70.006Z" fill="white"/>
</svg>
