<?xml version="1.0" encoding="UTF-8"?>
<svg version="1.1" xmlns="http://www.w3.org/2000/svg" width="512" height="512">
<path d="M0 0 C1.66748291 0.00140488 1.66748291 0.00140488 3.36865234 0.00283813 C63.43311659 0.11250397 126.32339398 9.4240632 179.84570312 38.19873047 C181.09233497 38.86798537 182.34383481 39.52823766 183.59960938 40.18017578 C192.11965537 44.60470318 200.00193475 49.63944728 207.75 55.3125 C208.53544189 55.88629395 209.32088379 56.46008789 210.13012695 57.05126953 C215.06547067 60.74524668 219.43844071 64.72758514 223.6875 69.1875 C224.925 70.425 224.925 70.425 226.1875 71.6875 C227.425 72.925 227.425 72.925 228.6875 74.1875 C229.22117187 74.68636719 229.75484375 75.18523437 230.3046875 75.69921875 C235.21838446 80.38360985 239.00184766 85.49895418 242.6875 91.1875 C243.57115234 92.51201172 243.57115234 92.51201172 244.47265625 93.86328125 C252.21181083 106.16088292 256.83792242 120.44202771 256.83467102 134.96395874 C256.83834771 135.84786179 256.8420244 136.73176484 256.8458125 137.64245284 C256.85682611 140.60457733 256.8606893 143.56666671 256.86450195 146.52880859 C256.87076854 148.6529654 256.87741552 150.77712112 256.88441467 152.90127563 C256.90544083 159.87948852 256.91581832 166.85770157 256.92578125 173.8359375 C256.92982987 176.24178707 256.93394683 178.64763653 256.93813133 181.05348587 C256.95718281 192.36172759 256.97141181 203.6699628 256.9797433 214.97821748 C256.98950448 228.01049094 257.01579506 241.04259405 257.05624419 254.07480752 C257.08646638 264.15998645 257.10121812 274.24511672 257.10452431 284.33034003 C257.10686855 290.34752504 257.11574697 296.36452805 257.14098549 302.38166428 C257.16437687 308.05014335 257.16845505 313.71832205 257.15822411 319.38683701 C257.15773126 321.45752465 257.16397681 323.52822763 257.17778015 325.59886932 C257.27172462 340.53801498 256.12425335 354.02056444 248.875 367.4375 C248.52663086 368.10241455 248.17826172 368.7673291 247.81933594 369.45239258 C246.79696028 371.37690544 245.74879065 373.2842279 244.6875 375.1875 C244.14222656 376.17621094 243.59695313 377.16492188 243.03515625 378.18359375 C238.31834744 386.12951373 232.17077484 392.66969644 225.6875 399.1875 C224.97400391 399.90703857 224.97400391 399.90703857 224.24609375 400.64111328 C212.39398431 412.42306748 198.53545759 421.52955916 183.8828125 429.4453125 C180.66459523 431.1387012 180.66459523 431.1387012 177.6875 433.1875 C178.70070313 434.04021484 178.70070313 434.04021484 179.734375 434.91015625 C184.84344994 439.33260696 188.80709619 443.05098753 191.6875 449.1875 C192.0175 449.8475 192.3475 450.5075 192.6875 451.1875 C193.74282813 462.23829318 193.74282813 462.23829318 191.640625 466.12109375 C187.35455197 470.36934849 183.50984085 470.33256888 177.81484985 470.32121277 C176.58010266 470.3246111 176.58010266 470.3246111 175.32041109 470.32807809 C172.54513633 470.3344384 169.76991017 470.33358735 166.99462891 470.33276367 C165.01023292 470.33575446 163.02583751 470.3391568 161.04144287 470.34294128 C155.63075981 470.35180752 150.22009256 470.35412088 144.80940294 470.35475707 C141.41911054 470.35546769 138.02882214 470.35760255 134.63853073 470.36025429 C122.77968847 470.36952609 110.92085748 470.3735881 99.06201172 470.37280273 C88.06644165 470.37220591 77.07092128 470.38267467 66.07536376 470.3985464 C56.60404885 470.41172261 47.13274993 470.41698224 37.66142595 470.41634732 C32.01998999 470.41609468 26.37859789 470.41881305 20.73717117 470.42952538 C-8.30609105 470.48083092 -37.0865856 470.26930579 -65.875 465.9375 C-66.59921143 465.83112213 -67.32342285 465.72474426 -68.06958008 465.61514282 C-121.00745639 457.79738259 -176.39792239 441.12766088 -217.3125 405.1875 C-218.77042969 403.94613281 -218.77042969 403.94613281 -220.2578125 402.6796875 C-237.50575376 387.71875079 -251.65553632 367.10304208 -255.3125 344.1875 C-255.41147711 341.25410358 -255.46032778 338.34435619 -255.45967102 335.41104126 C-255.46334771 334.52713821 -255.4670244 333.64323516 -255.4708125 332.73254716 C-255.48182611 329.77042267 -255.4856893 326.80833329 -255.48950195 323.84619141 C-255.49576854 321.7220346 -255.50241552 319.59787888 -255.50941467 317.47372437 C-255.53044083 310.49551148 -255.54081832 303.51729843 -255.55078125 296.5390625 C-255.55482987 294.13321293 -255.55894683 291.72736347 -255.56313133 289.32151413 C-255.58218281 278.01327241 -255.59641181 266.7050372 -255.6047433 255.39678252 C-255.61450448 242.36450906 -255.64079506 229.33240595 -255.68124419 216.30019248 C-255.71146638 206.21501355 -255.72621812 196.12988328 -255.72952431 186.04465997 C-255.73186855 180.02747496 -255.74074697 174.01047195 -255.76598549 167.99333572 C-255.78937687 162.32485665 -255.79345505 156.65667795 -255.78322411 150.98816299 C-255.78273126 148.91747535 -255.78897681 146.84677237 -255.80278015 144.77613068 C-255.96719281 118.6310621 -248.23975428 98.33899318 -231.3125 78.1875 C-230.7246875 77.4759375 -230.136875 76.764375 -229.53125 76.03125 C-216.26217903 60.34962067 -198.23910083 48.81288438 -180.3125 39.1875 C-179.62833008 38.81786133 -178.94416016 38.44822266 -178.23925781 38.06738281 C-136.47168081 15.73233055 -87.36399655 4.53445725 -40.3125 1.1875 C-39.25200439 1.10282471 -38.19150879 1.01814941 -37.09887695 0.9309082 C-24.73743495 0.0333014 -12.38974849 -0.01348215 0 0 Z M-109.3125 36.1875 C-110.24545898 36.43081055 -111.17841797 36.67412109 -112.13964844 36.92480469 C-132.30675976 42.29008871 -151.97101092 50.24472204 -170.3125 60.1875 C-170.90530762 60.50396484 -171.49811523 60.82042969 -172.10888672 61.14648438 C-186.74264356 69.00321416 -199.52133052 78.50405027 -211.3125 90.1875 C-212.06273437 90.92484375 -212.81296875 91.6621875 -213.5859375 92.421875 C-226.90463031 106.42492751 -233.85223492 123.7965734 -233.51953125 143.05859375 C-232.77131625 163.1043293 -219.93020017 180.38783084 -205.98046875 193.796875 C-160.07909091 234.92666012 -93.13925517 250.58332115 -33.3125 255.1875 C-32.05953125 255.29835938 -30.8065625 255.40921875 -29.515625 255.5234375 C47.19938026 261.3162032 141.65450534 249.46867203 202.23876953 197.86621094 C217.94247892 184.18925699 231.29362562 168.39921489 234.6875 147.1875 C235.9293713 125.38310582 228.70433199 108.54750721 214.6875 92.1875 C171.99518832 44.57448357 96.62195447 27.99205802 35.6875 23.1875 C34.38296875 23.07664062 33.0784375 22.96578125 31.734375 22.8515625 C-15.56655902 19.29643138 -63.50703839 24.13489447 -109.3125 36.1875 Z M-233.3125 198.1875 C-233.38274152 216.36434472 -233.4355621 234.54115397 -233.46793652 252.71810532 C-233.48337151 261.15895896 -233.50439622 269.59972801 -233.53881836 278.04052734 C-233.56882428 285.4019493 -233.58809945 292.76330996 -233.59476548 300.12479138 C-233.59865889 304.0186429 -233.60773771 307.91231914 -233.62969017 311.8061142 C-233.65023274 315.48000873 -233.65629842 319.15365777 -233.65182304 322.82760429 C-233.6530266 324.80057299 -233.66907488 326.77351568 -233.6857605 328.74641418 C-233.6109801 350.55845889 -223.75767274 367.80538433 -208.75 383.1875 C-171.71548239 419.68752329 -116.17773265 435.26221067 -66.3125 443.1875 C-65.35923828 443.34057617 -64.40597656 443.49365234 -63.42382812 443.65136719 C-33.7212428 448.28913928 -3.72279867 448.48638161 26.26005173 448.39028788 C30.93906778 448.37752216 35.61808836 448.3765902 40.29711914 448.37423706 C49.10048754 448.36809632 57.90380443 448.35178932 66.70715046 448.33153808 C76.75364331 448.30894399 86.80013902 448.29812744 96.84665108 448.28814721 C117.46029579 448.26741364 138.07389461 448.23238695 158.6875 448.1875 C158.27032715 447.57044189 157.8531543 446.95338379 157.42333984 446.31762695 C156.87887207 445.50769287 156.3344043 444.69775879 155.7734375 443.86328125 C155.23251465 443.06059814 154.6915918 442.25791504 154.13427734 441.4309082 C149.77875164 434.67712392 149.64850765 426.68471408 151.1171875 418.9140625 C153.84531293 410.39288061 160.71810859 404.80896566 167.8671875 399.92578125 C169.83973997 398.26855031 169.83973997 398.26855031 170.734375 395.76171875 C170.95427769 393.01999479 170.95427769 393.01999479 168.7734375 390.90625 C167.87882812 390.1740625 166.98421875 389.441875 166.0625 388.6875 C165.13953125 387.90632812 164.2165625 387.12515625 163.265625 386.3203125 C162.41484375 385.61648438 161.5640625 384.91265625 160.6875 384.1875 C155.48463174 379.43705507 151.0459613 373.84060336 150.484375 366.55078125 C150.33088925 356.56141717 151.83955295 350.54423717 158.640625 343.1328125 C161.49858118 340.4166633 164.61468173 338.14740807 167.8671875 335.92578125 C169.84706146 334.26948385 169.84706146 334.26948385 170.703125 331.734375 C170.95156349 329.06814006 170.95156349 329.06814006 168.9921875 327.08984375 C168.19039063 326.44144531 167.38859375 325.79304688 166.5625 325.125 C165.72976563 324.43277344 164.89703125 323.74054688 164.0390625 323.02734375 C162.36276962 321.71582557 160.65880461 320.4393579 158.9375 319.1875 C153.90176666 314.71129258 150.98168049 309.14762204 150.484375 302.453125 C150.35402327 294.06716401 151.33211079 288.26354053 156.30078125 281.45703125 C156.97234253 280.53241089 156.97234253 280.53241089 157.6574707 279.58911133 C157.99738037 279.12657959 158.33729004 278.66404785 158.6875 278.1875 C157.30875041 278.18253478 157.30875041 278.18253478 155.90214729 278.17746925 C133.41934826 278.09584667 110.93661374 278.00363018 88.45390511 277.89997292 C77.58093766 277.85009178 66.70797685 277.80364859 55.83496094 277.765625 C46.34554546 277.73243086 36.85618547 277.69245409 27.36683166 277.64470994 C22.35366927 277.6197139 17.34054239 277.59785736 12.32733536 277.58415604 C-14.45970433 277.50807141 -40.94692835 276.91604477 -67.5 273 C-68.58164932 272.84334869 -68.58164932 272.84334869 -69.68515015 272.68353271 C-93.06604136 269.2651605 -115.99807106 264.03125376 -138.3125 256.1875 C-139.55628418 255.754375 -139.55628418 255.754375 -140.82519531 255.3125 C-173.81032667 243.74511147 -208.23641776 227.05685825 -231 199.65625 C-231.433125 199.1715625 -231.86625 198.686875 -232.3125 198.1875 C-232.6425 198.1875 -232.9725 198.1875 -233.3125 198.1875 Z M233.6875 198.1875 C231.80184385 200.26125153 229.9982678 202.3991717 228.18359375 204.53515625 C205.98511299 228.12321327 173.37682532 245.74463067 142.6875 255.1875 C142.6875 255.5175 142.6875 255.8475 142.6875 256.1875 C143.96391357 256.20208252 145.24032715 256.21666504 146.55541992 256.23168945 C151.29870379 256.2897354 156.04151607 256.36696828 160.78442383 256.44995117 C162.83577816 256.48317083 164.88722325 256.51121197 166.9387207 256.53393555 C169.89052949 256.5675357 172.84150886 256.61985476 175.79296875 256.67578125 C176.70773483 256.68217117 177.62250092 256.6885611 178.56498718 256.69514465 C183.38633641 256.80604869 186.8007165 257.0026121 190.6875 260.1875 C193.18044768 265.17339537 192.49045929 272.52052809 190.921875 277.73046875 C187.64433686 284.25092315 182.16701266 288.54338845 176.6875 293.1875 C174.97666899 294.81849223 173.3313858 296.488818 171.6875 298.1875 C173.04477495 302.54586067 174.78095937 304.3921173 178.4375 307.0625 C184.31693738 311.57403359 189.41672478 315.9474947 191.6875 323.1875 C192.49032122 331.13120473 192.99457277 339.35299413 188.37890625 346.23046875 C184.32886503 350.91654415 179.62721915 354.73271064 174.6875 358.4375 C172.62889121 360.05035434 172.62889121 360.05035434 171.5625 362.125 C171.76807631 365.51700912 174.28402463 366.92618342 176.6875 369.1875 C178.53769239 370.79624884 180.39193094 372.40035501 182.25 374 C189.14892069 380.27681075 191.92013943 385.22664867 192.609375 394.5 C192.63515625 395.056875 192.6609375 395.61375 192.6875 396.1875 C210.10735962 388.2332262 224.92942966 368.69704588 231.6875 351.1875 C234.47174784 342.33681249 235.10620291 334.11950161 235.02807617 324.88183594 C235.02722768 323.49092121 235.02770936 322.10000514 235.02940369 320.70909119 C235.03025642 316.97219667 235.01274932 313.23559728 234.99168181 309.49877071 C234.9727931 305.57905046 234.97115505 301.65932174 234.96760559 297.73956299 C234.95832065 290.33441936 234.93375555 282.92941028 234.90355712 275.52432561 C234.86990182 267.0865002 234.85349926 258.648668 234.83847082 250.21079206 C234.80720236 232.86961718 234.75451181 215.52857287 234.6875 198.1875 C234.3575 198.1875 234.0275 198.1875 233.6875 198.1875 Z " fill="#000000" transform="translate(255.3125,20.8125)"/>
<path d="M0 0 C7.00592412 6.43368626 13.26563944 14.536491 14.04296875 24.3359375 C14.27150238 35.29352377 12.75440657 42.25402577 5.4921875 50.58203125 C3.95082499 52.18594905 2.38980533 53.77134161 0.8046875 55.33203125 C0.2375 55.89792969 -0.3296875 56.46382813 -0.9140625 57.046875 C-27.1498491 81.28925625 -71.53045017 83.6121075 -105.1953125 82.33203125 C-132.78139155 80.88726115 -164.91548911 75.3113332 -186.1953125 56.33203125 C-186.90429688 55.71585937 -187.61328125 55.0996875 -188.34375 54.46484375 C-194.59201313 48.6811355 -199.74347286 41.02817363 -200.43359375 32.328125 C-200.66212738 21.37053873 -199.14503157 14.41003673 -191.8828125 6.08203125 C-190.34144999 4.47811345 -188.78043033 2.89272089 -187.1953125 1.33203125 C-186.628125 0.76613281 -186.0609375 0.20023438 -185.4765625 -0.3828125 C-143.78389019 -38.90765922 -42.09336849 -36.31764494 0 0 Z M-173.11328125 19.125 C-175.5964741 21.7969391 -177.05483865 23.94963022 -178.3203125 27.39453125 C-178.08701432 32.87703859 -174.59750001 36.13043446 -170.8203125 39.76953125 C-146.30020287 60.26327602 -105.7958429 62.19515758 -75.55566406 59.57080078 C-52.94392771 57.28343233 -27.28693649 52.67568227 -11.1953125 35.26953125 C-8.98384401 32.0214369 -8.11341894 30.26292215 -8.1953125 26.33203125 C-13.81941488 14.8393003 -26.88341555 8.70397515 -38.37841797 4.54150391 C-77.32779542 -8.29675329 -140.87870219 -11.0087511 -173.11328125 19.125 Z " fill="#000000" transform="translate(349.1953125,131.66796875)"/>
</svg>
