<?xml version="1.0" encoding="UTF-8"?>
<svg version="1.1" xmlns="http://www.w3.org/2000/svg" width="512" height="512">
<path d="M0 0 C1.80203894 -0.00131497 3.60407732 -0.00395066 5.40611267 -0.00778198 C10.33219434 -0.014469 15.25807812 -0.0025283 20.18413469 0.01254536 C25.58753106 0.02570007 30.99091915 0.02125793 36.39432716 0.01909161 C46.87040553 0.01750034 57.34640638 0.03131604 67.82246486 0.05059559 C79.94696858 0.07223864 92.07142609 0.0745822 104.19595337 0.07695007 C136.18969933 0.09268596 168.18342811 0.13456947 200.17715454 0.17326355 C271.66340454 0.23513855 343.14965454 0.29701355 416.80215454 0.36076355 C416.80215454 154.47076355 416.80215454 308.58076355 416.80215454 467.36076355 C245.73965454 467.23576355 245.73965454 467.23576355 191.6690979 467.11808777 C175.71438387 467.13123279 175.71438387 467.13123279 159.75968933 467.15766907 C152.63723517 467.16911328 145.51547906 467.15321065 138.39311218 467.11885071 C130.18195197 467.07933195 121.97164034 467.07429564 113.7604585 467.11213274 C109.55832607 467.13040507 105.35782039 467.13300956 101.15581882 467.09129691 C97.35584367 467.05387106 93.55885932 467.06241272 89.75899506 467.10769844 C87.7340021 467.11984391 85.70889909 467.08267016 83.6842432 467.04377937 C76.95119011 467.08204994 76.95119011 467.08204994 71.47824776 470.56717134 C69.69831177 473.09351298 68.23710665 475.62810673 66.80215454 478.36076355 C55.50835459 492.25939381 41.82881197 502.46853358 24.80215454 508.36076355 C23.69356079 508.75392761 22.58496704 509.14709167 21.44277954 509.5521698 C-1.67264548 516.55019404 -26.98104344 513.47582595 -48.26034546 502.5521698 C-69.02009592 491.31730484 -85.02888152 471.85509078 -92.19784546 449.36076355 C-94.81073194 439.57975861 -95.63275113 430.28766054 -95.58552551 420.20053101 C-95.58970917 418.72388138 -95.5951923 417.24723498 -95.60184532 415.77059442 C-95.61618354 411.75321692 -95.61209202 407.7360466 -95.60467851 403.71865833 C-95.59992004 399.37018958 -95.61248026 395.02176394 -95.62269592 390.67330933 C-95.63983737 382.16975156 -95.64073359 373.66626783 -95.63548302 365.16269728 C-95.63143119 358.24621678 -95.63289687 351.32975805 -95.63823128 344.41327858 C-95.6389797 343.4265044 -95.63972812 342.43973023 -95.64049922 341.4230538 C-95.6420308 339.41800671 -95.64356915 337.41295962 -95.64511419 335.40791253 C-95.65882253 316.63108997 -95.65341339 297.85430916 -95.64192898 279.07748757 C-95.63199958 261.92765948 -95.64493518 244.77793933 -95.66886317 227.6281279 C-95.69328984 209.98696779 -95.7028532 192.34585788 -95.69621044 174.70468122 C-95.69272599 164.81322262 -95.69489896 154.92184697 -95.71246147 145.03040123 C-95.72722819 136.60965847 -95.7277608 128.18905707 -95.71039056 119.76831695 C-95.70191462 115.47853562 -95.69964685 111.18900635 -95.71504211 106.89923859 C-95.84452266 68.06886404 -95.84452266 68.06886404 -87.51034546 51.54826355 C-87.16713257 50.84870544 -86.82391968 50.14914734 -86.4703064 49.4283905 C-75.60967777 28.02843911 -56.86984023 12.43287462 -34.54228747 4.11182624 C-22.97594789 0.40644727 -12.00730586 -0.06544111 0 0 Z M-28.19784546 35.36076355 C-29.59003296 35.96211121 -29.59003296 35.96211121 -31.01034546 36.5756073 C-46.77890167 44.30309578 -56.31290977 57.32665072 -62.25253296 73.5131073 C-66.97181759 87.72946473 -65.09945414 104.29062689 -58.61972046 117.60295105 C-49.80197732 133.53049609 -37.01650425 143.03730754 -19.93612671 149.17326355 C-4.42894514 153.42666192 11.60072681 149.6383317 25.46621704 142.38420105 C30.54670053 139.30259631 34.67560657 135.60980645 38.80215454 131.36076355 C39.36289673 130.82064636 39.92363892 130.28052917 40.50137329 129.7240448 C50.91905877 118.86887122 55.34456911 102.95537652 55.14956665 88.2853241 C54.61793246 73.58379652 48.39254189 59.05467038 38.11465454 48.41545105 C23.05459803 35.03438733 7.13762843 30.4445112 -12.74813843 31.18156433 C-18.27315613 31.58572648 -23.14682031 33.17152846 -28.19784546 35.36076355 Z M64.80215454 31.36076355 C67.37024659 35.85492463 69.94297287 40.15506045 72.73965454 44.48576355 C82.45675152 60.06650925 85.28378092 76.6500686 85.16291809 94.71768188 C85.16423009 96.20318312 85.16686374 97.68868367 85.17068559 99.17418057 C85.17732509 103.21074355 85.16548934 107.24706317 85.15035141 111.2835952 C85.13729972 115.65351485 85.14178691 120.02342265 85.14405823 124.39335632 C85.14562523 131.94948979 85.13627623 139.50554506 85.11934471 147.06165886 C85.09488116 157.98628834 85.08714194 168.91088032 85.08338074 179.83553422 C85.07682775 197.56344781 85.05689798 215.29131979 85.0284729 233.01921082 C85.00090242 250.23209937 84.97971792 267.44497653 84.96694946 284.65788269 C84.96614547 285.73111131 84.96534148 286.80433993 84.96451312 287.91009063 C84.95827423 296.30443315 84.95240368 304.69877592 84.94664943 313.09311879 C84.91838897 354.1823719 84.85802449 395.27152078 84.80215454 436.36076355 C184.13215454 436.36076355 283.46215454 436.36076355 385.80215454 436.36076355 C385.80215454 302.71076355 385.80215454 169.06076355 385.80215454 31.36076355 C279.87215454 31.36076355 173.94215454 31.36076355 64.80215454 31.36076355 Z M49.92715454 162.79826355 C31.04645442 177.94047747 7.42833304 182.30974553 -16.19784546 180.36076355 C-31.48388769 178.48255511 -45.09381857 172.98771954 -57.67440796 164.09513855 C-59.81378998 162.62472738 -61.87118606 161.4867853 -64.19784546 160.36076355 C-64.26655832 194.69730969 -64.31939796 229.03384009 -64.35104145 263.37044017 C-64.35479343 267.4270292 -64.35867641 271.48361809 -64.36264038 275.54020691 C-64.36342731 276.3477781 -64.36421424 277.15534929 -64.36502502 277.98739233 C-64.37806796 291.05206543 -64.40171566 304.1166988 -64.42930385 317.18134836 C-64.45738901 330.59351618 -64.47402829 344.00566324 -64.48011094 357.41785926 C-64.48422094 365.68947076 -64.49718757 373.96096996 -64.52159486 382.23254689 C-64.53749048 387.90979759 -64.54223718 393.5869905 -64.53834959 399.26426182 C-64.53643397 402.53651752 -64.54096281 405.80853698 -64.55546188 409.08076668 C-64.57044505 412.63725113 -64.56677741 416.19325979 -64.55860901 419.74975586 C-64.56734753 420.77216159 -64.57608606 421.79456732 -64.58508939 422.84795505 C-64.48349761 439.27609523 -57.63345722 454.22596963 -46.08065796 465.73576355 C-32.09575751 478.46998185 -16.01054325 482.20757652 2.29336548 481.53556824 C16.03273648 480.57825122 29.44449327 473.34487913 38.80215454 463.36076355 C50.03553379 450.07718581 55.14004685 436.17838523 55.04266357 418.99026489 C55.04437242 417.87593238 55.04608127 416.76159987 55.04784191 415.6134997 C55.05112439 411.89629408 55.04015343 408.17927077 55.02920532 404.46208191 C55.02864094 401.79083349 55.02887033 399.11959608 55.03009033 396.448349 C55.03113642 390.70591295 55.02488875 384.96352252 55.01361465 379.22109795 C54.99732509 370.918636 54.99214812 362.61619601 54.98963867 354.31371982 C54.98526698 340.84183974 54.97197218 327.36998396 54.95303345 313.89811707 C54.93466102 300.81543601 54.92051119 287.73276156 54.91201782 274.65007019 C54.91149238 273.8429589 54.91096693 273.03584761 54.91042556 272.2042784 C54.90781539 268.15503084 54.90528799 264.10578324 54.90280175 260.0565356 C54.88208564 226.49126064 54.84687446 192.92601508 54.80215454 159.36076355 C52.8962402 159.36076355 51.2640386 161.61172112 49.92715454 162.79826355 Z " fill="#000000" transform="translate(95.19784545898438,-0.3607635498046875)"/>
<path d="M0 0 C10.54082769 7.64343323 15.97387677 17.44861412 18.58984375 30.08984375 C19 33 19 33 19 38 C8.77 38 -1.46 38 -12 38 C-13.32 35.03 -14.64 32.06 -16 29 C-20.19965442 25.00032913 -23.04810307 23.64047046 -28.90234375 23.71484375 C-33.15912745 24.29351267 -35.92409034 26.88699001 -38.8125 29.875 C-40.42785104 32.48478939 -40.42785104 32.48478939 -41 38 C-51.56 38 -62.12 38 -73 38 C-70.99116335 22.93372515 -68.29913828 12.09710229 -57 2 C-39.70413359 -10.55878198 -17.93692564 -12.04201335 0 0 Z " fill="#000000" transform="translate(298,83)"/>
<path d="M0 0 C9.27602788 6.61090046 15.25149795 16.0059918 18 27 C18.495 32.445 18.495 32.445 19 38 C8.77 38 -1.46 38 -12 38 C-13.32 35.03 -14.64 32.06 -16 29 C-20.1973755 25.00249953 -23.04896787 23.63376451 -28.90234375 23.71875 C-32.36571944 24.18311322 -34.39475173 25.75827474 -37 28 C-39.622632 31.52698786 -40.10460117 33.52300583 -41 38 C-51.56 38 -62.12 38 -73 38 C-70.93907409 22.54305564 -67.97614716 10.68731593 -55.53125 1.09765625 C-38.12315165 -10.73284737 -17.69989972 -11.73580308 0 0 Z " fill="#000000" transform="translate(298,354)"/>
<path d="M0 0 C9.238909 7.55272029 15.79211423 16.68804918 18.0546875 28.6796875 C18.0546875 31.6496875 18.0546875 34.6196875 18.0546875 37.6796875 C7.8246875 37.6796875 -2.4053125 37.6796875 -12.9453125 37.6796875 C-13.9353125 34.7096875 -14.9253125 31.7396875 -15.9453125 28.6796875 C-19.46734148 25.15765852 -22.22612542 23.84499395 -27.1953125 23.3671875 C-31.65608159 23.73891826 -34.52789572 24.7934754 -37.9453125 27.6796875 C-40.06482733 31.07091122 -40.97238255 33.78796772 -41.9453125 37.6796875 C-52.1753125 37.6796875 -62.4053125 37.6796875 -72.9453125 37.6796875 C-72.9453125 24.24824884 -69.0741191 14.20601119 -59.84375 4.4609375 C-43.58187594 -10.93899977 -18.42809867 -13.56794078 0 0 Z " fill="#000000" transform="translate(418.9453125,83.3203125)"/>
<path d="M0 0 C9.07416925 7.86220829 15.16804409 17.06576556 17.28125 28.9765625 C17.28125 31.6165625 17.28125 34.2565625 17.28125 36.9765625 C7.05125 36.9765625 -3.17875 36.9765625 -13.71875 36.9765625 C-14.70875 34.3365625 -15.69875 31.6965625 -16.71875 28.9765625 C-20.26674316 24.80767054 -22.47913783 23.19190982 -27.96875 22.6640625 C-32.42951909 23.03579326 -35.30133322 24.0903504 -38.71875 26.9765625 C-40.83826483 30.36778622 -41.74582005 33.08484272 -42.71875 36.9765625 C-52.94875 36.9765625 -63.17875 36.9765625 -73.71875 36.9765625 C-73.71875 23.54512384 -69.8475566 13.50288619 -60.6171875 3.7578125 C-43.94353025 -12.032082 -18.53693581 -14.14344128 0 0 Z " fill="#000000" transform="translate(419.71875,355.0234375)"/>
<path d="M0 0 C7.10513118 6.92427329 12.79003055 16.11749251 14.1484375 26.09375 C14.1484375 28.73375 14.1484375 31.37375 14.1484375 34.09375 C3.9184375 34.09375 -6.3115625 34.09375 -16.8515625 34.09375 C-17.8415625 31.45375 -18.8315625 28.81375 -19.8515625 26.09375 C-22.90854073 22.82834144 -24.99659582 21.34246758 -29.2890625 20.09375 C-33.61461563 20.09375 -36.09413164 20.96690234 -39.8515625 23.09375 C-43.48669826 26.72888576 -44.13933806 28.95707669 -45.8515625 34.09375 C-56.0815625 34.09375 -66.3115625 34.09375 -76.8515625 34.09375 C-76.8515625 21.90962487 -73.1266197 11.07989718 -64.88671875 1.90625 C-46.66131572 -15.4952198 -19.1790877 -16.63428966 0 0 Z " fill="#000000" transform="translate(422.8515625,221.90625)"/>
<path d="M0 0 C0.61617188 0.47824219 1.23234375 0.95648438 1.8671875 1.44921875 C9.78778504 8.43694591 14.53028726 19.71201082 16 30 C16 31.65 16 33.3 16 35 C5.77 35 -4.46 35 -15 35 C-16.65 31.7 -18.3 28.4 -20 25 C-23.38300559 22.1374568 -26.58132558 21.17328135 -31 21 C-35.62637167 21.92169494 -38.35992079 23.24503478 -41.4375 26.875 C-43.26585821 30.18911564 -43.26585821 30.18911564 -44 35 C-54.56 35 -65.12 35 -76 35 C-73.97657881 20.83605166 -71.4013877 9.79102437 -60.64453125 -0.03125 C-41.8837924 -13.99788572 -18.65555274 -14.57686726 0 0 Z " fill="#000000" transform="translate(301,221)"/>
<path d="M0 0 C10.23 0 20.46 0 31 0 C31 10.23 31 20.46 31 31 C20.77 31 10.54 31 0 31 C0 20.77 0 10.54 0 0 Z " fill="#000000" transform="translate(421,286)"/>
<path d="M0 0 C10.23 0 20.46 0 31 0 C31 10.23 31 20.46 31 31 C20.77 31 10.54 31 0 31 C0 20.77 0 10.54 0 0 Z " fill="#000000" transform="translate(361,286)"/>
<path d="M0 0 C10.23 0 20.46 0 31 0 C31 10.23 31 20.46 31 31 C20.77 31 10.54 31 0 31 C0 20.77 0 10.54 0 0 Z " fill="#000000" transform="translate(271,286)"/>
<path d="M0 0 C10.23 0 20.46 0 31 0 C31 10.23 31 20.46 31 31 C20.77 31 10.54 31 0 31 C0 20.77 0 10.54 0 0 Z " fill="#000000" transform="translate(210,286)"/>
<path d="M0 0 C10.23 0 20.46 0 31 0 C31 10.23 31 20.46 31 31 C20.77 31 10.54 31 0 31 C0 20.77 0 10.54 0 0 Z " fill="#000000" transform="translate(421,150)"/>
<path d="M0 0 C10.23 0 20.46 0 31 0 C31 10.23 31 20.46 31 31 C20.77 31 10.54 31 0 31 C0 20.77 0 10.54 0 0 Z " fill="#000000" transform="translate(361,150)"/>
<path d="M0 0 C10.23 0 20.46 0 31 0 C31 10.23 31 20.46 31 31 C20.77 31 10.54 31 0 31 C0 20.77 0 10.54 0 0 Z " fill="#000000" transform="translate(271,150)"/>
<path d="M0 0 C10.23 0 20.46 0 31 0 C31 10.23 31 20.46 31 31 C20.77 31 10.54 31 0 31 C0 20.77 0 10.54 0 0 Z " fill="#000000" transform="translate(210,150)"/>
<path d="M0 0 C10.23 0 20.46 0 31 0 C31 10.23 31 20.46 31 31 C20.77 31 10.54 31 0 31 C0 20.77 0 10.54 0 0 Z " fill="#000000" transform="translate(75,75)"/>
</svg>
